<?xml version="1.0" standalone="no"?>
 <!DOCTYPE svg PUBLIC "-//W3C//DTD SVG 1.1//EN" 
 "http://www.w3.org/Graphics/SVG/1.1/DTD/svg11.dtd"> 
<svg
  xmlns:svg="http://www.w3.org/2000/svg"
  xmlns="http://www.w3.org/2000/svg"
  xmlns:xlink="http://www.w3.org/1999/xlink"
  version="1.1"
  width="116.8400mm" height="93.9800mm" viewBox="0.0000 0.0000 116.8400 93.9800">
<title>SVG Image created as K02-Edge_Cuts.svg date 2024/11/22 09:41:12 </title>
  <desc>Image generated by PCBNEW </desc>
<g style="fill:#000000; fill-opacity:1.0000;stroke:#000000; stroke-opacity:1.0000;
stroke-linecap:round; stroke-linejoin:round;"
 transform="translate(0 0) scale(1 1)">
</g>
<g style="fill:none; 
stroke:#000000; stroke-width:0.0500; stroke-opacity:1; 
stroke-linecap:round; stroke-linejoin:round;">
<path d="M112.3950 30.1220 A0.7500 0.7500 0.0 0 0 111.6450 29.3720" />
<path d="M3.0071 23.4971
L2.9997 71.2929
" />
<path d="M92.5826 27.6401 A1.7093 1.7093 0.0 0 0 94.3216 29.3749" />
<path d="M2.9997 71.2929 A1.9834 1.9834 0.0 0 0 5.0374 73.1290" />
<path d="M112.3950 30.1220
L112.3950 47.2440
" />
<path d="M92.5826 27.6401
L92.5826 12.5410
" />
<path d="M94.3216 29.3749
L111.6450 29.3720
" />
<path d="M110.6483 68.0720
L97.7841 89.8615
" />
<path d="M110.6483 68.0720 A16.7744 16.7744 0.0 0 0 112.3950 60.7478" />
<path d="M112.3950 47.2440
L112.4070 54.6100
" />
<path d="M112.4070 54.6100
L112.3950 60.7478
" />
<path d="M74.4300 10.6053 A0.9400 0.9400 0.0 0 0 75.3700 11.5453" />
<path d="M38.6200 60.1600
L38.6200 55.1500
" />
<path d="M21.1701 21.6572
L21.1759 11.4159
" />
<path d="M38.0552 10.4500 A0.9402 0.9402 0.0 0 0 38.9954 9.5098" />
<path d="M4.0071 22.4971 A1.0000 1.0000 0.0 0 0 3.0071 23.4971" />
<path d="M69.0952 62.4876 A2.1369 2.1369 0.0 0 0 67.0800 59.6400" />
<path d="M22.1459 10.4459 A0.9700 0.9700 0.0 0 0 21.1759 11.4159" />
<path d="M20.3450 22.4954 A0.8383 0.8383 0.0 0 0 21.1701 21.6572" />
<path d="M37.7000 61.0800 A0.9200 0.9200 0.0 0 0 38.6200 60.1600" />
<path d="M96.4600 90.2600 A137.6022 137.6022 0.0 0 0 65.7220 77.7675" />
<path d="M20.5800 72.2200
L20.5786 62.3500
" />
<path d="M65.2109 76.8237
L69.0953 62.4876
" />
<path d="M57.0900 58.6400 A1.0000 1.0000 0.0 0 0 58.0900 59.6400" />
<path d="M92.5825 12.5410 A1.0012 1.0012 0.0 0 0 91.6072 11.5400" />
<path d="M57.0900 55.1800 A0.9800 0.9800 0.0 0 0 56.1100 54.2000" />
<path d="M39.5600 54.2100
L56.1100 54.2000
" />
<path d="M74.4300 4.4800
L74.4300 10.6053
" />
<path d="M65.2109 76.8237 A0.7943 0.7943 0.0 0 0 65.7220 77.7674" />
<path d="M39.9600 3.4788 A0.9600 0.9600 0.0 0 0 39.0000 4.4388" />
<path d="M38.9954 9.5098
L39.0000 4.4388
" />
<path d="M58.0900 59.6400
L67.0800 59.6400
" />
<path d="M75.3700 11.5453
L91.6072 11.5400
" />
<path d="M19.6700 73.1300 A0.9100 0.9100 0.0 0 0 20.5800 72.2200" />
<path d="M39.9600 3.4788
L73.4100 3.4788
" />
<path d="M5.0374 73.1290
L19.6700 73.1300
" />
<path d="M39.5600 54.2100 A0.9400 0.9400 0.0 0 0 38.6200 55.1500" />
<path d="M22.1459 10.4459
L38.0552 10.4500
" />
<path d="M96.4600 90.2600 A1.0098 1.0098 0.0 0 0 97.7841 89.8615" />
<path d="M4.0071 22.4971
L20.3450 22.4954
" />
<path d="M74.4300 4.4800 A1.0201 1.0201 0.0 0 0 73.4100 3.4787" />
<path d="M21.7800 61.0800
L37.7000 61.0800
" />
<path d="M21.7800 61.0800 A1.2501 1.2501 0.0 0 0 20.5786 62.3500" />
<path d="M57.0900 55.1800
L57.0900 58.6400
" />
<path d="M112.3950 30.1220 A0.7500 0.7500 0.0 0 0 111.6450 29.3720" />
<path d="M3.0071 23.4971
L2.9997 71.2929
" />
<path d="M92.5826 27.6401 A1.7093 1.7093 0.0 0 0 94.3216 29.3749" />
<path d="M2.9997 71.2929 A1.9834 1.9834 0.0 0 0 5.0374 73.1290" />
<path d="M112.3950 30.1220
L112.3950 47.2440
" />
<path d="M92.5826 27.6401
L92.5826 12.5410
" />
<path d="M94.3216 29.3749
L111.6450 29.3720
" />
<path d="M110.6483 68.0720
L97.7841 89.8615
" />
<path d="M110.6483 68.0720 A16.7744 16.7744 0.0 0 0 112.3950 60.7478" />
<path d="M112.3950 47.2440
L112.4070 54.6100
" />
<path d="M112.4070 54.6100
L112.3950 60.7478
" />
<path d="M74.4300 10.6053 A0.9400 0.9400 0.0 0 0 75.3700 11.5453" />
<path d="M38.6200 60.1600
L38.6200 55.1500
" />
<path d="M21.1701 21.6572
L21.1759 11.4159
" />
<path d="M38.0552 10.4500 A0.9402 0.9402 0.0 0 0 38.9954 9.5098" />
<path d="M4.0071 22.4971 A1.0000 1.0000 0.0 0 0 3.0071 23.4971" />
<path d="M69.0952 62.4876 A2.1369 2.1369 0.0 0 0 67.0800 59.6400" />
<path d="M22.1459 10.4459 A0.9700 0.9700 0.0 0 0 21.1759 11.4159" />
<path d="M20.3450 22.4954 A0.8383 0.8383 0.0 0 0 21.1701 21.6572" />
<path d="M37.7000 61.0800 A0.9200 0.9200 0.0 0 0 38.6200 60.1600" />
<path d="M96.4600 90.2600 A137.6022 137.6022 0.0 0 0 65.7220 77.7675" />
<path d="M20.5800 72.2200
L20.5786 62.3500
" />
<path d="M65.2109 76.8237
L69.0953 62.4876
" />
<path d="M57.0900 58.6400 A1.0000 1.0000 0.0 0 0 58.0900 59.6400" />
<path d="M92.5825 12.5410 A1.0012 1.0012 0.0 0 0 91.6072 11.5400" />
<path d="M57.0900 55.1800 A0.9800 0.9800 0.0 0 0 56.1100 54.2000" />
<path d="M39.5600 54.2100
L56.1100 54.2000
" />
<path d="M74.4300 4.4800
L74.4300 10.6053
" />
<path d="M65.2109 76.8237 A0.7943 0.7943 0.0 0 0 65.7220 77.7674" />
<path d="M39.9600 3.4788 A0.9600 0.9600 0.0 0 0 39.0000 4.4388" />
<path d="M38.9954 9.5098
L39.0000 4.4388
" />
<path d="M58.0900 59.6400
L67.0800 59.6400
" />
<path d="M75.3700 11.5453
L91.6072 11.5400
" />
<path d="M19.6700 73.1300 A0.9100 0.9100 0.0 0 0 20.5800 72.2200" />
<path d="M39.9600 3.4788
L73.4100 3.4788
" />
<path d="M5.0374 73.1290
L19.6700 73.1300
" />
<path d="M39.5600 54.2100 A0.9400 0.9400 0.0 0 0 38.6200 55.1500" />
<path d="M22.1459 10.4459
L38.0552 10.4500
" />
<path d="M96.4600 90.2600 A1.0098 1.0098 0.0 0 0 97.7841 89.8615" />
<path d="M4.0071 22.4971
L20.3450 22.4954
" />
<path d="M74.4300 4.4800 A1.0201 1.0201 0.0 0 0 73.4100 3.4787" />
<path d="M21.7800 61.0800
L37.7000 61.0800
" />
<path d="M21.7800 61.0800 A1.2501 1.2501 0.0 0 0 20.5786 62.3500" />
<path d="M57.0900 55.1800
L57.0900 58.6400
" />
</g> 
</svg>
