<?xml version="1.0" encoding="UTF-8" standalone="no"?>
<!-- Created with Inkscape (http://www.inkscape.org/) -->

<svg
   width="109.38144mm"
   height="86.75235mm"
   viewBox="0 0 109.38144 86.75235"
   version="1.1"
   id="svg1"
   xml:space="preserve"
   sodipodi:docname="fullsilk.svg"
   inkscape:version="1.3.2 (091e20e, 2023-11-25, custom)"
   xmlns:inkscape="http://www.inkscape.org/namespaces/inkscape"
   xmlns:sodipodi="http://sodipodi.sourceforge.net/DTD/sodipodi-0.dtd"
   xmlns="http://www.w3.org/2000/svg"
   xmlns:svg="http://www.w3.org/2000/svg"><sodipodi:namedview
     id="namedview1"
     pagecolor="#505050"
     bordercolor="#eeeeee"
     borderopacity="1"
     inkscape:showpageshadow="0"
     inkscape:pageopacity="0"
     inkscape:pagecheckerboard="0"
     inkscape:deskcolor="#505050"
     inkscape:document-units="mm"
     inkscape:zoom="6.9306392"
     inkscape:cx="378.6808"
     inkscape:cy="230.28179"
     inkscape:window-width="1920"
     inkscape:window-height="1057"
     inkscape:window-x="-8"
     inkscape:window-y="-8"
     inkscape:window-maximized="1"
     inkscape:current-layer="g193" /><defs
     id="defs1" /><g
     id="layer1"
     transform="translate(76.119379,231.56215)"><g
       id="g193"
       transform="matrix(2.7302512,0,0,2.7302512,-39.523144,-134.74429)"><path
         id="path193"
         style="fill:#ffffff;stroke-width:0;stroke-linecap:square;stroke-dashoffset:3.59055;paint-order:markers fill stroke"
         d="m 15.130709,-32.507344 0.283721,-1.89e-4 c -0.141821,0.308129 -0.239482,0.641506 -0.272364,1.009207 -0.126975,1.415439 1.801419,1.765584 2.202955,3.021941 0.46234,0.767698 1.247302,0.952934 2.053807,1.101951 v 0.172996 c -1.136915,0.109892 -1.802276,-0.797024 -2.430083,-1.59728 -0.576008,-0.678839 -1.391384,-1.146449 -1.866048,-1.923965 -0.420821,-0.505072 -0.240072,-1.161778 0.02801,-1.784661 z m 4.268119,5.305906 v -0.172996 c 0.455572,0.08418 0.915729,0.160746 1.334,0.314572 0.793483,0.22341 1.474415,0.668466 2.170589,1.083023 l -0.706558,1.9e-4 c -0.83003,-0.625162 -1.726056,-1.125094 -2.79046,-1.224789 -0.0027,2.67e-4 -0.0049,-2.57e-4 -0.0076,0 z m 2.798031,1.224789 0.706558,-1.9e-4 c 0.59772,0.35593 1.206453,0.689823 1.90977,0.837347 0.584783,0.361999 2.754241,0.935399 0.878608,0.582394 -1.144748,-0.37236 -2.447433,-0.577307 -3.396703,-1.349899 -0.03202,-0.02464 -0.06601,-0.04538 -0.09823,-0.06965 z m -9.446832,-7.319208 c -0.617908,0.518752 -1.14677,1.105757 -1.30807,1.9463 -0.430358,1.064499 -1.5154859,2.530549 -0.13022,3.395756 1.423796,0.764396 3.177111,0.471885 4.600861,1.285168 1.049166,0.155897 1.761276,0.905761 2.513932,1.57097 0.996307,0.669117 2.384245,0.230016 3.285599,1.121824 1.362567,0.677045 1.930239,2.742032 3.683074,2.657212 0.6804,0.310806 1.100103,0.288092 1.260183,-0.05697 v 0.638231 c -0.926635,-0.156302 -1.980808,-0.06829 -2.744466,-0.685738 -0.796942,-1.094682 -1.783126,-2.007829 -2.960995,-2.661754 -0.786482,-0.598692 -1.958522,-0.107653 -2.689767,-0.887315 -0.971471,-0.873238 -2.085762,-1.59061 -3.386861,-1.826679 -1.40108,-0.641809 -3.380779,-0.153428 -4.272661,-1.700244 -0.8809857,-0.775231 0.22371,-1.855441 0.378358,-2.745034 0.421415,-0.848278 0.904798,-1.846423 1.771033,-2.337528 z m -0.755012,-2.16529 c -1.362849,1.387589 -2.863603,2.641243 -4.1848385,4.068246 -0.9411606,1.101163 0.040164,2.396927 0.6800598,3.349574 0.5382142,1.448219 2.2357467,1.917935 3.6147467,1.976205 1.025184,0.122633 1.84686,0.80132 2.715696,1.326997 1.400732,1.009842 3.1545,1.322428 4.784078,1.777089 1.733978,0.900768 2.542997,2.74663 3.907742,4.055186 0.718992,0.348604 2.848241,2.079617 3.145537,1.067124 l 7.57e-4,0.57577 c -1.146991,-0.07681 -2.109365,-0.813303 -3.08213,-1.367501 -1.592537,-1.351254 -2.530215,-3.553486 -4.568685,-4.321305 -1.273175,-0.278501 -2.533238,-0.478051 -3.652979,-1.206051 -1.286807,-0.507005 -2.235882,-1.707329 -3.72074,-1.667499 -1.160181,-0.218056 -2.633824,-0.34636 -3.1595431,-1.641759 -0.8697664,-1.102143 -1.8018236,-2.182157 -1.1502154,-3.623074 0.2069111,-0.530664 0.6512267,-1.068867 1.3735582,-1.561696 0.9699105,-0.968843 2.1076383,-1.81866 3.0781553,-2.807306 z m -24.861648,6.965645 c 0.511881,0.296193 1.132399,0.543153 1.444346,0.974759 1.509849,1.286237 3.239525,2.927944 5.402813,2.411724 1.443009,-0.178406 2.843958,-0.583743 4.085091,-1.35236 1.267066,-0.45195 2.391966,-1.414049 3.816323,-1.269836 2.0816712,-0.366204 3.7946845,1.107538 5.4647056,2.117782 0.8290712,0.579837 1.7174485,1.188831 2.5750665,1.658225 0.5688269,0.712245 1.6616579,0.798913 2.3346889,1.410277 1.520885,0.592298 2.851966,1.973348 4.597076,1.738478 1.078889,0.05225 2.192949,0.140184 2.957021,1.065421 1.225931,0.902829 2.077128,2.177891 3.175064,3.221625 0.686195,1.108275 1.666878,1.959536 2.834371,2.522259 0.391993,0.385772 0.610847,0.454923 0.733624,0.350534 -0.01057,0.112912 -0.02427,0.22551 -0.04107,0.337664 -1.258714,-0.748387 -2.718817,-1.425968 -3.465599,-2.731027 -0.539202,-0.574641 -1.158548,-1.413113 -1.670528,-1.967688 -1.101907,-0.967198 -1.972456,-2.22453 -3.533169,-2.407749 -1.457516,-0.243656 -3.071118,-0.10052 -4.274176,-1.138291 -1.283338,-0.963571 -3.006584,-1.100379 -4.1361944,-2.297592 -1.1844252,-1.046396 -2.581013,-1.925307 -3.982694,-2.563142 -1.2434947,-0.981108 -2.9805046,-1.247342 -4.5310196,-0.947314 -1.634072,0.559175 -3.164889,1.313523 -4.659157,2.157529 -1.085698,0.435348 -2.382747,0.441977 -3.570267,0.362837 -1.679817,-0.148537 -2.887826,-1.349674 -4.145469,-2.331093 -0.624367,-0.336098 -1.123164,-0.936745 -1.741506,-1.284221 0.04784,-0.02402 0.100367,-0.03727 0.153879,-0.0388 z m 38.535336,17.280107 c -1.081346,-0.465209 -2.192576,-0.869509 -3.193234,-1.505292 -1.430179,-0.598353 -1.885633,-2.196843 -2.857652,-3.248313 -1.203781,-0.748515 -2.682126,-0.753202 -4.01998,-1.13602 -2.578874,-0.179438 -4.557836,-2.01158 -6.5876663,-3.406924 -1.0124286,-0.93038 -2.2602264,-1.574988 -3.3435171,-2.362701 -0.9674487,-0.855457 -2.0981805,-1.583138 -3.0281876,-2.435383 -0.392048,-0.306666 -0.900105,-0.378781 -1.38094,-0.411481 -1.760942,0.127405 -3.340691,0.979494 -4.7237,2.026742 -1.15479,0.951204 -2.900479,1.425353 -4.252976,0.645422 -1.110642,-1.013027 -2.024918,-2.501713 -3.793042,-2.145037 -0.722394,-0.04762 -1.466171,-0.06142 -1.891789,0.222207 v -0.417537 c 0.763695,0.59368 3.004135,-0.650558 3.963956,0.329714 1.012752,1.159691 2.190225,2.707525 3.971337,1.998351 1.343221,-0.366966 2.462755,-1.302307 3.702759,-1.929076 0.845842,-0.58253 1.944181,-1.016452 2.994118,-1.016589 0.816617,-1.07e-4 1.603947,0.262297 2.2205572,0.920438 1.5060464,1.273883 2.9672178,2.627702 4.7551192,3.507238 1.2268786,1.077514 2.4442056,2.19222 3.9420006,2.897589 0.909206,0.870512 2.223322,0.726263 3.334053,1.214947 1.287699,0.741544 3.012992,0.340547 4.206605,1.353306 0.997115,0.732136 1.089624,2.235733 2.346991,2.721375 1.106514,0.914563 2.459672,1.387106 3.736639,2.005164 z m -26.034576,-3.565913 c -0.854561,-0.264636 -1.720927,-0.481583 -2.600618,-0.596591 -0.883801,-0.569687 -1.044591,-1.475969 -0.465045,-2.276393 0.117472,-1.144101 1.366497,-1.480263 2.273175,-1.88365 1.38311,-0.706856 2.218721,-2.221618 3.801938,-2.627117 0.32499,-0.115471 0.6412447,-0.150876 0.9467458,-0.126056 0.9165031,0.07446 1.7371717,0.691679 2.4138055,1.321319 1.0499273,0.818296 2.0705122,1.742453 3.3145583,2.155825 0.5629116,0.476799 1.3700114,0.790116 2.0059214,1.268322 1.31668,0.728804 2.584118,1.548899 3.910959,2.243649 1.30633,0.934752 2.908969,1.541458 4.305216,2.369326 1.210621,0.545681 2.530343,0.834739 3.723768,1.42277 0.815914,0.0488 1.469127,0.414278 2.049264,0.895831 l -0.1094,0.18511 c -0.298022,-0.192262 -0.596483,-0.365518 -0.847945,-0.516717 -1.460351,-0.39195 -2.879987,-0.946095 -4.344396,-1.257723 -1.280841,-0.812206 -2.480219,-1.737383 -3.907741,-2.305352 -1.789599,-0.766176 -3.313729,-2.017419 -5.032784,-2.909891 -0.785408,-0.483685 -1.7368611,-0.638955 -2.4707769,-1.181824 -1.6215072,-1.048253 -2.8765645,-2.754164 -4.7960024,-3.29336 l -0.2630902,-0.03672 c -1.5623385,0.07467 -2.8843285,1.091697 -3.9050915,2.213933 -0.768672,0.608013 -1.898517,0.678426 -2.517717,1.478983 0.09385,0.618302 -0.761922,1.332652 -0.250598,1.963713 0.331493,0.988922 1.583037,0.770545 2.353238,1.175578 0.132504,0.04378 0.275569,0.08354 0.412616,0.124921 z m 14.767311,-0.882394 c -0.188918,-0.0078 0.05295,0.05689 0,0 z M 2.145787,-16.881294 c 0.01588,-0.278019 0.156047,-0.556175 0.498736,-0.819555 0.388959,-0.212777 0.7612878,-0.30854 1.1235276,-0.31514 0.6037331,-0.01102 1.1795164,0.225682 1.7579727,0.580312 1.4850973,0.53404 3.1182401,0.836801 4.2520302,2.032988 1.5135155,1.280034 3.4842565,1.928572 4.7257815,3.543957 1.967453,1.324109 4.363342,1.705536 6.523692,2.6291992 0.993795,0.2250273 1.897029,0.6794414 2.805223,1.1239063 l -0.149337,0.2528695 c -0.57628,-0.2501836 -1.154025,-0.4987893 -1.743777,-0.7239713 -0.814161,-0.3924457 -1.701948,-0.78275 -2.623142,-0.8191759 -0.969453,-0.5213614 -2.191221,-0.7716508 -3.207051,-1.3347568 -0.813868,-0.534108 -1.832489,-0.873999 -2.518285,-1.506428 -0.808885,-0.880391 -1.841942,-1.422251 -2.786485,-2.103208 -0.09957,-0.286505 -0.355702,-0.489688 -0.657347,-0.521449 -0.0396,-0.03479 -0.08128,-0.06634 -0.120188,-0.102207 -0.7750953,-0.836815 -1.7788306,-1.409405 -2.9134882,-1.570971 -1.0790607,-0.580854 -2.2875486,-0.841902 -3.4489425,-1.214379 -0.5486553,-0.03235 -1.0972663,0.389519 -1.2550733,0.867819 z m 17.272536,7.3087975 c -0.06246,0.1292144 0.120915,0.034988 0,0 z M 6.4369969,-15.165912 c 0.1189216,-0.09235 0.2653398,-0.154946 0.4404395,-0.172239 0.1388904,-0.01371 0.2953081,2.63e-4 0.4686413,0.04864 0.1689301,0.126111 0.333528,0.260985 0.4970324,0.398232 H 7.4255726 c -0.038129,-0.01807 -0.073163,-0.0408 -0.1120499,-0.05773 -0.1941064,-0.0296 -0.3490939,-0.0031 -0.473941,0.05773 H 6.7653867 C 6.6082489,-14.902668 6.476,-15.013269 6.4369971,-15.165915 Z m 1.0909727,0.146119 c -0.2230716,0.07136 0.1146979,0.08339 0,0 z m 2.8752544,2.621628 0.06644,-0.244731 c 0.497814,0.353002 1.025923,0.656608 1.620371,0.847756 1.487447,0.68711 2.737686,1.786095 4.260169,2.4293262 1.120782,0.8247222 2.601252,1.3087653 3.701623,1.9936183 0.884782,0.3702955 1.80333,0.6666701 2.75128,0.8572199 -1.960287,0.1426281 -3.508598,-1.338087 -5.281868,-1.9351327 -1.002563,-0.5684878 -1.953697,-1.1986071 -3.00661,-1.6593617 -1.175693,-0.927352 -2.536445,-1.600012 -3.931401,-2.121945 -0.06222,-0.05197 -0.119043,-0.112749 -0.179999,-0.16675 z m -0.288453,1.064663 c 0.287008,0.14478 0.562252,0.310969 0.805359,0.53413 1.125273,0.8298123 2.102515,1.8670911 3.442697,2.3988533 1.571785,0.9518779 3.114127,1.9639311 4.933415,2.335257 0.903259,0.3389639 1.636334,1.0471486 2.545539,1.3321072 l -0.09312,0.1574756 c -0.687088,-0.2224757 -1.341576,-0.5469843 -1.955195,-0.942393 -1.219413,-0.4496018 -2.349427,-1.0476721 -3.561561,-1.5316015 -1.091452,-0.4502742 -2.202792,-1.1564405 -3.088187,-1.8289502 -1.194272,-0.5153353 -1.943939,-1.6725634 -3.068124,-2.3100834 z m -0.3883892,1.4331798 c 0.6970622,0.3808476 1.3576102,0.8223948 1.9527352,1.3654193 0.922667,0.8767749 2.041682,1.4255608 3.248502,1.808698 1.259561,0.5796236 2.542685,1.0493819 3.827111,1.5673742 0.82061,0.505837 1.817197,0.658806 2.600997,1.2490162 l -0.05186,0.087634 c -0.0421,0.061357 -0.101734,0.1085878 -0.171103,0.1355199 -0.577988,-0.3854188 -1.161963,-0.7593038 -1.812674,-1.0082602 -0.514729,-0.1719979 -1.032532,-0.3402248 -1.548068,-0.5159597 -0.839469,-0.38741 -1.68944,-0.751647 -2.548947,-1.0922976 -0.04397,-0.025093 -0.089,-0.047367 -0.132681,-0.073249 -1.933109,-0.8032961 -3.752151,-1.8390009 -5.3789648,-3.1527294 -0.023032,-0.017084 -0.049409,-0.030346 -0.07287,-0.04694 z M -12.354648,-9.950669 c 0.500974,-0.649337 0.965341,-1.335755 1.73242,-1.709708 1.222811,-0.564023 1.956686,-1.648425 1.976016,-2.998282 0.184386,-0.985849 0.595074,-1.820504 1.332675,-2.517149 0.326586,-0.969227 0.348839,-1.989043 -0.271797,-2.812226 -0.701676,-1.070855 -1.709477,-1.96531 -3.010017,-2.185921 -0.931934,-0.270119 -1.870099,-0.523344 -2.80863,-0.780753 v -0.340503 c 0.581852,0.495936 1.835346,0.373849 2.574499,0.743656 1.834655,0.227104 2.959907,1.759798 4.076195,3.041058 -0.140989,1.12203 0.25273,2.51244 -0.80763,3.253044 -0.201133,0.696661 -0.796544,1.129272 -0.900185,1.87078 -0.02067,1.317533 -0.846004,2.240987 -1.921884,2.870523 -0.642278,0.371164 -1.144926,0.98429 -1.622453,1.565481 z m -1.049333,-10.818687 c 0.08888,0.08071 0.197234,0.133795 0.333689,0.139495 1.593369,0.163799 3.18207,1.257951 3.611718,2.833425 0.717812,1.364563 -0.999664,2.170928 -1.496018,3.264022 -0.472071,0.965177 -1.254636,1.683271 -2.093933,2.309895 -0.159118,0.153886 -0.268166,0.340005 -0.355456,0.537915 v -0.899239 c 0.335036,0.04162 1.341126,-0.880015 1.544094,-1.285545 0.577367,-0.735864 1.014517,-1.538517 1.671096,-2.196899 0.8669,-0.852919 0.354061,-2.236642 -0.371544,-3.018345 -0.62757,-0.723761 -1.609726,-1.207826 -2.587937,-1.199426 -0.1058,0.034 -0.187379,0.08713 -0.255709,0.150851 z M 5.1020506,-35.461147 c -0.068422,0.478443 -1.0604803,0.70619 -1.4229585,0.947882 -2.1287101,0.915896 -4.0860771,2.191033 -6.0512641,3.428312 -0.837949,0.472324 -1.796847,0.948797 -2.738221,0.744224 -1.590409,-0.344508 -1.034291,-1.865427 -0.06681,-2.562764 0.0017,-0.0019 0.0037,-0.0036 0.0055,-0.0055 h 0.180377 c -0.01474,0.01358 -0.03058,0.02587 -0.04524,0.03956 -0.623077,0.663822 -1.36836,2.069788 0.0072,2.311598 1.128705,-0.03145 2.208368,-0.542132 3.184338,-1.040248 1.796397,-1.072452 3.390388,-2.525391 5.4419934,-3.1109 0.4215563,-0.201143 0.8042732,-0.461421 1.1651679,-0.752173 z m 2.906106,0 c -0.00495,0.0062 -0.00903,0.01372 -0.014006,0.01987 -0.9028764,1.412486 -2.0033525,2.673047 -3.241688,3.811212 -1.0453007,0.585353 -1.9950156,1.331425 -3.1960736,1.571349 -1.594823,0.423528 -3.319695,0.559256 -4.755308,1.393811 -0.856993,0.521142 -1.60398,1.244324 -2.338853,1.841631 -1.132191,0.303814 -2.506351,1.071788 -3.500047,0.0388 -0.694088,-0.399582 -1.222211,-1.005583 -1.5475,-1.711222 h 0.249084 c 0.140854,0.300959 0.306479,0.592027 0.488515,0.871983 0.808751,1.145775 2.240874,1.321801 3.456135,0.809713 1.110956,-0.134566 1.640602,-1.265761 2.604971,-1.725418 0.985063,-0.650088 2.035083,-1.259572 3.25418,-1.309962 1.480191,-0.408607 3.142391,-0.460788 4.3428822,-1.530655 0.9564083,-0.555435 1.6611212,-1.380028 2.4266761,-2.111536 0.4600616,-0.666975 0.9512402,-1.315902 1.4352613,-1.969581 z M -7.981294,-9.9502905 c 0.04605,-0.037984 0.09414,-0.07294 0.139684,-0.1116715 0.301902,-0.154568 0.588595,-0.328424 0.868198,-0.511417 v 0.289778 c -0.00851,0.04473 -0.026094,0.08725 -0.05167,0.12492 -0.100915,0.06967 -0.20255,0.139215 -0.302838,0.2083905 z"
         sodipodi:nodetypes="ccccccccsccccccccccccccscccccccccccccccccccccccccccccccccccccccccccccccccccccccccccccccccccccccccccccccscccccccccccccscccccccccccccccccccccccccccccccccccccccccccccscccccccsscccccccccccsccccccccccccccccccccccccccccccccccccccccccccccccccccccccccccccccccccccccccccccccccccccccccc" /></g></g></svg>
