<?xml version="1.0" encoding="UTF-8" standalone="no"?>
<!-- Created with Inkscape (http://www.inkscape.org/) -->

<svg
   width="106.95523mm"
   height="86.752335mm"
   viewBox="0 0 106.95523 86.752334"
   version="1.1"
   id="svg1"
   xml:space="preserve"
   xmlns="http://www.w3.org/2000/svg"
   xmlns:svg="http://www.w3.org/2000/svg"><defs
     id="defs1" /><g
     id="layer1"
     transform="translate(76.119382,231.56216)"><g
       id="g193"
       transform="matrix(2.7302512,0,0,2.7302512,-39.523144,-134.74429)"><path
         id="path23"
         style="fill:#ffffff;stroke-width:0.0732534;stroke-linecap:square;stroke-dashoffset:3.59055;paint-order:markers fill stroke"
         d="m 14.401437,-15.663713 c 0.05295,0.05689 -0.188917,-0.0078 0,0 z m 0,0 c -0.188917,-0.0078 0.05295,0.05689 0,0 z m -6.8734684,0.643908 c -0.2230714,0.07136 0.1146978,0.08339 0,0 z m 11.8903534,5.4472929 c -0.06246,0.1292143 0.120915,0.034988 0,0 z M 4.7621143,-35.461158 c -0.3608944,0.290751 -0.7436121,0.55103 -1.165168,0.752173 -2.0516033,0.585508 -3.64559774,2.038449 -5.4419929,3.1109 -0.9759691,0.498115 -2.0556343,1.008797 -3.1843382,1.040247 -1.3755586,-0.24181 -0.6302687,-1.647776 -0.00719,-2.311598 0.01466,-0.01369 0.030496,-0.02598 0.045236,-0.03956 h -0.1803777 c -0.0018,0.0019 -0.00379,0.0036 -0.00549,0.0055 -0.96748,0.697336 -1.5235938,2.218256 0.066814,2.562764 0.941373,0.204573 1.9002722,-0.2719 2.7382203,-0.744224 1.96518507,-1.237277 3.9225566,-2.512416 6.0512645,-3.428311 0.3624779,-0.241692 1.3545366,-0.46944 1.4229586,-0.947882 z m 2.91027,0 c -0.4840206,0.653678 -0.9752002,1.302606 -1.4352613,1.96958 -0.7655541,0.731507 -1.4702688,1.556101 -2.4266761,2.111536 -1.20049,1.069866 -2.86269199,1.122048 -4.34288151,1.530655 -1.21909579,0.05039 -2.26911799,0.659875 -3.25418009,1.309962 -0.964368,0.459657 -1.4940169,1.590852 -2.6049718,1.725418 -1.2152597,0.512087 -2.6473847,0.336061 -3.4561349,-0.809712 -0.1820356,-0.279956 -0.3476616,-0.571025 -0.4885146,-0.871984 h -0.249084 c 0.325288,0.705639 0.8534128,1.311641 1.5475001,1.711223 0.993695,1.032987 2.3678565,0.265012 3.5000464,-0.0388 0.7348723,-0.597306 1.4818611,-1.32049 2.3388532,-1.841631 1.4356116,-0.834554 3.16048713,-0.970283 4.7553085,-1.393811 1.2010568,-0.239923 2.1507735,-0.985996 3.1960731,-1.571348 1.2383343,-1.138164 2.3388125,-2.398728 3.241688,-3.811213 0.00498,-0.0061 0.00906,-0.01367 0.014006,-0.01987 z m 4.1038287,0 c -0.970516,0.988645 -2.1082458,1.838463 -3.0781554,2.807305 -0.7223307,0.492828 -1.1666472,1.031032 -1.3735581,1.561696 -0.6516075,1.440915 0.2804498,2.520932 1.1502153,3.623074 0.5257186,1.295398 1.9993632,1.423703 3.1595432,1.641759 1.484857,-0.03983 2.433934,1.160495 3.720739,1.6675 1.11974,0.727999 2.379806,0.92755 3.65298,1.206051 0.885413,0.333503 1.559312,0.942749 2.173239,1.630213 v -0.369651 c -0.452689,-0.498572 -0.953782,-0.946368 -1.57646,-1.269837 -1.629576,-0.45466 -3.383347,-0.767248 -4.784078,-1.777089 -0.868835,-0.525676 -1.690514,-1.204364 -2.715697,-1.326997 -1.378998,-0.05827 -3.0765321,-0.527987 -3.6147457,-1.976205 -0.6398952,-0.952646 -1.6212195,-2.248412 -0.6800599,-3.349574 1.3212342,-1.427001 2.8219906,-2.680658 4.1848386,-4.068245 z m 9.405003,11.513699 v -0.383847 c -0.859691,-0.404256 -1.937179,-0.217332 -2.754687,-0.766369 -0.752656,-0.665208 -1.464767,-1.415073 -2.513932,-1.57097 -1.423748,-0.813282 -3.177066,-0.520772 -4.600861,-1.285167 -1.3852645,-0.865207 -0.300137,-2.331259 0.13022,-3.395757 0.1613,-0.840542 0.690162,-1.427548 1.30807,-1.9463 v -0.285803 c -0.866234,0.491105 -1.349618,1.489251 -1.771033,2.337528 -0.154648,0.889592 -1.2593425,1.969804 -0.378358,2.745035 0.891881,1.546814 2.871583,1.058435 4.272661,1.700244 1.301098,0.236069 2.415391,0.953442 3.386861,1.826679 0.731244,0.779661 1.903285,0.288623 2.689766,0.887314 0.07869,0.04369 0.154311,0.09143 0.231293,0.137413 z m -1.782389,-3.253991 v -0.172996 c -0.806504,-0.149017 -1.591468,-0.334253 -2.053807,-1.101951 -0.401536,-1.256355 -2.32993,-1.606504 -2.202955,-3.021941 0.03288,-0.367701 0.130544,-0.701078 0.272364,-1.009207 l -0.283721,1.9e-4 c -0.268081,0.622882 -0.448833,1.279588 -0.02801,1.78466 0.474663,0.777515 1.29004,1.245127 1.866048,1.923965 0.627806,0.800256 1.293169,1.707172 2.430083,1.59728 z m 1.782389,9.008096 v -0.269526 c -0.423882,-0.459461 -0.862252,-0.903706 -1.370719,-1.278164 -0.764072,-0.925236 -1.878133,-1.013171 -2.957021,-1.065421 -1.745108,0.23487 -3.076192,-1.14618 -4.597076,-1.738477 -0.67303,-0.611364 -1.765863,-0.698033 -2.3346889,-1.410278 -0.8576171,-0.469393 -1.7459962,-1.078389 -2.5750666,-1.658225 -1.6700194,-1.010243 -3.3830366,-2.483985 -5.4647058,-2.117782 -1.42435554,-0.144213 -2.54925772,0.817887 -3.8163225,1.269836 -1.2411317,0.768617 -2.6420833,1.173954 -4.0850909,1.35236 -2.1632858,0.516219 -3.8929658,-1.125488 -5.4028133,-2.411724 -0.311947,-0.431605 -0.932466,-0.678566 -1.444346,-0.974758 h -0.176782 a 0.36626667,0.36626667 0 0 0 -0.153879,0.0388 c 0.618341,0.347475 1.117139,0.948123 1.741506,1.284221 1.257641,0.981418 2.4656534,2.182556 4.1454688,2.331093 1.1875188,0.07914 2.4845699,0.07251 3.5702668,-0.362838 1.4942665,-0.844005 3.02508724,-1.598354 4.65915761,-2.157529 1.55051349,-0.300027 3.28752589,-0.03379 4.53101939,0.947314 1.4016796,0.637835 2.7982699,1.516748 3.9826939,2.563143 1.1296095,1.197211 2.8528585,1.334021 4.1361945,2.297591 1.203057,1.03777 2.816661,0.894636 4.274175,1.138291 1.465209,0.172008 2.326893,1.28552 3.338029,2.222072 z M 1.2281879,-26.007323 c 0.8166162,-1.07e-4 1.6039477,0.262297 2.2205572,0.920437 1.5060449,1.273882 2.9672197,2.627704 4.7551193,3.507239 1.2268774,1.077513 2.4442066,2.19222 3.9420006,2.897588 0.909205,0.870512 2.223323,0.726264 3.334053,1.214947 1.287698,0.741544 3.012993,0.340548 4.206605,1.353306 0.997114,0.732135 1.089626,2.235734 2.346992,2.721375 1.106512,0.914562 2.459672,1.387107 3.736638,2.005164 l -0.101451,0.171861 c -1.081345,-0.465209 -2.192577,-0.869511 -3.193234,-1.505293 -1.430177,-0.598352 -1.885634,-2.196844 -2.857652,-3.248313 -1.20378,-0.748514 -2.682128,-0.753202 -4.019981,-1.136019 -2.578871,-0.179438 -4.557837,-2.011582 -6.5876653,-3.406924 -1.0124276,-0.930379 -2.2602275,-1.57499 -3.3435172,-2.362702 -0.9674477,-0.855456 -2.0981812,-1.583138 -3.0281874,-2.435383 -0.3920476,-0.306665 -0.9001053,-0.37878 -1.3809398,-0.41148 -1.76094023,0.127405 -3.3406922,0.979494 -4.7236999,2.026741 -1.1547888,0.951203 -2.9004809,1.425353 -4.2529765,0.645423 -1.1106409,-1.013026 -2.0249196,-2.501713 -3.7930419,-2.145037 -0.722393,-0.04762 -1.466171,-0.06142 -1.891789,0.222207 v -0.417538 c 0.763694,0.59368 3.004136,-0.650556 3.9639558,0.329715 1.012751,1.15969 2.1902273,2.707523 3.9713375,1.99835 1.3432197,-0.366966 2.4627556,-1.302308 3.7027584,-1.929076 0.84584116,-0.582529 1.94418226,-1.016451 2.9941182,-1.016588 z m 0,0 c -1.04993594,1.37e-4 -2.14827704,0.434059 -2.9941182,1.016588 -1.2400028,0.626768 -2.3595387,1.56211 -3.7027584,1.929076 -1.7811102,0.709173 -2.9585865,-0.83866 -3.9713375,-1.99835 -0.9598198,-0.980271 -3.2002618,0.263965 -3.9639558,-0.329715 v 0.417538 c 0.425618,-0.283627 1.169396,-0.269827 1.891789,-0.222207 1.7681223,-0.356676 2.682401,1.132011 3.7930419,2.145037 1.3524956,0.77993 3.0981877,0.30578 4.2529765,-0.645423 1.3830077,-1.047247 2.96275967,-1.899336 4.7236999,-2.026741 0.4808345,0.0327 0.9888922,0.104815 1.3809398,0.41148 0.9300062,0.852245 2.0607397,1.579927 3.0281874,2.435383 1.0832897,0.787712 2.3310896,1.432323 3.3435172,2.362702 2.0298283,1.395342 4.0087943,3.227486 6.5876653,3.406924 1.337853,0.382817 2.816201,0.387505 4.019981,1.136019 0.972018,1.051469 1.427475,2.649961 2.857652,3.248313 1.000657,0.635782 2.111889,1.040084 3.193234,1.505293 l 0.101451,-0.171861 c -1.276966,-0.618057 -2.630126,-1.090602 -3.736638,-2.005164 -1.257366,-0.485641 -1.349878,-1.98924 -2.346992,-2.721375 -1.193612,-1.012758 -2.918907,-0.611762 -4.206605,-1.353306 -1.11073,-0.488683 -2.424848,-0.344435 -3.334053,-1.214947 -1.497794,-0.705368 -2.7151232,-1.820075 -3.9420006,-2.897588 -1.7878996,-0.879535 -3.2490744,-2.233357 -4.7551193,-3.507239 -0.6166095,-0.65814 -1.403941,-0.920544 -2.2205572,-0.920437 z m -14.6321699,2.7121 v 0.340503 c 0.93853,0.257409 1.876697,0.510635 2.80863,0.780754 1.3005388,0.220611 2.308342,1.115066 3.0100173,2.18592 0.6206354,0.823182 0.5983825,1.843 0.2717968,2.812226 -0.7376003,0.696645 -1.1482892,1.531301 -1.332675,2.517149 -0.01933,1.349856 -0.7532061,2.43426 -1.9760161,2.998282 -0.767078,0.373953 -1.231447,1.060372 -1.73242,1.7097083 h 0.349209 c 0.477527,-0.5811903 0.980176,-1.1943183 1.622453,-1.5654813 1.075879,-0.629536 1.9012136,-1.552991 1.9218836,-2.870523 0.1036409,-0.741507 0.6990522,-1.174119 0.900185,-1.870779 1.0603589,-0.740604 0.6666413,-2.131016 0.8076302,-3.253045 -1.1162869,-1.281259 -2.2415419,-2.813954 -4.0761948,-3.041058 -0.739153,-0.369807 -1.992648,-0.24772 -2.574499,-0.743656 z m 16.9943037,1.004096 c -0.3055007,-0.02482 -0.6217565,0.01059 -0.9467462,0.126057 -1.5832154,0.405498 -2.4188291,1.920261 -3.8019377,2.627116 -0.9066771,0.403387 -2.1557034,0.739551 -2.2731753,1.883651 -0.5795454,0.800423 -0.418755,1.706706 0.4650451,2.276393 0.8796901,0.115008 1.7460584,0.331954 2.60061851,0.59659 v -0.192113 c -0.13704686,-0.04138 -0.28011246,-0.08114 -0.41261632,-0.12492 -0.77020019,-0.405033 -2.02174529,-0.186657 -2.35323799,-1.175578 -0.5113235,-0.631061 0.3444481,-1.345412 0.2505982,-1.963713 0.6191994,-0.800556 1.7490454,-0.870971 2.51771667,-1.478984 1.02076198,-1.122235 2.34275483,-2.139262 3.90509173,-2.213932 l 0.2630903,0.03672 c 1.919436,0.539195 3.1744967,2.245107 4.7960023,3.293359 0.7339151,0.542869 1.68537,0.69814 2.470777,1.181824 1.719053,0.892471 3.243186,2.143717 5.032783,2.909892 1.427521,0.567968 2.626902,1.493146 3.907742,2.305352 1.464408,0.311627 2.884046,0.865773 4.344396,1.257722 0.251461,0.151199 0.549923,0.324455 0.847945,0.516717 l 0.1094,-0.185109 c -0.580136,-0.481553 -1.233351,-0.847032 -2.049264,-0.895832 -1.193424,-0.588031 -2.513148,-0.877089 -3.723768,-1.422769 -1.396246,-0.827868 -2.998887,-1.434576 -4.305216,-2.369327 -1.32684,-0.694749 -2.594281,-1.514845 -3.910959,-2.243648 -0.63591,-0.478206 -1.4430104,-0.791524 -2.0059214,-1.268322 -1.2440449,-0.413372 -2.2646321,-1.337531 -3.3145583,-2.155826 -0.6766332,-0.629639 -1.4973034,-1.246859 -2.4138056,-1.32132 z m -16.9943037,1.52176 v 0.636148 c 0.06833,-0.06372 0.149909,-0.116851 0.255709,-0.150851 0.97821,-0.0084 1.960367,0.475666 2.587937,1.199427 0.725604,0.781702 1.2384428,2.165427 0.371544,3.018345 -0.656579,0.658381 -1.09373,1.461035 -1.671096,2.196898 -0.202968,0.405529 -1.209058,1.327166 -1.544094,1.285546 v 0.899238 c 0.08729,-0.197909 0.196338,-0.384029 0.355456,-0.537915 0.839296,-0.626623 1.621862,-1.344718 2.093933,-2.309894 0.496353,-1.093093 2.2138293,-1.899461 1.496018,-3.264023 -0.4296476,-1.575472 -2.01835,-2.669626 -3.611718,-2.833425 -0.136455,-0.0057 -0.244809,-0.05878 -0.333689,-0.139494 z m 14.37835409,0.146876 c 0.0744899,0.02748 -0.02805,0.054 0,0 z m 0,0 c -0.02805,0.054 0.0744899,0.02748 0,0 z m 2.89493891,1.403463 c 0.1253394,0.05433 -0.1377247,0.05409 0,0 z m 0,0 c -0.1377247,0.05409 0.1253394,0.05433 0,0 z m -6.2698755,1.036084 c 0.07933,0.0312 -0.05783,0.04815 0,0 z m 0,0 c -0.05783,0.04815 0.07933,0.0312 0,0 z m 6.1686141,0.166939 c 0.6037325,-0.01102 1.179517,0.225683 1.7579727,0.580313 1.4850958,0.534039 3.1182412,0.836801 4.2520302,2.032987 1.5135135,1.280033 3.4842585,1.928574 4.7257815,3.543958 1.967451,1.324107 4.363344,1.705536 6.523692,2.6291986 0.993794,0.225027 1.89703,0.6794418 2.805223,1.1239063 l -0.149337,0.2528694 c -0.576279,-0.2501833 -1.154026,-0.4987895 -1.743777,-0.7239713 -0.81416,-0.3924453 -1.701949,-0.78275 -2.623142,-0.8191759 -0.969452,-0.5213609 -2.191222,-0.7716511 -3.207051,-1.3347571 -0.813867,-0.534107 -1.832489,-0.874 -2.518285,-1.506428 -0.808884,-0.88039 -1.841943,-1.422251 -2.786485,-2.103208 a 0.78267525,0.78267525 0 0 0 -0.657347,-0.521448 c -0.0396,-0.03479 -0.08128,-0.06634 -0.120189,-0.102208 -0.7750941,-0.836814 -1.7788307,-1.409405 -2.9134872,-1.57097 -1.0790596,-0.580854 -2.2875498,-0.841903 -3.4489425,-1.21438 -0.5486548,-0.03235 -1.0972661,0.38952 -1.2550729,0.86782 l -0.2638473,1.89e-4 c 0.01588,-0.278019 0.1560471,-0.556175 0.4987357,-0.819554 0.3889587,-0.212777 0.7612884,-0.308541 1.1235278,-0.315141 z m 0,0 c -0.3622394,0.0066 -0.7345691,0.102364 -1.1235278,0.315141 -0.3426886,0.263379 -0.4828558,0.541535 -0.4987357,0.819554 l 0.2638473,-1.89e-4 c 0.1578068,-0.4783 0.7064181,-0.900169 1.2550729,-0.86782 1.1613927,0.372477 2.3698829,0.633526 3.4489425,1.21438 1.1346565,0.161565 2.1383931,0.734156 2.9134872,1.57097 0.03891,0.03587 0.08059,0.06742 0.120189,0.102208 a 0.78267525,0.78267525 0 0 1 0.657347,0.521448 c 0.944542,0.680957 1.977601,1.222818 2.786485,2.103208 0.685796,0.632428 1.704418,0.972321 2.518285,1.506428 1.015829,0.563106 2.237599,0.8133962 3.207051,1.3347571 0.921193,0.036426 1.808982,0.4267306 2.623142,0.8191759 0.589751,0.2251818 1.167498,0.473788 1.743777,0.7239713 l 0.149337,-0.2528694 c -0.908193,-0.4444645 -1.811429,-0.8988793 -2.805223,-1.1239063 -2.160348,-0.9236626 -4.556241,-1.3050916 -6.523692,-2.6291986 -1.241523,-1.615384 -3.212268,-2.263925 -4.7257815,-3.543958 -1.133789,-1.196186 -2.7669344,-1.498948 -4.2520302,-2.032987 -0.5784557,-0.35463 -1.1542402,-0.591333 -1.7579727,-0.580313 z m -9.6976193,2.307434 c 0.5334814,0.186804 -0.2432568,0.01456 0,0 z m 0,0 c -0.2432568,0.01456 0.5334814,0.186804 0,0 z m 12.8070051,0.370408 c 0.1388903,-0.01371 0.2953083,2.67e-4 0.4686413,0.04864 0.1689299,0.126111 0.3335281,0.260985 0.4970323,0.398232 H 7.4255716 c -0.038129,-0.01807 -0.073163,-0.0408 -0.11205,-0.05773 -0.1941062,-0.0296 -0.3490939,-0.0031 -0.4739409,0.05773 h -0.074195 a 0.36626667,0.36626667 0 0 1 -0.3283896,-0.274636 c 0.1189214,-0.09235 0.26534,-0.154946 0.4404395,-0.172239 z m 0,0 c -0.1750995,0.01729 -0.3215181,0.07989 -0.4404395,0.172239 a 0.36626667,0.36626667 0 0 0 0.3283896,0.274636 h 0.074195 c 0.124847,-0.06083 0.2798347,-0.08733 0.4739409,-0.05773 0.038887,0.01693 0.073921,0.03966 0.11205,0.05773 H 7.843109 c -0.1635042,-0.137247 -0.3281024,-0.272121 -0.4970323,-0.398232 -0.173333,-0.04838 -0.329751,-0.06235 -0.4686413,-0.04864 z m 0.6505332,0.318358 c 0.1146978,0.08339 -0.2230714,0.07136 0,0 z m 2.9416894,2.376897 c 0.497814,0.353002 1.025923,0.656609 1.620371,0.847757 1.487445,0.687109 2.737687,1.786095 4.260169,2.4293256 1.120781,0.8247214 2.601253,1.3087659 3.701622,1.9936182 0.884782,0.3702952 1.803332,0.6666703 2.751281,0.8572199 -1.960285,0.142628 -3.5086,-1.3380876 -5.281868,-1.9351327 -1.002562,-0.5684872 -1.953698,-1.198607 -3.00661,-1.659361 -1.175692,-0.927351 -2.536446,-1.600013 -3.931401,-2.121946 -0.06222,-0.05197 -0.119043,-0.112749 -0.179999,-0.16675 z m 0,0 -0.06644,0.244731 c 0.06096,0.054 0.117779,0.11478 0.179999,0.16675 1.394955,0.521933 2.755709,1.194595 3.931401,2.121946 1.052912,0.460754 2.004048,1.0908738 3.00661,1.659361 1.773268,0.5970451 3.321583,2.0777607 5.281868,1.9351327 -0.947949,-0.1905496 -1.866499,-0.4869247 -2.751281,-0.8572199 -1.100369,-0.6848523 -2.580841,-1.1688968 -3.701622,-1.9936182 -1.522482,-0.6432306 -2.772724,-1.7422166 -4.260169,-2.4293256 -0.594448,-0.191148 -1.122557,-0.494755 -1.620371,-0.847757 z m 12.919434,0.707694 c 0.137832,0.02666 -0.142808,0.175026 0,0 z m 0,0 c -0.142808,0.175026 0.137832,0.02666 0,0 z m 0.08063,0.0636 c 0.102123,0.03311 -0.130179,0.09997 0,0 z m 0,0 c -0.130179,0.09997 0.102123,0.03311 0,0 z m -13.354952,0.538105 c 0.287008,0.14478 0.562252,0.310969 0.805359,0.53413 1.125272,0.8298112 2.102516,1.867091 3.442697,2.3988527 1.571783,0.9518769 3.114128,1.9639314 4.933414,2.335257 0.903259,0.3389635 1.636336,1.0471489 2.54554,1.3321072 l -0.09312,0.1574756 C 21.061571,-4.798166 20.40708,-5.1226752 19.793462,-5.5180835 18.57405,-5.9676849 17.444035,-6.5657561 16.231902,-7.049685 15.140451,-7.4999588 14.029109,-8.2061263 13.143715,-8.8786353 11.949444,-9.3939701 11.199774,-10.5512 10.07559,-11.188719 Z m 0,0 -0.03918,0.144794 c 1.124184,0.637519 1.873854,1.7947489 3.068125,2.3100837 0.885394,0.672509 1.996736,1.3786765 3.088187,1.8289503 1.212133,0.4839289 2.342148,1.0820001 3.56156,1.5316015 0.613618,0.3954083 1.268109,0.7199175 1.955196,0.942393 l 0.09312,-0.1574756 c -0.909204,-0.2849583 -1.642281,-0.9931437 -2.54554,-1.3321072 -1.819286,-0.3713256 -3.361631,-1.3833801 -4.933414,-2.335257 -1.340181,-0.5317617 -2.317425,-1.5690415 -3.442697,-2.3988527 -0.243107,-0.223161 -0.518351,-0.38935 -0.805359,-0.53413 z m -17.0881833,0.760122 v 0.289778 a 0.33330267,0.33330267 0 0 1 -0.051672,0.124921 c -0.1009149,0.06967 -0.2025498,0.139214 -0.3028377,0.2083899 h -0.653372 c 0.04605,-0.037984 0.09414,-0.07294 0.1396839,-0.1116709 0.3019017,-0.154568 0.588595,-0.328425 0.8681978,-0.511418 z m 0,0 c -0.2796028,0.182993 -0.5662961,0.35685 -0.8681978,0.511418 -0.045544,0.03873 -0.093634,0.073687 -0.1396839,0.1116709 h 0.6533723 c 0.1002879,-0.069176 0.2019228,-0.1387199 0.3028377,-0.2083899 a 0.33330267,0.33330267 0 0 0 0.051672,-0.124921 z m 16.6997941,0.6730571 -0.087823,0.3242256 c 0.023461,0.016594 0.049838,0.029856 0.07287,0.04694 1.6268122,1.3137272 3.4458582,2.3494342 5.3789652,3.1527295 0.04368,0.025882 0.08871,0.048156 0.132681,0.073249 a 50.3991,50.3991 0 0 1 2.548947,1.0922977 c 0.515535,0.1757347 1.033339,0.3439619 1.548068,0.5159596 0.65071,0.2489562 1.234685,0.6228418 1.812673,1.0082602 a 0.36985608,0.36985608 0 0 0 0.171103,-0.1355198 l 0.05186,-0.087634 c -0.783799,-0.5902096 -1.780388,-0.7431796 -2.600997,-1.2490161 -1.284425,-0.5179918 -2.567551,-0.9877512 -3.827111,-1.5673742 -1.206819,-0.3831369 -2.325836,-0.931924 -3.248502,-1.808698 -0.595124,-0.543024 -1.255674,-0.9845722 -1.9527356,-1.3654194 z" /></g></g></svg>
