<?xml version="1.0" encoding="UTF-8" standalone="no"?>
<svg
   data-stacking-context="true"
   aria-owns="qr-code-container"
   width="175.11182"
   height="13.626907"
   viewBox="194.57812 108 175.11182 13.626907"
   version="1.1"
   id="svg342"
   xmlns="http://www.w3.org/2000/svg"
   xmlns:svg="http://www.w3.org/2000/svg">
  <defs
     id="defs342" />
  <!-- Generated by dom-to-svg from https://mini-qr-code-generator.vercel.app/ -->
  <style
     id="style1" />
  <path
     d="m 200.59577,119.71331 c 0,-0.12949 -0.0288,-0.27336 -0.0288,-0.40285 0.0144,-0.1151 0.0288,-0.21581 0.0288,-0.31652 0,-0.10071 0.0144,-0.28774 0,-0.37407 -0.0288,-0.31652 0.0144,-0.66181 0,-0.99272 -0.0144,-0.46039 0,-0.86324 0,-1.30925 0.0144,-0.37407 -0.0432,-0.76252 -0.0288,-1.13659 0.0288,-0.35968 0.0144,-0.73375 0.0288,-1.09344 0.0144,-0.35968 0.0144,-0.73375 -0.0719,-1.09343 -0.12948,-0.10071 -0.3309,-0.0575 -0.53233,-0.0575 -0.20142,0 -0.43162,-0.0432 -0.54671,0.0863 -0.0575,0.14388 0.0719,0.47478 -0.0719,0.56111 -0.18704,0.0288 -0.21581,-0.1151 -0.31652,-0.17265 -0.0719,-0.10071 -0.21581,-0.12949 -0.27336,-0.24458 -0.20142,-0.0575 -0.31652,-0.20143 -0.50356,-0.27336 -0.15826,-0.0288 -0.3309,0 -0.47478,-0.0288 -0.10071,-0.0144 -0.17264,-0.0575 -0.27336,-0.0719 -0.10071,0 -0.20142,0.0288 -0.31652,0.0288 h -0.35968 c -0.33091,0.0863 -0.61865,0.20142 -0.9064,0.3453 -0.14387,0.14387 -0.30213,0.27335 -0.47478,0.40284 -0.0575,0.14387 -0.17265,0.21581 -0.2302,0.35968 -0.10071,0.0719 -0.20142,0.12949 -0.28774,0.20142 -0.10071,0.35969 -0.28775,0.61866 -0.33091,1.0215 -0.0288,0.44601 -0.0575,0.73376 -0.0432,1.22292 0.0432,0.15826 0.0576,0.31652 0.0432,0.50356 l 0.33091,0.83446 c 0.0719,0.10071 0.15826,0.20142 0.24458,0.30214 0.0432,0.14387 0.17265,0.18703 0.2302,0.31652 0.12948,0.0719 0.24458,0.18703 0.37407,0.27335 l 0.2302,0.1151 0.20142,0.12949 c 0.24458,0.0144 0.35968,0.15826 0.61865,0.14387 0.0863,0.0432 0.20142,0.0432 0.31652,0.0575 0.28775,0.0575 0.54672,0.0432 0.86324,0.0288 0.10071,0 0.0719,-0.1151 0.18704,-0.0863 l 0.2158,-0.0575 c 0.20143,-0.14387 0.37407,-0.30213 0.61866,-0.40284 0.0432,-0.0719 0.10071,-0.12949 0.15826,-0.20142 0.0719,-0.0288 0.1151,-0.17265 0.20142,-0.1151 0.0432,0.0575 0.0288,0.12948 0.0288,0.20142 v 0.18703 c 0,0.38846 0.0144,0.86324 0,1.30925 -0.0144,0.21581 0.0288,0.41723 -0.0432,0.58988 -0.28774,0.14387 -0.61865,0.0863 -0.96395,0.10071 h -0.76252 c -0.27336,-0.0144 -0.54672,-0.0288 -0.82008,-0.0288 -0.27336,0 -0.54672,0.0288 -0.82007,0.0288 -0.27336,-0.0144 -0.51795,-0.0575 -0.76253,-0.0288 -0.0863,0.14387 -0.0288,0.31652 -0.0288,0.50355 0,0.14387 -0.0575,0.30213 0,0.43162 0.15826,0.15826 0.44601,0.0863 0.67621,0.0863 0.15826,0 0.30213,0.0288 0.46039,0.0288 0.1151,-0.0144 0.2302,-0.0288 0.3453,-0.0288 h 2.01422 c 0.64743,0 1.16537,0.0288 1.72647,0 0.12949,-0.12948 0.15826,-0.23019 0.12949,-0.43162 -0.0144,-0.17264 0,-0.31652 0,-0.47478 z m -4.69026,-4.4169 c 0.0144,-0.0576 0.0144,-0.12949 0.0432,-0.18704 0.0144,-0.0575 0.0719,-0.10071 0.0863,-0.15826 0.0288,-0.0575 0.0288,-0.12948 0.0432,-0.18703 0.0144,-0.0144 0.0432,-0.0144 0.0575,-0.0432 0.0288,-0.0575 0.1151,-0.17264 0.17264,-0.24458 0.0144,-0.0144 0.0576,0 0.0719,-0.0288 0.0144,-0.0144 0.0144,-0.0288 0.0144,-0.0432 0.0288,-0.0288 0.0575,-0.0575 0.0719,-0.0863 0.15826,-0.0575 0.24459,-0.15826 0.38846,-0.2302 0.37407,-0.0719 0.76253,-0.20142 1.17976,-0.12948 0.25897,0.0432 0.44601,0.20142 0.70498,0.27336 0.18703,0.17264 0.34529,0.38845 0.51794,0.58988 0.0288,0.12948 0.0719,0.24458 0.14387,0.3309 -0.0144,0.1151 0.0288,0.17265 0.0432,0.27336 0.0144,0 0.0144,0.0144 0.0144,0.0288 0,0.23019 0.0144,0.446 0,0.64742 0,0.20143 -0.0719,0.38846 -0.0575,0.5755 -0.10071,0.1151 -0.10071,0.25897 -0.17264,0.38845 -0.0288,0.0575 -0.10071,0.12949 -0.15826,0.20143 -0.10072,0.14387 -0.21581,0.24458 -0.35969,0.38845 -0.15826,0.0575 -0.27336,0.15826 -0.446,0.20143 -0.14388,0.0719 -0.3453,0.0719 -0.47478,0.15826 -0.10071,0 -0.18704,-0.0432 -0.27336,0 -0.21581,-0.0576 -0.43162,-0.10072 -0.61866,-0.18704 -0.20142,-0.0719 -0.34529,-0.21581 -0.51794,-0.31652 -0.0719,-0.15826 -0.20142,-0.27336 -0.30213,-0.40284 -0.0432,-0.17265 -0.10071,-0.3453 -0.20142,-0.47479 0.0144,-0.14387 -0.0288,-0.2158 -0.0719,-0.30213 0.0575,-0.30213 -0.0288,-0.58988 0.0288,-0.86324 z m 7.72599,-4.58955 c 0.0144,-0.44601 -0.0432,-0.80569 -0.27336,-1.0215 -0.15826,-0.0863 -0.41723,-0.0863 -0.63304,-0.12949 -0.1151,0.0575 -0.24459,0.1151 -0.35968,0.18704 -0.0863,0.18703 -0.18704,0.34529 -0.20143,0.60427 0.0144,0.18703 0.10071,0.30213 0.20143,0.40284 0.0719,0.14387 0.18703,0.24458 0.31652,0.33091 0.18703,-0.0288 0.31652,0.0144 0.47478,0.0144 0.20142,-0.0863 0.37407,-0.20142 0.47478,-0.38845 z m -1.19415,5.40962 c -0.0719,0.43162 0,0.84885 0,1.2517 0,0.14387 -0.0576,0.28774 -0.0576,0.43162 0.0144,0.35968 0.0576,0.71936 0,1.07904 0.17265,0.20143 0.56111,0.15826 0.84885,0.10071 0.1151,-0.0575 0.12949,-0.20142 0.2302,-0.27335 0,-0.0719 0.0576,-0.10072 0.10071,-0.14388 0.0288,-0.0575 -0.0144,-0.64743 -0.0144,-0.76252 0,-0.0288 0.0288,-0.0288 0.0144,-0.0719 0,-0.18704 -0.0432,-0.38846 -0.0432,-0.58988 0,-0.0863 0.0288,-0.17265 0.0288,-0.27336 0,-0.0863 -0.0288,-0.17265 -0.0288,-0.27336 0.0144,-0.48917 0.0288,-1.00711 0.0288,-1.49628 0,-0.3309 -0.0432,-0.66181 -0.0432,-0.97833 0,-0.3453 0.0719,-0.69059 0.0144,-1.00711 -0.24458,-0.21581 -0.74814,-0.1151 -1.10782,-0.0719 -0.0719,0.21581 -0.0432,0.46039 -0.0432,0.70498 0,0.23019 -0.0288,0.47478 -0.0288,0.71936 0,0.14388 0.0432,0.31652 0.0432,0.4604 0.0144,0.15826 0.0288,0.31652 0.0288,0.47478 0,0.14387 -0.0288,0.28774 -0.0288,0.43162 z m 4.11476,-0.27336 c 0,-0.11509 0.0144,-0.20142 0.0144,-0.30213 0,-0.20142 -0.0288,-0.40284 -0.0432,-0.58988 0,-0.21581 0.0144,-0.40284 0.0288,-0.60427 0,-0.15826 -0.0432,-0.31652 0.0432,-0.46039 0.3453,-0.0575 0.73376,0.0719 1.06466,0 0.0863,-0.0863 0.10071,-0.24458 0.1151,-0.40284 -0.0863,-0.17265 0,-0.50356 -0.14387,-0.61866 -0.31652,-0.0719 -0.76253,0.0719 -1.03589,-0.0719 -0.15826,-0.25898 -0.0144,-0.67621 -0.1151,-0.99273 0.0432,-0.27336 0.14388,-0.76252 0,-1.06466 -0.12948,-0.0575 -0.31652,-0.0288 -0.51794,-0.0288 -0.20142,0 -0.40284,-0.0144 -0.57549,0.0288 -0.0144,0.10071 -0.0575,0.21581 -0.0575,0.3453 -0.0144,0.18703 0.0575,0.40284 0.0575,0.63304 0,0.20142 -0.0144,0.38846 -0.0144,0.58988 0,0.17265 0.0288,0.40284 -0.1151,0.51794 -0.15826,0.0719 -0.3309,0 -0.47478,0.0863 -0.0863,0.15826 -0.0288,0.40285 -0.0432,0.5755 0,0.12948 -0.0288,0.15826 0,0.27336 0.0432,0.0575 0.0288,0.18703 0.12949,0.20142 0.14387,0.0432 0.30213,-0.14388 0.47478,-0.0432 0.0863,0.11509 0.0288,0.27335 0.0288,0.40284 0,0.24458 0.0432,0.47478 0.0719,0.71936 -0.0288,0.10072 -0.0432,0.18704 -0.0719,0.25898 0.0719,0.15826 0.0288,0.3309 0.0144,0.48916 -0.0144,0.27336 0.0288,0.56111 0.0288,0.84885 0,0.0575 -0.0288,0.12949 -0.0288,0.17265 0,0.0719 0.0288,0.14388 0.0288,0.21581 0,0.0719 -0.0288,0.14388 -0.0288,0.21581 0.0144,0.25897 0.0432,0.50356 0.0288,0.74814 0,0.0719 -0.0432,0.14387 -0.0432,0.20142 -0.0144,0.10071 0.0288,0.20143 0,0.30214 0.0432,0.0863 0.0719,0.20142 0.12949,0.27336 0.35968,0.0575 0.84885,0.0719 1.09343,-0.1151 0.0575,-0.18704 0,-0.38846 -0.0432,-0.54672 0.0575,-0.2302 -0.0288,-0.43162 -0.0288,-0.63304 0,-0.1151 0.0288,-0.24459 0.0288,-0.35968 0,-0.37407 -0.0288,-0.79131 0,-1.16538 z m 3.5249,-3.56805 c 0,-0.1151 0.0288,-0.23019 0.0288,-0.34529 0,-0.10071 -0.0144,-0.20142 -0.0288,-0.31652 0.12948,-0.43162 -0.0575,-0.94956 0.0575,-1.38118 -0.0288,-0.0863 -0.0432,-0.18704 -0.0575,-0.28775 0,-0.17265 0.0432,-0.44601 0,-0.54672 0,-0.0288 0.0288,-0.0432 0.0288,-0.0432 v -0.2302 c -0.0144,-0.10071 -0.0432,-0.17264 -0.0719,-0.27335 0.0863,-0.17265 0.12949,-0.47478 0.10072,-0.70498 -0.10072,-0.14387 -0.3453,-0.12949 -0.5755,-0.12949 -0.21581,-0.0144 -0.46039,-0.0432 -0.60426,0.0432 -0.0863,0.27336 -0.0432,0.60427 -0.0576,0.92079 0,0.33091 0.0144,0.63304 -0.0144,0.92079 0.0575,0.18703 0.0288,0.37407 0.0144,0.5611 v 0.28775 c 0.0144,0.30213 0,0.57549 0,0.86324 0.0144,0.24458 0.0576,0.57549 0.0576,0.84885 0,0.37407 0,0.76252 -0.0576,1.07905 0.0576,0.25897 0.0288,0.51794 0.0288,0.73375 0,0.0719 0.0144,0.14387 0.0288,0.23019 0.0144,0.48917 0.0144,0.93518 0.0144,1.42435 -0.0575,0.23019 -0.0288,0.57549 -0.0719,0.83446 0.0288,0.10071 0.0719,0.20142 0.0719,0.31652 0,0.0863 -0.0144,0.17265 -0.0144,0.27336 -0.0144,0.33091 0.0432,0.66182 0.0144,0.93517 -0.0144,0.21581 -0.0863,0.41724 0.0432,0.56111 0.11509,0.0719 0.34529,0.0432 0.53233,0.0432 0.17264,0.0719 0.46039,0.0719 0.58988,-0.0432 0.10071,-0.15826 0,-0.41723 -0.0288,-0.58988 0.0288,-0.2302 -0.0288,-0.48917 -0.0288,-0.74814 0.0144,-0.18703 0,-0.46039 0.0288,-0.6762 0,-0.1151 -0.0719,-0.15826 -0.0719,-0.27336 0.0432,-0.10071 0.0432,-0.30213 0,-0.40285 0.1151,-0.23019 0.0575,-0.6762 0.10072,-0.93517 v -0.15826 c 0.0144,-0.14387 0.0575,-0.24458 0.0575,-0.35968 0.15826,-0.27336 0.35968,-0.51795 0.63304,-0.66182 0.35968,-0.18703 1.02149,-0.20142 1.43873,-0.0432 0.24458,0.17265 0.47478,0.35968 0.58988,0.6762 0,0.15826 -0.0144,0.31652 0,0.50356 0,0.30213 0.0288,0.63304 0.0144,0.94956 0,0.17265 -0.0288,0.33091 -0.0144,0.50355 0.0144,0.33091 0.0432,0.67621 0.0432,0.99273 0,0.1151 -0.0288,0.24458 -0.0288,0.34529 0,0.14388 0.0432,0.27336 0.0288,0.40285 -0.0144,0.18703 -0.12949,0.28774 -0.0432,0.40284 0.10071,0.18704 0.41723,0.10071 0.6762,0.10071 0.15826,0 0.27336,0.0288 0.40284,0 0.1151,-0.0719 0.20143,-0.24458 0.14388,-0.41723 -0.0863,-0.86324 -0.0863,-1.79841 -0.0432,-2.64726 -0.0576,-0.20142 -0.0719,-0.54672 -0.0288,-0.77692 -0.0575,-0.25897 -0.0575,-0.61865 -0.0432,-0.9064 -0.0719,-0.18703 -0.17265,-0.34529 -0.24459,-0.51794 -0.18703,-0.12948 -0.3309,-0.34529 -0.50355,-0.446 -0.1151,-0.0863 -0.27336,-0.0863 -0.38846,-0.18704 -0.17265,-0.0288 -0.25897,-0.1151 -0.40284,-0.15826 -0.43162,-0.0288 -0.92079,-0.10071 -1.29486,0.0144 -0.0863,0.0432 -0.17265,0.10071 -0.27336,0.14387 -0.10071,0.0432 -0.2302,0.0575 -0.31652,0.1151 -0.14387,0.0719 -0.24458,0.25897 -0.40284,0.2302 -0.0719,-0.25898 0,-0.51795 0,-0.74814 z m 5.43839,0.56111 c -0.10072,0.0863 -0.1151,0.24458 -0.17265,0.37407 -0.0144,0.18703 0,0.34529 0.0144,0.51794 0,0.10071 -0.0432,0.18704 -0.0432,0.28775 0,0.10071 0.0288,0.18703 0.0288,0.27336 0,0.10071 -0.0288,0.18703 -0.0288,0.27335 0,0.2302 0.0432,0.43162 0.0432,0.66182 0,0.0863 -0.0144,0.15826 -0.0144,0.24458 -0.0144,0.0863 0.0144,0.17265 0.0144,0.25898 0,0.28774 0,0.5611 -0.0432,0.80568 0.0288,0.20143 0.0863,0.37407 0.0719,0.61866 0.0863,0.18703 0.17265,0.34529 0.2302,0.5611 0.17264,0.24459 0.34529,0.48917 0.5611,0.66182 0.0719,0.0575 0.17265,0.10071 0.2302,0.18703 0.25897,0.0863 0.47478,0.2302 0.74814,0.31652 0.5611,0.0432 0.97833,-0.0432 1.51066,-0.0719 0.24459,-0.0575 0.4604,-0.15826 0.69059,-0.24459 0.15826,-0.12948 0.28775,-0.28774 0.48917,-0.38845 0.0575,-0.14388 0.14388,-0.25898 0.2302,-0.35969 0.0576,-0.14387 0.10071,-0.30213 0.18703,-0.41723 0.0719,-0.1151 0.0863,-0.30213 0.15826,-0.43162 0,-0.47478 0.10072,-1.03588 -0.0288,-1.45311 0.0863,-0.17265 0.0144,-0.37407 0.0288,-0.60427 0,-0.1151 0.0575,-0.15826 0.0575,-0.27336 0,-0.0288 -0.0288,-0.0288 -0.0144,-0.0719 -0.0288,-0.25897 0,-0.57549 0,-0.83446 0,-0.1151 -0.0288,-0.21581 -0.0288,-0.31652 0,-0.18704 0.0576,-0.37407 -0.0144,-0.51794 -0.14387,-0.0863 -0.37407,-0.0719 -0.58987,-0.0719 -0.21581,0 -0.44601,0 -0.5755,0.0863 -0.0575,0.18704 0,0.35969 0,0.54672 0,0.25897 -0.0575,0.51794 0.0288,0.74814 -0.0575,0.57549 0.0144,1.17976 0,1.76964 0,0.25897 -0.0575,0.50355 -0.0432,0.74814 -0.0432,0.12948 -0.1151,0.2302 -0.14388,0.38846 -0.0575,0.0575 -0.1151,0.10071 -0.12948,0.20142 -0.0863,0.0719 -0.17265,0.12948 -0.24459,0.20142 -0.0863,0.0719 -0.15826,0.15826 -0.25897,0.20142 -0.17265,0.0432 -0.34529,0.0863 -0.50355,0.15826 -0.1151,-0.0432 -0.30214,-0.0575 -0.44601,-0.0863 -0.12949,-0.0575 -0.27336,-0.10071 -0.43162,-0.12949 -0.10071,-0.1151 -0.15826,-0.24458 -0.27336,-0.34529 -0.0432,-0.15826 -0.17265,-0.24459 -0.23019,-0.40285 -0.0144,-0.0575 -0.0144,-0.14387 -0.0432,-0.18703 0.0144,-0.15826 -0.0144,-0.35968 0.0288,-0.47478 -0.0863,-0.63304 -0.0288,-1.3668 -0.0432,-1.99984 -0.0144,-0.24458 -0.0144,-0.48916 0,-0.71936 0,-0.21581 0.0863,-0.50356 -0.0719,-0.63304 -0.1151,-0.10071 -0.31652,-0.0432 -0.50356,-0.0575 -0.15826,0 -0.30213,-0.0288 -0.43161,0 z m 11.30842,6.04266 c 0.17265,-0.10071 0.28775,-0.28774 0.48917,-0.34529 0.0432,-0.10071 0.14387,-0.17265 0.20142,-0.24459 0.0719,-0.0863 0.1151,-0.18703 0.18704,-0.27335 0.10071,-0.20143 0.20142,-0.40285 0.34529,-0.5755 -0.0288,-0.12948 0.0432,-0.17264 0.0575,-0.25897 0,-0.14387 0.0432,-0.24458 0.0288,-0.38845 0.0432,-0.0144 0,-0.0288 0,-0.0719 0,-0.2302 -0.0144,-0.47478 -0.0288,-0.70498 0,-0.24458 0.0144,-0.50355 -0.0144,-0.74814 -0.0144,-0.17265 -0.10071,-0.40284 -0.14387,-0.51794 -0.0288,-0.10071 -0.0576,-0.21581 -0.1151,-0.30213 -0.0144,-0.0575 -0.0719,-0.10072 -0.10071,-0.15826 -0.0288,-0.0288 -0.0288,-0.0575 -0.0575,-0.0863 l -0.10071,-0.15826 c -0.0719,-0.10071 -0.1151,-0.15826 -0.15826,-0.24458 -0.0432,-0.0288 -0.10071,-0.0575 -0.10071,-0.1151 -0.0575,-0.0288 -0.0863,-0.0719 -0.12949,-0.1151 -0.0432,-0.0432 -0.11509,-0.0719 -0.15826,-0.1151 -0.10071,-0.0719 -0.18703,-0.18703 -0.30213,-0.24458 -0.18703,-0.1151 -0.44601,-0.12949 -0.60427,-0.30214 -0.18703,0.0144 -0.30213,-0.0719 -0.46039,-0.0863 -0.1151,-0.0144 -0.14387,0.0719 -0.27336,0.0719 -0.30213,-0.0144 -0.48917,0.0719 -0.7913,0.0575 -0.15826,0.0719 -0.33091,0.14387 -0.51794,0.18703 -0.10071,0.12949 -0.24459,0.21581 -0.35969,0.31652 -0.15826,0.0863 -0.20142,0.25897 -0.41723,0.27336 -0.10071,-0.12949 -0.0432,-0.25897 -0.0432,-0.38846 0,-0.0432 -0.0288,-0.10071 -0.0144,-0.15826 0,-0.18703 0.0288,-0.38845 0.0432,-0.58988 0,-0.10071 -0.0288,-0.20142 -0.0288,-0.31652 0,-0.51794 0.0144,-1.09343 0,-1.53944 0,-0.38845 -0.0144,-0.76252 0,-1.13659 0.0144,-0.33091 0.0288,-0.64743 0.0719,-0.9064 -0.0719,-0.17265 -0.0432,-0.33091 -0.0719,-0.50356 -0.0863,-0.0575 -0.20142,-0.10071 -0.34529,-0.1151 -0.10072,0 -0.21581,0.0575 -0.31652,0.0575 -0.20143,0 -0.43162,-0.10071 -0.56111,0.0432 -0.0432,0.17265 0,0.33091 0.0288,0.51795 -0.0144,1.22292 0.0288,2.46022 0.0432,3.66876 0,0.63304 -0.0576,1.2373 0.0144,1.8128 -0.0863,0.24458 -0.0575,0.48916 -0.0432,0.77691 0.0288,0.44601 0.0719,0.92079 0.0719,1.36679 0,0.0863 -0.0288,0.15826 -0.0288,0.24459 0,0.0719 0.0288,0.17265 0.0288,0.24458 0,0.21581 -0.0719,0.41723 0.0144,0.57549 -0.0719,0.3453 0,0.69059 -0.0144,1.10783 -0.0576,0.21581 -0.0719,0.47478 0.0719,0.61865 0.30213,0.0432 0.71936,0 0.99272,0 0.0576,-0.0719 0.12948,-0.15826 0.1151,-0.30213 0,-0.15826 -0.0432,-0.2302 0.0144,-0.3453 0.12949,0 0.12949,0.1151 0.21581,0.14387 0.0288,0.0719 0.1151,0.10072 0.17265,0.15827 0.12949,0.10071 0.25897,0.20142 0.41723,0.27335 0.25897,0.0575 0.53233,0.12949 0.80569,0.17265 0.25897,-0.0719 0.48917,-0.0432 0.74814,-0.0144 0.25897,0 0.41723,-0.10071 0.66182,-0.11509 0.0575,-0.0576 0.12948,-0.0863 0.20142,-0.1151 z m -0.21581,-4.01405 c 0.0719,0.30213 0.27336,0.48917 0.30214,0.83446 0.0144,0 0.0144,0.0144 0.0144,0.0288 -0.0144,0.24458 0.0288,0.47478 0,0.6762 -0.0144,0.15826 -0.10071,0.30213 -0.0863,0.446 -0.10071,0.17265 -0.17265,0.35969 -0.24459,0.54672 -0.11509,0.12949 -0.23019,0.25897 -0.35968,0.37407 -0.34529,0.0863 -0.63304,0.28775 -1.05027,0.31652 -0.15826,0 -0.30213,-0.0288 -0.50356,-0.0288 -0.11509,-0.0144 -0.17264,-0.1151 -0.3309,-0.0863 -0.12949,-0.15826 -0.31652,-0.24458 -0.53233,-0.31652 -0.17265,-0.21581 -0.30214,-0.47478 -0.47479,-0.70497 -0.0288,-0.14388 -0.0575,-0.30214 -0.10071,-0.43162 0.0288,-0.12949 -0.0144,-0.24459 0,-0.35969 0,-0.0863 0.0288,-0.15826 0.0432,-0.23019 0,-0.10071 -0.0575,-0.18704 -0.0288,-0.30214 0.0576,-0.15826 0.10071,-0.34529 0.14387,-0.53233 0.1151,-0.17264 0.27336,-0.30213 0.35969,-0.50355 0.24458,-0.14387 0.46039,-0.33091 0.71936,-0.4604 0.15826,0.0144 0.27336,-0.0144 0.35968,-0.0575 0.2302,0 0.53233,0.0288 0.82008,0.0432 0.25897,0.15826 0.51794,0.34529 0.77691,0.51794 0.0432,0.0863 0.10072,0.15826 0.17265,0.2302 z m 3.5249,3.2803 c -0.0719,-0.28774 -0.21581,-0.48917 -0.35968,-0.70498 -0.17265,-0.0719 -0.35969,-0.18703 -0.53233,-0.18703 -0.27336,0 -0.37407,0.12948 -0.51795,0.30213 -0.0719,0.10071 -0.17264,0.21581 -0.21581,0.30214 -0.0863,0.17264 -0.12948,0.58987 -0.0575,0.73375 0.0719,0.10071 0.18703,0.12948 0.25897,0.20142 0.0719,0.10071 0.17264,0.12949 0.30213,0.18703 0.35968,0 0.63304,-0.0863 0.89201,-0.2158 0.0863,-0.18704 0.21581,-0.3453 0.25897,-0.58988 -0.0144,-0.0144 -0.0144,-0.0288 -0.0288,-0.0288 z m 1.49627,-1.3524 c 0.0144,0.0288 0.0288,0.0575 0.0288,0.11509 0.0432,0.0863 0.0432,0.17265 0.0863,0.27336 0.0288,0.0863 0.10071,0.15826 0.1151,0.25897 0.0719,0.31652 0.30213,0.47478 0.44601,0.73376 0.17265,0.0719 0.25897,0.21581 0.35968,0.35968 0.20142,0.15826 0.44601,0.25897 0.61865,0.43162 l 0.43162,0.0719 c 0.0144,0 0.0432,0.0432 0.0719,0.0432 0.0288,0.0144 0.0863,-0.0144 0.12949,0 0.0719,0.0144 0.14387,0.0575 0.20142,0.0719 0.18703,-0.0144 0.30213,0.0288 0.47478,0.0144 0.2302,-0.0432 0.38846,-0.0288 0.66181,-0.0432 0.2302,-0.0576 0.51795,-0.0576 0.74814,-0.1151 0.10071,-0.0432 0.17265,-0.12949 0.25898,-0.20142 0.0432,-0.10071 0.17264,-0.12949 0.20142,-0.27336 -0.0144,-0.1151 0.0144,-0.27336 -0.0288,-0.35968 -0.0432,-0.31652 0.0719,-0.67621 -0.1151,-0.86324 -0.20142,0.0144 -0.25897,0.17265 -0.38845,0.27336 -0.21581,0.17264 -0.48917,0.27336 -0.80569,0.34529 -0.21581,-0.0144 -0.40285,0.0144 -0.57549,0.0432 -0.10071,-0.0432 -0.20143,-0.0863 -0.35969,-0.0719 -0.10071,-0.0575 -0.21581,-0.1151 -0.35968,-0.12949 -0.18703,-0.15826 -0.41723,-0.27336 -0.58988,-0.43162 -0.18703,-0.35968 -0.40284,-0.6762 -0.50355,-1.12221 0,-0.46039 0.14387,-0.77691 0.25897,-1.12221 0.0575,-0.0863 0.12948,-0.14387 0.15826,-0.25897 0.14387,-0.1151 0.25897,-0.27336 0.40284,-0.38845 0.0576,-0.0719 0.15826,-0.10072 0.2302,-0.15826 0.10071,-0.0288 0.12949,-0.12949 0.24458,-0.15827 l 0.61866,-0.12948 c 0.14387,0.0432 0.25897,0.0575 0.43162,0.0432 0.1151,0.0432 0.21581,0.12949 0.40284,0.1151 0.12949,0.10071 0.31652,0.14387 0.43162,0.24458 0.17265,0.0575 0.20142,0.27336 0.44601,0.25897 0.11509,-0.11509 0.0576,-0.28774 0.0576,-0.43161 -0.0288,-0.30214 -0.0288,-0.60427 0,-0.86324 -0.0288,-0.0144 -0.0288,-0.0432 -0.0288,-0.0719 -0.0863,-0.14387 -0.25897,-0.2302 -0.46039,-0.27336 -0.12949,-0.10071 -0.37407,-0.10071 -0.53233,-0.18703 -0.53233,-0.0575 -0.87763,0.0863 -1.43873,0.0288 -0.12949,0.0432 -0.24459,0.0863 -0.40285,0.1151 -0.10071,0.10071 -0.25897,0.14387 -0.40284,0.20142 -0.12949,0.14388 -0.30213,0.24459 -0.48917,0.31652 -0.12949,0.17265 -0.30213,0.30214 -0.41723,0.47478 -0.0575,0.10072 -0.14387,0.17265 -0.21581,0.25898 -0.0288,0.11509 -0.0863,0.20142 -0.17265,0.27335 -0.0288,0.1151 -0.0432,0.24459 -0.1151,0.33091 -0.0576,0.10071 -0.0719,0.24459 -0.1151,0.35968 -0.0144,0.33091 -0.0575,0.60427 -0.0432,0.96395 0,0.1151 0.0288,0.25898 0.0432,0.35969 z m 8.84821,-4.11477 c -0.31652,0.0863 -0.67621,0.12948 -0.94957,0.25897 -0.17264,0.0144 -0.31652,0.0719 -0.47478,0.1151 -0.10071,0.0576 -0.14387,0.18703 -0.23019,0.27336 -0.0863,0.0719 -0.21581,0.11509 -0.27336,0.21581 -0.0432,0.12948 -0.14388,0.18703 -0.24459,0.25897 -0.0576,0.10071 -0.14387,0.18703 -0.23019,0.27336 -0.0144,0.14387 -0.1151,0.20142 -0.15826,0.3309 -0.0575,0.20143 -0.14388,0.35969 -0.17265,0.58988 -0.0575,0.20142 -0.0719,0.4604 -0.1151,0.66182 0.0432,0.18703 -0.0288,0.35968 0,0.58988 0.0144,0.1151 0.0575,0.18703 0.0432,0.34529 l 0.15826,0.40285 c 0.0144,0.0432 0.0288,0.0432 0.0432,0.0719 l 0.15826,0.31652 c 0.0863,0.14388 0.21581,0.25898 0.27336,0.43162 0.21581,0.17265 0.43162,0.37407 0.66182,0.51795 0.0719,0.0432 0.17265,0.0863 0.27336,0.12948 0.20142,0.10071 0.47478,0.2302 0.69059,0.27336 0.0288,0.0144 0.0719,0 0.10071,0 l 0.0576,0.0432 c 0.44601,0.1151 0.94956,0.0719 1.49628,0.0575 0.14387,-0.0575 0.25897,-0.14387 0.43162,-0.15826 0.0432,-0.0719 0.12948,-0.0863 0.21581,-0.1151 0.0432,-0.0719 0.11509,-0.1151 0.20142,-0.14387 0.12948,-0.0863 0.27336,-0.17265 0.43162,-0.24458 0.0719,-0.0863 0.17265,-0.17265 0.27336,-0.24459 0.0719,-0.10071 0.17264,-0.18703 0.27336,-0.25897 0.0719,-0.15826 0.17264,-0.31652 0.27335,-0.47478 l 0.21581,-0.51794 c 0.0432,-0.14388 0.0288,-0.35969 0.0719,-0.50356 0.0288,-0.17265 0.0575,-0.33091 0.0432,-0.54672 0,-0.0144 0,-0.0288 -0.0144,-0.0144 -0.0144,-0.28775 -0.11509,-0.48917 -0.11509,-0.77692 -0.0719,-0.10071 -0.1151,-0.18703 -0.15826,-0.28774 -0.0288,-0.0575 -0.0719,-0.0863 -0.10072,-0.14388 -0.0144,-0.0575 0,-0.11509 -0.0432,-0.17264 -0.0863,-0.10072 -0.14387,-0.21581 -0.23019,-0.30214 -0.0575,-0.1151 -0.15826,-0.20142 -0.21581,-0.31652 -0.0575,-0.0432 -0.1151,-0.0575 -0.15826,-0.0863 -0.0863,-0.0719 -0.1151,-0.12949 -0.18704,-0.18704 -0.10071,-0.0719 -0.18703,-0.17264 -0.28774,-0.23019 -0.1151,-0.0576 -0.20143,-0.0719 -0.27336,-0.15826 -0.1151,0.0144 -0.15826,-0.0432 -0.25897,-0.0575 -0.0432,-0.0575 -0.20143,-0.0144 -0.21581,-0.10071 -0.18704,-0.0288 -0.35969,-0.0575 -0.53233,-0.1151 z m -0.0432,1.16537 c 0.43162,-0.0144 0.79131,0 1.09344,0.12948 0.12948,0.0719 0.25897,0.17265 0.38846,0.2302 0.11509,0.0863 0.23019,0.17265 0.35968,0.24459 0.0288,0.0863 0.0863,0.14387 0.15826,0.18703 0.12948,0.25897 0.25897,0.50356 0.35968,0.7913 0.0288,0 0.0144,0.0288 0.0288,0.0432 0.0144,0 0.0144,0.0144 0.0144,0.0288 -0.0288,0.2302 0,0.51794 -0.0432,0.74814 -0.12948,0.47478 -0.44601,0.74814 -0.70498,1.09343 -0.15826,0.0863 -0.3309,0.17265 -0.446,0.28775 -0.1151,0 -0.18704,0.0288 -0.25897,0.0719 -0.18704,0 -0.38846,-0.0144 -0.51795,0.0432 -0.24458,-0.0432 -0.47478,-0.0432 -0.74814,-0.0863 0,-0.0288 -0.0144,-0.0288 -0.0288,-0.0288 -0.10071,-0.0432 -0.2302,-0.0863 -0.31652,-0.15826 -0.0576,-0.0863 -0.20142,-0.10071 -0.27336,-0.20142 -0.14387,-0.15826 -0.3453,-0.25898 -0.47478,-0.4604 -0.0575,-0.10071 -0.0863,-0.23019 -0.12949,-0.35968 -0.0432,-0.1151 -0.0863,-0.2302 -0.14387,-0.3453 -0.0432,-0.43161 0.0719,-0.73375 0.14387,-1.10782 0.0863,-0.12948 0.18704,-0.24458 0.24459,-0.40284 0.25897,-0.20142 0.50355,-0.43162 0.77691,-0.61866 z m 7.48141,-0.93518 c -0.89201,0 -1.6977,-0.0288 -2.53217,0 -0.15826,0.21581 -0.10071,0.51795 -0.10071,0.82008 0.0144,0.24458 -0.0144,0.48917 -0.0144,0.74814 v 0.40284 c 0,0.14388 -0.0288,0.28775 -0.0288,0.41724 0.0144,0.11509 0.0432,0.24458 0.0432,0.35968 0.0144,0.15826 -0.0288,0.31652 0.0288,0.446 -0.0719,0.30214 -0.0288,0.66182 -0.0288,1.00712 0.0144,0.37407 -0.0144,0.74814 0.0288,1.10782 -0.0432,0.15826 -0.10071,0.41723 -0.0432,0.61865 0.0719,0.0575 0.14387,0.12949 0.27335,0.12949 0.27336,-0.0863 0.70498,0.0719 0.9064,-0.0719 0.10072,-0.2302 0.0144,-0.50355 0,-0.76253 v -1.28047 c -0.0144,-0.41723 -0.0432,-0.83446 -0.0432,-1.2373 0,-0.3453 0.0144,-0.71937 0.0144,-1.0215 -0.0288,-0.20142 -0.0863,-0.50356 0.0432,-0.63304 0.1151,-0.0432 0.18704,0.0144 0.33091,0 0.48917,-0.1151 1.09343,0.0432 1.55383,-0.10071 0.1151,0.0863 0.25897,0 0.38845,0.0575 0.10072,0.17264 0.0575,0.37407 0.0432,0.58987 0,0.3453 0.0432,0.77692 0.0432,1.10783 0,0.12948 -0.0144,0.25897 -0.0144,0.38845 0,0.2302 0.0575,0.44601 -0.0288,0.63304 0.1151,0.31653 0.0288,0.67621 0.0288,1.0215 0,0.2302 0.0432,0.4604 0.0144,0.70498 -0.0432,0.17265 -0.0719,0.41723 0.0575,0.53233 0.15826,0.10071 0.37407,-0.0144 0.5611,-0.0144 0.17265,0.0288 0.43162,0.0863 0.58988,0 0.0719,-0.18703 0,-0.37407 -0.0288,-0.57549 -0.0288,-0.47478 0.0144,-1.00711 -0.0575,-1.49628 0.0432,-0.37407 0.0144,-0.86324 -0.0288,-1.22292 0.0288,-0.0719 0.0432,-0.14387 0.0432,-0.23019 0.0144,-0.0719 0.0288,-0.18704 0.0288,-0.25898 0,-0.11509 -0.0432,-0.21581 -0.0432,-0.3309 0,-0.0863 0.0144,-0.18704 0.0144,-0.28775 0,-0.18703 -0.0863,-0.40284 0.0432,-0.54672 0.12948,-0.0863 0.38845,-0.0144 0.54671,0 0.10072,-0.0432 0.27336,-0.0144 0.38846,-0.0432 l 0.24459,0.0432 c 0.0863,0.0144 0.15826,0.0288 0.23019,0.0288 0.1151,-0.0144 0.20142,-0.0719 0.31652,-0.10071 0.24459,0.0288 0.41723,-0.0288 0.58988,0.0575 0.0719,0.27335 0.0144,0.5611 0.0288,0.84885 0,0.14387 0.0144,0.28774 0.0144,0.43161 0,0.15827 0.0288,0.31653 0.0288,0.4604 0,0.0719 -0.0288,0.14387 -0.0288,0.2302 0,0.18703 0.0288,0.37407 0.0288,0.5611 0,0.21581 -0.0288,0.40284 -0.0288,0.61865 0,0.20143 0.0288,0.40285 0.0288,0.60427 0,0.35968 -0.0288,0.82008 -0.0288,1.1366 0.12949,0.1151 0.35969,0.0575 0.5755,0.0432 0.20142,0 0.38845,0.0288 0.54671,0 0.10071,-0.12949 0.0575,-0.38846 0.0575,-0.60427 -0.0575,-0.14387 0,-0.25897 -0.0575,-0.38845 0.0719,-0.15826 0.0144,-0.33091 0.0144,-0.50356 0,-0.0288 0.0288,-0.0575 0.0288,-0.1151 -0.0144,-0.35968 0,-0.80569 -0.0288,-1.19414 0,-0.14388 -0.0432,-0.25898 -0.0432,-0.38846 0,-0.58988 0.0719,-1.17976 -0.0288,-1.72648 0.0719,-0.27336 0.1151,-0.74814 0.0288,-1.03588 -0.17265,-0.10071 -0.37407,-0.0432 -0.56111,-0.0288 -0.38845,0.0144 -0.7913,-0.0288 -1.16537,0 -0.10071,0.0144 -0.20142,0.0432 -0.31652,0.0432 -0.10071,0.0144 -0.21581,-0.0144 -0.31652,-0.0144 -0.27336,0 -0.50355,0.0432 -0.71936,-0.0288 -0.24459,0.0432 -0.5755,0.0288 -0.82008,0 -0.25897,0.0575 -0.50355,-0.0144 -0.74814,0.0719 -0.18703,-0.0719 -0.37407,-0.0288 -0.57549,-0.0288 z m 10.07112,-0.80568 c -0.0863,0.18703 -0.14387,0.34529 -0.23019,0.51794 -0.0863,0.18703 -0.51795,1.29486 -0.67621,1.43873 l -0.0432,0.21581 c -0.0575,0.24458 -0.24458,0.47478 -0.27336,0.70498 -0.17265,0.23019 -0.20142,0.47478 -0.34529,0.70497 -0.14388,0.53233 -0.51795,1.22292 -0.74814,1.74087 -0.17265,0.53233 -0.63304,1.33802 -0.77692,1.74086 -0.10071,0.15826 -0.18703,0.33091 -0.23019,0.48917 -0.0719,0.1151 -0.15826,0.21581 -0.21581,0.34529 0.0144,0.21581 0.28774,0.25897 0.57549,0.24459 0.30213,-0.0144 0.31652,0 0.48917,-0.2302 0.1151,-0.0863 0.0719,-0.20142 0.1151,-0.28775 0.0719,-0.0719 0.0432,-0.20142 0.0863,-0.30213 0.35968,-0.83446 0.0144,0.0575 0.33091,-0.77691 0.0432,-0.10071 0.1151,-0.14388 0.15826,-0.24459 0.0432,-0.20142 0.14387,-0.40284 0.24458,-0.61865 0.0144,-0.0288 -0.0144,-0.0288 0,-0.0575 0.0863,-0.15826 0.21581,-0.3453 0.2302,-0.50356 0.14387,-0.28774 0.25897,-0.60426 0.40284,-0.93517 l 0.1151,-0.31652 c 0.0432,-0.0863 0.12949,-0.20142 0.17265,-0.28775 0.12948,-0.24458 0.18703,-0.47478 0.27336,-0.6762 0.10071,-0.25897 0.17264,-0.48917 0.33091,-0.71936 0,0 0.43161,-0.92079 0.40284,-0.96395 -0.0432,-0.0288 0.0719,-0.14388 0.0719,-0.17265 0.23019,-0.69059 0.54671,-1.29486 0.87762,-2.043 0.0432,-0.1151 0.14387,-0.12948 0.18704,-0.27336 0.0719,-0.3309 0.20142,-0.60426 0.35968,-0.99272 0.14387,-0.18704 0.28774,-0.48917 0.20142,-0.60427 -0.12948,-0.0719 -0.34529,-0.0288 -0.53233,-0.0288 -0.2302,0 -0.10071,-0.0432 -0.35968,0.0432 -0.18704,0.20142 -0.20142,0.43162 -0.28775,0.64743 -0.0719,0.24458 -0.18703,0.47478 -0.28774,0.71936 -0.14388,0.38846 -0.35969,0.92079 -0.53233,1.26609 z m 8.7043,3.52488 c 0.0288,-0.38845 0.0719,-0.83446 0,-1.17975 0.0863,-0.47479 0.1151,-1.12221 -0.0863,-1.49628 -0.31652,-0.0575 -0.77692,-0.0863 -1.0215,0.0719 -0.0719,0.20142 0.0575,0.61866 -0.1151,0.71937 -0.21581,-0.0719 -0.30213,-0.27336 -0.43162,-0.43162 -0.20142,-0.1151 -0.41723,-0.27336 -0.63304,-0.3453 l -0.2302,-0.0575 -0.11509,-0.0575 c -0.24459,-0.0432 -0.50356,0.0144 -0.76253,0 -0.0863,0 -0.15826,-0.0144 -0.2302,-0.0144 -0.12948,0 -0.30213,0.0719 -0.38845,0.0863 l -0.15826,0.0288 c -0.17265,0.0432 -0.31653,0.15826 -0.47479,0.17264 -0.15826,0.12949 -0.30213,0.25898 -0.47478,0.37407 -0.0719,0.10071 -0.15826,0.18704 -0.24458,0.28775 -0.0863,0.1151 -0.14387,0.2302 -0.2302,0.31652 -0.0288,0.14387 -0.0719,0.25897 -0.15826,0.3453 -0.0144,0.15826 -0.10071,0.24458 -0.14387,0.38845 -0.0432,0.20142 0,0.48917 -0.10071,0.63304 0.0575,0.20143 -0.0144,0.43162 -0.0575,0.60427 0.0863,0.30213 0.0575,0.73375 0.1151,1.05027 0.0863,0.14388 0.17265,0.27336 0.18703,0.50356 0.12949,0.0863 0.20142,0.2302 0.24459,0.40284 0.1151,0.0719 0.17264,0.17265 0.23019,0.28775 0.10071,0.0575 0.18704,0.1151 0.2302,0.2302 0.12949,0.0288 0.20142,0.11509 0.28775,0.18703 0.12948,0.0288 0.21581,0.10071 0.30213,0.17265 0.14387,0.0288 0.27336,0.0719 0.40284,0.1151 0.3453,0 0.67621,0.0863 1.00711,0.0719 0.0575,0 0.14388,-0.0288 0.21581,-0.0432 0.28775,-0.0432 0.48917,-0.0719 0.73376,-0.14387 0.0863,-0.0719 0.18703,-0.12949 0.3309,-0.15826 0.0719,-0.12949 0.20143,-0.18704 0.30214,-0.28775 0.1151,-0.0863 0.15826,-0.24458 0.31652,-0.27336 0.10071,0.0719 0.0432,0.2302 0.0432,0.38846 0,0.17265 0,0.30213 0.1151,0.38846 0.17265,-0.0288 0.24458,-0.0144 0.43162,0 0.21581,-0.1151 0.46039,-0.20142 0.60426,-0.38846 0.0288,-0.31652 -0.0288,-0.76253 0.0288,-1.09343 -0.10071,-0.24459 0,-0.54672 0,-0.82008 0,-0.25897 -0.0863,-0.51794 -0.0288,-0.76253 z m -1.17976,-0.63304 c 0.0576,0.18704 0.1151,0.35969 0.1151,0.58988 0.0288,-0.0144 0.0288,0 0.0288,0.0144 0.0144,0.74814 -0.0144,1.45312 -0.4604,1.72648 -0.0575,0.0719 -0.10071,0.17264 -0.15826,0.24458 -0.10071,0.0575 -0.20142,0.10071 -0.27336,0.18703 -0.0863,0.0144 -0.15826,0.0432 -0.21581,0.0863 -0.0863,0.0144 -0.18703,-0.0144 -0.23019,0.0288 -0.1151,-0.0144 -0.12949,0.0863 -0.2302,0.0863 -0.10071,0.0144 -0.15826,0.0432 -0.27336,0.0432 -0.17265,0.0144 -0.21581,-0.0863 -0.38845,-0.0575 -0.1151,-0.0288 -0.21581,-0.0863 -0.37407,-0.0719 -0.17265,-0.10071 -0.33091,-0.18703 -0.4604,-0.31652 -0.1151,-0.14387 -0.30213,-0.21581 -0.43162,-0.34529 -0.0432,-0.14388 -0.12948,-0.24459 -0.1151,-0.44601 -0.0575,-0.12949 -0.10071,-0.25897 -0.15826,-0.37407 0.0144,-0.14387 -0.0144,-0.24458 -0.0432,-0.35968 0.0144,-0.20142 0.0719,-0.35968 0.0719,-0.58988 0.0575,-0.12949 0.10071,-0.27336 0.15826,-0.43162 0.0432,-0.12949 0.14387,-0.2302 0.17265,-0.38846 0.20142,-0.10071 0.31652,-0.25897 0.47478,-0.40284 0.17265,-0.0719 0.33091,-0.17265 0.53233,-0.2302 0.20142,-0.0144 0.35968,-0.0719 0.58988,-0.0575 0.21581,0 0.34529,0.0863 0.5611,0.0863 0.0863,0.0719 0.2302,0.11509 0.3453,0.15826 0.17264,0.12948 0.31652,0.28774 0.48917,0.40284 0.0288,0.0863 0.10071,0.14387 0.14387,0.20142 0.0432,0.0719 0.0719,0.14388 0.12948,0.21581 z m 3.82704,2.63288 c 0,-0.10071 0.0575,-0.15826 0.0432,-0.27336 -0.0288,-0.18703 -0.0575,-0.38846 -0.0432,-0.60427 0,-0.1151 0.0432,-0.23019 0.0432,-0.34529 0.0144,-0.2302 -0.0432,-0.4604 -0.0432,-0.70498 0,-0.20142 0.0719,-0.38846 -0.0288,-0.54672 0.0575,-0.3309 0.0432,-0.73375 0.0719,-1.03588 0.0288,-0.0863 0.12949,-0.0863 0.20142,-0.1151 0.12949,0 0.0719,-0.15826 0.18704,-0.15826 0.1151,0.0288 0.18703,0.12948 0.31652,0.15826 0.15826,0.0288 0.41723,-0.0144 0.54672,0 h 0.11509 c 0.28775,0 0.56111,0.0288 0.82008,0.0144 0.20142,0 0.40284,-0.0719 0.5611,0.0575 0.0575,0.28774 0.0144,0.57549 0.0288,0.84885 0,0.23019 0.0432,0.446 0.0432,0.66181 0,0.20142 -0.0575,0.38846 -0.0719,0.58988 0,0.0575 0.0144,0.1151 0.0288,0.18704 0,0.0575 -0.0288,0.11509 -0.0288,0.17264 0,0.10071 0.0432,0.18704 0.0432,0.27336 0,0.0719 -0.0288,0.14388 -0.0144,0.21581 0,0.25897 0.0144,0.51794 0.0144,0.76253 0,0.10071 -0.0144,0.20142 0,0.30213 -0.0432,0.2302 -0.10071,0.47478 -0.0144,0.69059 0.0719,0.0144 0.10071,0.10071 0.21581,0.0719 0.31652,-0.0575 0.58988,0.0288 0.84885,0 0.12949,-0.10071 0.10071,-0.2302 0.0863,-0.40285 -0.0144,-0.28774 -0.0719,-0.64742 -0.0288,-0.9064 0,-0.0719 -0.0432,-0.12948 -0.0432,-0.20142 0.0144,-0.38845 0.0432,-0.76252 0.0432,-1.13659 0,-0.31652 -0.0432,-0.61866 -0.0432,-0.93518 0,-0.0719 0.0288,-0.17265 0.0288,-0.24458 0,-0.10071 -0.0288,-0.18704 -0.0288,-0.27336 0.0144,-0.0863 0.0432,-0.14387 0.0432,-0.2302 0.0144,-0.21581 -0.0288,-0.41723 -0.0144,-0.63304 0,-0.20142 0.0288,-0.40284 0.0144,-0.61865 -0.0432,-0.1151 -0.0575,-0.25897 -0.15826,-0.33091 -0.21581,-0.0432 -0.48917,0.0144 -0.71937,-0.0432 -0.28774,0.0719 -0.73375,-0.0432 -0.94956,0.0432 -0.12948,-0.0863 -0.25897,-0.0288 -0.37407,-0.0288 -0.0432,0 -0.0863,-0.0144 -0.12948,-0.0144 -0.30214,0 -0.60427,0.0432 -0.9064,0.0432 -0.14388,0 -0.28775,-0.0432 -0.43162,-0.0432 -0.20142,-0.0144 -0.40285,0.0288 -0.61866,0.0144 -0.23019,-0.0144 -0.48916,-0.0575 -0.6762,0.0719 -0.0719,0.0863 -0.10071,0.2302 -0.12949,0.35968 0.0144,0.20143 0.0432,0.48917 0,0.67621 0.0719,0.11509 0.0144,0.25897 0.0144,0.38845 0.0144,0.24459 0,0.48917 0,0.70498 0,0.2302 0.0432,0.47478 0.0432,0.70498 0,0.30213 -0.0575,0.60427 -0.0432,0.87762 0.0144,0.0863 0,0.12949 0,0.15826 0,0.12949 0,0.24459 0.0288,0.37407 -0.0863,0.18704 -0.0288,0.40285 -0.0288,0.60427 0.0144,0.24458 -0.0288,0.50356 0.0288,0.73375 0.14387,0.10071 0.82007,0.18704 0.93517,0.15826 0.10071,-0.0288 0.18704,-0.50355 0.21581,-0.82007 z m 7.82669,-4.94923 c -0.31652,0.0863 -0.67621,0.12948 -0.94957,0.25897 -0.17264,0.0144 -0.31652,0.0719 -0.47478,0.1151 -0.10071,0.0576 -0.14387,0.18703 -0.23019,0.27336 -0.0863,0.0719 -0.21581,0.11509 -0.27336,0.21581 -0.0432,0.12948 -0.14388,0.18703 -0.24459,0.25897 -0.0575,0.10071 -0.14387,0.18703 -0.23019,0.27336 -0.0144,0.14387 -0.1151,0.20142 -0.15826,0.3309 -0.0575,0.20143 -0.14388,0.35969 -0.17265,0.58988 -0.0575,0.20142 -0.0719,0.4604 -0.1151,0.66182 0.0432,0.18703 -0.0288,0.35968 0,0.58988 0.0144,0.1151 0.0575,0.18703 0.0432,0.34529 l 0.15826,0.40285 c 0.0144,0.0432 0.0288,0.0432 0.0432,0.0719 l 0.15826,0.31652 c 0.0863,0.14388 0.21581,0.25898 0.27336,0.43162 0.21581,0.17265 0.43162,0.37407 0.66182,0.51795 0.0719,0.0432 0.17265,0.0863 0.27336,0.12948 0.20142,0.10071 0.47478,0.2302 0.69059,0.27336 0.0288,0.0144 0.0719,0 0.10071,0 l 0.0576,0.0432 c 0.446,0.1151 0.94956,0.0719 1.49628,0.0575 0.14387,-0.0575 0.25897,-0.14387 0.43162,-0.15826 0.0432,-0.0719 0.12948,-0.0863 0.21581,-0.1151 0.0432,-0.0719 0.11509,-0.1151 0.20142,-0.14387 0.12948,-0.0863 0.27336,-0.17265 0.43162,-0.24458 0.0719,-0.0863 0.17264,-0.17265 0.27336,-0.24459 0.0719,-0.10071 0.17264,-0.18703 0.27335,-0.25897 0.0719,-0.15826 0.17265,-0.31652 0.27336,-0.47478 l 0.21581,-0.51794 c 0.0432,-0.14388 0.0288,-0.35969 0.0719,-0.50356 0.0288,-0.17265 0.0575,-0.33091 0.0432,-0.54672 0,-0.0144 0,-0.0288 -0.0144,-0.0144 -0.0144,-0.28775 -0.11509,-0.48917 -0.11509,-0.77692 -0.0719,-0.10071 -0.1151,-0.18703 -0.15826,-0.28774 -0.0288,-0.0575 -0.0719,-0.0863 -0.10072,-0.14388 -0.0144,-0.0575 0,-0.11509 -0.0432,-0.17264 -0.0863,-0.10072 -0.14387,-0.21581 -0.23019,-0.30214 -0.0575,-0.1151 -0.15826,-0.20142 -0.21581,-0.31652 -0.0575,-0.0432 -0.1151,-0.0575 -0.15826,-0.0863 -0.0863,-0.0719 -0.1151,-0.12949 -0.18704,-0.18704 -0.10071,-0.0719 -0.18703,-0.17264 -0.28775,-0.23019 -0.11509,-0.0576 -0.20142,-0.0719 -0.27335,-0.15826 -0.1151,0.0144 -0.15826,-0.0432 -0.25898,-0.0575 -0.0432,-0.0575 -0.20142,-0.0144 -0.2158,-0.10071 -0.18704,-0.0288 -0.35969,-0.0575 -0.53233,-0.1151 z m -0.0432,1.16537 c 0.43162,-0.0144 0.79131,0 1.09344,0.12948 0.12948,0.0719 0.25897,0.17265 0.38846,0.2302 0.11509,0.0863 0.23019,0.17265 0.35968,0.24459 0.0288,0.0863 0.0863,0.14387 0.15826,0.18703 0.12948,0.25897 0.25897,0.50356 0.35968,0.7913 0.0288,0 0.0144,0.0288 0.0288,0.0432 0.0144,0 0.0144,0.0144 0.0144,0.0288 -0.0288,0.2302 0,0.51794 -0.0432,0.74814 -0.12948,0.47478 -0.44601,0.74814 -0.70498,1.09343 -0.15826,0.0863 -0.3309,0.17265 -0.446,0.28775 -0.1151,0 -0.18704,0.0288 -0.25897,0.0719 -0.18704,0 -0.38846,-0.0144 -0.51795,0.0432 -0.24458,-0.0432 -0.47478,-0.0432 -0.74814,-0.0863 0,-0.0288 -0.0144,-0.0288 -0.0288,-0.0288 -0.10071,-0.0432 -0.2302,-0.0863 -0.31652,-0.15826 -0.0575,-0.0863 -0.20142,-0.10071 -0.27336,-0.20142 -0.14387,-0.15826 -0.3453,-0.25898 -0.47478,-0.4604 -0.0575,-0.10071 -0.0863,-0.23019 -0.12949,-0.35968 -0.0432,-0.1151 -0.0863,-0.2302 -0.14387,-0.3453 -0.0432,-0.43161 0.0719,-0.73375 0.14387,-1.10782 0.0863,-0.12948 0.18704,-0.24458 0.24459,-0.40284 0.25897,-0.20142 0.50355,-0.43162 0.77691,-0.61866 z m 6.27288,1.99983 c 0,-0.11509 0.0144,-0.20142 0.0144,-0.30213 0,-0.20142 -0.0288,-0.40284 -0.0432,-0.58988 0,-0.21581 0.0144,-0.40284 0.0288,-0.60427 0,-0.15826 -0.0432,-0.31652 0.0432,-0.46039 0.34529,-0.0575 0.73375,0.0719 1.06466,0 0.0863,-0.0863 0.10071,-0.24458 0.1151,-0.40284 -0.0863,-0.17265 0,-0.50356 -0.14388,-0.61866 -0.31652,-0.0719 -0.76252,0.0719 -1.03588,-0.0719 -0.15826,-0.25898 -0.0144,-0.67621 -0.1151,-0.99273 0.0432,-0.27336 0.14387,-0.76252 0,-1.06466 -0.12949,-0.0575 -0.31652,-0.0288 -0.51794,-0.0288 -0.20143,0 -0.40285,-0.0144 -0.5755,0.0288 -0.0144,0.10071 -0.0575,0.21581 -0.0575,0.3453 -0.0144,0.18703 0.0575,0.40284 0.0575,0.63304 0,0.20142 -0.0144,0.38846 -0.0144,0.58988 0,0.17265 0.0288,0.40284 -0.1151,0.51794 -0.15826,0.0719 -0.33091,0 -0.47478,0.0863 -0.0863,0.15826 -0.0288,0.40285 -0.0432,0.5755 0,0.12948 -0.0288,0.15826 0,0.27336 0.0432,0.0575 0.0288,0.18703 0.12948,0.20142 0.14387,0.0432 0.30213,-0.14388 0.47478,-0.0432 0.0863,0.11509 0.0288,0.27335 0.0288,0.40284 0,0.24458 0.0432,0.47478 0.0719,0.71936 -0.0288,0.10072 -0.0432,0.18704 -0.0719,0.25898 0.0719,0.15826 0.0288,0.3309 0.0144,0.48916 -0.0144,0.27336 0.0288,0.56111 0.0288,0.84885 0,0.0575 -0.0288,0.12949 -0.0288,0.17265 0,0.0719 0.0288,0.14388 0.0288,0.21581 0,0.0719 -0.0288,0.14388 -0.0288,0.21581 0.0144,0.25897 0.0432,0.50356 0.0288,0.74814 0,0.0719 -0.0432,0.14387 -0.0432,0.20142 -0.0144,0.10071 0.0288,0.20143 0,0.30214 0.0432,0.0863 0.0719,0.20142 0.12948,0.27336 0.35968,0.0575 0.84885,0.0719 1.09344,-0.1151 0.0575,-0.18704 0,-0.38846 -0.0432,-0.54672 0.0575,-0.2302 -0.0288,-0.43162 -0.0288,-0.63304 0,-0.1151 0.0288,-0.24459 0.0288,-0.35968 0,-0.37407 -0.0288,-0.79131 0,-1.16538 z m 3.52489,-3.56805 c 0,-0.1151 0.0288,-0.23019 0.0288,-0.34529 0,-0.10071 -0.0144,-0.20142 -0.0288,-0.31652 0.12949,-0.43162 -0.0575,-0.94956 0.0575,-1.38118 -0.0288,-0.0863 -0.0432,-0.18704 -0.0575,-0.28775 0,-0.17265 0.0432,-0.44601 0,-0.54672 0,-0.0288 0.0288,-0.0432 0.0288,-0.0432 v -0.2302 c -0.0144,-0.10071 -0.0432,-0.17264 -0.0719,-0.27335 0.0863,-0.17265 0.12948,-0.47478 0.10071,-0.70498 -0.10071,-0.14387 -0.3453,-0.12949 -0.57549,-0.12949 -0.21581,-0.0144 -0.4604,-0.0432 -0.60427,0.0432 -0.0863,0.27336 -0.0432,0.60427 -0.0575,0.92079 0,0.33091 0.0144,0.63304 -0.0144,0.92079 0.0576,0.18703 0.0288,0.37407 0.0144,0.5611 v 0.28775 c 0.0144,0.30213 0,0.57549 0,0.86324 0.0144,0.24458 0.0575,0.57549 0.0575,0.84885 0,0.37407 0,0.76252 -0.0575,1.07905 0.0575,0.25897 0.0288,0.51794 0.0288,0.73375 0,0.0719 0.0144,0.14387 0.0288,0.23019 0.0144,0.48917 0.0144,0.93518 0.0144,1.42435 -0.0575,0.23019 -0.0288,0.57549 -0.0719,0.83446 0.0288,0.10071 0.0719,0.20142 0.0719,0.31652 0,0.0863 -0.0144,0.17265 -0.0144,0.27336 -0.0144,0.33091 0.0432,0.66182 0.0144,0.93517 -0.0144,0.21581 -0.0863,0.41724 0.0432,0.56111 0.1151,0.0719 0.3453,0.0432 0.53233,0.0432 0.17265,0.0719 0.46039,0.0719 0.58988,-0.0432 0.10071,-0.15826 0,-0.41723 -0.0288,-0.58988 0.0288,-0.2302 -0.0288,-0.48917 -0.0288,-0.74814 0.0144,-0.18703 0,-0.46039 0.0288,-0.6762 0,-0.1151 -0.0719,-0.15826 -0.0719,-0.27336 0.0432,-0.10071 0.0432,-0.30213 0,-0.40285 0.1151,-0.23019 0.0575,-0.6762 0.10071,-0.93517 v -0.15826 c 0.0144,-0.14387 0.0575,-0.24458 0.0575,-0.35968 0.15826,-0.27336 0.35968,-0.51795 0.63304,-0.66182 0.35968,-0.18703 1.0215,-0.20142 1.43873,-0.0432 0.24458,0.17265 0.47478,0.35968 0.58988,0.6762 0,0.15826 -0.0144,0.31652 0,0.50356 0,0.30213 0.0288,0.63304 0.0144,0.94956 0,0.17265 -0.0288,0.33091 -0.0144,0.50355 0.0144,0.33091 0.0432,0.67621 0.0432,0.99273 0,0.1151 -0.0288,0.24458 -0.0288,0.34529 0,0.14388 0.0432,0.27336 0.0288,0.40285 -0.0144,0.18703 -0.12948,0.28774 -0.0432,0.40284 0.10071,0.18704 0.41723,0.10071 0.6762,0.10071 0.15826,0 0.27336,0.0288 0.40285,0 0.1151,-0.0719 0.20142,-0.24458 0.14387,-0.41723 -0.0863,-0.86324 -0.0863,-1.79841 -0.0432,-2.64726 -0.0575,-0.20142 -0.0719,-0.54672 -0.0288,-0.77692 -0.0575,-0.25897 -0.0575,-0.61865 -0.0432,-0.9064 -0.0719,-0.18703 -0.17265,-0.34529 -0.24458,-0.51794 -0.18704,-0.12948 -0.33091,-0.34529 -0.50356,-0.446 -0.1151,-0.0863 -0.27336,-0.0863 -0.38846,-0.18704 -0.17264,-0.0288 -0.25897,-0.1151 -0.40284,-0.15826 -0.43162,-0.0288 -0.92079,-0.10071 -1.29486,0.0144 -0.0863,0.0432 -0.17264,0.10071 -0.27336,0.14387 -0.10071,0.0432 -0.23019,0.0575 -0.31652,0.1151 -0.14387,0.0719 -0.24458,0.25897 -0.40284,0.2302 -0.0719,-0.25898 0,-0.51795 0,-0.74814 z m 5.46717,2.86308 c -0.0288,0.15826 -0.0288,0.28774 0.0288,0.43161 -0.0144,0.0863 -0.0863,0.10072 -0.0719,0.21581 v 0.53233 c 0.0432,0.18704 0.0575,0.40285 0.0863,0.60427 0.14388,0.28775 0.2302,0.6762 0.38846,0.89201 0.0432,0.0575 0.0719,0.0719 0.1151,0.1151 0.10071,0.0863 0.15826,0.20142 0.2302,0.31652 0.17264,0.10071 0.28774,0.27336 0.43161,0.43162 0.20143,0.12949 0.47478,0.18704 0.70498,0.31652 0.18704,0 0.37407,0.0575 0.56111,0.0575 0.12948,0.0144 0.25897,-0.0144 0.40284,-0.0144 0.14387,0 0.27336,0.0288 0.38846,0.0144 0.18703,0 0.33091,-0.0575 0.47478,-0.0575 0.17265,-0.0863 0.37407,-0.14387 0.57549,-0.21581 0.25897,-0.15826 0.50356,-0.35968 0.74814,-0.5611 0.15826,-0.33091 0.54672,-0.41723 0.51794,-0.9064 -0.1151,-0.10071 -0.23019,-0.18704 -0.38845,-0.24459 -0.1151,-0.10071 -0.2302,-0.21581 -0.44601,-0.21581 l -0.18704,0.37407 c -0.23019,0.21581 -0.46039,0.41724 -0.71936,0.60427 -0.15826,0.0288 -0.27336,0.0863 -0.38846,0.14387 -0.24458,0.0575 -0.51794,0.0719 -0.82007,0.0575 -0.2302,-0.0288 -0.38846,-0.12948 -0.58988,-0.20142 -0.1151,-0.10071 -0.2302,-0.20142 -0.38846,-0.27336 -0.14387,-0.21581 -0.34529,-0.34529 -0.43162,-0.53233 -0.0863,-0.20142 -0.12948,-0.40284 -0.0575,-0.54672 -0.0288,-0.10071 -0.0863,-0.20142 -0.0288,-0.30213 0.14387,-0.0863 0.31652,-0.0288 0.47478,-0.0432 0.43162,-0.0288 0.86324,-0.0144 1.30924,-0.0432 0.10071,0 0.15826,0.0432 0.25897,0.0432 0.4604,0.0288 0.92079,-0.0719 1.35241,0 0.30213,-0.0719 0.77691,-0.0288 1.12221,-0.0432 0.10071,-0.0719 0.0863,-0.25897 0.0863,-0.43162 -0.0863,-0.17265 -0.0575,-0.4604 -0.0863,-0.6762 -0.0863,-0.21581 -0.18704,-0.41724 -0.2302,-0.66182 -0.12948,-0.20142 -0.24458,-0.35968 -0.38845,-0.51794 -0.0432,-0.1151 -0.1151,-0.2302 -0.15826,-0.3453 -0.20143,-0.0288 -0.27336,-0.18703 -0.40285,-0.28774 -0.15826,-0.0288 -0.21581,-0.0288 -0.37407,-0.0719 -0.0863,-0.0432 -0.0719,-0.17265 -0.20142,-0.18704 -0.21581,-0.0863 -0.51794,-0.10071 -0.7913,-0.15826 -0.2302,0.0288 -0.38846,0 -0.58988,0.0432 -0.15826,-0.0432 -0.24459,0.0432 -0.40285,0 -0.15826,0.0863 -0.41723,0.0719 -0.54671,0.18703 -0.20143,0.0432 -0.28775,0.20142 -0.47478,0.24458 -0.0719,0.10072 -0.17265,0.15827 -0.2302,0.25898 -0.1151,0.0432 -0.15826,0.15826 -0.27336,0.21581 -0.0719,0.28774 -0.38846,0.446 -0.31652,0.80568 -0.1151,0.0575 -0.15826,0.18704 -0.20142,0.33091 z m 4.48884,-0.18704 c 0.0144,0.0575 -0.0432,0.0432 -0.0144,0.1151 -0.15826,0.1151 -0.40284,0.1151 -0.63304,0.1151 -0.21581,0 -0.41723,-0.0432 -0.57549,0.0144 -0.17265,-0.0432 -0.37407,-0.0432 -0.60427,-0.0432 -0.0432,0 -0.10071,0.0288 -0.14387,0.0288 -0.0575,0 -0.0863,-0.0288 -0.12949,-0.0288 -0.1151,0.0144 -0.21581,0.0432 -0.31652,0.0432 -0.14387,0.0144 -0.28774,-0.0144 -0.43162,-0.0144 -0.14387,0 -0.31652,0.0288 -0.43162,-0.0719 -0.0288,-0.30213 0.1151,-0.41723 0.17265,-0.63304 0.1151,-0.12949 0.24459,-0.20142 0.31652,-0.35968 0.0719,-0.0144 0.1151,-0.0719 0.15826,-0.1151 0.0719,-0.0575 0.20142,-0.0863 0.27336,-0.15826 0.21581,-0.0144 0.40285,-0.1151 0.61866,-0.1151 0.15826,0 0.31652,0.0719 0.50355,0.0432 0.1151,0.0575 0.24458,0.10071 0.40284,0.1151 0.0863,0.0719 0.18704,0.12949 0.28775,0.18704 0.15826,0.15826 0.30213,0.3309 0.43162,0.51794 0,0.15826 0.0863,0.2302 0.1151,0.35968 z m 5.58226,-0.70498 c 0.24459,-0.14387 0.20143,-0.53233 0.17265,-0.87762 -0.12948,-0.17265 -0.2302,-0.35968 -0.38846,-0.50356 -0.15826,-0.0432 -0.34529,-0.0719 -0.51794,-0.1151 -0.31652,0.1151 -0.60427,0.25898 -0.74814,0.5755 0.0144,0.12948 -0.0144,0.21581 -0.0432,0.31652 0.0432,0.0863 0.0288,0.24458 0.0719,0.35968 0.0432,0.0719 0.10071,0.15826 0.12948,0.24458 0.10071,0.0432 0.15826,0.12949 0.25897,0.18704 0.15826,0.0144 0.31652,0.10071 0.48917,0.0863 0.15826,-0.0144 0.28775,-0.10071 0.43162,-0.12948 0.0432,-0.0432 0.0863,-0.10071 0.14387,-0.14388 z m -3.0501,3.56805 c 0,0.0432 0.0288,0.10071 0.0288,0.15826 0,0.27336 -0.0719,0.48917 0.0288,0.71937 0.10071,0.1151 0.25897,0.17265 0.48916,0.15826 0.2302,0 0.4604,0.0144 0.61866,-0.0719 0.0288,-0.0575 0.0432,-0.10071 0.0432,-0.20142 0,-0.0575 -0.0575,-0.12949 -0.0432,-0.20142 0.0576,-0.2302 -0.0144,-0.4604 0,-0.6762 0.0144,-0.27336 0.0288,-0.70498 -0.0288,-0.94957 0.0432,-0.12948 0.0575,-0.27336 0.0432,-0.41723 0,-0.10071 0.0144,-0.28774 -0.0144,-0.43162 0.0288,-0.0575 0.0144,-0.17264 0.0432,-0.24458 -0.0719,-0.15826 0.0144,-0.43162 -0.0432,-0.63304 -0.0144,-0.10071 0.0576,-0.12949 0.0719,-0.20142 -0.17264,-0.20143 0.0144,-0.51795 0,-0.77692 -0.0432,-0.0288 -0.0144,-0.10071 -0.0575,-0.12948 -0.0288,-0.24459 0.0432,-0.50356 0.0288,-0.70498 0,-0.10071 -0.0144,-0.21581 -0.0719,-0.30214 -0.12948,-0.0863 -0.35968,-0.0288 -0.51794,0 -0.17265,-0.0288 -0.3453,-0.10071 -0.50356,-0.0144 -0.0719,0.0432 -0.0432,0.14387 -0.0575,0.21581 -0.0719,0.31652 0,0.63304 0,0.97833 -0.0144,0.37407 -0.0288,0.74814 0.0144,1.09344 -0.0863,0.33091 0.0432,0.89201 -0.0432,1.22292 0.0575,0.23019 0.0144,0.46039 0,0.6762 0,0.14387 0.0288,0.27336 0.0288,0.41723 z m 6.51745,-4.90607 c -0.89201,0 -1.6977,-0.0288 -2.53216,0 -0.15826,0.21581 -0.10071,0.51795 -0.10071,0.82008 0.0144,0.24458 -0.0144,0.48917 -0.0144,0.74814 v 0.40284 c 0,0.14388 -0.0288,0.28775 -0.0288,0.41724 0.0144,0.11509 0.0432,0.24458 0.0432,0.35968 0.0144,0.15826 -0.0288,0.31652 0.0288,0.446 -0.0719,0.30214 -0.0288,0.66182 -0.0288,1.00712 0.0144,0.37407 -0.0144,0.74814 0.0288,1.10782 -0.0432,0.15826 -0.10071,0.41723 -0.0432,0.61865 0.0719,0.0575 0.14387,0.12949 0.27336,0.12949 0.27336,-0.0863 0.70498,0.0719 0.9064,-0.0719 0.10071,-0.2302 0.0144,-0.50355 0,-0.76253 v -1.28047 c -0.0144,-0.41723 -0.0432,-0.83446 -0.0432,-1.2373 0,-0.3453 0.0144,-0.71937 0.0144,-1.0215 -0.0288,-0.20142 -0.0863,-0.50356 0.0432,-0.63304 0.1151,-0.0432 0.18704,0.0144 0.33091,0 0.48917,-0.1151 1.09344,0.0432 1.55383,-0.10071 0.1151,0.0863 0.25897,0 0.38846,0.0575 0.10071,0.17264 0.0575,0.37407 0.0432,0.58987 0,0.3453 0.0432,0.77692 0.0432,1.10783 0,0.12948 -0.0144,0.25897 -0.0144,0.38845 0,0.2302 0.0575,0.44601 -0.0288,0.63304 0.1151,0.31653 0.0288,0.67621 0.0288,1.0215 0,0.2302 0.0432,0.4604 0.0144,0.70498 -0.0432,0.17265 -0.0719,0.41723 0.0575,0.53233 0.15826,0.10071 0.37407,-0.0144 0.56111,-0.0144 0.17264,0.0288 0.43161,0.0863 0.58987,0 0.0719,-0.18703 0,-0.37407 -0.0288,-0.57549 -0.0288,-0.47478 0.0144,-1.00711 -0.0575,-1.49628 0.0432,-0.37407 0.0144,-0.86324 -0.0288,-1.22292 0.0288,-0.0719 0.0432,-0.14387 0.0432,-0.23019 0.0144,-0.0719 0.0288,-0.18704 0.0288,-0.25898 0,-0.11509 -0.0432,-0.21581 -0.0432,-0.3309 0,-0.0863 0.0144,-0.18704 0.0144,-0.28775 0,-0.18703 -0.0863,-0.40284 0.0432,-0.54672 0.12949,-0.0863 0.38846,-0.0144 0.54672,0 0.10071,-0.0432 0.27336,-0.0144 0.38845,-0.0432 l 0.24459,0.0432 c 0.0863,0.0144 0.15826,0.0288 0.2302,0.0288 0.11509,-0.0144 0.20142,-0.0719 0.31652,-0.10071 0.24458,0.0288 0.41723,-0.0288 0.58988,0.0575 0.0719,0.27335 0.0144,0.5611 0.0288,0.84885 0,0.14387 0.0144,0.28774 0.0144,0.43161 0,0.15827 0.0288,0.31653 0.0288,0.4604 0,0.0719 -0.0288,0.14387 -0.0288,0.2302 0,0.18703 0.0288,0.37407 0.0288,0.5611 0,0.21581 -0.0288,0.40284 -0.0288,0.61865 0,0.20143 0.0288,0.40285 0.0288,0.60427 0,0.35968 -0.0288,0.82008 -0.0288,1.1366 0.12948,0.1151 0.35968,0.0575 0.57549,0.0432 0.20142,0 0.38846,0.0288 0.54672,0 0.10071,-0.12949 0.0575,-0.38846 0.0575,-0.60427 -0.0575,-0.14387 0,-0.25897 -0.0575,-0.38845 0.0719,-0.15826 0.0144,-0.33091 0.0144,-0.50356 0,-0.0288 0.0288,-0.0575 0.0288,-0.1151 -0.0144,-0.35968 0,-0.80569 -0.0288,-1.19414 0,-0.14388 -0.0432,-0.25898 -0.0432,-0.38846 0,-0.58988 0.0719,-1.17976 -0.0288,-1.72648 0.0719,-0.27336 0.1151,-0.74814 0.0288,-1.03588 -0.17265,-0.10071 -0.37407,-0.0432 -0.5611,-0.0288 -0.38846,0.0144 -0.7913,-0.0288 -1.16537,0 -0.10071,0.0144 -0.20143,0.0432 -0.31652,0.0432 -0.10072,0.0144 -0.21581,-0.0144 -0.31653,-0.0144 -0.27335,0 -0.50355,0.0432 -0.71936,-0.0288 -0.24458,0.0432 -0.57549,0.0288 -0.82008,0 -0.25897,0.0575 -0.50355,-0.0144 -0.74814,0.0719 -0.18703,-0.0719 -0.37407,-0.0288 -0.57549,-0.0288 z m 8.60362,-2.20125 c 0.0144,-0.44601 -0.0432,-0.80569 -0.27336,-1.0215 -0.15826,-0.0863 -0.41723,-0.0863 -0.63304,-0.12949 -0.1151,0.0575 -0.24459,0.1151 -0.35969,0.18704 -0.0863,0.18703 -0.18703,0.34529 -0.20142,0.60427 0.0144,0.18703 0.10071,0.30213 0.20142,0.40284 0.0719,0.14387 0.18704,0.24458 0.31653,0.33091 0.18703,-0.0288 0.31652,0.0144 0.47478,0.0144 0.20142,-0.0863 0.37407,-0.20142 0.47478,-0.38845 z m -1.19415,5.40962 c -0.0719,0.43162 0,0.84885 0,1.2517 0,0.14387 -0.0575,0.28774 -0.0575,0.43162 0.0144,0.35968 0.0575,0.71936 0,1.07904 0.17265,0.20143 0.56111,0.15826 0.84885,0.10071 0.1151,-0.0575 0.12949,-0.20142 0.2302,-0.27335 0,-0.0719 0.0576,-0.10072 0.10071,-0.14388 0.0288,-0.0575 -0.0144,-0.64743 -0.0144,-0.76252 0,-0.0288 0.0288,-0.0288 0.0144,-0.0719 0,-0.18704 -0.0432,-0.38846 -0.0432,-0.58988 0,-0.0863 0.0288,-0.17265 0.0288,-0.27336 0,-0.0863 -0.0288,-0.17265 -0.0288,-0.27336 0.0144,-0.48917 0.0288,-1.00711 0.0288,-1.49628 0,-0.3309 -0.0432,-0.66181 -0.0432,-0.97833 0,-0.3453 0.0719,-0.69059 0.0144,-1.00711 -0.24459,-0.21581 -0.74814,-0.1151 -1.10782,-0.0719 -0.0719,0.21581 -0.0432,0.46039 -0.0432,0.70498 0,0.23019 -0.0288,0.47478 -0.0288,0.71936 0,0.14388 0.0432,0.31652 0.0432,0.4604 0.0144,0.15826 0.0288,0.31652 0.0288,0.47478 0,0.14387 -0.0288,0.28774 -0.0288,0.43162 z m 5.3233,-3.20837 c -0.89202,0 -1.6977,-0.0288 -2.53217,0 -0.15826,0.21581 -0.10071,0.51795 -0.10071,0.82008 0.0144,0.24458 -0.0144,0.48917 -0.0144,0.74814 v 0.40284 c 0,0.14388 -0.0288,0.28775 -0.0288,0.41724 0.0144,0.11509 0.0432,0.24458 0.0432,0.35968 0.0144,0.15826 -0.0288,0.31652 0.0288,0.446 -0.0719,0.30214 -0.0288,0.66182 -0.0288,1.00712 0.0144,0.37407 -0.0144,0.74814 0.0288,1.10782 -0.0432,0.15826 -0.10072,0.41723 -0.0432,0.61865 0.0719,0.0575 0.14388,0.12949 0.27336,0.12949 0.27336,-0.0863 0.70498,0.0719 0.9064,-0.0719 0.10071,-0.2302 0.0144,-0.50355 0,-0.76253 v -1.28047 c -0.0144,-0.41723 -0.0432,-0.83446 -0.0432,-1.2373 0,-0.3453 0.0144,-0.71937 0.0144,-1.0215 -0.0288,-0.20142 -0.0863,-0.50356 0.0432,-0.63304 0.1151,-0.0432 0.18703,0.0144 0.33091,0 0.48917,-0.1151 1.09343,0.0432 1.55383,-0.10071 0.11509,0.0863 0.25897,0 0.38845,0.0575 0.10071,0.17264 0.0575,0.37407 0.0432,0.58987 0,0.3453 0.0432,0.77692 0.0432,1.10783 0,0.12948 -0.0144,0.25897 -0.0144,0.38845 0,0.2302 0.0575,0.44601 -0.0288,0.63304 0.1151,0.31653 0.0288,0.67621 0.0288,1.0215 0,0.2302 0.0432,0.4604 0.0144,0.70498 -0.0432,0.17265 -0.0719,0.41723 0.0575,0.53233 0.15826,0.10071 0.37407,-0.0144 0.5611,-0.0144 0.17265,0.0288 0.43162,0.0863 0.58988,0 0.0719,-0.18703 0,-0.37407 -0.0288,-0.57549 -0.0288,-0.47478 0.0144,-1.00711 -0.0575,-1.49628 0.0432,-0.37407 0.0144,-0.86324 -0.0288,-1.22292 0.0288,-0.0719 0.0432,-0.14387 0.0432,-0.23019 0.0144,-0.0719 0.0288,-0.18704 0.0288,-0.25898 0,-0.11509 -0.0432,-0.21581 -0.0432,-0.3309 0,-0.0863 0.0144,-0.18704 0.0144,-0.28775 0,-0.18703 -0.0863,-0.40284 0.0432,-0.54672 0.12948,-0.0863 0.38845,-0.0144 0.54671,0 0.10071,-0.0432 0.27336,-0.0144 0.38846,-0.0432 l 0.24458,0.0432 c 0.0863,0.0144 0.15826,0.0288 0.2302,0.0288 0.1151,-0.0144 0.20142,-0.0719 0.31652,-0.10071 0.24459,0.0288 0.41723,-0.0288 0.58988,0.0575 0.0719,0.27335 0.0144,0.5611 0.0288,0.84885 0,0.14387 0.0144,0.28774 0.0144,0.43161 0,0.15827 0.0288,0.31653 0.0288,0.4604 0,0.0719 -0.0288,0.14387 -0.0288,0.2302 0,0.18703 0.0288,0.37407 0.0288,0.5611 0,0.21581 -0.0288,0.40284 -0.0288,0.61865 0,0.20143 0.0288,0.40285 0.0288,0.60427 0,0.35968 -0.0288,0.82008 -0.0288,1.1366 0.12949,0.1151 0.35969,0.0575 0.57549,0.0432 0.20143,0 0.38846,0.0288 0.54672,0 0.10071,-0.12949 0.0575,-0.38846 0.0575,-0.60427 -0.0575,-0.14387 0,-0.25897 -0.0575,-0.38845 0.0719,-0.15826 0.0144,-0.33091 0.0144,-0.50356 0,-0.0288 0.0288,-0.0575 0.0288,-0.1151 -0.0144,-0.35968 0,-0.80569 -0.0288,-1.19414 0,-0.14388 -0.0432,-0.25898 -0.0432,-0.38846 0,-0.58988 0.0719,-1.17976 -0.0288,-1.72648 0.0719,-0.27336 0.1151,-0.74814 0.0288,-1.03588 -0.17265,-0.10071 -0.37407,-0.0432 -0.56111,-0.0288 -0.38845,0.0144 -0.7913,-0.0288 -1.16537,0 -0.10071,0.0144 -0.20142,0.0432 -0.31652,0.0432 -0.10071,0.0144 -0.21581,-0.0144 -0.31652,-0.0144 -0.27336,0 -0.50356,0.0432 -0.71936,-0.0288 -0.24459,0.0432 -0.5755,0.0288 -0.82008,0 -0.25897,0.0575 -0.50356,-0.0144 -0.74814,0.0719 -0.18704,-0.0719 -0.37407,-0.0288 -0.57549,-0.0288 z m 8.60362,-2.20125 c 0.0144,-0.44601 -0.0432,-0.80569 -0.27336,-1.0215 -0.15826,-0.0863 -0.41723,-0.0863 -0.63304,-0.12949 -0.1151,0.0575 -0.24458,0.1151 -0.35968,0.18704 -0.0863,0.18703 -0.18704,0.34529 -0.20142,0.60427 0.0144,0.18703 0.10071,0.30213 0.20142,0.40284 0.0719,0.14387 0.18703,0.24458 0.31652,0.33091 0.18703,-0.0288 0.31652,0.0144 0.47478,0.0144 0.20142,-0.0863 0.37407,-0.20142 0.47478,-0.38845 z m -1.19415,5.40962 c -0.0719,0.43162 0,0.84885 0,1.2517 0,0.14387 -0.0575,0.28774 -0.0575,0.43162 0.0144,0.35968 0.0575,0.71936 0,1.07904 0.17265,0.20143 0.56111,0.15826 0.84886,0.10071 0.11509,-0.0575 0.12948,-0.20142 0.23019,-0.27335 0,-0.0719 0.0575,-0.10072 0.10071,-0.14388 0.0288,-0.0575 -0.0144,-0.64743 -0.0144,-0.76252 0,-0.0288 0.0288,-0.0288 0.0144,-0.0719 0,-0.18704 -0.0432,-0.38846 -0.0432,-0.58988 0,-0.0863 0.0288,-0.17265 0.0288,-0.27336 0,-0.0863 -0.0288,-0.17265 -0.0288,-0.27336 0.0144,-0.48917 0.0288,-1.00711 0.0288,-1.49628 0,-0.3309 -0.0432,-0.66181 -0.0432,-0.97833 0,-0.3453 0.0719,-0.69059 0.0144,-1.00711 -0.24458,-0.21581 -0.74814,-0.1151 -1.10782,-0.0719 -0.0719,0.21581 -0.0432,0.46039 -0.0432,0.70498 0,0.23019 -0.0288,0.47478 -0.0288,0.71936 0,0.14388 0.0432,0.31652 0.0432,0.4604 0.0144,0.15826 0.0288,0.31652 0.0288,0.47478 0,0.14387 -0.0288,0.28774 -0.0288,0.43162 z m 2.53215,0.67621 c 0.0144,0.0288 0.0288,0.0575 0.0288,0.11509 0.0432,0.0863 0.0432,0.17265 0.0863,0.27336 0.0288,0.0863 0.10071,0.15826 0.1151,0.25897 0.0719,0.31652 0.30213,0.47478 0.446,0.73376 0.17265,0.0719 0.25897,0.21581 0.35968,0.35968 0.20143,0.15826 0.44601,0.25897 0.61866,0.43162 l 0.43162,0.0719 c 0.0144,0 0.0432,0.0432 0.0719,0.0432 0.0288,0.0144 0.0863,-0.0144 0.12949,0 0.0719,0.0144 0.14387,0.0575 0.20142,0.0719 0.18704,-0.0144 0.30213,0.0288 0.47478,0.0144 0.2302,-0.0432 0.38846,-0.0288 0.66182,-0.0432 0.23019,-0.0576 0.51794,-0.0576 0.74814,-0.1151 0.10071,-0.0432 0.17265,-0.12949 0.25897,-0.20142 0.0432,-0.10071 0.17265,-0.12949 0.20142,-0.27336 -0.0144,-0.1151 0.0144,-0.27336 -0.0288,-0.35968 -0.0432,-0.31652 0.0719,-0.67621 -0.1151,-0.86324 -0.20142,0.0144 -0.25897,0.17265 -0.38846,0.27336 -0.21581,0.17264 -0.48917,0.27336 -0.80569,0.34529 -0.21581,-0.0144 -0.40284,0.0144 -0.57549,0.0432 -0.10071,-0.0432 -0.20142,-0.0863 -0.35968,-0.0719 -0.10071,-0.0575 -0.21581,-0.1151 -0.35968,-0.12949 -0.18704,-0.15826 -0.41724,-0.27336 -0.58988,-0.43162 -0.18704,-0.35968 -0.40285,-0.6762 -0.50356,-1.12221 0,-0.46039 0.14387,-0.77691 0.25897,-1.12221 0.0576,-0.0863 0.12949,-0.14387 0.15826,-0.25897 0.14388,-0.1151 0.25897,-0.27336 0.40285,-0.38845 0.0575,-0.0719 0.15826,-0.10072 0.23019,-0.15826 0.10071,-0.0288 0.12949,-0.12949 0.24459,-0.15827 l 0.61865,-0.12948 c 0.14387,0.0432 0.25897,0.0575 0.43162,0.0432 0.1151,0.0432 0.21581,0.12949 0.40284,0.1151 0.12949,0.10071 0.31653,0.14387 0.43162,0.24458 0.17265,0.0575 0.20143,0.27336 0.44601,0.25897 0.1151,-0.11509 0.0575,-0.28774 0.0575,-0.43161 -0.0288,-0.30214 -0.0288,-0.60427 0,-0.86324 -0.0288,-0.0144 -0.0288,-0.0432 -0.0288,-0.0719 -0.0863,-0.14387 -0.25897,-0.2302 -0.46039,-0.27336 -0.12948,-0.10071 -0.37407,-0.10071 -0.53233,-0.18703 -0.53233,-0.0575 -0.87762,0.0863 -1.43873,0.0288 -0.12948,0.0432 -0.24458,0.0863 -0.40284,0.1151 -0.10071,0.10071 -0.25897,0.14387 -0.40285,0.20142 -0.12948,0.14388 -0.30213,0.24459 -0.48917,0.31652 -0.12948,0.17265 -0.30213,0.30214 -0.41723,0.47478 -0.0575,0.10072 -0.14387,0.17265 -0.21581,0.25898 -0.0288,0.11509 -0.0863,0.20142 -0.17264,0.27335 -0.0288,0.1151 -0.0432,0.24459 -0.1151,0.33091 -0.0575,0.10071 -0.0719,0.24459 -0.1151,0.35968 -0.0144,0.33091 -0.0575,0.60427 -0.0432,0.96395 0,0.1151 0.0288,0.25898 0.0432,0.35969 z m 7.29438,-4.51762 c 0,-0.1151 0.0288,-0.23019 0.0288,-0.34529 0,-0.10071 -0.0144,-0.20142 -0.0288,-0.31652 0.12948,-0.43162 -0.0575,-0.94956 0.0575,-1.38118 -0.0288,-0.0863 -0.0432,-0.18704 -0.0575,-0.28775 0,-0.17265 0.0432,-0.44601 0,-0.54672 0,-0.0288 0.0288,-0.0432 0.0288,-0.0432 v -0.2302 c -0.0144,-0.10071 -0.0432,-0.17264 -0.0719,-0.27335 0.0863,-0.17265 0.12948,-0.47478 0.10071,-0.70498 -0.10071,-0.14387 -0.3453,-0.12949 -0.57549,-0.12949 -0.21581,-0.0144 -0.4604,-0.0432 -0.60427,0.0432 -0.0863,0.27336 -0.0432,0.60427 -0.0575,0.92079 0,0.33091 0.0144,0.63304 -0.0144,0.92079 0.0575,0.18703 0.0288,0.37407 0.0144,0.5611 v 0.28775 c 0.0144,0.30213 0,0.57549 0,0.86324 0.0144,0.24458 0.0575,0.57549 0.0575,0.84885 0,0.37407 0,0.76252 -0.0575,1.07905 0.0575,0.25897 0.0288,0.51794 0.0288,0.73375 0,0.0719 0.0144,0.14387 0.0288,0.23019 0.0144,0.48917 0.0144,0.93518 0.0144,1.42435 -0.0575,0.23019 -0.0288,0.57549 -0.0719,0.83446 0.0288,0.10071 0.0719,0.20142 0.0719,0.31652 0,0.0863 -0.0144,0.17265 -0.0144,0.27336 -0.0144,0.33091 0.0432,0.66182 0.0144,0.93517 -0.0144,0.21581 -0.0863,0.41724 0.0432,0.56111 0.1151,0.0719 0.34529,0.0432 0.53233,0.0432 0.17265,0.0719 0.46039,0.0719 0.58988,-0.0432 0.10071,-0.15826 0,-0.41723 -0.0288,-0.58988 0.0288,-0.2302 -0.0288,-0.48917 -0.0288,-0.74814 0.0144,-0.18703 0,-0.46039 0.0288,-0.6762 0,-0.1151 -0.0719,-0.15826 -0.0719,-0.27336 0.0432,-0.10071 0.0432,-0.30213 0,-0.40285 0.1151,-0.23019 0.0575,-0.6762 0.10071,-0.93517 v -0.15826 c 0.0144,-0.14387 0.0576,-0.24458 0.0576,-0.35968 0.15826,-0.27336 0.35968,-0.51795 0.63304,-0.66182 0.35968,-0.18703 1.0215,-0.20142 1.43873,-0.0432 0.24458,0.17265 0.47478,0.35968 0.58988,0.6762 0,0.15826 -0.0144,0.31652 0,0.50356 0,0.30213 0.0288,0.63304 0.0144,0.94956 0,0.17265 -0.0288,0.33091 -0.0144,0.50355 0.0144,0.33091 0.0432,0.67621 0.0432,0.99273 0,0.1151 -0.0288,0.24458 -0.0288,0.34529 0,0.14388 0.0432,0.27336 0.0288,0.40285 -0.0144,0.18703 -0.12949,0.28774 -0.0432,0.40284 0.10071,0.18704 0.41723,0.10071 0.6762,0.10071 0.15826,0 0.27336,0.0288 0.40285,0 0.11509,-0.0719 0.20142,-0.24458 0.14387,-0.41723 -0.0863,-0.86324 -0.0863,-1.79841 -0.0432,-2.64726 -0.0575,-0.20142 -0.0719,-0.54672 -0.0288,-0.77692 -0.0575,-0.25897 -0.0575,-0.61865 -0.0432,-0.9064 -0.0719,-0.18703 -0.17265,-0.34529 -0.24458,-0.51794 -0.18704,-0.12948 -0.33091,-0.34529 -0.50356,-0.446 -0.1151,-0.0863 -0.27336,-0.0863 -0.38846,-0.18704 -0.17264,-0.0288 -0.25897,-0.1151 -0.40284,-0.15826 -0.43162,-0.0288 -0.92079,-0.10071 -1.29486,0.0144 -0.0863,0.0432 -0.17265,0.10071 -0.27336,0.14387 -0.10071,0.0432 -0.23019,0.0575 -0.31652,0.1151 -0.14387,0.0719 -0.24458,0.25897 -0.40284,0.2302 -0.0719,-0.25898 0,-0.51795 0,-0.74814 z m 8.33024,-0.17264 c -0.0863,0.18703 -0.14387,0.34529 -0.2302,0.51794 -0.0863,0.18703 -0.51794,1.29486 -0.6762,1.43873 l -0.0432,0.21581 c -0.0576,0.24458 -0.24458,0.47478 -0.27336,0.70498 -0.17265,0.23019 -0.20142,0.47478 -0.34529,0.70497 -0.14388,0.53233 -0.51795,1.22292 -0.74814,1.74087 -0.17265,0.53233 -0.63304,1.33802 -0.77692,1.74086 -0.10071,0.15826 -0.18703,0.33091 -0.23019,0.48917 -0.0719,0.1151 -0.15826,0.21581 -0.21581,0.34529 0.0144,0.21581 0.28774,0.25897 0.57549,0.24459 0.30213,-0.0144 0.31652,0 0.48917,-0.2302 0.11509,-0.0863 0.0719,-0.20142 0.11509,-0.28775 0.0719,-0.0719 0.0432,-0.20142 0.0863,-0.30213 0.35968,-0.83446 0.0144,0.0575 0.33091,-0.77691 0.0432,-0.10071 0.11509,-0.14388 0.15826,-0.24459 0.0432,-0.20142 0.14387,-0.40284 0.24458,-0.61865 0.0144,-0.0288 -0.0144,-0.0288 0,-0.0575 0.0863,-0.15826 0.21581,-0.3453 0.2302,-0.50356 0.14387,-0.28774 0.25897,-0.60426 0.40284,-0.93517 l 0.1151,-0.31652 c 0.0432,-0.0863 0.12949,-0.20142 0.17265,-0.28775 0.12948,-0.24458 0.18703,-0.47478 0.27336,-0.6762 0.10071,-0.25897 0.17264,-0.48917 0.3309,-0.71936 0,0 0.43162,-0.92079 0.40285,-0.96395 -0.0432,-0.0288 0.0719,-0.14388 0.0719,-0.17265 0.23019,-0.69059 0.54671,-1.29486 0.87762,-2.043 0.0432,-0.1151 0.14387,-0.12948 0.18704,-0.27336 0.0719,-0.3309 0.20142,-0.60426 0.35968,-0.99272 0.14387,-0.18704 0.28774,-0.48917 0.20142,-0.60427 -0.12949,-0.0719 -0.3453,-0.0288 -0.53233,-0.0288 -0.2302,0 -0.10071,-0.0432 -0.35968,0.0432 -0.18704,0.20142 -0.20142,0.43162 -0.28775,0.64743 -0.0719,0.24458 -0.18703,0.47478 -0.28774,0.71936 -0.14388,0.38846 -0.35969,0.92079 -0.53233,1.26609 z m 9.86967,6.50305 c 0,-0.0288 -0.0288,-0.0575 -0.0575,-0.0719 -0.1151,-0.12949 -0.2302,-0.2302 -0.30213,-0.40285 -0.18704,-0.12948 -0.30214,-0.34529 -0.48917,-0.47478 -0.0575,-0.15826 -0.15826,-0.24458 -0.25897,-0.34529 -0.0863,-0.1151 -0.15826,-0.24459 -0.27336,-0.3453 -0.0432,-0.14387 -0.17265,-0.23019 -0.27336,-0.33091 -0.0432,-0.0575 -0.0863,-0.11509 -0.10071,-0.18703 -0.0432,-0.0719 -0.12949,-0.0863 -0.14387,-0.17265 -0.12949,-0.0719 -0.21581,-0.18703 -0.28775,-0.30213 -0.1151,-0.0863 -0.20142,-0.20142 -0.27336,-0.31652 -0.20142,-0.20142 -0.34529,-0.44601 -0.54672,-0.63304 -0.0719,-0.12949 -0.18703,-0.21581 -0.25897,-0.3453 -0.1151,-0.0719 -0.20142,-0.18703 -0.25897,-0.31652 -0.12949,-0.0719 -0.17265,-0.21581 -0.30213,-0.28774 -0.0719,-0.17265 -0.2302,-0.18704 -0.2302,-0.37407 0,-0.12949 0.14387,-0.24459 0.25897,-0.35969 0.10071,-0.1151 0.24459,-0.21581 0.28775,-0.31652 0.15826,-0.0432 0.21581,-0.18703 0.34529,-0.27336 0.0719,-0.12948 0.2302,-0.18703 0.31652,-0.31652 0.17265,-0.0719 0.27336,-0.27336 0.38846,-0.38845 0.0288,-0.0288 0.0575,-0.0432 0.0863,-0.0575 0.0575,-0.0576 0.10072,-0.1151 0.15826,-0.15826 0.21581,-0.20143 0.38846,-0.44601 0.66182,-0.58988 0.20142,-0.30214 0.50356,-0.51795 0.74814,-0.77692 0.14387,-0.11509 0.24458,-0.25897 0.40284,-0.35968 0.10072,-0.15826 0.30214,-0.21581 0.27336,-0.50355 -0.1151,-0.12949 -0.30213,-0.0575 -0.50355,-0.0432 -0.25897,0.0144 -0.54672,-0.0144 -0.80569,0 -0.28775,0.14388 -0.47478,0.40285 -0.70498,0.60427 -0.0288,0.0863 -0.1151,0.1151 -0.15826,0.17265 -0.0575,0.0432 -0.1151,0.1151 -0.15826,0.17265 -0.1151,0.10071 -0.27336,0.17264 -0.31652,0.34529 -0.0863,0.0288 -0.15826,0.0863 -0.2302,0.12949 -0.0719,0.17264 -0.24458,0.23019 -0.31652,0.38845 -0.10071,0 -0.12948,0.0719 -0.20142,0.0863 -0.0719,0.0863 -0.1151,0.20142 -0.21581,0.25897 -0.0719,0.0719 -0.14387,0.15826 -0.20142,0.27336 -0.10071,0.0432 -0.17265,0.1151 -0.27336,0.17264 -0.0288,0.0719 -0.0863,0.1151 -0.12949,0.15827 -0.0432,0.0575 -0.0719,0.14387 -0.14387,0.15826 -0.0863,0.11509 -0.21581,0.18703 -0.28774,0.31652 -0.0863,0.11509 -0.24459,0.17264 -0.31652,0.30213 -0.14388,0.0576 -0.18704,0.21581 -0.38846,0.2302 -0.0719,-0.0575 -0.0144,-0.12949 -0.0288,-0.21581 -0.0144,-0.25897 -0.0288,-0.5755 -0.0144,-0.86324 0,-0.10071 0.0575,-0.12949 0.0719,-0.21581 -0.1151,-0.2302 -0.0719,-0.60427 -0.10071,-0.9064 0.0432,-0.15826 0.0575,-0.31652 0.0432,-0.47478 0,-0.14387 -0.0144,-0.3453 -0.0144,-0.50356 0,-0.20142 0.0575,-0.40284 -0.0432,-0.54671 -0.12948,-0.1151 -0.3309,-0.0432 -0.53233,-0.0432 -0.20142,0 -0.43161,-0.0432 -0.60426,0 -0.12949,0.12949 -0.14388,0.48917 -0.0863,0.71937 0.0719,1.0215 -0.0432,2.2588 0.0432,3.36663 0.0144,0.10071 -0.0575,0.12948 -0.0432,0.24458 0.0575,0.25897 0.0288,0.51794 0.0144,0.77691 0,0.27336 0.0288,0.56111 0.0288,0.84886 0,0.3309 -0.0288,0.66181 -0.0288,0.97833 0,0.38846 -0.0288,0.93518 0.0432,1.28047 -0.0288,0.31652 -0.0575,0.73375 -0.0432,1.00711 0.10071,0.15826 0.35968,0.15826 0.61865,0.14388 0.17265,0.0432 0.53233,0.0575 0.64743,-0.0432 0.1151,-0.12948 0.0863,-0.43162 0.0288,-0.58988 -0.0144,-0.35968 -0.0288,-0.70497 -0.0719,-1.05027 0.0432,-0.14387 0.0288,-0.33091 0.0719,-0.47478 -0.0863,-0.28775 -0.0288,-0.66182 -0.0432,-1.0215 -0.0144,-0.25897 -0.0432,-0.48917 -0.0288,-0.70498 0.0288,-0.12948 0.15826,-0.14387 0.18704,-0.27335 0.10071,-0.0432 0.12948,-0.17265 0.27336,-0.20143 0.15826,0.0863 0.23019,0.27336 0.35968,0.38846 0.12948,0.12949 0.24458,0.27336 0.35968,0.40285 0.0576,0.0432 0.10071,0.0863 0.14387,0.14387 0.0432,0.0575 0.0575,0.12948 0.1151,0.18703 0.0719,0.0863 0.21581,0.17265 0.24459,0.31652 0.0863,0.0432 0.11509,0.12949 0.15826,0.21581 0.23019,0.15826 0.38845,0.38846 0.54671,0.61866 0.17265,0.21581 0.35969,0.43162 0.56111,0.60426 0.0575,0.0719 0.0863,0.14388 0.14387,0.21581 0.0288,0.0719 0.12949,0.0863 0.15826,0.17265 0.10071,0.12949 0.20142,0.24458 0.28775,0.38846 0.1151,0.1151 0.21581,0.24458 0.34529,0.34529 0.10071,0.12949 0.18704,0.27336 0.35968,0.33091 0.18704,0.0432 0.41724,0.0144 0.63305,0 0.23019,0 0.47478,0 0.66181,-0.0863 0.0144,-0.0575 0.0288,-0.1151 0.0144,-0.20143 z m 7.30874,-5.49594 c -0.10071,-0.10071 -0.18704,-0.21581 -0.27336,-0.31652 -0.1151,-0.0575 -0.18704,-0.12949 -0.27336,-0.20143 -0.1151,-0.0575 -0.15826,-0.15826 -0.27336,-0.20142 -0.14387,-0.10071 -0.33091,-0.12948 -0.43162,-0.25897 -0.15826,-0.0288 -0.30213,-0.0863 -0.43162,-0.15826 -0.24458,-0.0432 -0.51794,-0.0432 -0.71936,-0.12949 -0.31652,0.0144 -0.58988,0.0575 -0.9064,0.0719 -0.24458,0.0432 -0.44601,0.12949 -0.70498,0.15826 -0.12948,0.0719 -0.24458,0.15826 -0.41723,0.20142 -0.1151,0.15826 -0.31652,0.24459 -0.44601,0.38846 -0.0863,0.0432 -0.14387,0.12949 -0.20142,0.20142 -0.10071,0.0575 -0.14387,0.14388 -0.2302,0.20142 -0.0719,0.18704 -0.23019,0.28775 -0.30213,0.47479 -0.0575,0.0719 -0.0863,0.15826 -0.12948,0.24458 -0.0432,0.10071 -0.0575,0.20142 -0.14388,0.27336 0,0.17265 -0.0576,0.27336 -0.0863,0.41723 0,0.24458 -0.0576,0.41723 -0.0863,0.63304 -0.0144,0.28775 0.0575,0.53233 -0.0432,0.74814 0.0575,0.0863 0.0432,0.25897 0.0432,0.40285 0.0719,0.25897 0.20143,0.46039 0.24459,0.73375 0.15826,0.12948 0.21581,0.35968 0.38846,0.48917 l 0.40284,0.50355 c 0.15826,0.0719 0.25897,0.20142 0.41723,0.27336 0.14388,0.0863 0.25897,0.20142 0.44601,0.24458 0.0719,0.0432 0.0863,0.1151 0.14387,0.15826 0.24459,-0.0144 0.37407,0.0719 0.56111,0.1151 0.17264,-0.0288 0.34529,0.0432 0.51794,0.0432 0.15826,0.0144 0.33091,-0.0288 0.47478,-0.0432 0.20142,0 0.37407,0.0144 0.54672,0 0.24458,-0.0144 0.46039,-0.12948 0.66181,-0.15826 0.0719,-0.0863 0.20143,-0.10071 0.27336,-0.17265 0.0863,-0.0719 0.20142,-0.12948 0.31652,-0.17264 0.12949,-0.12949 0.30214,-0.2302 0.4604,-0.35969 0.10071,-0.15826 0.21581,-0.30213 0.37407,-0.40284 0.0432,-0.1151 0.10071,-0.2302 0.21581,-0.27336 -0.0288,-0.21581 0.11509,-0.24458 0.15826,-0.40284 0.0719,-0.25897 0.15826,-0.50356 0.2158,-0.77692 0.0288,-0.3309 -0.0575,-0.63304 0,-0.93517 0,-0.0144 0,-0.0144 -0.0144,-0.0144 0,-0.33091 -0.1151,-0.63304 -0.14388,-1.00711 -0.0863,-0.25897 -0.25897,-0.43162 -0.3309,-0.69059 z m -3.89896,4.04283 c -0.0432,-0.0719 -0.1151,-0.1151 -0.15826,-0.15826 l -0.0719,-0.10071 c -0.0288,-0.0144 -0.0719,-0.0144 -0.0863,-0.0432 -0.1151,-0.10071 -0.2302,-0.20142 -0.30213,-0.31652 -0.0432,-0.0719 -0.0719,-0.17264 -0.1151,-0.24458 -0.0432,-0.0863 -0.10071,-0.14387 -0.12949,-0.2302 -0.0576,-0.28774 -0.1151,-0.5611 -0.10071,-0.93517 0.0288,-0.12949 0.10071,-0.20142 0.10071,-0.35968 0.0719,-0.10072 0.12949,-0.21581 0.15826,-0.35969 0.0719,-0.0719 0.1151,-0.15826 0.15826,-0.27336 0.0863,-0.0432 0.1151,-0.14387 0.20142,-0.18703 0.17265,-0.18703 0.40285,-0.31652 0.58988,-0.48917 0.18704,-0.0432 0.30214,-0.17265 0.44601,-0.25897 0.18704,0.0575 0.37407,0 0.53233,-0.0432 0.33091,-0.0144 0.63304,0.0144 0.9064,0.0719 0.0863,0.0719 0.15826,0.17265 0.28775,0.20143 0.0575,0.1151 0.17264,0.17264 0.30213,0.20142 0.1151,0.18703 0.27336,0.33091 0.43162,0.47478 0,0.12949 0.0719,0.18704 0.1151,0.27336 0.0144,0.1151 0.0719,0.17265 0.12948,0.2302 -0.0144,0.21581 0.0719,0.31652 0.1151,0.46039 -0.0288,0.12948 0.0288,0.24458 0.0288,0.35968 -0.0144,0.15826 -0.0719,0.30214 -0.0719,0.47478 -0.1151,0.20142 -0.20142,0.43162 -0.30213,0.66182 -0.15826,0.20142 -0.33091,0.38846 -0.51795,0.5611 -0.17264,0.0432 -0.28774,0.14388 -0.43162,0.2302 -0.14387,0.0144 -0.24458,0.0575 -0.35968,0.0863 -0.1151,0.0432 -0.27336,0.0288 -0.38846,0.0719 -0.0575,-0.0432 -0.15826,-0.0288 -0.23019,-0.0719 -0.0863,0 -0.12949,0.0432 -0.21581,0.0432 -0.10071,-0.0432 -0.25897,-0.0288 -0.37407,-0.0575 z m 11.45229,-2.97817 c -0.0575,-0.12949 -0.1151,-0.24459 -0.12948,-0.43162 -0.12949,-0.2302 -0.28775,-0.43162 -0.43162,-0.64743 -0.12949,-0.14387 -0.28775,-0.25897 -0.40285,-0.41723 -0.12948,-0.0432 -0.2302,-0.14388 -0.34529,-0.20142 l -0.35969,-0.20143 c -0.28774,-0.0144 -0.446,-0.14387 -0.70497,-0.18703 h -0.40285 c -0.10071,0.0288 -0.17265,0.0575 -0.30213,0.0432 -0.10071,0.0432 -0.17265,0.1151 -0.3453,0.10071 -0.0719,0.0575 -0.17264,0.10071 -0.27336,0.15826 -0.28774,0.0575 -0.446,0.2302 -0.6762,0.35968 l -0.35968,0.38846 c -0.10071,0.18704 -0.18704,0.38846 -0.3453,0.53233 -0.0144,0.14387 -0.0575,0.2302 -0.11509,0.33091 -0.0144,0.17265 -0.0288,0.35968 -0.0863,0.48917 0.0288,0.15826 -0.0288,0.28774 -0.0432,0.43162 -0.0144,0.28774 0.0863,0.53233 0.0863,0.82007 0.0863,0.0863 0.10071,0.25897 0.15826,0.35968 0.0144,0.0144 0.1151,0.10072 0.1151,0.1151 0.0144,0.0288 0.67621,-0.12948 0.77692,-0.18703 0.1151,-0.0288 0.21581,-0.14387 0.21581,-0.18704 0,-0.0432 -0.17265,-0.69059 -0.20143,-0.87762 0,-0.10071 0.0576,-0.2302 0,-0.35968 0.0576,-0.1151 0.12949,-0.21581 0.14388,-0.38846 0.0863,-0.0863 0.17264,-0.18704 0.23019,-0.31652 0.15826,-0.10071 0.25898,-0.25897 0.43162,-0.35968 0.12949,-0.0575 0.27336,-0.14388 0.41723,-0.15826 0.0432,0 0.0719,0.0288 0.1151,0.0288 0.2302,-0.0144 0.43162,-0.0432 0.61866,0.0144 0.15826,0.0432 0.30213,0.17264 0.446,0.18703 0.12949,0.10071 0.27336,0.20142 0.38846,0.31652 0.0432,0.15826 0.15826,0.24459 0.20142,0.38846 0.0863,0.18703 0.10071,0.44601 0.1151,0.69059 -0.0575,0.18703 -0.0575,0.28775 -0.17265,0.53233 -0.1151,0.24458 -0.69059,0.87763 -0.69059,0.87763 0,0 -0.24458,0.23019 -0.40284,0.30213 -0.0863,0.14387 -0.31652,0.15826 -0.38846,0.31652 -0.28774,0.17265 -0.50355,0.43162 -0.83446,0.5611 -0.0575,0.15826 -0.2302,0.20143 -0.31652,0.31652 -0.14388,0.0719 -0.28775,0.17265 -0.38846,0.2302 -0.0432,0.0288 -0.10071,0.0432 -0.12949,0.0719 -0.17264,0.10071 -0.30213,0.24458 -0.47478,0.33091 -0.0719,0.12948 -0.25897,0.11509 -0.25897,0.30213 0.1151,0.12948 0.30214,0.0575 0.47478,0.0432 0.41723,-0.0144 0.9064,0.0432 1.2517,0 0.0863,-0.0144 0.0863,0.0575 0.18703,0.0432 0.0719,-0.0144 0.12949,-0.0575 0.21581,-0.0719 0.15826,0.0288 0.38846,0.0575 0.54672,0.0575 0.10071,-0.0144 0.25897,0 0.41723,0 0.18704,0 0.37407,-0.0288 0.53233,0.0144 0.12949,-0.0432 0.35968,0.0144 0.4604,-0.0719 0.10071,0.0719 0.24458,0.0288 0.35968,0.0288 0.0863,0 0.14387,0.0288 0.23019,0.0288 0.20143,-0.0144 0.41724,-0.0575 0.63305,-0.0719 0.20142,-0.0144 0.54671,-0.0719 0.54671,-0.0719 0,0 0.0144,-0.89201 -0.15826,-1.13659 -0.21581,-0.0288 -0.446,0.0863 -0.73375,0.0719 -0.17265,0.0288 -0.48917,0.0288 -0.76253,0.0288 -0.0719,-0.0144 -0.11509,0.0288 -0.15826,0.0432 -0.23019,-0.0719 -0.48916,-0.0432 -0.74814,-0.0288 -0.11509,0.0144 -0.24458,0.0432 -0.30213,-0.0432 0.0575,-0.0863 0.10071,-0.17265 0.2302,-0.18703 0.12948,-0.12949 0.28774,-0.2302 0.50355,-0.28775 0.0863,-0.1151 0.20142,-0.21581 0.31652,-0.31652 0.14388,-0.0719 0.24459,-0.20142 0.40285,-0.24458 0.0575,-0.0719 0.1151,-0.14388 0.15826,-0.21581 0.0576,-0.0575 0.17265,-0.0719 0.18703,-0.17265 0.10071,-0.15826 0.14388,-0.37407 0.27336,-0.50356 -0.0144,-0.14387 0.0575,-0.20142 0.0863,-0.31652 -0.0144,-0.15826 0.0144,-0.53233 0,-0.63304 z"
     id="text671"
     style="font-size:14.3873px;line-height:1;font-family:FuturaRenner;-inkscape-font-specification:FuturaRenner;letter-spacing:0px;word-spacing:0px;fill:#ffffff;stroke-width:0.254891;stroke-linecap:square;stroke-dashoffset:3.59055;paint-order:markers fill stroke"
     aria-label="github.com/anothermimich/K02" />
</svg>
