<?xml version="1.0" encoding="UTF-8" standalone="no"?>
<svg
   version="1.1"
   width="1.6351069mm"
   height="1.8059945mm"
   viewBox="0 0 1.635107 1.8059944"
   id="svg303"
   xmlns="http://www.w3.org/2000/svg"
   xmlns:svg="http://www.w3.org/2000/svg">
  <defs
     id="defs303" />
  <title
     id="title1">SVG Image created as K02-F_Mask.svg date 2024/11/26 20:07:17 </title>
  <desc
     id="desc1">Image generated by PCBNEW </desc>
  <g
     style="fill:#000000;fill-opacity:1;stroke:#000000;stroke-linecap:round;stroke-linejoin:round;stroke-opacity:1"
     transform="rotate(-30,-82.968019,231.59382)"
     id="g3">
    <path
       style="fill:#000000;fill-opacity:1;fill-rule:evenodd;stroke:none"
       d="m 104.9934,73.8525 0.006,0.0011 0.006,7e-4 0.006,6e-4 0.006,3e-4 0.006,1e-4 0.0118,1e-4 h 0.0117 0.006 l 0.006,2e-4 0.006,4e-4 0.006,5e-4 0.006,9e-4 0.006,0.0011 0.008,0.0036 0.008,0.0034 0.008,0.0032 0.008,0.0029 0.0153,0.0054 0.015,0.0051 0.0147,0.0051 0.0144,0.0055 0.007,0.003 0.007,0.0032 0.007,0.0034 0.007,0.0038 3e-4,-6e-4 2e-4,-2e-4 1e-4,-1e-4 v -10e-5 l 1e-4,-1e-4 h 1e-4 v -1e-4 h 10e-5 v -1e-4 h 1e-4 v 0 h 1e-4 1e-4 v 0 h 10e-5 1e-4 v 0 l 1e-4,1e-4 h 1e-4 l 2e-4,1e-4 2e-4,1e-4 5e-4,3e-4 0.006,0.0046 0.006,0.0042 0.006,0.0039 0.006,0.0037 0.006,0.0036 0.006,0.0034 0.013,0.0064 0.0132,0.0065 0.0133,0.0067 0.007,0.0036 0.007,0.0038 0.007,0.004 0.007,0.0043 0.01,0.0088 0.009,0.009 0.009,0.009 0.009,0.0091 0.0171,0.0182 0.009,0.0091 0.009,0.009 0.001,0.0014 0.001,0.0014 10e-4,0.0014 0.001,0.0014 9e-4,0.0015 9e-4,0.0014 0.002,0.0029 0.005,0.0115 0.001,0.0027 0.002,0.0028 9e-4,0.0013 9e-4,0.0013 0.001,0.0013 0.001,0.0012 10e-4,0.0013 0.001,0.0012 0.002,0.0012 0.002,0.0011 0.002,0.0011 0.002,0.0011 0.002,10e-4 0.002,0.001 -2e-4,0.0014 -2e-4,0.0015 v 0.0014 l -1e-4,0.0014 1e-4,0.0013 1e-4,0.0014 4e-4,0.0027 5e-4,0.0027 8e-4,0.0026 9e-4,0.0026 10e-4,0.0026 0.001,0.0025 0.001,0.0025 10e-4,0.0024 0.002,0.0024 0.002,0.0024 0.002,0.0023 0.004,0.0045 3e-4,0.0044 5e-4,0.0044 6e-4,0.0043 7e-4,0.0042 9e-4,0.0043 10e-4,0.0042 0.001,0.0041 0.001,0.0041 10e-4,0.0041 0.001,0.0041 0.002,0.004 0.002,0.004 0.002,0.004 0.002,0.0039 0.004,0.0079 7e-4,0.0048 7e-4,0.0047 10e-4,0.0094 0.002,0.0186 10e-4,0.0091 0.001,0.0089 7e-4,0.0044 8e-4,0.0043 9e-4,0.0042 10e-4,0.0042 -9e-4,0.0058 -7e-4,0.0058 -5e-4,0.0058 -2e-4,0.0029 -1e-4,0.0029 -1e-4,0.0028 v 0.0029 l 1e-4,0.0028 1e-4,0.0028 2e-4,0.0028 2e-4,0.0027 4e-4,0.0027 4e-4,0.0026 3e-4,0.0012 2e-4,0.0011 3e-4,0.0024 1e-4,0.0025 v 0.0025 l -1e-4,0.0025 -1e-4,0.0026 -5e-4,0.0051 -4e-4,0.0053 -1e-4,0.0026 v 0.0026 l 2e-4,0.0025 4e-4,0.0026 2e-4,0.0013 3e-4,0.0012 4e-4,0.0013 4e-4,0.0012 -0.002,0.0046 -0.002,0.0046 -10e-4,0.0049 -0.001,0.0049 -0.005,0.0206 -0.002,0.0106 -10e-4,0.0053 -0.002,0.0054 -0.002,0.0053 -0.002,0.0053 -0.002,0.0052 -0.002,0.0052 -0.004,0.0073 -0.004,0.0072 -0.004,0.0072 -0.004,0.0072 -0.009,0.0148 -0.005,0.0077 -0.005,0.0081 -0.003,0.0064 -0.003,0.0068 -0.006,0.014 -0.003,0.0071 -0.002,0.0035 -0.002,0.0035 -0.002,0.0034 -0.002,0.0033 -0.002,0.0032 -0.002,0.0031 -0.002,0.0035 -0.002,0.0034 -0.002,0.0033 -0.002,0.0032 -0.0105,0.0127 -0.005,0.0065 -0.002,0.0032 -0.002,0.0034 -0.002,0.0034 -0.002,0.0036 -0.002,0.0036 -0.002,0.0038 -0.003,0.0032 -0.003,0.0031 -0.006,0.0057 -0.006,0.0055 -0.006,0.0057 -0.003,0.003 -0.003,0.0031 -0.003,0.0034 -0.003,0.0036 -0.003,0.0038 -0.003,0.0042 -0.003,0.0045 -0.003,0.005 -8e-4,3e-4 -8e-4,3e-4 -8e-4,2e-4 -8e-4,2e-4 -10e-4,4e-4 -0.002,3e-4 -0.002,2e-4 -0.002,1e-4 -0.003,3e-4 -0.002,1e-4 -0.002,2e-4 -0.002,2e-4 -0.002,3e-4 -0.002,5e-4 -9e-4,2e-4 -8e-4,3e-4 -9e-4,4e-4 -8e-4,3e-4 -9e-4,4e-4 -9e-4,5e-4 -0.003,0.0032 -0.003,0.0029 -0.003,0.0026 -0.003,0.0025 -0.003,0.0022 -0.003,0.0021 -0.003,0.002 -0.004,0.0018 -0.007,0.0035 -0.007,0.0033 -0.007,0.0034 -0.004,0.0018 -0.003,0.0018 -0.056,0.0282 -0.08,0.0122 -0.002,10e-4 -0.002,8e-4 -0.002,8e-4 -0.002,6e-4 -0.005,0.0011 -0.005,7e-4 -0.005,6e-4 -0.005,4e-4 -0.01,4e-4 -0.01,3e-4 -0.005,3e-4 -0.005,4e-4 -0.005,6e-4 -0.005,9e-4 -0.005,0.0011 -0.002,8e-4 -0.002,8e-4 -0.006,-0.0022 -0.006,-0.0019 -0.006,-0.0016 -0.006,-0.0015 -0.006,-0.0012 -0.006,-0.0011 -0.0117,-0.0018 -0.0236,-0.0034 -0.006,-9e-4 -0.006,-0.0012 -0.006,-0.0012 -0.006,-0.0015 -0.012,-0.0072 -0.006,-0.0035 -0.003,-0.0017 -0.003,-0.0016 -0.003,-0.0015 -0.003,-0.0013 -0.003,-0.0012 -0.003,-10e-4 -0.003,-8e-4 -0.003,-5e-4 -10e-4,-2e-4 -0.001,-1e-4 h -0.001 -10e-4 l -0.003,-0.0044 -0.004,-0.0041 -0.004,-0.0037 -0.004,-0.0034 -0.005,-0.0033 -0.005,-0.003 -0.005,-0.0029 -0.005,-0.0029 -0.0216,-0.0111 -0.006,-0.0034 -0.005,-0.0026 -0.006,-0.0033 -0.006,-0.0036 -0.008,-0.0062 -0.007,-0.0063 -0.0146,-0.0125 -0.008,-0.0062 -0.008,-0.0061 -0.004,-0.003 -0.004,-0.0029 -0.005,-0.003 -0.005,-0.0029 -0.003,-0.0023 -0.002,-0.0023 -0.005,-0.0045 -0.009,-0.0092 -0.002,-0.0022 -0.002,-0.0022 -0.002,-0.0023 -0.003,-0.0021 -0.003,-0.0022 -0.003,-0.0021 -0.003,-0.0021 -0.003,-0.0021 -5e-4,-0.0025 -7e-4,-0.0024 -9e-4,-0.0023 -0.001,-0.0022 -0.001,-0.0021 -10e-4,-0.002 -0.001,-0.002 -0.001,-0.0019 -0.0126,-0.0154 -0.002,-0.0037 -0.003,-0.0036 -0.003,-0.0036 -0.002,-0.0035 -0.002,-0.0036 -0.001,-0.0018 -0.001,-0.0019 -10e-4,-0.0018 -0.001,-0.0019 -9e-4,-0.002 -8e-4,-0.002 -0.0327,-0.0626 -2e-4,-0.0024 -3e-4,-0.0024 -5e-4,-0.0023 -5e-4,-0.0023 -6e-4,-0.0022 -6e-4,-0.0022 -0.001,-0.0045 -0.001,-0.0045 -6e-4,-0.0023 -5e-4,-0.0024 -4e-4,-0.0024 -4e-4,-0.0025 -2e-4,-0.0026 V 74.4 74.3987 l -0.003,-0.0083 -0.002,-0.0042 -8e-4,-0.0021 -7e-4,-0.0022 -7e-4,-0.0022 -6e-4,-0.0021 -5e-4,-0.0023 -4e-4,-0.0022 -4e-4,-0.0022 -2e-4,-0.0022 -1e-4,-0.0023 1e-4,-0.0011 v -0.0012 l -0.001,-0.0043 -10e-4,-0.0045 -8e-4,-0.0045 -8e-4,-0.0046 -6e-4,-0.0047 -6e-4,-0.0046 -10e-4,-0.0094 -0.001,-0.0094 -7e-4,-0.0046 -9e-4,-0.0046 -0.001,-0.0045 -0.001,-0.0045 -10e-4,-0.0044 -0.002,-0.0042 0.001,-0.004 9e-4,-0.0039 7e-4,-0.0039 6e-4,-0.0037 4e-4,-0.0038 3e-4,-0.0036 3e-4,-0.0036 10e-5,-0.0036 1e-4,-0.0071 -1e-4,-0.0069 -10e-5,-0.007 10e-5,-0.0069 0.002,-0.0056 0.002,-0.0056 0.002,-0.0054 2e-4,-6e-4 h 0.1659 l 2e-4,0.004 2e-4,0.0039 8e-4,0.0079 9e-4,0.0079 8e-4,0.0079 3e-4,0.0041 1e-4,0.004 10e-5,0.0041 -2e-4,0.0041 -4e-4,0.0041 -6e-4,0.0042 -8e-4,0.0043 -0.001,0.0043 0.001,0.0058 0.001,0.0059 0.002,0.0119 0.003,0.024 0.001,0.012 9e-4,0.006 10e-4,0.0059 0.001,0.0059 0.001,0.0058 0.002,0.0058 0.002,0.0058 0.008,0.0336 0.004,0.0044 0.002,0.0022 0.002,0.0021 0.002,0.0021 0.001,0.0021 0.001,0.0021 10e-4,0.0021 0.001,0.002 0.001,0.0021 10e-4,0.0022 9e-4,0.0021 9e-4,0.0022 8e-4,0.0022 8e-4,0.0022 6e-4,0.0023 0.003,0.0023 0.002,0.0023 0.002,0.0024 0.002,0.0024 0.002,0.0024 0.002,0.0024 0.002,0.0025 0.002,0.0024 0.002,0.0026 0.002,0.0025 0.002,0.0025 0.001,0.0026 10e-4,0.0026 0.001,0.0026 0.001,0.0026 10e-4,0.0027 0.002,9e-4 10e-4,0.001 0.003,0.0019 0.002,0.002 0.002,0.002 0.002,0.0021 0.002,0.0021 0.002,0.0021 0.002,0.0022 0.007,0.0086 0.002,0.0022 0.002,0.0021 0.002,0.0022 0.002,0.0021 0.007,0.0045 0.007,0.0043 0.007,0.0039 0.007,0.0037 0.007,0.0034 0.007,0.0032 0.0134,0.0059 0.0132,0.0052 0.013,0.0047 0.026,0.009 0.002,3e-4 0.002,3e-4 0.002,2e-4 0.002,1e-4 h 0.002 0.002 l 0.004,-2e-4 0.008,-4e-4 0.002,-1e-4 h 0.002 0.002 l 0.002,1e-4 0.0339,0.0029 0.003,-2e-4 0.003,-3e-4 0.003,-4e-4 0.003,-5e-4 0.003,-7e-4 0.003,-7e-4 0.003,-8e-4 0.003,-8e-4 0.007,-0.0019 0.007,-0.0021 0.007,-0.0023 0.007,-0.0023 h 4e-4 4e-4 l 3e-4,-1e-4 h 4e-4 l 3e-4,-1e-4 4e-4,-1e-4 3e-4,-2e-4 4e-4,-1e-4 6e-4,-4e-4 6e-4,-4e-4 6e-4,-5e-4 6e-4,-5e-4 0.001,-0.0011 0.001,-0.0012 6e-4,-5e-4 6e-4,-5e-4 6e-4,-5e-4 7e-4,-5e-4 0.0154,-0.0015 10e-4,-4e-4 0.001,-5e-4 0.003,-0.001 0.003,-0.0012 0.003,-0.0012 0.002,-6e-4 0.002,-5e-4 0.002,-5e-4 0.002,-4e-4 0.002,-4e-4 0.002,-3e-4 0.002,-2e-4 0.002,-10e-5 0.0703,-0.0532 0.002,-0.0021 0.002,-0.0022 0.002,-0.0024 0.002,-0.0024 0.004,-0.0051 0.004,-0.0052 0.004,-0.0051 0.002,-0.0025 0.002,-0.0023 0.002,-0.0022 0.002,-0.002 0.002,-0.0019 0.002,-0.0016 0.009,-0.0262 9e-4,-5e-4 8e-4,-5e-4 0.002,-0.0012 0.002,-0.0013 0.001,-0.0014 0.001,-0.0014 10e-4,-0.0015 0.003,-0.0031 0.002,-0.0029 10e-4,-0.0014 0.001,-0.0013 0.001,-0.0013 10e-4,-10e-4 7e-4,-5e-4 8e-4,-5e-4 7e-4,-4e-4 8e-4,-3e-4 0.0165,-0.0468 0.002,-0.0053 0.001,-0.0053 0.003,-0.0108 10e-4,-0.0055 0.002,-0.0057 10e-4,-0.0029 0.001,-0.0029 0.001,-0.003 10e-4,-0.0031 -10e-4,-0.0305 V 74.277 l 10e-5,-0.0038 1e-4,-0.0038 3e-4,-0.0038 5e-4,-0.0038 6e-4,-0.0039 9e-4,-0.004 0.001,-0.004 -0.003,-0.0116 -0.003,-0.0116 -0.003,-0.0116 -0.003,-0.0114 -0.004,-0.0115 -0.004,-0.0113 -0.004,-0.0113 -0.004,-0.0112 -0.028,-0.0373 -0.007,-0.0092 -0.006,-0.0092 -0.006,-0.0093 -0.006,-0.0094 -0.003,-0.0021 -0.003,-0.0022 -0.003,-0.0022 -0.003,-0.0023 -0.003,-0.0024 -0.003,-0.0024 -0.006,-0.005 -0.011,-0.0098 -0.006,-0.0048 -0.003,-0.0022 -0.003,-0.0022 -0.002,-0.0013 -0.002,-0.0012 -0.003,-10e-4 -0.002,-0.001 -0.0106,-0.0037 -0.003,-0.001 -0.003,-0.0011 -0.003,-0.0011 -0.003,-0.0013 -0.002,-0.0014 -0.003,-0.0016 -0.002,-0.0018 -0.002,-0.002 -0.003,-7e-4 -0.003,-6e-4 -0.007,-9e-4 -0.007,-9e-4 -0.003,-5e-4 -0.004,-5e-4 -0.003,-7e-4 -0.004,-9e-4 -0.004,-10e-4 -0.004,-0.0013 -0.004,-0.0016 -0.004,-0.0019 -0.004,-0.0022 -0.004,-0.0027 -0.004,0.001 -0.004,9e-4 -0.002,4e-4 -0.002,3e-4 -0.002,2e-4 -0.002,2e-4 h -0.002 -0.002 l -0.002,-2e-4 -0.002,-3e-4 -0.002,-5e-4 -0.002,-6e-4 -0.002,-8e-4 -0.002,-9e-4 -0.002,-1e-4 h -0.002 l -0.004,2e-4 -0.004,2e-4 -0.002,1e-4 h -0.002 l -0.002,-1e-4 -0.002,-10e-5 -0.002,-4e-4 -0.002,-4e-4 -0.002,-7e-4 -10e-4,-4e-4 -0.001,-5e-4 -0.001,-5e-4 -10e-4,-6e-4 -0.001,-7e-4 -0.001,-7e-4 -0.01,0.0031 -0.01,0.0029 -0.01,0.0028 -0.01,0.0026 -0.005,0.0011 -0.005,0.001 -0.005,10e-4 -0.005,8e-4 -0.005,7e-4 -0.005,5e-4 -0.005,4e-4 -0.005,2e-4 -0.002,0.0023 -0.002,0.0022 -0.002,0.002 -0.002,0.002 -0.002,0.0019 -0.002,0.0017 -0.002,0.0016 -0.003,0.0014 -0.003,0.0013 -0.001,6e-4 -10e-4,5e-4 -0.001,5e-4 -0.001,5e-4 -10e-4,4e-4 -0.001,3e-4 -0.001,3e-4 -0.002,3e-4 -0.001,2e-4 -10e-4,2e-4 -0.002,1e-4 h -10e-4 -0.001 l -0.002,-1e-4 -0.001,0.0012 -0.001,0.001 -10e-4,0.001 -0.001,10e-4 -0.001,9e-4 -10e-4,8e-4 -0.001,8e-4 -0.001,8e-4 -0.002,0.0013 -0.003,0.0013 -0.003,0.0011 -0.003,9e-4 -0.0207,0.0066 -0.009,0.01 -0.009,0.0105 -0.008,0.011 -0.008,0.0115 -0.008,0.0119 -0.008,0.0125 -0.008,0.0131 -0.007,0.0135 -0.002,0.0077 -0.002,0.0078 -0.002,0.008 -10e-4,0.004 -0.002,0.004 -0.002,0.004 -0.002,0.0038 -0.002,0.0039 -0.002,0.0037 -0.003,0.0036 -0.003,0.0035 -0.003,0.0034 -0.003,0.0032 h -0.1659 l 0.002,-0.0049 0.003,-0.0108 0.003,-0.0107 0.006,-0.0213 0.003,-0.0108 0.002,-0.0054 0.002,-0.0055 0.0491,-0.1031 0.004,-0.0032 0.004,-0.0035 0.004,-0.0038 0.004,-0.004 0.004,-0.0042 0.004,-0.0044 0.007,-0.0091 0.0143,-0.0192 0.007,-0.0095 0.007,-0.0092 0.006,-0.0037 0.006,-0.0039 0.006,-0.0042 0.006,-0.0045 0.003,-0.0023 0.003,-0.0024 0.003,-0.0025 0.003,-0.0025 0.003,-0.0026 0.003,-0.0027 0.002,-0.0028 0.003,-0.0029 0.002,-3e-4 0.002,-4e-4 0.004,-0.001 0.004,-0.0013 0.003,-0.0016 0.003,-0.0018 0.003,-0.002 0.003,-0.0022 0.003,-0.0023 0.0133,-0.0094 0.003,-0.0023 0.003,-0.0021 0.004,-0.0021 0.004,-0.0018 10e-4,-9e-4 0.001,-8e-4 0.001,-8e-4 10e-4,-7e-4 0.001,-7e-4 0.001,-6e-4 0.002,-0.0011 0.002,-9e-4 0.002,-9e-4 0.002,-8e-4 0.002,-7e-4 0.005,-0.0015 0.002,-8e-4 0.002,-9e-4 0.002,-0.001 0.003,-0.0011 10e-4,-7e-4 0.001,-7e-4 0.001,-7e-4 10e-4,-8e-4 0.01,-0.0035 0.005,-0.0017 0.005,-0.0018 0.002,-0.001 0.002,-0.0011 0.002,-0.0011 0.002,-0.0011 0.002,-0.0013 0.002,-0.0014 0.002,-0.0015 0.002,-0.0016 0.006,-0.0011 0.006,-0.0011 0.0129,-0.0021 0.007,-0.0012 0.007,-0.0013 0.007,-0.0014 0.003,-8e-4 0.003,-8e-4 0.05,-0.0108 z"
       id="path1" />
    <path
       style="fill:#000000;fill-opacity:1;fill-rule:evenodd;stroke:none"
       d="m 105.476,73.0963 0.004,0.0016 0.004,0.0014 0.004,0.0012 0.004,0.0011 0.004,10e-4 0.003,8e-4 0.003,7e-4 0.003,6e-4 0.003,5e-4 0.007,9e-4 0.013,0.0014 0.0738,0.0384 0.0688,0.0397 0.002,0.002 0.002,0.0019 0.002,0.002 0.002,0.002 0.005,0.0078 0.001,0.0019 0.002,0.0019 0.002,0.0018 0.002,0.0017 0.002,0.0017 0.001,8e-4 10e-4,8e-4 0.001,8e-4 0.001,7e-4 10e-4,8e-4 0.002,7e-4 10e-4,0.0041 0.002,0.004 0.002,0.004 0.002,0.0039 0.002,0.0038 0.003,0.0038 0.005,0.0075 0.011,0.0149 0.003,0.0038 0.003,0.0038 0.002,0.0038 0.002,0.0039 9e-4,8e-4 8e-4,8e-4 7e-4,8e-4 7e-4,8e-4 6e-4,9e-4 5e-4,9e-4 4e-4,9e-4 4e-4,9e-4 3e-4,0.001 3e-4,9e-4 2e-4,0.001 2e-4,0.001 2e-4,0.0021 1e-4,0.0021 v 0.0021 0.0021 l -1e-4,0.0042 1e-4,0.002 1e-4,0.002 2e-4,0.002 2e-4,9e-4 2e-4,0.001 0.002,0.0035 0.002,0.0037 0.002,0.0037 0.002,0.0039 0.002,0.0039 0.002,0.004 0.003,0.008 -5e-4,0.0019 -4e-4,0.0019 -3e-4,0.0018 -2e-4,0.0019 -3e-4,0.0037 -2e-4,0.0036 1e-4,0.0037 2e-4,0.0037 3e-4,0.0037 4e-4,0.0036 9e-4,0.0074 8e-4,0.0073 4e-4,0.0037 2e-4,0.0038 v 0.0037 l -10e-5,0.0038 0.003,0.0141 0.002,0.007 0.002,0.0069 0.002,0.0068 10e-4,0.0033 0.001,0.0033 0.001,0.0033 10e-4,0.0032 0.001,0.0032 10e-4,0.0032 -10e-4,0.005 -0.001,0.005 -9e-4,0.0048 -7e-4,0.0048 -6e-4,0.0048 -4e-4,0.0046 -2e-4,0.0047 v 0.0045 l 10e-5,0.0045 3e-4,0.0044 4e-4,0.0044 5e-4,0.0043 7e-4,0.0043 8e-4,0.0043 9e-4,0.0042 0.001,0.0042 -6e-4,0.0014 -5e-4,0.0013 -4e-4,0.0014 -4e-4,0.0013 -3e-4,0.0013 -2e-4,0.0012 -2e-4,0.0013 -1e-4,0.0012 v 0.0012 0.0012 0.0012 l 2e-4,0.0011 10e-5,0.0012 2e-4,0.0011 5e-4,0.0022 7e-4,0.0022 8e-4,0.0021 8e-4,0.0022 0.001,0.0021 0.004,0.0085 10e-4,-10e-5 0.001,-2e-4 0.001,-3e-4 10e-4,-3e-4 0.001,-5e-4 0.001,-5e-4 10e-4,-6e-4 9e-4,-6e-4 8e-4,-7e-4 9e-4,-8e-4 0.002,-0.0017 10e-4,-0.0019 0.001,-0.0021 0.001,-0.0022 10e-4,-0.0024 0.001,-0.0024 0.001,-0.0025 0.004,-0.0103 0.0109,-0.0218 0.006,-0.0107 0.006,-0.0105 0.003,-0.005 0.003,-0.005 0.003,-0.0048 0.003,-0.0047 0.004,-0.0046 0.004,-0.0043 0.004,-0.0042 0.004,-0.0039 2e-4,-0.0011 1e-4,-0.0011 2e-4,-0.0023 1e-4,-0.0025 1e-4,-0.0012 10e-5,-0.0013 2e-4,-0.0013 2e-4,-0.0013 4e-4,-0.0013 5e-4,-0.0013 2e-4,-7e-4 3e-4,-6e-4 4e-4,-7e-4 4e-4,-6e-4 4e-4,-7e-4 4e-4,-6e-4 5e-4,-7e-4 6e-4,-6e-4 0.0131,-0.0229 0.007,-0.0116 0.006,-0.0113 0.006,-0.0109 0.005,-0.0103 0.004,-0.0094 0.002,-0.0043 0.002,-0.0041 0.004,-0.0057 0.003,-0.0057 0.003,-0.0058 0.002,-0.0057 0.002,-0.0057 0.002,-0.0057 0.004,-0.0111 0.004,-0.0107 0.002,-0.0051 0.002,-0.005 0.002,-0.0048 0.002,-0.0047 0.003,-0.0044 0.003,-0.0041 0.004,-2e-4 0.004,2e-4 0.004,5e-4 0.004,8e-4 0.01,0.0024 0.0104,0.0033 0.0109,0.004 0.0111,0.0046 0.0112,0.005 0.0109,0.0051 0.0204,0.0104 0.0168,0.0091 0.0156,0.0089 -0.009,0.0234 -0.009,0.0209 -0.005,0.0104 -0.004,0.0093 -0.004,0.0092 -0.004,0.0093 -0.008,0.0187 -0.008,0.0184 -0.004,0.009 -0.004,0.0087 -0.0175,0.0232 -0.001,0.0024 -10e-4,0.0025 -0.002,0.0053 -0.002,0.0054 -0.001,0.0027 -10e-4,0.0026 -0.001,0.0026 -0.002,0.0025 -0.002,0.0023 -0.002,0.0022 -9e-4,0.0011 -10e-4,0.001 -0.001,9e-4 -0.001,9e-4 -10e-4,8e-4 -0.001,8e-4 -0.001,7e-4 -10e-4,6e-4 2e-4,0.0016 1e-4,0.0015 -1e-4,0.0016 -1e-4,0.0017 -3e-4,0.0016 -4e-4,0.0017 -0.001,0.0034 -10e-4,0.0034 -0.002,0.0035 -0.002,0.0036 -0.002,0.0035 -0.004,0.0072 -0.004,0.007 -0.002,0.0034 -0.001,0.0034 -10e-4,0.0033 -8e-4,0.0032 -0.003,0.0028 -0.002,0.003 -0.003,0.0031 -0.002,0.0032 -0.002,0.0034 -0.002,0.0035 -0.004,0.0073 -0.004,0.0075 -0.004,0.0077 -0.004,0.0078 -0.004,0.0077 -0.004,0.0064 -0.004,0.0062 -0.007,0.012 -0.003,0.0057 -0.003,0.0054 -0.001,0.0025 -10e-4,0.0025 -0.001,0.0023 -0.001,0.0023 -0.004,0.0067 -0.005,0.0071 -0.005,0.0074 -0.005,0.0074 -0.005,0.0074 -0.005,0.007 -0.005,0.0067 -0.005,0.0061 -6e-4,0.002 -6e-4,0.0018 -5e-4,0.0019 -4e-4,0.0018 -3e-4,0.0018 -3e-4,0.0018 -5e-4,0.0035 -4e-4,0.0035 -5e-4,0.0033 -3e-4,0.0017 -4e-4,0.0016 -4e-4,0.0017 -5e-4,0.0016 -4e-4,0.0011 -5e-4,0.001 -5e-4,9e-4 -5e-4,8e-4 -5e-4,7e-4 -5e-4,7e-4 -6e-4,6e-4 -5e-4,5e-4 -6e-4,5e-4 -5e-4,5e-4 -6e-4,4e-4 -6e-4,4e-4 -0.001,7e-4 -0.001,6e-4 -10e-4,6e-4 -0.001,7e-4 -5e-4,3e-4 -6e-4,4e-4 -5e-4,4e-4 -5e-4,4e-4 -5e-4,5e-4 -5e-4,5e-4 -5e-4,6e-4 -4e-4,6e-4 -4e-4,7e-4 -5e-4,8e-4 -3e-4,8e-4 -4e-4,0.001 -0.003,0.0076 -0.004,0.0079 -0.009,0.0162 -0.01,0.0168 -0.0105,0.0172 -0.0219,0.0352 -0.0105,0.0177 -0.01,0.0174 -0.002,0.0038 -0.002,0.0038 -0.003,0.0078 -0.003,0.0076 -0.002,0.0037 -0.002,0.0035 -0.002,0.0034 -0.002,0.0031 -10e-4,0.0015 -0.001,0.0014 -0.001,0.0014 -10e-4,0.0012 -0.001,0.0012 -0.001,0.0011 -10e-4,0.001 -0.002,9e-4 -0.002,8e-4 -0.002,7e-4 -0.002,6e-4 -0.002,5e-4 -0.002,-0.0012 -0.002,-0.0011 -10e-4,-0.0012 -0.001,-0.0013 -0.001,-0.0013 -10e-4,-0.0013 -8e-4,-0.0013 -7e-4,-0.0014 -6e-4,-0.0014 -5e-4,-0.0015 -4e-4,-0.0014 -4e-4,-0.0015 -4e-4,-0.003 -2e-4,-0.0031 -2e-4,-0.0063 -1e-4,-0.0032 -2e-4,-0.0032 -4e-4,-0.0032 -4e-4,-0.0016 -4e-4,-0.0015 -4e-4,-0.0016 -6e-4,-0.0015 -8e-4,-0.0016 -8e-4,-0.0015 2e-4,-0.0045 v -0.0045 l -2e-4,-0.0045 -3e-4,-0.0045 -4e-4,-0.0044 -6e-4,-0.0045 -0.001,-0.0089 -10e-4,-0.009 -0.001,-0.0091 -5e-4,-0.0045 -4e-4,-0.0046 -3e-4,-0.0047 -1e-4,-0.0047 -2e-4,-9e-4 -1e-4,-0.001 -1e-4,-0.0011 v -0.001 -0.0012 l 1e-4,-0.0011 2e-4,-0.0024 2e-4,-0.0024 2e-4,-0.0025 10e-5,-0.0012 V 73.8222 73.821 l -10e-5,-0.0013 V 73.814 l -2e-4,-0.0064 -5e-4,-0.0141 -2e-4,-0.0075 -1e-4,-0.0076 1e-4,-0.0077 3e-4,-0.0076 -6e-4,-0.0016 -6e-4,-0.0016 -5e-4,-0.0016 -4e-4,-0.0017 -7e-4,-0.0033 -5e-4,-0.0034 -5e-4,-0.0035 -3e-4,-0.0035 -7e-4,-0.0071 -5e-4,-0.0036 -5e-4,-0.0035 -8e-4,-0.0035 -4e-4,-0.0017 -5e-4,-0.0017 -6e-4,-0.0017 -7e-4,-0.0017 -7e-4,-0.0017 -8e-4,-0.0016 -9e-4,-0.0016 -0.001,-0.0016 -10e-4,-0.0016 -0.001,-0.0015 0.001,-0.0082 5e-4,-0.0082 2e-4,-0.008 -2e-4,-0.008 -4e-4,-0.0079 -7e-4,-0.0078 -9e-4,-0.0079 -10e-4,-0.0077 -0.005,-0.031 -9e-4,-0.0078 -8e-4,-0.0078 -6e-4,-0.0078 -3e-4,-0.0079 -10e-4,-0.0017 -0.001,-0.0017 -8e-4,-0.0018 -7e-4,-0.0018 -6e-4,-0.0018 -5e-4,-0.0019 -4e-4,-0.0019 -3e-4,-0.002 -5e-4,-0.0039 -1e-4,-0.0041 v -0.0041 l 1e-4,-0.0041 2e-4,-0.0082 v -0.0041 l -2e-4,-0.004 -5e-4,-0.0039 -3e-4,-0.0019 -4e-4,-0.0019 -6e-4,-0.0019 -6e-4,-0.0018 -8e-4,-0.0018 -9e-4,-0.0018 2e-4,-0.0021 1e-4,-0.0022 v -0.0046 l -2e-4,-0.0049 -4e-4,-0.0051 -5e-4,-0.0053 -7e-4,-0.0052 -7e-4,-0.0051 -8e-4,-0.005 -0.002,-0.0091 -0.001,-0.0074 -0.002,-0.0067 -0.005,-0.0165 -0.006,-0.0174 -0.007,-0.0208 -0.008,-0.0221 -0.009,-0.0213 -0.004,-0.0097 -0.004,-0.0088 -0.004,-0.0076 -0.004,-0.006 -0.004,-0.005 -0.003,-0.0045 -0.003,-0.0041 -0.003,-0.0038 -0.003,-0.0034 -0.003,-0.0032 -0.003,-0.003 -0.003,-0.0028 -0.005,-0.0053 -0.005,-0.0053 -0.006,-0.0055 -0.003,-0.003 -0.003,-0.0033 -0.0208,-0.0103 -0.0105,-0.0049 -0.0105,-0.0045 -0.005,-0.0021 -0.005,-0.0019 -0.005,-0.0017 -0.005,-0.0016 -0.005,-0.0013 -0.005,-0.0011 -0.005,-8e-4 -0.005,-6e-4 -0.003,-7e-4 -0.003,-5e-4 -0.003,-2e-4 -0.003,-10e-5 h -0.003 l -0.003,2e-4 -0.007,4e-4 -0.007,3e-4 -0.003,10e-5 h -0.004 l -0.004,-2e-4 -0.004,-4e-4 -0.004,-6e-4 -0.002,-4e-4 -0.002,-4e-4 -0.004,0.001 -0.004,0.0011 -0.007,0.0025 -0.007,0.0027 -0.007,0.0029 -0.0291,0.0122 -10e-4,0.0013 -0.001,0.0013 -0.002,0.0026 -0.003,0.0024 -0.003,0.0023 -0.003,0.0022 -0.003,0.0021 -0.007,0.0042 -0.007,0.0042 -0.007,0.0043 -0.003,0.0023 -0.003,0.0024 -0.003,0.0025 -0.003,0.0026 -0.003,0.0032 -0.003,0.0034 -0.003,0.0035 -0.003,0.0037 -0.003,0.0038 -0.003,0.0039 -0.002,0.0041 -0.002,0.0041 -0.005,0.0087 -0.005,0.009 -0.009,0.019 -0.0103,0.0107 -0.001,0.0031 -0.001,0.0033 -10e-4,0.0033 -8e-4,0.0034 -7e-4,0.0035 -7e-4,0.0035 -5e-4,0.0035 -4e-4,0.0036 -0.002,0.0281 10e-5,0.0046 4e-4,0.0046 6e-4,0.0045 7e-4,0.0044 8e-4,0.0044 10e-4,0.0043 0.002,0.0085 0.002,0.0085 10e-4,0.0042 9e-4,0.0042 8e-4,0.0043 7e-4,0.0043 5e-4,0.0043 3e-4,0.0044 0.002,0.0027 0.002,0.0027 0.002,0.0028 0.002,0.0028 0.001,0.0028 0.001,0.0028 10e-4,0.0028 0.001,0.0029 0.001,0.0028 10e-4,0.0029 0.001,0.0028 9e-4,0.0028 0.002,0.0057 0.002,0.0056 0.003,0.0023 0.003,0.0024 0.003,0.0024 0.003,0.0025 0.002,0.0024 0.002,0.0025 0.002,0.0025 0.002,0.0026 0.002,0.0025 0.002,0.0026 0.003,0.0051 0.003,0.0051 0.003,0.0051 0.002,2e-4 0.002,3e-4 0.002,3e-4 0.002,4e-4 10e-4,5e-4 0.001,5e-4 0.003,0.0012 0.003,0.0014 0.003,0.0015 0.002,0.0016 0.002,0.0017 0.002,0.0018 0.002,0.0017 0.004,0.0035 0.002,0.0017 0.002,0.0016 0.002,0.0014 0.002,0.0013 0.0108,0.0038 0.0147,0.0046 0.035,0.0104 0.0318,0.0092 0.0107,0.0033 0.005,0.0019 5e-4,3e-4 4e-4,3e-4 9e-4,0.0011 0.001,0.0013 9e-4,0.0016 8e-4,0.0018 8e-4,0.0021 8e-4,0.0023 6e-4,0.0024 6e-4,0.0026 4e-4,0.0026 3e-4,0.0028 1e-4,0.0028 v 0.0028 l -2e-4,0.0029 -2e-4,0.0014 -2e-4,0.0013 -3e-4,0.0014 -4e-4,0.0014 -3e-4,0.0034 -8e-4,0.0049 -0.003,0.0129 -0.004,0.0157 -0.005,0.0167 -0.005,0.0161 -0.005,0.0136 -0.002,0.0053 -0.002,0.0041 -10e-4,0.0026 -6e-4,7e-4 -4e-4,2e-4 -2e-4,-1e-4 h -3e-4 -7e-4 l -0.001,2e-4 -10e-4,2e-4 -0.001,4e-4 -0.002,4e-4 -0.003,9e-4 -0.0102,0.0033 -0.003,-10e-5 -0.003,-3e-4 -0.003,-5e-4 -0.003,-6e-4 -0.0127,-0.0027 -0.003,-7e-4 -0.003,-6e-4 -0.003,-4e-4 -0.003,-3e-4 -0.003,-2e-4 -0.003,1e-4 -0.002,1e-4 -0.001,2e-4 -10e-4,3e-4 -0.001,3e-4 -0.006,-0.0032 -0.006,-0.003 -0.006,-0.0027 -0.006,-0.0025 -0.012,-0.0047 -0.0119,-0.0044 -0.0119,-0.0044 -0.006,-0.0024 -0.006,-0.0025 -0.006,-0.0027 -0.006,-0.0029 -0.006,-0.0032 -0.006,-0.0035 -0.003,-0.002 -0.003,-0.0021 -0.005,-0.0044 -0.0101,-0.0088 -0.003,-0.0022 -0.003,-0.002 -0.003,-0.002 -0.003,-0.0019 -0.003,-0.0018 -0.003,-0.0017 -0.003,-0.0015 -0.004,-0.0014 -0.002,-0.0027 -0.002,-0.0026 -0.002,-0.0027 -0.003,-0.0026 -0.003,-0.0026 -0.003,-0.0025 -0.006,-0.0051 -0.006,-0.0049 -0.007,-0.0049 -0.0136,-0.0095 -0.003,-0.0046 -0.003,-0.0044 -0.001,-0.0021 -0.001,-0.0021 -0.002,-0.0021 -0.002,-0.0021 -0.002,-0.002 -0.002,-0.002 -0.002,-0.002 -0.002,-0.002 -0.002,-0.0019 -0.002,-0.002 -0.002,-0.002 -0.003,-0.002 -10e-4,-0.0048 -0.001,-0.0048 -0.002,-0.0047 -0.002,-0.0046 -0.002,-0.0046 -0.002,-0.0045 -0.002,-0.0044 -0.002,-0.0044 -0.005,-0.0086 -0.005,-0.0085 -0.0108,-0.017 -0.0197,-0.0635 v -0.0062 l -2e-4,-0.006 -7e-4,-0.0119 -0.001,-0.0117 -7e-4,-0.0116 -2e-4,-0.0058 v -0.0059 l 2e-4,-0.0059 5e-4,-0.006 8e-4,-0.0061 10e-4,-0.0062 0.002,-0.0063 0.002,-0.0065 1e-4,-0.0054 1e-4,-0.0053 4e-4,-0.0103 10e-5,-0.0049 v -0.0048 l -10e-5,-0.0023 -2e-4,-0.0023 -2e-4,-0.0022 -3e-4,-0.0022 0.001,-0.0016 0.001,-0.0016 9e-4,-0.0016 9e-4,-0.0016 8e-4,-0.0016 7e-4,-0.0015 6e-4,-0.0015 6e-4,-0.0014 5e-4,-0.0015 5e-4,-0.0014 4e-4,-0.0014 3e-4,-0.0014 6e-4,-0.0027 4e-4,-0.0027 3e-4,-0.0026 2e-4,-0.0026 2e-4,-0.005 2e-4,-0.005 2e-4,-0.0026 3e-4,-0.0025 0.002,-0.0025 10e-4,-0.0023 0.001,-0.0023 0.001,-0.0022 10e-4,-0.0022 0.001,-0.0022 9e-4,-0.0021 7e-4,-0.0022 7e-4,-0.0021 7e-4,-0.0021 0.001,-0.0043 0.002,-0.0091 0.0253,-0.0438 0.004,-0.0046 0.004,-0.0042 0.004,-0.004 0.004,-0.0038 0.008,-0.0071 0.008,-0.0069 0.008,-0.0071 0.004,-0.0038 0.004,-0.004 0.004,-0.0043 0.004,-0.0046 0.004,-0.005 0.004,-0.0055 0.0445,-0.0265 0.002,-0.0016 0.003,-0.0015 0.003,-0.0015 0.003,-0.0014 0.0113,-0.0055 0.006,-0.0028 0.003,-0.0015 0.003,-0.0016 0.003,-0.0017 0.003,-0.0018 0.002,-0.0019 0.002,-0.002 0.004,-6e-4 0.005,-7e-4 0.004,-9e-4 0.005,-0.001 0.004,-0.0011 0.004,-0.0011 0.009,-0.0025 0.0175,-0.0052 0.009,-0.0025 0.004,-0.0011 0.004,-10e-4 0.0122,-8e-4 0.0121,-0.0011 0.0242,-0.0021 0.0121,-0.001 0.0122,-7e-4 0.0123,-5e-4 h 0.0124 z"
       id="path2" />
    <path
       style="fill:#000000;fill-opacity:1;fill-rule:evenodd;stroke:none"
       d="m 104.6966,72.5369 0.003,10e-4 0.003,0.0013 0.003,0.0014 0.003,0.0017 0.003,0.0017 0.003,0.0019 0.003,0.002 0.006,0.0043 0.006,0.0045 0.0122,0.009 0.008,0.0026 0.008,0.0029 0.008,0.0034 0.004,0.0019 0.004,0.0019 0.004,0.0021 0.004,0.0023 0.004,0.0024 0.004,0.0025 0.004,0.0028 0.004,0.0028 0.003,0.0031 0.003,0.0032 7e-4,0.003 5e-4,0.003 3e-4,0.003 2e-4,0.003 v 0.003 l -2e-4,0.0029 -8e-4,0.0058 -0.001,0.0058 -0.002,0.0058 -0.002,0.0057 -0.003,0.0057 -0.003,0.0058 -0.003,0.0057 -0.007,0.0116 -0.007,0.0117 -0.007,0.0121 -0.0561,0.0957 -0.0282,0.0486 -0.0138,0.0245 -0.0136,0.0247 -0.006,0.0119 -0.006,0.0116 -0.0126,0.0229 -0.006,0.0112 -0.005,0.011 -0.002,0.0055 -0.002,0.0055 -0.002,0.0054 -0.002,0.0054 -0.0164,0.0247 -0.026,0.043 -0.0681,0.1172 -0.1119,0.1962 -0.0188,0.0326 -0.005,0.0084 -0.005,0.0086 -0.009,0.0172 -0.004,0.0086 -0.005,0.0085 -0.005,0.0083 -0.002,0.0041 -0.003,0.0041 -0.064,0.1069 -0.0221,0.0421 -0.003,0.0045 -0.003,0.0044 -0.006,0.0087 -0.007,0.0088 -0.003,0.0044 -0.003,0.0045 -0.003,0.0045 -0.003,0.0045 -0.002,0.0047 -0.002,0.0047 -9e-4,0.0024 -7e-4,0.0025 -6e-4,0.0024 -5e-4,0.0025 -4e-4,0.0026 -2e-4,0.0025 -1e-4,0.0027 1e-4,0.0026 0.004,0.002 0.004,0.0017 0.004,0.0015 0.004,0.0013 0.004,10e-4 0.004,8e-4 0.003,6e-4 0.004,4e-4 0.003,3e-4 h 0.004 l 0.003,-1e-4 0.003,-2e-4 0.003,-4e-4 0.003,-5e-4 0.007,-0.0014 0.007,-0.0017 0.007,-0.002 0.0127,-0.0045 0.0124,-0.0045 0.006,-0.0021 0.006,-0.0018 0.0992,-0.0295 h 0.002 l 0.002,-10e-5 0.002,-1e-4 0.002,-2e-4 0.002,-3e-4 0.002,-3e-4 0.003,-8e-4 0.003,-9e-4 0.003,-0.001 0.003,-0.0012 0.003,-0.0012 0.006,-0.0025 0.003,-0.0011 0.003,-0.0011 0.003,-0.001 0.003,-9e-4 0.003,-6e-4 0.002,-2e-4 0.002,-2e-4 0.002,-6e-4 0.002,-5e-4 0.003,-8e-4 0.003,-7e-4 0.003,-5e-4 0.0129,-0.0019 0.003,-6e-4 0.003,-6e-4 0.003,-9e-4 0.002,-4e-4 0.001,-6e-4 0.002,-6e-4 0.001,-6e-4 10e-4,-7e-4 0.001,-8e-4 0.001,-9e-4 10e-4,-9e-4 0.001,-0.0011 0.001,-0.0011 0.006,-8e-4 0.006,-0.0012 0.006,-0.0014 0.006,-0.0017 0.006,-0.0019 0.006,-0.002 0.0123,-0.0041 0.006,-0.0019 0.006,-0.0018 0.006,-0.0016 0.006,-0.0014 0.007,-10e-4 0.003,-4e-4 0.003,-3e-4 0.003,-1e-4 0.003,-10e-5 0.003,10e-5 0.004,2e-4 0.0131,0.0077 0.0123,0.0074 0.0234,0.0146 0.0469,0.0301 10e-4,5e-4 0.001,4e-4 0.002,6e-4 0.002,5e-4 0.002,3e-4 0.002,3e-4 0.002,2e-4 0.005,3e-4 0.002,3e-4 0.002,3e-4 0.002,5e-4 0.002,7e-4 0.001,4e-4 10e-4,5e-4 0.001,6e-4 0.001,6e-4 10e-4,7e-4 0.001,8e-4 0.001,8e-4 10e-4,10e-4 4e-4,0.001 4e-4,9e-4 6e-4,10e-4 6e-4,9e-4 8e-4,9e-4 8e-4,8e-4 9e-4,9e-4 0.001,8e-4 0.002,0.0016 0.002,0.0016 0.005,0.0032 0.002,0.0016 0.002,0.0016 9e-4,8e-4 8e-4,9e-4 7e-4,9e-4 7e-4,9e-4 5e-4,10e-4 5e-4,9e-4 3e-4,0.001 2e-4,0.001 10e-5,0.0011 -10e-5,0.0011 -3e-4,0.0012 -4e-4,0.0012 -9e-4,0.0032 -10e-4,0.003 -0.001,0.0028 -0.001,0.0026 -10e-4,0.0025 -0.002,0.0022 -0.002,0.002 -0.002,0.0019 -0.002,0.0017 -0.002,0.0015 -0.002,0.0014 -0.002,0.0012 -0.002,0.0011 -0.002,10e-4 -0.002,9e-4 -0.003,7e-4 -0.005,0.0012 -0.005,9e-4 -0.006,5e-4 -0.006,3e-4 -0.0111,2e-4 h -0.0107 l -0.0303,0.0113 -0.004,0.0013 -0.004,0.0011 -0.004,0.001 -0.004,8e-4 -0.004,7e-4 -0.004,4e-4 -0.002,1e-4 h -0.002 -0.002 l -0.002,-1e-4 h -10e-4 -0.001 l -0.001,1e-4 -10e-4,2e-4 -0.001,2e-4 -0.001,2e-4 -10e-4,3e-4 -0.001,3e-4 -0.002,8e-4 -0.002,8e-4 -0.004,0.0018 -0.002,8e-4 -0.002,7e-4 -0.001,3e-4 -9e-4,3e-4 -10e-4,2e-4 -0.001,2e-4 -0.001,10e-5 h -10e-4 -0.001 l -0.001,-10e-5 -10e-4,-2e-4 -0.001,-2e-4 -0.001,-4e-4 -10e-4,-4e-4 -0.002,1e-4 -0.002,1e-4 -0.002,2e-4 -0.002,2e-4 -0.002,3e-4 -0.002,4e-4 -0.002,4e-4 -0.002,4e-4 -0.002,5e-4 -0.002,5e-4 -0.002,6e-4 -0.002,6e-4 -0.002,6e-4 -0.002,7e-4 -0.002,7e-4 -0.002,7e-4 -0.0163,0.0041 -0.0164,0.0038 -0.0327,0.0074 -0.0163,0.004 -0.008,0.0022 -0.008,0.0023 -0.008,0.0024 -0.008,0.0026 -0.008,0.0029 -0.008,0.003 -0.009,1e-4 h -0.005 l -0.005,2e-4 -0.002,1e-4 -0.002,2e-4 -0.002,2e-4 -0.003,3e-4 -0.002,3e-4 -0.002,5e-4 -0.002,5e-4 -0.002,6e-4 -0.001,1e-4 -0.001,1e-4 -0.002,4e-4 -0.002,5e-4 -0.002,6e-4 -0.004,0.0012 -0.002,6e-4 -0.002,4e-4 -0.001,2e-4 -10e-4,1e-4 -0.001,1e-4 h -0.001 l -10e-4,-1e-4 -0.001,-2e-4 -0.001,-2e-4 -10e-4,-3e-4 -0.001,-4e-4 -0.001,-5e-4 -10e-4,-7e-4 -0.001,-7e-4 -0.001,-9e-4 -0.002,-10e-4 -0.001,-0.0011 -0.002,-0.0013 -0.001,0.002 -10e-4,0.0018 -0.001,0.0016 -0.001,0.0015 -0.002,0.0013 -0.001,0.0012 -0.002,0.001 -0.002,9e-4 -0.002,8e-4 -0.002,7e-4 -0.002,7e-4 -0.002,5e-4 -0.004,10e-4 -0.004,8e-4 -0.007,0.0016 -0.004,9e-4 -0.002,6e-4 -0.002,7e-4 -0.002,7e-4 -0.002,8e-4 -0.002,9e-4 -0.002,0.0011 -0.002,0.0012 -0.002,0.0013 -0.001,0.0015 -0.002,0.0016 -8e-4,0.0027 -7e-4,0.0026 -6e-4,0.0026 -4e-4,0.0025 -3e-4,0.0025 -2e-4,0.0025 -1e-4,0.0024 -10e-5,0.0024 10e-5,0.0024 2e-4,0.0023 5e-4,0.0047 7e-4,0.0045 9e-4,0.0046 0.002,0.0089 0.001,0.0045 9e-4,0.0046 7e-4,0.0046 5e-4,0.0047 2e-4,0.0023 10e-5,0.0024 v 0.0025 l -10e-5,0.0024 0.006,0.0261 0.005,0.0262 0.0102,0.0525 0.005,0.0262 0.005,0.026 0.006,0.0258 0.006,0.0255 10e-5,0.0051 2e-4,0.0049 3e-4,0.0049 4e-4,0.0047 5e-4,0.0047 5e-4,0.0046 0.001,0.0089 0.003,0.0176 10e-4,0.0088 6e-4,0.0044 4e-4,0.0045 0.001,0.002 10e-4,0.0021 9e-4,0.002 8e-4,0.0021 7e-4,0.0021 6e-4,0.0022 0.001,0.0043 7e-4,0.0044 5e-4,0.0045 4e-4,0.0045 3e-4,0.0045 6e-4,0.0091 3e-4,0.0045 6e-4,0.0045 7e-4,0.0044 0.001,0.0044 6e-4,0.0021 7e-4,0.0021 8e-4,0.0021 9e-4,0.0021 v 0.0017 0.0016 l 1e-4,0.0017 2e-4,0.0017 3e-4,0.0017 4e-4,0.0017 4e-4,0.0018 4e-4,0.0017 0.005,0.0151 -5e-4,8e-4 -6e-4,0.0011 -6e-4,0.0012 -3e-4,7e-4 -3e-4,6e-4 -3e-4,7e-4 -2e-4,7e-4 -3e-4,7e-4 -10e-5,7e-4 -1e-4,7e-4 -1e-4,6e-4 v 3e-4 3e-4 l 1e-4,2e-4 v 3e-4 l 1e-4,2e-4 10e-5,3e-4 1e-4,3e-4 2e-4,2e-4 3e-4,5e-4 5e-4,5e-4 4e-4,5e-4 6e-4,5e-4 5e-4,5e-4 6e-4,5e-4 6e-4,4e-4 6e-4,4e-4 0.001,8e-4 10e-4,6e-4 8e-4,5e-4 0.002,0.005 0.002,0.0054 0.001,0.0055 0.001,0.0058 0.002,0.0121 0.002,0.0125 0.002,0.0127 0.002,0.0127 0.001,0.0063 10e-4,0.0061 0.001,0.006 0.002,0.0059 0.001,0.0098 -0.001,0.0029 -0.002,0.0026 -0.002,0.0022 -0.002,0.002 -0.002,0.0016 -0.002,0.0014 -0.002,0.0011 -0.002,8e-4 -0.002,6e-4 -0.002,3e-4 -0.003,2e-4 -0.002,-1e-4 -0.003,-3e-4 -0.003,-5e-4 -0.005,-0.0014 -0.006,-0.002 -0.006,-0.0026 -0.006,-0.0029 -0.006,-0.0032 -0.0239,-0.0139 -0.0189,-0.0108 -0.008,-0.0039 -0.009,-0.0047 -0.009,-0.0051 -0.009,-0.0055 -0.018,-0.0109 -0.0159,-0.0095 -0.003,-0.0061 -0.003,-0.0061 -0.002,-0.0062 -0.002,-0.0064 -0.002,-0.0064 -0.002,-0.0064 -0.002,-0.0066 -0.001,-0.0065 -0.003,-0.0133 -0.002,-0.0135 -0.005,-0.0269 4e-4,-0.0019 3e-4,-0.0018 3e-4,-0.0019 2e-4,-0.0018 1e-4,-0.0018 10e-5,-0.0018 -10e-5,-0.0035 -2e-4,-0.0034 -5e-4,-0.0034 -5e-4,-0.0034 -7e-4,-0.0034 -8e-4,-0.0033 -9e-4,-0.0033 -0.002,-0.0065 -0.002,-0.0066 -8e-4,-0.0033 -7e-4,-0.0034 -4e-4,-0.0036 -2e-4,-0.0036 -2e-4,-0.0036 -2e-4,-0.0034 -4e-4,-0.0135 -2e-4,-0.0032 -2e-4,-0.0033 -3e-4,-0.0032 -4e-4,-0.0032 -5e-4,-0.0033 -7e-4,-0.0032 -9e-4,-0.0032 -0.001,-0.0032 -0.0157,-0.1073 -0.002,-0.0066 -10e-4,-0.0067 -0.001,-0.0068 -0.001,-0.0068 -0.003,-0.0273 -9e-4,-0.0068 -10e-4,-0.0068 -0.001,-0.0067 -0.002,-0.0067 -0.002,-0.0065 -0.002,-0.0065 -0.003,-0.0064 -0.002,-0.0031 -0.002,-0.0031 10e-5,-0.0015 v -0.0016 l -2e-4,-0.0018 -3e-4,-0.0019 -10e-4,-0.0041 -0.001,-0.0044 -0.002,-0.0046 -0.002,-0.0047 -0.002,-0.0047 -0.003,-0.0045 -0.003,-0.0043 -0.003,-0.004 -0.003,-0.0034 -0.001,-0.0015 -0.002,-0.0014 -10e-4,-0.0012 -0.001,-9e-4 -0.002,-8e-4 -0.001,-6e-4 -0.001,-3e-4 -10e-4,-1e-4 -0.001,2e-4 -0.001,4e-4 -9e-4,8e-4 -8e-4,6e-4 -9e-4,7e-4 -9e-4,5e-4 -9e-4,5e-4 -9e-4,5e-4 -9e-4,4e-4 -9e-4,4e-4 -8e-4,3e-4 -9e-4,3e-4 -0.002,4e-4 -0.002,4e-4 -0.002,2e-4 -0.002,2e-4 -0.002,2e-4 -0.004,3e-4 -0.002,2e-4 -0.002,2e-4 -0.002,4e-4 -0.002,5e-4 -5e-4,0.0014 -5e-4,0.0015 -6e-4,0.0014 -6e-4,0.0013 -10e-4,0.0027 -0.002,0.0026 -0.002,0.0025 -0.002,0.0025 -0.002,0.0024 -0.002,0.0023 -0.004,0.0047 -0.004,0.0047 -0.002,0.0024 -0.002,0.0024 -0.002,0.0025 -0.002,0.0025 -7e-4,0.0013 -7e-4,0.0014 -0.001,0.0027 -0.001,0.0027 -10e-4,0.0029 -0.001,0.003 -0.001,0.003 -0.002,0.0031 -8e-4,0.0016 -9e-4,0.0016 -0.0111,0.0198 -0.012,0.0202 -0.0255,0.0413 -0.013,0.0211 -0.0125,0.0215 -0.0119,0.0218 -0.006,0.0111 -0.005,0.0111 -0.001,0.0031 -0.001,0.0033 -0.002,0.0069 -0.002,0.0072 -0.002,0.0071 -10e-4,0.0035 -0.001,0.0035 -0.002,0.0033 -0.002,0.0031 -0.002,0.003 -0.001,0.0014 -10e-4,0.0014 -0.001,0.0013 -0.001,0.0012 -10e-4,0.0012 -0.002,0.0011 -0.002,6e-4 -0.002,4e-4 -0.002,3e-4 -0.002,10e-5 h -0.002 -0.002 l -0.002,-3e-4 -0.002,-3e-4 -0.004,-9e-4 -0.004,-0.0014 -0.004,-0.0016 -0.004,-0.0019 -0.0303,-0.0198 -0.0425,-0.0257 -0.005,-0.0034 -0.005,-0.0034 -0.004,-0.0036 -0.004,-0.0038 -0.002,-0.0019 -0.002,-0.0019 -10e-4,-0.002 -0.001,-0.0021 -0.001,-0.0021 -10e-4,-0.0021 -9e-4,-0.0022 -7e-4,-0.0023 10e-4,-0.0053 0.001,-0.0052 0.002,-0.005 0.002,-0.0049 0.002,-0.0048 0.002,-0.0047 0.003,-0.0047 0.003,-0.0046 0.006,-0.0092 0.006,-0.0093 0.006,-0.0096 0.006,-0.01 0.004,-0.0069 0.004,-0.007 0.007,-0.0143 0.013,-0.029 0.004,-0.0071 0.004,-0.007 0.004,-0.0067 0.004,-0.0066 0.004,-0.0063 0.005,-0.006 0.005,-0.0057 0.006,-0.0053 0.003,-0.0084 0.004,-0.0083 0.004,-0.0081 0.004,-0.008 0.009,-0.0159 0.01,-0.0156 0.0201,-0.031 0.01,-0.0156 0.01,-0.0159 0.0275,-0.0595 0.0144,-0.0244 0.0148,-0.0244 0.0302,-0.0488 0.0296,-0.0482 0.014,-0.0239 0.0131,-0.0236 0.0268,-0.0622 0.0272,-0.0391 0.0619,-0.1063 0.089,-0.1561 0.1484,-0.2639 0.009,-0.0144 0.009,-0.0149 0.0192,-0.031 0.01,-0.016 0.009,-0.0163 0.004,-0.0083 0.004,-0.0083 0.004,-0.0084 0.003,-0.0084 0.002,-0.0012 0.002,-0.0014 0.002,-0.0015 0.002,-0.0017 10e-4,-0.0018 0.001,-0.0019 0.001,-0.0021 10e-4,-0.0021 0.001,-0.0022 0.001,-0.0022 10e-4,-0.0023 0.001,-0.0023 0.002,-0.0045 0.002,-0.0044 0.009,-0.0083 10e-4,-0.002 9e-4,-0.002 9e-4,-0.002 7e-4,-0.0021 7e-4,-0.0022 7e-4,-0.0021 0.001,-0.0043 0.001,-0.0042 6e-4,-0.002 6e-4,-0.002 7e-4,-0.0019 7e-4,-0.0019 8e-4,-0.0017 9e-4,-0.0017 0.002,-0.0037 0.002,-0.0036 0.005,-0.007 0.002,-0.0035 0.003,-0.0038 0.002,-0.0039 0.003,-0.0043 0.0138,-0.024 0.002,-0.0058 0.002,-0.0062 0.002,-0.0064 0.003,-0.0066 0.003,-0.0068 0.003,-0.0067 0.004,-0.0066 0.004,-0.0064 0.004,-0.0061 0.004,-0.0058 0.004,-0.0052 0.005,-0.0047 0.002,-0.002 0.002,-0.0019 0.002,-0.0017 0.002,-0.0015 0.002,-0.0013 0.003,-0.0011 0.002,-8e-4 0.003,-5e-4 z"
       id="path3" />
  </g>
</svg>
