<?xml version="1.0" encoding="UTF-8" standalone="no"?>
<svg
   version="1.1"
   width="116.8400mm"
   height="93.9800mm"
   viewBox="0.0000 0.0000 116.8400 93.9800"
   id="svg61"
   sodipodi:docname="K02-B_Silkscreen.svg"
   inkscape:version="1.3.2 (091e20e, 2023-11-25, custom)"
   xmlns:inkscape="http://www.inkscape.org/namespaces/inkscape"
   xmlns:sodipodi="http://sodipodi.sourceforge.net/DTD/sodipodi-0.dtd"
   xmlns="http://www.w3.org/2000/svg"
   xmlns:svg="http://www.w3.org/2000/svg">
  <defs
     id="defs61" />
  <sodipodi:namedview
     id="namedview61"
     pagecolor="#505050"
     bordercolor="#eeeeee"
     borderopacity="1"
     inkscape:showpageshadow="0"
     inkscape:pageopacity="0"
     inkscape:pagecheckerboard="0"
     inkscape:deskcolor="#505050"
     inkscape:document-units="mm"
     inkscape:zoom="2.3029892"
     inkscape:cx="220.79999"
     inkscape:cy="177.59527"
     inkscape:window-width="1920"
     inkscape:window-height="1057"
     inkscape:window-x="-8"
     inkscape:window-y="-8"
     inkscape:window-maximized="1"
     inkscape:current-layer="svg61" />
  <title
     id="title1">SVG Image created as K02-B_Silkscreen.svg date 2024/11/26 20:05:06 </title>
  <desc
     id="desc1">Image generated by PCBNEW </desc>
  <g
     style="display:inline;fill:#000000;fill-opacity:1;stroke:#000000;stroke-linecap:round;stroke-linejoin:round;stroke-opacity:1"
     id="g17">
    <path
       style="fill:#000000;fill-opacity:1;fill-rule:evenodd;stroke:none"
       d="m 3.0641,43.6077 0.0474,0.0386 0.0487,0.0366 0.0501,0.0346 0.0514,0.0326 0.0529,0.0304 0.0543,0.0282 0.0558,0.0258 0.0574,0.0234 0.0589,0.021 0.0605,0.0184 0.0621,0.0157 0.0638,0.0131 0.0654,0.0102 0.0672,0.0074 0.069,0.0044 0.8147,0.1133 0.8099,0.1711 0.8003,0.227 0.7862,0.2811 0.7674,0.3335 0.744,0.3841 0.716,0.4328 0.6834,0.4798 0.6462,0.5249 0.6043,0.5683 0.5578,0.6099 0.5068,0.6497 0.4511,0.6876 0.2032,0.3575 0.1875,0.3663 0.1713,0.375 0.1545,0.3833 0.1371,0.3914 0.1192,0.3994 0.1645,0.3449 0.1275,0.3363 0.0921,0.3283 0.0586,0.3206 0.027,0.3134 -0.0028,0.3066 -0.0308,0.3002 -0.057,0.2942 -0.0813,0.2886 -0.1038,0.2835 -0.1245,0.2789 -0.1433,0.2745 -0.1604,0.2707 -0.1756,0.2672 -0.3894,0.5258 -0.4282,0.5172 -0.4525,0.5118 -0.9191,1.0213 -0.4374,0.5162 -0.4032,0.5244 -0.1841,0.2664 -0.1701,0.2696 -0.1542,0.2734 -0.1365,0.2776 -0.2515,0.4863 -0.2702,0.4711 -0.2882,0.4565 -0.3049,0.4426 -0.3208,0.4293 -0.3355,0.4166 -0.3493,0.4045 -0.3621,0.393 -0.3739,0.3822 -0.3845,0.372 -0.3943,0.3624 -0.403,0.3535 -0.4107,0.3451 -0.4174,0.3374 -0.8507,0.6541 -0.0799,0.0798 -0.0767,0.0817 -0.0739,0.0837 -0.0709,0.0855 -0.0682,0.0872 -0.0655,0.0889 -0.0631,0.0905 -0.0606,0.0919 -0.0583,0.0934 -0.0561,0.0947 -0.0541,0.0959 -0.0521,0.0971 -0.0502,0.0981 -0.0486,0.0992 -0.0923,0.201 v -2.4551 l 0.091,0.003 0.101,-0.0116 L 3.3202,65.8817 3.439,65.843 3.5655,65.7918 3.6992,65.7289 3.9846,65.571 4.2894,65.3751 4.6077,65.1471 4.9335,64.893 5.261,64.6187 5.5843,64.33 5.8975,64.033 6.1946,63.7335 6.4698,63.4374 6.7172,63.1507 6.931,62.8793 7.1051,62.629 l 0.1286,-0.2231 0.5751,-0.7608 0.5507,-0.7712 1.0743,-1.5464 0.5467,-0.7616 0.2807,-0.3751 0.2875,-0.37 0.2959,-0.3641 0.3055,-0.3575 0.3168,-0.3499 0.3293,-0.3415 0.2109,-0.2224 0.1895,-0.2304 0.1686,-0.2378 0.1482,-0.2445 0.1285,-0.2508 0.1093,-0.2564 0.0908,-0.2615 0.0728,-0.2661 0.0554,-0.27 0.0385,-0.2734 0.0223,-0.2762 0.0067,-0.2785 L 13.0293,53.0596 13.0064,52.7783 12.9696,52.4964 12.9195,52.2145 12.7816,51.653 12.5974,51.0983 12.3716,50.555 12.1089,50.0275 11.8139,49.5205 11.4912,49.0383 11.1457,48.5857 10.7818,48.167 10.4494,47.8043 10.0958,47.458 9.7223,47.129 9.3305,46.8184 8.9217,46.5272 8.4974,46.2564 8.059,46.007 7.6079,45.78 7.1457,45.5764 6.6736,45.3973 6.1932,45.2436 5.7059,45.1164 5.2131,45.0166 4.7162,44.9453 4.2167,44.9035 3.7161,44.8922 l -0.0534,0.0181 -0.0519,0.0192 -0.0504,0.0203 -0.049,0.0215 -0.0477,0.0226 -0.0463,0.0236 -0.045,0.0246 -0.0438,0.0257 -0.0425,0.0265 -0.0415,0.0275 -0.0403,0.0284 -0.0392,0.0292 -0.0382,0.0301 -0.0373,0.0308 -0.0363,0.0315 -0.0354,0.0323 v -1.7368 z"
       id="path1" />
    <path
       style="fill:#000000;fill-opacity:1;fill-rule:evenodd;stroke:none"
       d="m 67.5223,69.4807 0.2885,0.1578 0.2843,0.1655 0.2793,0.1744 0.2737,0.1845 0.1345,0.0963 0.1329,0.0993 0.1311,0.1024 0.1293,0.1055 0.1275,0.109 0.1255,0.1124 0.5716,0.431 0.5642,0.4414 1.1144,0.9026 1.1091,0.9101 1.1203,0.8948 0.5695,0.4345 0.5783,0.4222 0.5894,0.4068 0.6023,0.3888 0.6174,0.3679 0.6345,0.3441 0.6536,0.3174 0.6748,0.2879 3.2165,1.95 1.6215,0.9421 0.8183,0.453 0.825,0.4372 0.8329,0.4186 0.8421,0.3973 0.8525,0.3731 0.864,0.3461 0.8769,0.3163 0.8909,0.2837 0.9062,0.2483 0.9226,0.2101 0.4572,0.1848 0.4477,0.2053 0.4396,0.2226 0.4328,0.2366 0.851,0.5031 0.8406,0.5214 0.8415,0.5146 0.4244,0.2467 0.4288,0.2356 0.4346,0.2211 0.4416,0.2035 0.4502,0.1828 0.46,0.1589 -0.2542,0.43 -0.6993,-0.2407 -0.6906,-0.2658 -0.6818,-0.2899 -0.6726,-0.3131 -0.6633,-0.3351 -0.6535,-0.3564 -0.6437,-0.3764 -0.6334,-0.3956 -1.238,-0.4779 -1.2205,-0.5075 -1.2087,-0.5288 -1.2022,-0.5415 -2.4072,-1.0878 -1.2159,-0.5295 -1.2315,-0.5087 -0.5592,-0.2385 -0.5595,-0.2537 -0.5588,-0.2677 -0.5571,-0.2807 -1.1053,-0.5954 -1.0868,-0.6332 -1.0604,-0.6615 -1.0262,-0.6808 -0.9841,-0.6906 -0.9341,-0.6914 -0.3022,-0.1369 -0.2955,-0.1466 -0.5725,-0.32 -0.5506,-0.3518 -0.532,-0.3789 -0.5167,-0.4015 -0.5046,-0.4192 -0.986,-0.8735 -0.9771,-0.8891 -0.4934,-0.4388 -0.5009,-0.4288 -0.5119,-0.4141 -0.5259,-0.3948 -0.5434,-0.3708 -0.5641,-0.3423 0.107,-0.3953 z"
       id="path2" />
    <path
       style="fill:#000000;fill-opacity:1;fill-rule:evenodd;stroke:none"
       d="m 66.8785,73.6404 0.6986,0.4147 0.6873,0.4329 0.6753,0.4524 0.6622,0.4731 0.6483,0.4952 0.6333,0.5185 0.3108,0.2684 0.3068,0.2748 0.4785,0.4384 0.4907,0.4182 0.5024,0.3984 0.5136,0.3794 0.5245,0.361 0.5348,0.3432 0.5448,0.3262 0.5544,0.3097 0.5634,0.2939 0.5721,0.2788 0.5803,0.2643 0.5881,0.2504 0.5954,0.2373 0.6024,0.2247 0.6089,0.2127 0.6149,0.2016 1.2925,0.5802 1.2978,0.5572 2.6087,1.0654 5.25,2.0765 0.4254,0.2482 0.4352,0.2288 0.4433,0.2125 0.4499,0.1994 0.9134,0.3721 0.9211,0.3577 0.9165,0.3685 0.4525,0.1961 0.4467,0.2084 0.4393,0.2237 0.4304,0.2422 0.4198,0.2639 0.4078,0.2886 -0.1415,0.2393 -0.0222,0.031 -0.0232,0.03 -0.0242,0.0291 -0.0253,0.0281 -0.0263,0.027 -0.0272,0.0261 -0.0282,0.025 -0.0291,0.024 -0.03,0.0228 -0.0308,0.0217 -0.0316,0.0206 -0.0324,0.0193 -0.0331,0.0182 -0.0339,0.017 -0.0345,0.0157 -0.0352,0.0144 -0.5929,-0.3925 -0.5963,-0.386 -0.6018,-0.3757 -0.6091,-0.3619 -0.6184,-0.3444 -0.3133,-0.1646 -0.3164,-0.1588 -0.3196,-0.1526 -0.3232,-0.146 -0.327,-0.1389 -0.3311,-0.1314 -2.1124,-0.7005 -2.1142,-0.7082 -1.7243,-0.7814 -1.7348,-0.7576 -1.7451,-0.7336 -1.755,-0.7096 -0.0452,-0.0254 -0.0453,-0.0249 -0.091,-0.0489 -0.0908,-0.0494 -0.0451,-0.0254 -0.0449,-0.026 -1.9642,-0.8525 -1.9325,-0.9133 -1.8983,-0.9758 -1.8616,-1.0397 -1.8223,-1.105 -1.7807,-1.1717 -0.874,-0.6114 -0.8625,-0.6287 -0.8509,-0.646 -0.8389,-0.6637 -0.0119,-0.0086 -0.0121,-0.0084 -0.0246,-0.0163 -0.0251,-0.0158 -0.0254,-0.0154 -0.0506,-0.031 -0.0249,-0.016 -0.0244,-0.0166 0.2398,-0.8852 z"
       id="path3" />
    <path
       style="fill:#000000;fill-opacity:1;fill-rule:evenodd;stroke:none"
       d="m 49.1025,39.3949 0.1574,0.0068 0.1567,0.0108 0.4661,0.0551 0.4598,0.0877 0.4532,0.1183 0.4465,0.1466 0.4396,0.1728 0.4326,0.197 0.4252,0.219 0.4178,0.2388 0.41,0.2566 0.4023,0.2723 0.3941,0.2858 0.3859,0.2972 0.3775,0.3064 0.3688,0.3137 0.7109,0.6402 2.1457,1.7035 1.0818,0.8431 0.5467,0.4107 0.5519,0.4003 0.5581,0.3872 0.5653,0.3719 0.5735,0.354 0.5828,0.3336 0.593,0.3108 0.6043,0.2855 0.6166,0.2578 0.6299,0.2275 0.2957,0.2391 0.3097,0.2299 0.3219,0.2221 0.3327,0.2156 0.6905,0.4168 0.7131,0.4065 0.7225,0.4067 0.7185,0.4174 0.3536,0.2159 0.3477,0.2226 0.34,0.2305 0.3308,0.2398 1.3423,0.7567 1.3332,0.7731 2.653,1.5679 2.6582,1.5505 1.3397,0.7513 1.3515,0.7262 0.6779,0.4684 0.6948,0.4496 0.7098,0.433 0.7227,0.4186 1.4761,0.8028 1.5038,0.7715 3.0259,1.5195 1.49,0.7832 0.7323,0.4052 0.721,0.4171 0.6231,0.2715 0.6291,0.2573 1.2726,0.4809 2.5762,0.8892 1.2886,0.4438 1.2788,0.467 1.2616,0.508 0.622,0.2749 0.6148,0.2919 0.4126,0.035 0.4024,0.0544 0.3928,0.0731 0.3835,0.091 0.3745,0.108 0.3658,0.1242 0.3576,0.1398 0.3497,0.1543 0.3422,0.1682 0.3349,0.1813 0.3282,0.1935 0.3216,0.2049 0.3156,0.2156 0.3098,0.2254 0.3044,0.2345 0.2994,0.2426 -0.2987,0.5054 -0.3049,-0.1944 -0.3035,-0.1894 -0.5968,-0.3636 -1.1099,-0.6633 -1.4904,-0.4199 -1.4827,-0.4485 -2.9534,-0.9308 -1.476,-0.4565 -1.4794,-0.4332 -1.4853,-0.3971 -1.4941,-0.3479 -5.1843,-3.3972 -1.3183,-0.8088 -0.6693,-0.3879 -0.6776,-0.3745 -0.6874,-0.3592 -0.6982,-0.3419 -0.7103,-0.3229 -0.7237,-0.3018 -0.9079,-0.4072 -0.8928,-0.4349 -0.8795,-0.4591 -0.8681,-0.48 -1.709,-1.0094 -1.6853,-1.0525 -3.3582,-2.1265 -1.7024,-1.02 -0.8635,-0.4874 -0.874,-0.4678 -0.4072,-0.2375 -0.4162,-0.2195 -0.4238,-0.2041 -0.4298,-0.1917 -0.8715,-0.3576 -0.8772,-0.3423 -0.8706,-0.3499 -0.429,-0.1849 -0.4228,-0.1954 -0.4149,-0.2087 -0.4057,-0.225 -0.3948,-0.2441 -0.3824,-0.2659 -0.819,-0.5565 -0.7998,-0.5912 -0.7845,-0.6188 -0.7734,-0.6389 -3.0654,-2.6117 -0.7799,-0.6304 -0.7935,-0.6069 -0.8113,-0.576 -0.8332,-0.5378 -0.8592,-0.4923 -0.4407,-0.2269 -0.4487,-0.2127 -0.4573,-0.1977 -0.4663,-0.1818 -0.476,-0.1649 -0.4861,-0.1472 -0.7183,-0.1003 -0.792,0.0678 -0.7765,0.1248 -0.7606,0.1784 -0.7444,0.2286 -0.7281,0.2756 -0.7115,0.3191 -0.6947,0.3593 -0.6776,0.3962 -0.6603,0.4297 -0.6427,0.4598 -0.6248,0.4867 -0.6068,0.5102 -0.5886,0.5303 -0.5699,0.547 -0.5512,0.5605 -0.5322,0.5706 -0.4044,0.2949 -0.4241,0.2656 -0.4403,0.2413 -0.4529,0.2221 -0.462,0.208 -0.4677,0.1989 -0.9386,0.3911 -0.4638,0.2022 -0.4556,0.2134 -0.4438,0.2298 -0.4286,0.2511 -0.4099,0.2776 -0.1968,0.1502 -0.1908,0.1588 -0.1844,0.168 -0.1775,0.1777 -0.1703,0.1881 -0.1625,0.1992 0.0167,0.159 0.0025,0.1605 -0.0102,0.1618 -0.022,0.1631 -0.0326,0.1642 -0.042,0.1654 -0.1075,0.3336 -0.1312,0.3369 -0.1456,0.3394 -0.2976,0.6837 -0.1334,0.3429 -0.1107,0.3425 -0.044,0.1709 -0.0349,0.1706 -0.0245,0.1701 -0.0132,0.1696 -5e-4,0.169 0.0132,0.1683 0.0282,0.1675 0.0442,0.1666 0.0615,0.1656 0.0799,0.1646 0.0994,0.1634 0.1201,0.1622 0.0921,0.2436 0.1061,0.2253 0.1195,0.2077 0.132,0.1912 0.144,0.1755 0.1552,0.1608 0.1656,0.1469 0.1756,0.1341 0.1846,0.122 0.193,0.111 0.2007,0.1008 0.2078,0.0916 0.2141,0.0833 0.2197,0.0758 0.4533,0.133 0.4675,0.1144 0.4758,0.1031 0.9546,0.2012 0.4675,0.1129 0.4536,0.1308 0.2198,0.0744 0.2141,0.0816 0.2079,0.0898 0.2009,0.0988 0.276,0.0879 0.2826,0.0851 0.5679,0.1681 v 0.5245 l -0.8764,-0.2645 -0.8796,-0.2506 -0.8826,-0.235 -0.8858,-0.2175 -0.889,-0.1984 -0.8923,-0.1774 -0.8956,-0.1549 -0.899,-0.1305 -0.2205,-0.1485 -0.2088,-0.1536 -0.1973,-0.1586 -0.1857,-0.1633 -0.174,-0.1678 -0.1625,-0.1721 -0.1509,-0.1761 -0.1392,-0.18 -0.1276,-0.1836 -0.1159,-0.187 -0.1043,-0.1901 -0.0927,-0.1931 -0.0809,-0.1959 -0.0693,-0.1983 -0.0576,-0.2006 -0.0459,-0.2027 -0.0342,-0.2046 -0.0225,-0.2062 -0.0107,-0.2075 9e-4,-0.2088 0.0128,-0.2097 0.0244,-0.2105 0.0362,-0.2109 0.048,-0.2113 0.0598,-0.2113 0.0715,-0.2113 0.0834,-0.2108 0.0951,-0.2102 0.1069,-0.2095 0.1188,-0.2084 0.1306,-0.2071 0.1424,-0.2057 0.039,-0.2865 0.0564,-0.274 0.0729,-0.2619 0.0889,-0.2503 0.1041,-0.2391 0.1184,-0.2284 0.1322,-0.2181 0.145,-0.2082 0.1573,-0.1988 0.1688,-0.1899 0.1795,-0.1812 0.1895,-0.1732 0.1987,-0.1655 0.2073,-0.1582 0.215,-0.1514 0.2221,-0.1451 0.4625,-0.2729 0.4817,-0.2526 0.4953,-0.2359 0.5028,-0.2227 1.9689,-0.829 0.3498,-0.1872 0.3416,-0.1992 0.3342,-0.2102 0.3274,-0.2203 0.6368,-0.4668 0.6174,-0.4955 0.603,-0.5165 0.5939,-0.5299 1.1812,-1.0693 0.5976,-0.5239 0.6091,-0.5067 0.6259,-0.4817 0.6479,-0.4491 0.3338,-0.2098 0.3412,-0.1989 0.3493,-0.1869 0.358,-0.1739 0.3674,-0.1599 0.3774,-0.1452 0.388,-0.1293 0.3994,-0.1125 0.1661,-0.0565 0.1655,-0.0515 0.1649,-0.0466 0.1644,-0.0417 0.1638,-0.0368 0.1631,-0.0322 0.1626,-0.0275 0.162,-0.0229 0.1613,-0.0184 0.1607,-0.014 0.16,-0.0097 0.1594,-0.0055 0.1588,-0.0012 z"
       id="path4" />
    <path
       style="fill:#000000;fill-opacity:1;fill-rule:evenodd;stroke:none"
       d="m 68.7127,66.1093 0.5227,0.3401 0.5327,0.3234 0.2705,0.1548 0.2734,0.1499 0.2766,0.1448 0.2797,0.1393 0.2832,0.1336 0.2867,0.1276 0.2903,0.1215 0.2942,0.1151 0.2981,0.1083 0.3022,0.1014 0.7542,0.3644 0.7411,0.3872 0.7299,0.4067 0.7209,0.4225 1.4228,0.8792 1.4109,0.9013 1.4154,0.8957 1.4362,0.8623 0.731,0.4099 0.7423,0.3912 0.7556,0.369 0.771,0.3433 0.5848,0.4117 0.6048,0.392 0.6219,0.3745 0.6361,0.3593 1.3027,0.6812 1.3238,0.646 2.616,1.2557 1.245,0.6443 0.5963,0.3338 0.575,0.3446 0.9102,0.3695 0.9186,0.3495 0.9271,0.3286 0.9352,0.3066 0.9434,0.2836 0.9513,0.2596 0.9591,0.2345 0.9668,0.2085 -0.4986,0.0237 -0.4922,-0.001 -0.4863,-0.0244 L 99.9147,82.4369 99.4393,82.3693 98.969,82.282 98.042,82.0533 97.1312,81.7608 96.2341,81.4145 95.348,81.0246 94.4705,80.6009 90.9946,78.7699 90.1215,78.3282 89.2417,77.9129 88.3525,77.5341 87.4515,77.2019 83.3987,74.8264 82.3816,74.2485 81.3532,73.6918 80.3085,73.1636 79.7786,72.9126 79.2427,72.6714 78.635,72.2048 78.0161,71.754 77.3866,71.3187 76.747,70.8984 76.098,70.4928 75.4401,70.1014 74.7741,69.7238 74.1004,69.3596 73.4197,69.0084 72.7326,68.6697 71.3415,68.0283 69.9321,67.4322 68.509,66.878 68.446,66.8237 68.384,66.7677 68.3228,66.7105 68.262,66.6524 68.1407,66.5361 68.0795,66.4788 68.0176,66.4227 v 0 l 0.1814,-0.6682 z"
       id="path5" />
    <path
       style="fill:#000000;fill-opacity:1;fill-rule:evenodd;stroke:none"
       d="m 6.6614,23.665 0.2608,0.1586 0.2527,0.164 0.243,0.1701 0.2316,0.1773 0.2185,0.1854 0.2038,0.1944 0.1874,0.2043 0.1692,0.2152 1.5752,1.349 1.6382,1.3595 0.8449,0.6587 0.8633,0.6311 0.8824,0.5935 0.9025,0.5459 0.9235,0.4883 0.4698,0.2193 0.4753,0.2012 0.481,0.1817 0.4868,0.1611 0.4927,0.139 0.4986,0.1159 0.5047,0.0914 0.5109,0.0656 0.5172,0.0387 0.5236,0.0104 0.5301,-0.019 0.5367,-0.0498 0.5434,-0.0818 0.5503,-0.1151 1.4714,-0.2124 0.7305,-0.1294 0.7264,-0.1455 0.7218,-0.1622 0.7167,-0.1795 0.7113,-0.1973 0.7052,-0.2156 0.6988,-0.2345 0.6919,-0.2539 0.6845,-0.2739 0.6766,-0.2944 0.6682,-0.3154 0.6594,-0.3371 0.6502,-0.3593 0.6404,-0.3819 0.6444,-0.2466 0.637,-0.2728 0.6315,-0.2925 0.6277,-0.3057 1.2511,-0.6254 1.257,-0.6009 0.6352,-0.275 0.642,-0.2495 0.6506,-0.2175 0.6608,-0.179 0.673,-0.1341 0.3416,-0.0481 0.3453,-0.0346 0.3491,-0.02 0.3533,-0.0048 0.3577,0.0113 0.3622,0.0282 0.5299,-0.0792 0.5242,-0.0509 0.5186,-0.0238 0.5132,0.0022 0.5079,0.027 0.5029,0.0507 0.4979,0.0732 0.4932,0.0946 0.9727,0.2487 0.9557,0.3204 0.9399,0.3828 0.9254,0.4361 0.9122,0.4801 0.9004,0.515 1.7704,1.0975 1.7385,1.1263 1.717,1.0814 1.7242,1.1951 0.8777,0.5952 0.8842,0.5865 0.8879,0.5723 0.8886,0.5528 0.8865,0.5279 0.8815,0.4976 0.1497,0.1774 0.1576,0.1679 0.1651,0.1592 0.172,0.1508 0.1786,0.1431 0.1845,0.136 0.3853,0.2529 0.4037,0.2312 0.4184,0.2142 0.4292,0.2018 0.4364,0.194 0.8789,0.3828 0.4351,0.1981 0.427,0.2086 0.4153,0.2239 0.3997,0.2436 0.3805,0.2679 0.1817,0.1446 0.1756,0.1524 0.7729,0.3268 0.7632,0.3677 0.7558,0.399 0.751,0.4205 1.4969,0.8675 0.7507,0.4278 0.7555,0.4108 0.7627,0.3844 0.7723,0.3483 0.7842,0.3027 0.7987,0.2473 0.4055,0.0999 0.41,0.0824 0.4149,0.0639 0.4199,0.044 0.4254,0.0229 0.4311,7e-4 0.4371,-0.0227 0.4434,-0.0474 1.107,0.0623 0.5531,0.0426 0.5507,0.0545 0.5468,0.0696 0.5413,0.088 0.5343,0.1094 0.5258,0.1342 0.5157,0.1621 0.5041,0.1933 0.491,0.2275 0.4763,0.2652 0.46,0.3059 0.4423,0.3498 0.2139,0.1924 0.209,0.2046 0.2037,0.2172 0.1984,0.2302 0.616,0.4737 0.5945,0.4951 0.5755,0.5141 0.559,0.5307 0.5449,0.5448 0.5334,0.5566 1.0421,1.1387 2.0549,2.3123 1.0526,1.1349 0.5412,0.5537 0.5546,0.5413 0.3606,0.5591 0.3791,0.5425 0.397,0.5259 0.4146,0.509 0.4317,0.492 0.4484,0.475 0.4646,0.4578 0.4805,0.4404 0.4959,0.423 0.5108,0.4055 0.5254,0.3877 0.5395,0.3698 0.5532,0.352 0.5664,0.3338 0.5792,0.3156 0.5917,0.2973 0.1951,0.1874 0.1844,0.1678 0.174,0.1486 0.1638,0.1301 0.1539,0.1122 0.1444,0.0947 0.1352,0.0779 0.1263,0.0617 0.1176,0.0459 0.1094,0.0309 0.1013,0.0163 0.0478,0.0029 0.0459,-6e-4 0.044,-0.0038 0.0422,-0.0072 0.0405,-0.0104 0.0387,-0.0135 0.0371,-0.0165 0.0354,-0.0196 0.0659,-0.0478 -0.0232,0.2311 -0.0265,0.2307 -0.0296,0.2303 -0.0328,0.2298 -2.6415,-1.526 -1.3249,-0.7916 -0.6507,-0.4128 -0.638,-0.4278 -0.6216,-0.4456 -0.6016,-0.4662 -0.5778,-0.4896 -0.5505,-0.5158 -0.5195,-0.5448 -0.4849,-0.5766 -0.4464,-0.6111 -0.4046,-0.6485 -0.5613,-0.6191 -0.5758,-0.6692 -1.1712,-1.4183 -1.1573,-1.4081 -0.5584,-0.6563 -0.5369,-0.6012 -0.5573,-0.5035 -0.5462,-0.5167 -1.0738,-1.0507 -1.0735,-1.0377 -0.5458,-0.5003 -0.5569,-0.4807 -0.5715,-0.4556 -0.59,-0.4251 -0.6119,-0.389 -0.3154,-0.1794 -0.3223,-0.1683 -0.3297,-0.1565 -0.3374,-0.1442 -0.3458,-0.131 -0.3544,-0.1173 -0.3637,-0.1029 -0.3734,-0.0876 -0.3834,-0.0719 -0.3941,-0.0554 -6.0953,-0.7409 -0.749,-0.1411 -0.7387,-0.1728 -0.726,-0.2107 -0.711,-0.2549 L 78.6166,42.7077 77.9422,42.3455 77.6131,42.1412 77.2896,41.9203 76.9721,41.6821 76.661,41.4258 75.9906,40.9577 75.2962,40.535 74.582,40.1501 73.852,39.7954 73.1104,39.4635 72.3613,39.1467 70.8572,38.5285 70.1104,38.2119 69.3727,37.8804 68.6482,37.5262 67.941,37.142 67.2553,36.72 66.5951,36.2529 65.9647,35.733 l -0.3028,-0.2821 -0.2938,-0.2981 -0.613,-0.5303 -0.6257,-0.5192 -0.6376,-0.508 -0.6488,-0.4963 -0.659,-0.4845 -0.6684,-0.4723 -0.6771,-0.4597 -0.6848,-0.447 -0.6918,-0.434 -0.6979,-0.4205 -0.7032,-0.4069 -0.7077,-0.393 -0.7113,-0.3787 -0.7141,-0.3641 -0.7161,-0.3494 -0.7172,-0.3341 -0.6519,-0.4795 -0.6808,-0.4343 -0.7069,-0.3898 -0.7304,-0.3458 -0.751,-0.3025 -0.769,-0.2596 -0.7843,-0.2175 -0.7968,-0.1759 -0.8066,-0.1349 -0.8138,-0.0946 -0.8181,-0.0547 -0.8198,-0.0155 -0.8188,0.0231 -0.8149,0.0611 -0.8085,0.0986 -0.7993,0.1354 -1.6601,0.5969 -1.6359,0.6435 -1.6137,0.6867 -1.5937,0.7265 -1.5758,0.763 -1.5601,0.7961 -1.5464,0.8258 -1.5349,0.852 -0.5624,0.2094 -0.5745,0.1833 -0.5856,0.1587 -0.5952,0.1353 -0.6036,0.1133 -0.6107,0.0928 -0.6166,0.0736 -0.621,0.0557 -0.6244,0.0393 -0.6263,0.0242 -1.2534,0.0086 L 20.8833,32.5178 19.6551,32.4496 19.2289,32.4033 18.81,32.3407 18.398,32.2626 17.9929,32.1696 17.2018,31.9413 16.4347,31.6609 15.6894,31.3334 14.9639,30.9641 14.2561,30.558 13.5638,30.1201 12.8851,29.6556 12.2178,29.1695 10.9091,28.153 8.337,26.0851 8.0212,25.9049 7.7125,25.7099 7.4098,25.5021 7.1123,25.2836 6.8189,25.0564 6.5286,24.8226 5.9534,24.3436 5.3791,23.8632 5.0897,23.6276 4.7977,23.3979 4.5018,23.1761 4.2013,22.9643 3.8951,22.7645 3.5822,22.5789 3.6069,22.5669 3.6318,22.5557 3.657,22.5451 3.6824,22.5352 3.7081,22.5261 3.734,22.5176 3.7602,22.5099 3.7865,22.5029 3.813,22.4966 3.8397,22.491 3.8665,22.4861 3.8934,22.482 3.9205,22.4786 3.9477,22.476 3.975,22.4741 4.0024,22.4729 H 4.485 Z"
       id="path6" />
    <path
       style="fill:#000000;fill-opacity:1;fill-rule:evenodd;stroke:none"
       d="m 70.9523,4.8602 -1.4365,1.3807 -2.9077,2.7274 -1.4509,1.3663 -1.4355,1.3813 -1.4098,1.4059 -1.374,1.4405 -0.2257,0.2834 -0.1961,0.2862 -0.1676,0.2888 -0.1402,0.2911 -0.114,0.2931 -0.089,0.2949 -0.0649,0.2964 -0.0421,0.2976 -0.0204,0.2986 1e-4,0.2993 0.0196,0.2997 0.0379,0.2999 0.0551,0.2998 0.0711,0.2993 0.086,0.2988 0.0998,0.2978 0.2364,0.5917 0.278,0.5849 0.3104,0.5758 0.3338,0.5647 0.7018,1.087 0.6867,1.0164 0.1469,0.3629 0.1648,0.3475 0.1817,0.3325 0.1982,0.3176 0.2137,0.3032 0.2285,0.2889 0.2427,0.2749 0.2561,0.2613 0.2686,0.2479 0.2806,0.2347 0.2918,0.222 0.3021,0.2094 0.3119,0.1972 0.3207,0.1852 0.329,0.1735 0.3365,0.1622 0.3432,0.151 0.3491,0.1401 0.7133,0.249 0.7284,0.209 0.7376,0.1714 0.7408,0.136 0.7382,0.1028 0.7296,0.072 0.7152,0.0433 0.5185,0.0801 0.5064,0.1129 0.4954,0.1427 0.4855,0.1698 0.4764,0.1941 0.4684,0.2155 0.4614,0.234 0.4553,0.2498 0.4504,0.2627 0.4464,0.2727 0.8848,0.5643 0.8808,0.5705 0.8848,0.554 0.7281,0.4952 0.7487,0.4539 0.7675,0.4161 0.7844,0.3815 0.7993,0.3503 0.8123,0.3225 0.8236,0.298 0.8327,0.2768 1.6855,0.5039 1.6996,0.4596 3.3801,0.8941 0.4365,0.238 0.4225,0.2523 0.4092,0.266 0.3966,0.279 0.3848,0.291 0.3736,0.3025 0.7171,0.6362 0.6815,0.673 0.6519,0.7038 0.6283,0.7288 0.6106,0.7477 2.3832,3.062 0.6107,0.7537 0.6285,0.737 0.6522,0.7146 0.6819,0.686 4.7258,2.8503 0.6661,0.3336 0.6397,0.2736 0.3059,0.1091 0.2944,0.0878 0.2813,0.0647 0.2666,0.0393 0.2502,0.0119 0.2323,-0.0176 0.2127,-0.049 0.1915,-0.0826 0.1687,-0.1183 0.1442,-0.156 0.1182,-0.1957 0.0905,-0.2375 0.002,1.5719 -0.5814,-0.0598 -0.5704,-0.0987 -0.5601,-0.1342 -0.5506,-0.1663 -0.542,-0.1951 -0.534,-0.2204 -0.5269,-0.2424 -0.5205,-0.2611 -0.515,-0.2763 -0.5101,-0.2883 -1.0091,-0.5987 -0.9993,-0.606 -0.9956,-0.5863 -0.7955,-0.7174 -0.7606,-0.7628 -0.7327,-0.7989 -0.7119,-0.826 L 98.204,42.9051 97.491,42.081 96.7567,41.2848 95.9941,40.5255 95.1961,39.8123 94.3559,39.1544 93.9177,38.849 93.4663,38.5608 93.0007,38.291 92.5202,38.0407 92.0238,37.8111 91.5107,37.6033 88.9158,37.0475 87.6335,36.7513 86.3668,36.4171 85.7406,36.2296 85.1198,36.0253 84.5049,35.8018 83.8964,35.5566 83.2949,35.2873 82.7009,34.9914 82.1148,34.6666 81.5372,34.3105 80.8886,34.03 80.2582,33.7129 79.6425,33.367 79.0378,32.9998 76.6606,31.4742 76.0593,31.1173 75.448,30.7855 74.8235,30.4867 74.1821,30.2286 73.854,30.1172 l -0.3336,-0.0983 -0.3395,-0.0842 -0.346,-0.0693 -0.3527,-0.0533 -0.36,-0.0363 -0.3678,-0.0185 -0.3758,5e-4 L 68.8962,29.3036 68.2634,29.1667 67.6356,29.0104 67.0181,28.8297 66.4158,28.6196 65.8339,28.375 65.2772,28.0909 64.751,27.7623 64.5009,27.5797 64.2602,27.3841 64.0297,27.1748 63.8099,26.9513 63.6015,26.7129 63.4051,26.459 63.2213,26.1889 63.0509,25.902 62.8943,25.5977 62.7523,25.2754 61.8626,24.1477 61.4282,23.5822 61.0096,23.0135 60.6133,22.4401 60.246,21.8604 59.9141,21.273 l -0.2897,-0.5967 -0.127,-0.3024 -0.114,-0.3052 -0.1003,-0.3084 -0.0855,-0.3116 -0.0702,-0.3151 -0.0538,-0.3187 -0.0367,-0.3226 -0.0188,-0.3267 -10e-5,-0.3309 0.0196,-0.3354 0.0399,-0.3399 0.0611,-0.3448 0.0832,-0.3498 0.1061,-0.355 0.1297,-0.3604 0.1543,-0.366 0.1135,-0.2718 0.1289,-0.2722 0.1444,-0.2721 0.1601,-0.2721 0.176,-0.2717 0.1919,-0.2711 0.2081,-0.2703 0.2244,-0.2693 0.241,-0.2681 0.2575,-0.2667 0.2744,-0.265 0.2914,-0.2632 0.3085,-0.2612 0.3258,-0.2589 0.3433,-0.2564 0.3609,-0.2537 1.0128,-0.9781 1.0449,-0.9558 2.1438,-1.8781 1.0773,-0.9387 1.0667,-0.9496 1.0454,-0.9685 0.5113,-0.494 0.502,-0.5018 h 0.5974 z"
       id="path7" />
    <path
       style="fill:#000000;fill-opacity:1;fill-rule:evenodd;stroke:none"
       d="m 61.4784,3.455 -0.0025,0.0032 -0.0024,0.0033 -0.0048,0.0067 -0.0047,0.007 -0.0047,0.007 -0.0046,0.007 -0.0047,0.0069 -0.0048,0.0067 -0.0025,0.0032 -0.0025,0.0032 -0.4685,0.7183 -0.4809,0.7086 -0.493,0.6992 -0.505,0.6897 -0.5167,0.6806 -0.5281,0.6714 -1.0897,1.3159 -1.1325,1.2808 -1.1736,1.2466 -1.2127,1.2134 -1.2499,1.1811 -4.2036,2.4988 -0.5333,0.2906 -0.5397,0.2769 -0.5474,0.2605 -0.5566,0.2414 -0.5671,0.2198 -0.579,0.1953 -0.5924,0.1683 -0.607,0.1386 -1.6473,0.402 -1.6671,0.36 -1.6736,0.3494 -1.6666,0.3705 -0.8265,0.203 -0.8198,0.22 -0.8113,0.2412 -0.8011,0.2661 -0.7894,0.295 -0.7759,0.3279 -0.7607,0.3648 -0.7439,0.4055 -0.4353,0.2731 -0.4286,0.2846 -0.4223,0.295 -0.4165,0.3039 -0.817,0.6296 -0.7982,0.6499 -1.5526,1.3185 -0.7607,0.6476 -0.7545,0.6259 -0.5869,0.1689 -0.5999,0.1895 -1.2288,0.4047 -0.624,0.1971 -0.627,0.1815 -0.6275,0.1569 -0.6257,0.1231 -0.6211,0.0803 -0.3082,0.0213 -0.3061,0.0073 -0.3037,-0.008 L 17.7346,28.5367 17.4365,28.4949 17.1416,28.4344 16.8504,28.3542 16.5631,28.2531 16.28,28.13 16.0014,27.9837 15.7277,27.8131 15.4591,27.6172 15.196,27.3947 14.9386,27.1445 14.5887,26.9334 14.2494,26.7095 13.9211,26.4733 13.6039,26.2251 13.2979,25.9655 13.0032,25.6948 12.72,25.4134 12.4485,25.1218 12.1888,24.8204 11.941,24.5097 11.7054,24.19 l -0.2235,-0.3282 -0.211,-0.3363 -0.1985,-0.3439 -0.1858,-0.3512 -0.173,-0.358 h 0.68 l 0.1474,0.3069 0.1534,0.3043 0.1592,0.3016 0.1648,0.2991 0.17,0.2963 0.175,0.2936 0.1798,0.2909 0.1842,0.288 0.2119,0.2856 0.2215,0.2701 0.2306,0.255 0.2393,0.2398 0.2477,0.2249 0.2554,0.2101 0.263,0.1954 0.2699,0.1809 0.2766,0.1665 0.2828,0.1523 0.2886,0.1381 0.2939,0.1242 0.2988,0.1104 0.3033,0.0966 0.3075,0.0832 0.3111,0.0697 0.3143,0.0565 0.3172,0.0433 0.3196,0.0304 0.3216,0.0175 0.3232,0.0049 0.3243,-0.0078 0.6504,-0.0525 0.6499,-0.1011 0.6462,-0.1485 0.639,-0.1948 0.6285,-0.2399 0.2798,-0.0423 0.271,-0.0574 0.2627,-0.0717 0.255,-0.0851 0.2477,-0.0977 0.2409,-0.1095 0.2346,-0.1204 0.229,-0.1305 0.2237,-0.1398 0.2189,-0.1483 0.4258,-0.3184 0.4129,-0.3422 0.4042,-0.3593 0.7984,-0.7431 0.4023,-0.3705 0.4098,-0.3608 0.4214,-0.3446 0.437,-0.3216 0.2256,-0.1501 0.2311,-0.1419 0.237,-0.1328 0.2434,-0.1229 1.0175,-0.6576 1.0373,-0.6306 0.5273,-0.3001 0.5334,-0.287 0.5401,-0.272 0.5472,-0.2549 0.5547,-0.2357 0.5625,-0.2145 0.5709,-0.1911 0.5797,-0.1657 0.5887,-0.1382 0.5984,-0.1087 0.6083,-0.077 0.6188,-0.0434 0.7631,-0.1987 0.7722,-0.1813 1.5614,-0.3328 1.5667,-0.3295 1.5515,-0.3702 0.7637,-0.2141 0.7521,-0.2407 0.738,-0.2729 0.7213,-0.3105 0.7021,-0.3536 0.6803,-0.4023 0.6558,-0.4564 0.6289,-0.5161 0.4818,-0.2927 0.4669,-0.3085 0.4533,-0.3228 0.4409,-0.3357 0.4299,-0.3471 0.42,-0.3571 0.4113,-0.3656 0.4041,-0.3727 0.7909,-0.7609 0.7766,-0.7718 0.7721,-0.7711 0.7777,-0.759 0.4748,-0.6807 0.4815,-0.6768 0.9784,-1.3448 1.9839,-2.6751 z"
       id="path8" />
    <path
       style="fill:#000000;fill-opacity:1;fill-rule:evenodd;stroke:none"
       d="m 3.1721,36.7931 0.1644,0.1128 0.1739,0.104 0.1829,0.0957 0.3903,0.1691 0.419,0.1428 0.4431,0.1211 0.4623,0.1037 0.4768,0.0908 0.4866,0.0823 0.9835,0.1569 0.4875,0.0835 0.4783,0.0928 0.4643,0.1065 0.4457,0.1247 0.4222,0.1473 0.3941,0.1743 0.4639,0.0685 0.453,0.0885 0.4424,0.1079 0.432,0.1264 0.4221,0.1442 0.4125,0.1612 0.4032,0.1774 0.3944,0.1929 0.7634,0.4289 0.732,0.4813 0.7034,0.5275 0.6777,0.5674 0.6546,0.6012 0.6345,0.6287 0.6171,0.65 0.6025,0.6649 2.3203,2.686 -0.0564,0.5823 -0.0301,0.5959 -0.0133,1.2176 -0.0037,1.2274 -0.0181,0.6083 -0.0396,0.5998 -0.069,0.5876 -0.1064,0.5716 -0.1517,0.5522 -0.0953,0.2676 -0.1097,0.2613 -0.1249,0.2546 -0.1413,0.2474 -0.1586,0.2398 -0.1768,0.2317 -0.1961,0.2231 -0.2164,0.2141 -0.2377,0.2046 -0.2599,0.1947 -0.0546,0.1762 -0.0604,0.1724 -0.1367,0.3339 -0.1548,0.3217 -0.1694,0.3116 -0.1805,0.3039 -0.188,0.2985 -0.3843,0.5897 -0.1893,0.2959 -0.1826,0.2996 -0.1724,0.3057 -0.1586,0.3139 -0.1413,0.3245 -0.0631,0.167 -0.0575,0.1705 -0.0513,0.1742 -0.0448,0.1784 -0.0378,0.1827 -0.0304,0.1874 -0.0117,0.3341 -0.0242,0.3278 -0.0366,0.3217 -0.0487,0.3154 -0.0604,0.3094 -0.0719,0.3033 -0.1771,0.5887 -0.2197,0.5651 -0.2602,0.5418 -0.2984,0.5191 -0.3343,0.4966 -0.3681,0.4746 -0.3997,0.453 -0.4289,0.4318 -0.4561,0.411 -0.481,0.3906 -0.5037,0.3705 -0.5241,0.351 -0.5424,0.3317 -0.3244,0.1976 -0.3159,0.212 -0.3079,0.2252 -0.3004,0.2374 -0.2932,0.2486 -0.2866,0.2585 -0.2804,0.2675 -0.2747,0.2753 -0.2694,0.282 L 8.3485,71.3225 7.8319,71.9102 7.329,72.5073 6.8363,73.105 H 5.8829 l 1.0215,-1.3337 0.5239,-0.6532 0.27,-0.3182 0.2771,-0.3108 0.2856,-0.302 0.2955,-0.2919 0.3067,-0.2802 0.3194,-0.2672 0.3332,-0.2528 0.3486,-0.2369 0.3652,-0.2198 0.3832,-0.2012 0.3091,-0.1486 0.3011,-0.1567 0.2931,-0.1647 0.2849,-0.1728 0.2766,-0.1805 0.2683,-0.1882 0.2598,-0.1958 0.2511,-0.2032 0.2424,-0.2105 0.2336,-0.2177 0.2247,-0.2248 0.2156,-0.2316 0.2064,-0.2385 0.1971,-0.2451 0.1877,-0.2517 0.1782,-0.2581 0.1686,-0.2644 0.1588,-0.2705 0.149,-0.2766 0.139,-0.2824 0.1289,-0.2883 0.1188,-0.2939 0.1084,-0.2994 0.0981,-0.3048 0.0875,-0.3101 0.0768,-0.3152 0.0661,-0.3202 0.0553,-0.3251 0.0443,-0.3299 0.0331,-0.3344 0.022,-0.339 0.0106,-0.3434 0.1017,-0.4999 0.1166,-0.4902 0.1319,-0.4806 0.1475,-0.4712 0.1637,-0.4617 0.1801,-0.4522 0.1971,-0.4429 0.2143,-0.4336 0.232,-0.4244 0.2502,-0.4151 0.2686,-0.406 0.2875,-0.3969 0.3069,-0.3879 0.3266,-0.3789 0.3467,-0.3699 0.3672,-0.3611 0.1572,-0.4976 0.1364,-0.4998 0.1142,-0.5012 0.0907,-0.5014 0.0658,-0.5007 0.0395,-0.4989 0.0119,-0.4963 -0.017,-0.4926 -0.0473,-0.4879 -0.079,-0.4823 -0.1119,-0.4756 -0.1464,-0.468 -0.1821,-0.4593 -0.2191,-0.4498 -0.2576,-0.4391 -0.2974,-0.4275 -0.369,-0.5423 -0.3885,-0.5289 -0.408,-0.5137 L 17.3113,43.6192 16.8645,43.142 16.3984,42.6861 15.913,42.2534 15.4084,41.8459 14.8846,41.4656 14.3417,41.1145 13.7798,40.7946 13.1989,40.5078 12.599,40.2562 11.9802,40.0418 11.6637,39.9491 11.3426,39.8665 11.0167,39.7942 10.6862,39.7324 8.7749,39.187 6.8588,38.6535 3.0179,37.6007 V 36.671 Z"
       id="path9" />
    <path
       style="fill:#000000;fill-opacity:1;fill-rule:evenodd;stroke:none"
       d="m 43.3844,29.2748 0.4146,0.0257 0.4116,0.0436 0.408,0.0621 0.4038,0.0809 0.3992,0.1004 0.3939,0.1205 0.388,0.1409 0.3817,0.162 0.3747,0.1836 0.3671,0.2057 0.3591,0.2284 0.3504,0.2516 0.3412,0.2753 0.3314,0.2995 0.321,0.3244 3.0768,2.6257 1.5509,1.2993 1.5751,1.2665 0.8003,0.6155 0.8108,0.6006 0.8228,0.5835 0.8363,0.5643 0.8513,0.5428 0.8677,0.5191 0.8856,0.4932 0.9051,0.4651 2.5197,2.2064 1.2794,1.0818 1.3048,1.0484 0.6648,0.5072 0.6747,0.4936 0.6856,0.4781 0.6978,0.4608 0.7111,0.4417 0.7256,0.4209 0.7411,0.3983 0.758,0.3739 0.2359,0.2149 0.2421,0.1994 0.248,0.1848 0.2535,0.1711 0.2588,0.1582 0.2637,0.146 0.5411,0.259 0.5573,0.2204 0.5711,0.1884 0.5823,0.1631 0.5913,0.1442 2.4051,0.5207 0.5992,0.149 0.5934,0.1698 0.5853,0.1971 0.5747,0.231 0.333,0.1809 0.3396,0.1639 0.6967,0.2819 0.7169,0.2292 0.7333,0.1868 0.7458,0.1545 0.7544,0.1326 1.5192,0.24 0.757,0.1279 0.7501,0.1468 0.7394,0.176 0.7247,0.2153 0.7062,0.2648 0.345,0.1543 0.3389,0.1704 0.3323,0.188 0.3252,0.2067 0.3177,0.2268 0.3097,0.2481 0.2482,0.1934 0.2347,0.2049 0.2223,0.2154 0.211,0.2251 0.3919,0.4755 0.3589,0.5035 0.3341,0.5242 0.3176,0.5377 0.6188,1.0877 0.3177,0.5356 0.3344,0.5205 0.3592,0.4984 0.1916,0.2386 0.2008,0.2303 0.2112,0.2213 0.2226,0.2112 0.2351,0.2003 0.2485,0.1885 0.263,0.1758 0.2785,0.1622 0.2951,0.1477 0.3127,0.1322 0.5741,0.4545 0.5886,0.4285 0.6018,0.4049 0.6138,0.3837 0.6243,0.3648 0.6337,0.3482 0.6417,0.3341 0.6484,0.3222 5.2755,2.4337 -0.2769,0.4693 -2.2236,-0.9339 -1.112,-0.467 -1.1062,-0.4794 -1.0959,-0.5013 -1.081,-0.5324 -0.5336,-0.2808 -0.5282,-0.2922 -0.5222,-0.3046 -0.5157,-0.3183 -0.3584,-0.161 -0.3435,-0.1762 -0.3295,-0.1907 -0.3161,-0.2044 -0.3034,-0.2173 -0.2917,-0.2294 -0.2805,-0.2408 -0.2701,-0.2514 -0.2605,-0.2612 -0.2516,-0.2702 -0.4795,-0.5644 -0.453,-0.5914 -0.4323,-0.612 -0.8267,-1.2613 -0.8157,-1.2699 -0.4187,-0.6226 -0.4338,-0.6062 -0.455,-0.5835 -0.4821,-0.5548 -0.6247,-0.3601 -0.6407,-0.317 -0.6549,-0.2784 -0.6675,-0.2443 -0.6784,-0.2146 -0.6877,-0.1894 -0.6953,-0.1688 -0.7013,-0.1526 -2.8313,-0.5382 -1.4082,-0.2886 -0.6964,-0.165 -0.6891,-0.1846 -0.6554,-0.059 -0.6461,-0.0843 -1.2656,-0.2408 -1.2325,-0.3298 -1.2018,-0.4104 -1.1739,-0.4828 -1.1485,-0.5468 -1.1258,-0.6024 -1.1056,-0.6497 -1.088,-0.6885 -1.073,-0.7191 -2.1116,-1.4964 -2.083,-1.5184 -2.0752,-1.4733 -0.5256,-0.4675 -0.539,-0.4508 -0.5509,-0.436 -0.5611,-0.4229 -1.1467,-0.8131 -1.1685,-0.7812 -2.3515,-1.5213 -1.1573,-0.7675 -1.1281,-0.7905 -1.0094,-0.8609 -1.0397,-0.8362 -2.1231,-1.6308 -1.0601,-0.8108 -1.0438,-0.8184 -1.0156,-0.8341 -0.4937,-0.4256 -0.4823,-0.4324 -0.2043,-0.1496 -0.2112,-0.1354 -0.2174,-0.122 -0.2231,-0.1092 -0.2283,-0.0974 -0.2329,-0.0863 -0.2368,-0.0759 -0.2402,-0.0664 -0.2431,-0.0577 -0.2454,-0.0496 -0.247,-0.0425 -0.2482,-0.036 -0.4974,-0.0559 -0.495,-0.0396 -0.8956,0.0881 -0.884,0.1323 -0.8723,0.1744 -0.8605,0.2145 -0.8487,0.2524 -0.8367,0.2881 -0.8248,0.3219 -0.8128,0.3533 -0.8006,0.3828 -0.7885,0.4101 -0.7763,0.4353 -0.7641,0.4584 -0.7516,0.4794 -0.7393,0.4981 -0.7268,0.5149 -0.7143,0.5296 -0.6094,0.4711 -0.6433,0.4375 -0.6732,0.4008 -0.6992,0.361 -0.7213,0.3179 -0.7395,0.2719 -0.7536,0.2228 -0.7639,0.1704 -0.7702,0.1151 -0.7726,0.0566 -0.7711,-0.005 -0.3837,-0.0266 -0.3819,-0.0432 -0.3795,-0.0601 -0.3766,-0.0774 -0.3734,-0.0952 -0.3694,-0.1133 -0.3652,-0.1318 -0.3604,-0.1507 -0.355,-0.17 -0.3493,-0.1897 -0.5629,-0.5322 -0.5547,-0.5535 -1.1009,-1.1331 -0.5547,-0.5612 -0.5632,-0.5452 -0.5758,-0.52 -0.5926,-0.4854 -0.6137,-0.4416 -0.316,-0.2014 -0.3229,-0.1871 -0.3302,-0.1714 -0.3381,-0.1546 -0.3465,-0.1368 -0.3555,-0.1177 -0.3649,-0.0974 -0.3749,-0.076 -0.3854,-0.0535 -0.3964,-0.0298 -0.408,-0.0048 -0.4201,0.0211 -0.4327,0.0484 -0.4458,0.0767 -0.7406,-0.043 -0.7351,-0.0259 -0.7189,-4e-4 -0.35,0.012 -0.3418,0.0215 -0.3323,0.0322 -0.3215,0.0438 -0.3093,0.0565 -0.2957,0.0702 -0.2807,0.0851 -0.2645,0.101 -0.2468,0.1179 -0.2279,0.1358 v -1.14 l 0.2071,0.1376 0.2293,0.1102 0.2502,0.0849 0.2696,0.0616 0.2878,0.0403 0.3045,0.0211 0.6537,-0.0076 0.704,-0.0601 0.7435,-0.0965 1.5608,-0.2372 0.7954,-0.1081 0.7905,-0.0796 0.7749,-0.0346 0.378,0.0045 0.37,0.0219 0.3605,0.0412 0.3496,0.0626 0.3375,0.086 0.3238,0.1114 0.3089,0.1389 0.2925,0.1684 0.2748,0.1999 0.2557,0.2334 1.0603,1.2229 0.5504,0.6223 0.5662,0.6154 0.5837,0.5979 0.603,0.5698 0.6242,0.5312 0.6469,0.482 0.3326,0.2192 0.3389,0.2029 0.3456,0.1854 0.3523,0.1664 0.3594,0.1463 0.3666,0.1246 0.374,0.1018 0.3818,0.0775 0.3896,0.0521 0.3978,0.0251 0.4061,-0.003 0.4147,-0.0324 0.4234,-0.0633 0.4325,-0.0955 0.4417,-0.1289 0.4511,-0.1637 0.6807,-0.2054 0.6677,-0.2384 0.6562,-0.2676 0.646,-0.2936 0.6372,-0.3158 0.6298,-0.3347 1.2428,-0.7119 2.4569,-1.4955 1.2361,-0.7274 0.6249,-0.3464 0.6311,-0.3301 0.4409,-0.2933 0.4558,-0.2826 0.4696,-0.2708 0.4822,-0.2579 0.4934,-0.2439 0.5037,-0.2286 0.5125,-0.2122 0.5203,-0.1948 0.5268,-0.1761 0.5322,-0.1564 0.5362,-0.1354 0.5392,-0.1134 0.5409,-0.0902 0.5415,-0.0658 0.5407,-0.0404 0.5388,-0.0138 z"
       id="path10" />
    <path
       style="fill:#000000;fill-opacity:1;fill-rule:evenodd;stroke:none"
       d="m 58.7608,58.3834 0.0772,0.0032 0.0783,0.005 0.0795,0.007 0.0805,0.0091 0.0817,0.011 0.0827,0.013 0.0838,0.0152 0.085,0.0172 0.086,0.0193 0.0871,0.0215 0.0882,0.0237 0.1724,0.1302 0.1714,0.1323 0.3403,0.2697 0.3374,0.2755 0.3355,0.2796 h -1.14 l -0.0386,-0.0191 -0.0382,-0.0199 -0.0754,-0.041 -0.0377,-0.0205 -0.038,-0.0199 -0.0386,-0.0192 -0.0394,-0.018 -0.0981,-0.0134 -0.0957,-0.0099 -0.0932,-0.0064 -0.0908,-0.0032 -0.0885,2e-4 -0.0861,0.0032 -0.0839,0.0064 -0.0816,0.0093 -0.0794,0.0122 -0.0772,0.015 -0.0751,0.0178 -0.0729,0.0203 -0.0709,0.0229 -0.0688,0.0254 -0.0669,0.0278 -0.0649,0.03 h -0.2025 l -0.0401,-0.0037 -0.0395,-0.0053 -0.0778,-0.0151 -0.0756,-0.0209 -0.0732,-0.0267 -0.0705,-0.0321 -0.0675,-0.0372 -0.0643,-0.0423 -0.0608,-0.047 -0.057,-0.0515 -0.053,-0.0558 -0.0486,-0.0599 -0.044,-0.0637 -0.0392,-0.0673 -0.034,-0.0707 -0.0286,-0.0739 -0.0122,-0.038 -0.0107,-0.0387 0.0617,-0.0463 0.0636,-0.0444 0.0652,-0.0423 0.0671,-0.0402 0.0689,-0.0381 0.0706,-0.0359 0.0724,-0.0336 0.0742,-0.0312 0.076,-0.0288 0.0778,-0.0264 0.0796,-0.0239 0.0815,-0.0212 0.0832,-0.0187 0.0851,-0.0159 0.0869,-0.0131 0.0887,-0.0103 0.0716,-0.0061 0.0728,-0.0043 0.0739,-0.0026 0.075,-6e-4 z"
       id="path11" />
    <path
       style="fill:#000000;fill-opacity:1;fill-rule:evenodd;stroke:none"
       d="m 20.575,72.196 -0.0047,0.0228 -0.0052,0.0227 -0.0058,0.0225 -0.0063,0.0224 -0.007,0.0221 -0.0074,0.022 -0.0081,0.0217 -0.0086,0.0216 -0.0091,0.0213 -0.0097,0.0211 -0.0102,0.0208 -0.0107,0.0206 -0.0113,0.0203 -0.0118,0.02 -0.0123,0.0197 -0.0129,0.0195 -0.8268,0.5689 h -1.7839 l 0.0474,-0.0385 0.0478,-0.038 0.096,-0.0752 0.0958,-0.0755 0.0475,-0.0385 0.0469,-0.0392 0.3072,-0.1606 0.3036,-0.1653 0.3001,-0.1696 0.2971,-0.1735 0.2942,-0.1772 0.2917,-0.1805 0.2893,-0.1834 0.2872,-0.1862 z"
       id="path12" />
    <path
       style="fill:#000000;fill-opacity:1;fill-rule:evenodd;stroke:none"
       d="m 81.56,11.8378 -0.1275,0.3255 -0.059,0.1654 -0.0559,0.1672 -0.0524,0.169 -0.0491,0.1709 -0.0456,0.1728 -0.0421,0.1747 -0.0383,0.1767 -0.0347,0.1787 -0.0308,0.1808 -0.027,0.1828 -0.0229,0.185 -0.0189,0.1872 -0.0164,0.3539 0.0148,0.3379 0.044,0.3228 0.0715,0.3087 0.0973,0.2957 0.1212,0.2835 0.1433,0.2724 0.1637,0.2622 0.1822,0.2531 0.199,0.2449 0.2139,0.2377 0.2271,0.2316 0.4867,0.4484 0.5179,0.4354 1.0722,0.8634 0.5256,0.4438 0.4996,0.4624 0.2355,0.2406 0.2237,0.2482 0.2099,0.2568 0.1945,0.2664 0.1772,0.2769 0.1582,0.2885 0.1373,0.3009 0.1147,0.3145 0.1209,0.1919 0.1259,0.1829 0.1308,0.174 0.1355,0.1656 0.14,0.1573 0.1444,0.1494 0.1487,0.1418 0.1529,0.1343 0.1567,0.1271 0.1606,0.1204 0.1642,0.1137 0.1678,0.1074 0.3453,0.197 0.3576,0.175 0.3687,0.1552 0.3784,0.1376 0.387,0.1221 0.3944,0.1089 0.4006,0.0979 0.4057,0.089 0.8213,0.1601 v 0 l 0.9333,0.1721 0.4646,0.09 0.4614,0.0961 0.4566,0.105 0.4503,0.1166 0.4426,0.131 0.2179,0.0718 0.2155,0.0763 0.4027,0.1213 0.396,0.1345 0.3898,0.1466 0.3841,0.1578 0.379,0.1679 0.3743,0.1771 0.7368,0.3776 0.7244,0.402 0.7159,0.4184 1.4232,0.8537 0.6139,0.3607 0.6193,0.3499 0.6275,0.3336 0.3176,0.1592 0.3207,0.1531 0.3241,0.1464 0.3277,0.1392 0.3319,0.1311 0.3362,0.1225 0.3409,0.1132 0.346,0.1033 0.3513,0.0926 0.3571,0.0814 0.3463,0.1913 0.4252,0.2003 0.997,0.4093 1.95,0.7262 0.5927,0.244 0.122,0.0763 0.008,0.0248 -0.0318,0.015 -0.193,-0.0013 -0.3844,-0.0469 -1.4327,-0.2489 -4.8371,-1.433 -0.5979,-0.2059 -0.5897,-0.2216 -0.5793,-0.2404 -0.5669,-0.2619 -0.5525,-0.2865 -0.536,-0.314 -0.5175,-0.3445 -0.4969,-0.3778 -0.0331,-0.0248 -0.0334,-0.024 -0.0674,-0.0467 -0.0676,-0.0464 -0.0335,-0.0238 -0.0332,-0.0245 h -10e-5 L 99.7901,29.0342 99.3583,28.7275 98.9216,28.431 98.4794,28.1457 98.0313,27.873 97.5769,27.6137 97.1159,27.369 96.6478,27.1401 96.1722,26.9279 95.6886,26.7337 95.1968,26.5585 94.6962,26.4034 94.1865,26.2695 93.6673,26.1579 93.1381,26.0697 92.5985,26.0061 h -0.0207 l -0.2872,0.02 -0.28,0.0044 -0.2728,-0.0107 -0.266,-0.0254 -0.2592,-0.0393 -0.2528,-0.0528 -0.2466,-0.0658 -0.2405,-0.078 L 90.2379,25.6687 90.0088,25.5676 89.785,25.4559 89.5664,25.3342 89.3527,25.2029 89.1438,25.0626 88.7392,24.7574 88.3509,24.4231 87.9772,24.0642 87.6162,23.6851 87.2664,23.2904 86.9259,22.8846 86.593,22.4721 85.9431,21.6451 85.6409,21.304 85.3258,20.9743 85,20.654 l -0.3342,-0.3131 -1.3739,-1.2212 -0.3411,-0.308 -0.3356,-0.3133 -0.3277,-0.3206 -0.3176,-0.3299 -0.305,-0.3415 -0.2901,-0.3551 -0.273,-0.3707 -0.2535,-0.3884 -0.1029,-0.1305 -0.0936,-0.1328 -0.0845,-0.1351 -0.0756,-0.1372 -0.067,-0.1392 -0.0587,-0.1412 -0.0506,-0.1431 -0.0428,-0.1449 -0.0352,-0.1465 -0.0279,-0.1482 -0.0208,-0.1496 -0.0141,-0.151 -0.0087,-0.306 0.0153,-0.3104 0.0374,-0.3142 0.0574,-0.3172 0.0753,-0.3196 0.0912,-0.321 0.105,-0.3219 0.1167,-0.3219 0.1265,-0.3213 0.1341,-0.3198 v 0 l 0.7746,-5e-4 z"
       id="path13" />
    <path
       style="fill:#000000;fill-opacity:1;fill-rule:evenodd;stroke:none"
       d="m 74.4249,9.3668 -0.3133,0.2678 -0.3064,0.273 -0.2986,0.2788 -0.2895,0.2855 -0.2793,0.2927 -0.2681,0.3008 -0.2557,0.3097 -0.2422,0.3192 -0.2276,0.3294 -0.2119,0.3406 -0.1951,0.3523 -0.1771,0.3648 -0.158,0.3781 -0.1378,0.392 -0.061,0.2016 -0.0556,0.2053 -0.0499,0.2091 -0.0442,0.2132 -0.2392,0.5571 -0.2686,0.5788 -0.5753,1.2066 -0.2818,0.6198 -0.2612,0.6255 -0.2281,0.6271 -0.1825,0.6247 -0.0703,0.3103 -0.0541,0.3081 -0.0365,0.3055 -0.0174,0.3025 0.0035,0.2988 0.0258,0.2947 0.0497,0.2902 0.0752,0.285 0.1021,0.2795 0.1308,0.2733 0.1609,0.2667 0.1926,0.2596 0.2259,0.252 0.2607,0.2439 0.2972,0.2353 0.335,0.2262 0.739,0.359 0.7574,0.2999 0.7733,0.2496 0.7864,0.208 0.797,0.1749 0.8048,0.1505 1.6229,0.2625 1.6229,0.2687 0.8049,0.1584 0.7969,0.1858 0.7864,0.222 0.7733,0.2669 0.7574,0.3203 0.7389,0.3824 0.2659,0.0446 0.2607,0.0537 0.5065,0.1337 0.4879,0.1662 0.471,0.1961 0.4553,0.2232 0.4414,0.2477 0.4289,0.2694 0.4178,0.2885 0.4084,0.3047 0.4004,0.3183 0.7829,0.6665 1.5366,1.3765 0.2581,0.1626 0.2639,0.1461 0.2693,0.1308 0.2742,0.1167 0.5616,0.1962 0.576,0.1545 0.5871,0.1226 0.5946,0.1004 1.1977,0.1735 0.596,0.0926 0.5895,0.1094 0.5794,0.1361 0.5658,0.1725 0.2767,0.1029 0.272,0.1157 0.2669,0.1297 0.2613,0.1448 0.2552,0.1613 0.2488,0.1789 0.2419,0.1977 0.2345,0.2179 0.3426,0.1841 0.3308,0.2045 0.3201,0.2232 0.3104,0.2401 0.3016,0.2552 0.2938,0.2686 0.5684,0.5702 0.5491,0.6024 0.5379,0.6205 1.0736,1.2386 0.5516,0.5898 0.5719,0.5513 0.2962,0.2568 0.3042,0.2418 0.3132,0.2251 0.3233,0.2067 0.3343,0.1864 0.3464,0.1644 0.3594,0.1406 0.3734,0.1151 0.3884,0.0877 0.4044,0.0587 0.4214,0.0278 0.4393,-0.0048 0.34,0.1485 0.3233,0.1271 0.3066,0.1059 0.29,0.0847 0.2732,0.0635 0.2567,0.0424 0.2399,0.0213 0.2234,3e-4 0.2066,-0.0206 0.1901,-0.0417 0.0887,-0.0286 0.0846,-0.0339 0.0805,-0.0391 0.0763,-0.0442 0.0721,-0.0495 0.068,-0.0547 0.0638,-0.0599 0.0597,-0.0651 0.0555,-0.0702 0.0514,-0.0754 0.0472,-0.0806 0.043,-0.0857 v 1.7425 l -3.9134,-0.464 -0.4832,-0.0845 -0.4764,-0.103 -0.4678,-0.1255 -0.4576,-0.1515 -0.4457,-0.1815 -0.4321,-0.2153 -0.4169,-0.2528 -0.2022,-0.1417 -0.1977,-0.1524 -0.4141,-0.5546 -0.4261,-0.5426 -0.4383,-0.5303 -0.4504,-0.5179 -0.4626,-0.5049 -0.4747,-0.4918 -0.4869,-0.4783 -0.4991,-0.4645 -0.5112,-0.4504 -0.5235,-0.436 -0.5356,-0.4213 -0.5479,-0.4063 -0.5601,-0.3909 -0.5724,-0.3752 -0.5846,-0.3593 -0.5968,-0.343 -0.2043,-0.1447 -0.2101,-0.1285 -0.2154,-0.1134 -0.2204,-0.0995 -0.2248,-0.0868 -0.229,-0.0752 -0.4686,-0.1207 -0.48,-0.0886 L 94.0719,33.5915 93.0843,33.4891 92.5915,33.4339 92.1037,33.3635 91.6244,33.2684 91.1567,33.1392 90.9283,33.0589 90.704,32.9665 90.4844,32.8608 90.2697,32.7407 90.0603,32.605 89.8569,32.4526 89.6596,32.2821 89.469,32.0925 88.967,31.6507 88.4558,31.2201 87.9351,30.8022 87.4047,30.3981 86.8645,30.0092 86.3142,29.6367 85.7538,29.2821 85.183,28.9465 84.6016,28.6313 84.0095,28.3378 83.4065,28.0673 82.7925,27.8211 82.1672,27.6005 81.5304,27.4068 80.8821,27.2412 80.222,27.1052 79.4873,26.8107 78.7223,26.5759 77.9336,26.388 77.1279,26.2345 73.8679,25.7108 73.077,25.5391 72.309,25.3258 71.5707,25.0582 71.2147,24.9001 70.8686,24.7237 70.5333,24.5274 70.2095,24.3096 69.8981,24.0687 69.6,23.8032 69.316,23.5115 69.0468,23.192 68.7934,22.843 68.5565,22.4631 68.3467,22.2623 68.1671,22.0568 68.0164,21.847 67.893,21.633 l -0.0974,-0.2178 -0.0731,-0.2215 -0.0501,-0.2249 -0.0286,-0.2281 -0.0085,-0.2309 0.01,-0.2336 0.027,-0.236 0.0427,-0.2381 0.0569,-0.2401 0.0695,-0.2417 0.1713,-0.4874 0.2044,-0.4911 0.2258,-0.4927 0.4689,-0.9826 0.2195,-0.4858 0.194,-0.4796 0.1566,-0.4714 0.0607,-0.232 0.047,-0.2292 0.4411,-0.8842 0.4672,-0.9015 0.2466,-0.4507 0.257,-0.4472 0.2687,-0.4409 0.2816,-0.4322 0.2959,-0.4208 0.3113,-0.4067 0.3282,-0.39 0.3462,-0.3707 0.3657,-0.3487 0.3862,-0.3242 0.4082,-0.297 0.4314,-0.2672 z"
       id="path14" />
    <path
       style="fill:#000000;fill-opacity:1;fill-rule:evenodd;stroke:none"
       d="m 50.2101,51.0868 0.3065,0.0176 0.305,0.0323 0.3035,0.0467 0.3023,0.0604 0.3011,0.0736 0.3,0.0864 0.2991,0.0987 0.2983,0.1103 0.2976,0.1215 0.297,0.1322 0.2967,0.1423 0.2962,0.1519 0.2961,0.161 0.296,0.1697 0.2961,0.1776 1.536,0.5232 1.5532,0.5 1.5496,0.5127 0.7671,0.2724 0.7583,0.2891 0.7472,0.3103 0.7333,0.3359 0.7169,0.3662 0.6978,0.4008 0.6763,0.44 0.6521,0.4836 0.6253,0.5319 0.596,0.5845 0.7886,0.6361 0.8132,0.6022 0.8329,0.5745 0.848,0.5532 3.4471,2.1286 0.8518,0.543 0.8385,0.5601 0.8202,0.5836 0.7973,0.6136 0.7696,0.6498 0.7372,0.6925 0.7001,0.7416 0.6581,0.7971 1.0204,0.6487 1.0452,0.5943 1.0673,0.5458 1.0868,0.5033 1.1035,0.4668 1.1177,0.4361 2.2672,0.8042 4.5872,1.502 2.2775,0.793 1.1255,0.4277 1.113,0.4565 0.5059,0.1224 0.5005,0.136 0.4955,0.1489 0.4908,0.1607 0.4865,0.1715 0.4827,0.1814 0.9552,0.3887 0.9443,0.4167 0.9363,0.4372 1.8613,0.905 -0.4078,0.6904 -1.1812,-0.5105 -1.1855,-0.5034 -1.1923,-0.4905 -1.2019,-0.4722 -0.8428,-0.3997 -0.8604,-0.3878 -0.8766,-0.3648 -0.444,-0.1702 -0.4476,-0.1603 -0.451,-0.1489 -0.4543,-0.136 L 94.6809,74.9666 94.2205,74.8604 93.7574,74.7712 93.2917,74.7003 92.8235,74.6494 92.353,74.6196 91.849,74.361 91.3306,74.1174 90.7998,73.8865 90.2583,73.6659 89.1507,73.2464 88.0225,72.8403 86.8884,72.4288 85.763,71.9933 85.2081,71.7606 84.6609,71.515 84.1233,71.2541 83.597,70.9754 l -0.4229,-0.2675 -0.4337,-0.2571 -0.8919,-0.4904 -1.8204,-0.9408 -0.8943,-0.4815 -0.4356,-0.2503 -0.425,-0.2593 -0.4124,-0.2702 -0.3975,-0.2831 -0.3805,-0.298 -0.3614,-0.3147 -0.421,-0.4402 -0.4342,-0.4204 -0.446,-0.4026 -0.4565,-0.3867 -0.466,-0.3726 -0.474,-0.3605 -0.9673,-0.6923 -0.9846,-0.6669 -0.9921,-0.6565 -0.9893,-0.6617 -0.9768,-0.6819 -0.0267,-0.0727 -0.0292,-0.0712 -0.0316,-0.0699 -0.0339,-0.0684 -0.0362,-0.0669 -0.0384,-0.0653 -0.0833,-0.1259 -0.0915,-0.119 -0.0994,-0.112 -0.1066,-0.1046 -0.1136,-0.0968 -0.1201,-0.0886 -0.1261,-0.0801 -0.1317,-0.0712 -0.1368,-0.0621 -0.1414,-0.0524 -0.0724,-0.0226 -0.0734,-0.02 L 67.547,59.733 67.4718,59.7182 67.3957,59.706 67.3189,59.6965 67.2781,59.6613 67.237,59.6266 67.1541,59.5581 67.1128,59.5237 67.0716,59.489 67.0309,59.4537 66.9908,59.4175 66.5867,58.9976 66.1684,58.5953 65.7363,58.211 l -0.4456,-0.3655 -0.4586,-0.3464 -0.4714,-0.3265 -0.4836,-0.306 -0.4955,-0.2851 -0.507,-0.2634 -0.5181,-0.2412 -0.5289,-0.2185 -0.5392,-0.1951 -0.5491,-0.1711 -0.5587,-0.1466 -0.5678,-0.1215 -0.5766,-0.0958 -0.5564,-0.2874 -0.564,-0.2687 -0.5709,-0.2516 -0.577,-0.2364 -0.5825,-0.2228 -0.5872,-0.2109 -1.1859,-0.3933 -4.7926,-1.4444 -0.1404,-0.0047 -0.1402,0.0024 -0.1398,0.0092 -0.1392,0.0159 -0.1385,0.0224 -0.1374,0.0287 -0.1363,0.0348 -0.135,0.0406 -0.2649,0.098 -0.2572,0.1192 -0.2477,0.1387 -0.2369,0.1566 -0.2243,0.173 -0.2103,0.1877 -0.1946,0.2008 -0.1774,0.2125 -0.1587,0.2224 -0.1383,0.2308 -0.1165,0.2375 -0.0495,0.1209 -0.0435,0.1219 -0.7204,5e-4 0.0122,-0.1423 0.0204,-0.1422 0.029,-0.1422 0.0379,-0.142 0.0471,-0.1417 0.0566,-0.1415 0.0664,-0.1411 0.0766,-0.1407 0.0871,-0.1403 0.0978,-0.1397 0.1089,-0.1391 0.1203,-0.1385 0.132,-0.1378 0.144,-0.137 0.1564,-0.1362 0.169,-0.1352 0.1986,-0.1052 0.1975,-0.0979 0.1965,-0.0905 0.1956,-0.0834 0.1946,-0.0764 0.1937,-0.0694 0.1927,-0.0626 0.1919,-0.0559 0.191,-0.0494 0.1902,-0.0428 0.1894,-0.0364 0.1886,-0.0302 0.1878,-0.024 0.1872,-0.018 0.1864,-0.0121 0.1858,-0.0063 z"
       id="path15" />
    <path
       style="fill:#000000;fill-opacity:1;fill-rule:evenodd;stroke:none"
       d="M 57.1888,58.8661 Z"
       id="path16" />
    <path
       style="fill:#000000;fill-opacity:1;fill-rule:evenodd;stroke:none"
       d="m 53.544,3.455 -0.0247,0.1205 -0.0388,0.1166 -0.052,0.1128 -0.0644,0.1093 -0.0762,0.1057 -0.087,0.1024 -0.0971,0.0992 -0.1064,0.0961 -0.1151,0.0932 -0.1228,0.0903 -0.2659,0.1728 -0.2877,0.163 -0.3033,0.1545 -0.3128,0.1468 -0.3159,0.1403 -0.6166,0.2654 -0.2883,0.1271 -0.2666,0.1249 -0.2387,0.1236 -0.2047,0.1234 -1.0844,0.4801 -1.0741,0.5015 -2.1204,1.0609 -2.0879,1.1274 -2.0614,1.1812 -2.0403,1.2223 -2.0252,1.2508 -4.0278,2.536 -0.8726,0.4805 -0.4466,0.2337 -0.4526,0.2259 -0.4582,0.2151 -0.4631,0.2017 -0.4676,0.1855 -0.4714,0.1666 -0.4747,0.1449 -0.4775,0.1206 -0.4797,0.0934 -0.4813,0.0635 -0.4824,0.0309 -0.483,-0.0044 -0.2415,-0.0164 -0.2414,-0.0262 -0.2413,-0.0364 -0.2411,-0.047 -0.3901,-0.0974 -0.3565,-0.1153 -0.324,-0.132 -0.2923,-0.1479 -0.2613,-0.1627 -0.2314,-0.1765 -0.2023,-0.1894 -0.1739,-0.2011 -0.1466,-0.212 -0.12,-0.2218 -0.0944,-0.2307 -0.0696,-0.2384 -0.0456,-0.2453 -0.0226,-0.2511 -4e-4,-0.2559 0.0209,-0.2597 0.0414,-0.2626 0.061,-0.2644 0.0797,-0.2652 0.0976,-0.265 0.1145,-0.2639 0.1307,-0.2616 0.146,-0.2585 0.1603,-0.2544 0.1738,-0.2491 0.1865,-0.243 0.1983,-0.2358 0.2092,-0.2276 0.2193,-0.2184 0.2284,-0.2083 0.2368,-0.1971 0.2442,-0.1849 9e-4,-9e-4 9e-4,-10e-4 0.0018,-0.0019 0.0019,-0.0018 0.0019,-0.0019 0.0038,-0.0037 0.0019,-0.0019 0.0019,-0.0019 h 0.4925 l -0.0152,0.0138 -0.0155,0.0135 -0.0312,0.0266 -0.0311,0.0267 -0.0154,0.0136 -0.0151,0.0138 -0.3214,0.3623 -0.3202,0.4022 -0.3102,0.4344 -0.291,0.459 -0.2629,0.476 -0.2259,0.4854 -0.0963,0.2438 -0.0837,0.2433 -0.0699,0.2419 -0.055,0.2394 -0.039,0.236 -0.022,0.2318 -0.0037,0.2264 0.0156,0.2202 0.0361,0.213 0.0577,0.2049 0.0805,0.1957 0.1042,0.1858 0.1292,0.1747 0.1553,0.1628 0.1825,0.1498 0.2108,0.1361 0.2403,0.1212 0.2708,0.1054 0.3025,0.0887 0.3353,0.071 0.5762,-0.0311 0.5729,-0.0598 0.5692,-0.0865 0.5655,-0.1113 0.5615,-0.1341 0.5572,-0.1549 0.5528,-0.1738 0.5481,-0.1907 0.5432,-0.2057 0.5382,-0.2185 1.06,-0.4683 1.037,-0.4964 1.0123,-0.509 0.9135,-0.5603 0.9033,-0.5798 1.7862,-1.1975 1.7765,-1.215 1.7882,-1.1927 0.905,-0.5755 0.9158,-0.5549 0.9292,-0.5293 0.9453,-0.4988 0.9641,-0.4632 0.9854,-0.4227 1.0094,-0.3772 1.0361,-0.3266 0.4267,-0.2134 0.4173,-0.2276 0.4085,-0.2408 0.4002,-0.2533 0.3924,-0.2647 0.3852,-0.2753 0.3785,-0.2849 0.3724,-0.2937 z"
       id="path17" />
  </g>
</svg>
