<?xml version="1.0" encoding="UTF-8" standalone="no"?>
<svg
   data-stacking-context="true"
   aria-owns="qr-code-container"
   width="174"
   height="174"
   viewBox="194.57812 108 174 174"
   version="1.1"
   id="svg342"
   sodipodi:docname="qr-code-container.svg"
   inkscape:version="1.3.2 (091e20e, 2023-11-25, custom)"
   xmlns:inkscape="http://www.inkscape.org/namespaces/inkscape"
   xmlns:sodipodi="http://sodipodi.sourceforge.net/DTD/sodipodi-0.dtd"
   xmlns="http://www.w3.org/2000/svg"
   xmlns:svg="http://www.w3.org/2000/svg">
  <sodipodi:namedview
     id="namedview1"
     pagecolor="#505050"
     bordercolor="#eeeeee"
     borderopacity="1"
     inkscape:showpageshadow="0"
     inkscape:pageopacity="0"
     inkscape:pagecheckerboard="0"
     inkscape:deskcolor="#505050"
     inkscape:zoom="3.6005552"
     inkscape:cx="96.65176"
     inkscape:cy="58.879808"
     inkscape:window-width="1920"
     inkscape:window-height="1057"
     inkscape:window-x="-8"
     inkscape:window-y="-8"
     inkscape:window-maximized="1"
     inkscape:current-layer="svg342" />
  <defs
     id="defs342" />
  <!-- Generated by dom-to-svg from https://mini-qr-code-generator.vercel.app/ -->
  <style
     id="style1" />
  <path
     id="rect15"
     d="M 12.999995 13 L 12.999995 55 L 54.999995 55 L 54.999995 13 L 12.999995 13 z M 60.999995 13 L 60.999995 19 L 66.999995 19 L 72.999995 19 L 72.999995 13 L 66.999995 13 L 60.999995 13 z M 72.999995 19 L 72.999995 25 L 78.999995 25 L 78.999995 31 L 84.999995 31 L 84.999995 25 L 90.999995 25 L 90.999995 31 L 84.999995 31 L 84.999995 37 L 78.999995 37 L 78.999995 43 L 72.999995 43 L 72.999995 49 L 72.999995 55 L 78.999995 55 L 78.999995 49 L 84.999995 49 L 84.999995 43 L 90.999995 43 L 90.999995 37 L 96.999995 37 L 96.999995 31 L 96.999995 25 L 103 25 L 103 31 L 109 31 L 109 37 L 115 37 L 115 31 L 115 25 L 115 19 L 109 19 L 103 19 L 96.999995 19 L 96.999995 13 L 90.999995 13 L 84.999995 13 L 78.999995 13 L 78.999995 19 L 72.999995 19 z M 84.999995 49 L 84.999995 55 L 90.999995 55 L 90.999995 49 L 84.999995 49 z M 78.999995 37 L 78.999995 31 L 72.999995 31 L 72.999995 37 L 78.999995 37 z M 72.999995 31 L 72.999995 25 L 66.999995 25 L 60.999995 25 L 60.999995 31 L 60.999995 37 L 66.999995 37 L 66.999995 31 L 72.999995 31 z M 121 13 L 121 19 L 127 19 L 127 13 L 121 13 z M 145 13 L 145 55 L 187 55 L 187 13 L 145 13 z M 18.999995 19 L 48.999995 19 L 48.999995 49 L 18.999995 49 L 18.999995 19 z M 133 19 L 133 25 L 133 31 L 133 37 L 139 37 L 139 31 L 139 25 L 139 19 L 133 19 z M 151 19 L 181 19 L 181 49 L 151 49 L 151 19 z M 24.999995 25 L 24.999995 43 L 42.999995 43 L 42.999995 25 L 24.999995 25 z M 121 25 L 121 31 L 127 31 L 127 25 L 121 25 z M 157 25 L 157 43 L 175 43 L 175 25 L 157 25 z M 121 37 L 121 43 L 127 43 L 127 37 L 121 37 z M 121 43 L 115 43 L 115 49 L 121 49 L 121 43 z M 121 49 L 121 55 L 115 55 L 115 49 L 109 49 L 109 55 L 109 61 L 109 67 L 109 73 L 115 73 L 115 67 L 121 67 L 121 61 L 127 61 L 127 55 L 127 49 L 121 49 z M 121 67 L 121 73 L 115 73 L 115 79 L 121 79 L 127 79 L 127 85 L 133 85 L 133 79 L 139 79 L 139 73 L 145 73 L 145 67 L 151 67 L 151 73 L 145 73 L 145 79 L 139 79 L 139 85 L 133 85 L 133 91 L 127 91 L 121 91 L 121 97 L 115 97 L 109 97 L 103 97 L 103 103 L 109 103 L 109 109 L 115 109 L 115 115 L 115 121 L 121 121 L 121 115 L 121 109 L 127 109 L 127 103 L 133 103 L 133 109 L 133 115 L 127 115 L 127 121 L 127 127 L 133 127 L 139 127 L 145 127 L 145 121 L 151 121 L 151 115 L 157 115 L 157 109 L 163 109 L 163 115 L 169 115 L 169 109 L 169 103 L 163 103 L 157 103 L 157 97 L 157 91 L 151 91 L 151 97 L 145 97 L 145 103 L 151 103 L 151 109 L 145 109 L 139 109 L 139 103 L 139 97 L 139 91 L 145 91 L 145 85 L 151 85 L 151 79 L 157 79 L 157 73 L 163 73 L 163 67 L 157 67 L 157 61 L 151 61 L 145 61 L 139 61 L 133 61 L 133 67 L 127 67 L 121 67 z M 163 67 L 169 67 L 169 73 L 169 79 L 163 79 L 157 79 L 157 85 L 163 85 L 169 85 L 175 85 L 175 79 L 181 79 L 181 73 L 175 73 L 175 67 L 175 61 L 169 61 L 163 61 L 163 67 z M 175 85 L 175 91 L 175 97 L 181 97 L 181 91 L 181 85 L 175 85 z M 181 97 L 181 103 L 175 103 L 175 109 L 181 109 L 187 109 L 187 103 L 187 97 L 181 97 z M 175 103 L 175 97 L 169 97 L 169 103 L 175 103 z M 163 115 L 157 115 L 157 121 L 163 121 L 163 115 z M 157 121 L 151 121 L 151 127 L 157 127 L 157 121 z M 151 127 L 145 127 L 145 133 L 139 133 L 133 133 L 133 139 L 133 145 L 127 145 L 121 145 L 121 151 L 115 151 L 115 157 L 121 157 L 121 163 L 127 163 L 133 163 L 133 169 L 127 169 L 121 169 L 121 163 L 115 163 L 115 157 L 109 157 L 109 151 L 109 145 L 109 139 L 115 139 L 115 133 L 115 127 L 115 121 L 109 121 L 103 121 L 103 127 L 96.999995 127 L 96.999995 121 L 103 121 L 103 115 L 96.999995 115 L 96.999995 109 L 90.999995 109 L 90.999995 115 L 84.999995 115 L 84.999995 121 L 90.999995 121 L 90.999995 127 L 90.999995 133 L 96.999995 133 L 96.999995 139 L 103 139 L 103 145 L 96.999995 145 L 90.999995 145 L 90.999995 151 L 96.999995 151 L 103 151 L 103 157 L 103 163 L 109 163 L 109 169 L 115 169 L 115 175 L 109 175 L 103 175 L 103 169 L 96.999995 169 L 90.999995 169 L 90.999995 163 L 84.999995 163 L 84.999995 169 L 84.999995 175 L 90.999995 175 L 90.999995 181 L 90.999995 187 L 96.999995 187 L 103 187 L 103 181 L 109 181 L 115 181 L 121 181 L 121 175 L 127 175 L 133 175 L 139 175 L 139 181 L 139 187 L 145 187 L 145 181 L 151 181 L 151 175 L 145 175 L 145 169 L 151 169 L 157 169 L 157 163 L 163 163 L 163 169 L 169 169 L 169 163 L 169 157 L 175 157 L 181 157 L 181 151 L 175 151 L 169 151 L 163 151 L 163 145 L 169 145 L 169 139 L 163 139 L 163 133 L 157 133 L 151 133 L 151 127 z M 163 133 L 169 133 L 169 127 L 163 127 L 163 133 z M 169 127 L 175 127 L 175 121 L 169 121 L 169 127 z M 169 133 L 169 139 L 175 139 L 175 145 L 181 145 L 181 151 L 187 151 L 187 145 L 187 139 L 187 133 L 187 127 L 187 121 L 181 121 L 181 127 L 181 133 L 175 133 L 169 133 z M 169 169 L 169 175 L 175 175 L 175 169 L 169 169 z M 175 169 L 181 169 L 181 163 L 175 163 L 175 169 z M 175 175 L 175 181 L 181 181 L 187 181 L 187 175 L 181 175 L 175 175 z M 175 181 L 169 181 L 163 181 L 163 187 L 169 187 L 175 187 L 175 181 z M 163 169 L 157 169 L 157 175 L 163 175 L 163 169 z M 151 181 L 151 187 L 157 187 L 157 181 L 151 181 z M 84.999995 163 L 84.999995 157 L 78.999995 157 L 78.999995 163 L 84.999995 163 z M 78.999995 157 L 78.999995 151 L 72.999995 151 L 72.999995 145 L 66.999995 145 L 60.999995 145 L 60.999995 151 L 66.999995 151 L 66.999995 157 L 66.999995 163 L 72.999995 163 L 72.999995 157 L 78.999995 157 z M 66.999995 163 L 60.999995 163 L 60.999995 169 L 66.999995 169 L 66.999995 163 z M 72.999995 145 L 78.999995 145 L 78.999995 151 L 84.999995 151 L 84.999995 145 L 84.999995 139 L 78.999995 139 L 72.999995 139 L 72.999995 145 z M 72.999995 139 L 72.999995 133 L 72.999995 127 L 78.999995 127 L 78.999995 133 L 84.999995 133 L 84.999995 127 L 84.999995 121 L 78.999995 121 L 78.999995 115 L 84.999995 115 L 84.999995 109 L 84.999995 103 L 78.999995 103 L 78.999995 109 L 72.999995 109 L 72.999995 115 L 72.999995 121 L 66.999995 121 L 66.999995 115 L 60.999995 115 L 54.999995 115 L 54.999995 121 L 60.999995 121 L 60.999995 127 L 66.999995 127 L 66.999995 133 L 66.999995 139 L 72.999995 139 z M 60.999995 127 L 54.999995 127 L 54.999995 133 L 60.999995 133 L 60.999995 127 z M 54.999995 133 L 48.999995 133 L 48.999995 139 L 54.999995 139 L 54.999995 133 z M 48.999995 133 L 48.999995 127 L 42.999995 127 L 36.999995 127 L 30.999995 127 L 30.999995 133 L 36.999995 133 L 42.999995 133 L 48.999995 133 z M 30.999995 133 L 24.999995 133 L 24.999995 139 L 30.999995 139 L 30.999995 133 z M 48.999995 127 L 54.999995 127 L 54.999995 121 L 48.999995 121 L 48.999995 127 z M 54.999995 115 L 54.999995 109 L 48.999995 109 L 42.999995 109 L 42.999995 115 L 48.999995 115 L 54.999995 115 z M 42.999995 109 L 42.999995 103 L 42.999995 97 L 36.999995 97 L 30.999995 97 L 30.999995 103 L 24.999995 103 L 24.999995 109 L 24.999995 115 L 30.999995 115 L 30.999995 121 L 36.999995 121 L 36.999995 115 L 36.999995 109 L 42.999995 109 z M 24.999995 115 L 18.999995 115 L 18.999995 121 L 18.999995 127 L 24.999995 127 L 24.999995 121 L 24.999995 115 z M 18.999995 127 L 12.999995 127 L 12.999995 133 L 12.999995 139 L 18.999995 139 L 18.999995 133 L 18.999995 127 z M 42.999995 97 L 48.999995 97 L 48.999995 91 L 42.999995 91 L 42.999995 97 z M 48.999995 91 L 54.999995 91 L 54.999995 85 L 48.999995 85 L 48.999995 91 z M 54.999995 85 L 60.999995 85 L 66.999995 85 L 72.999995 85 L 72.999995 79 L 66.999995 79 L 66.999995 73 L 60.999995 73 L 54.999995 73 L 48.999995 73 L 48.999995 79 L 54.999995 79 L 54.999995 85 z M 48.999995 73 L 48.999995 67 L 42.999995 67 L 42.999995 73 L 48.999995 73 z M 48.999995 67 L 54.999995 67 L 60.999995 67 L 60.999995 61 L 54.999995 61 L 48.999995 61 L 48.999995 67 z M 60.999995 61 L 66.999995 61 L 66.999995 55 L 66.999995 49 L 66.999995 43 L 60.999995 43 L 60.999995 49 L 60.999995 55 L 60.999995 61 z M 66.999995 73 L 72.999995 73 L 72.999995 67 L 66.999995 67 L 66.999995 73 z M 72.999995 85 L 72.999995 91 L 66.999995 91 L 60.999995 91 L 60.999995 97 L 66.999995 97 L 66.999995 103 L 72.999995 103 L 72.999995 97 L 78.999995 97 L 78.999995 91 L 78.999995 85 L 72.999995 85 z M 78.999995 85 L 84.999995 85 L 84.999995 79 L 84.999995 73 L 78.999995 73 L 78.999995 79 L 78.999995 85 z M 84.999995 85 L 84.999995 91 L 90.999995 91 L 96.999995 91 L 96.999995 85 L 90.999995 85 L 84.999995 85 z M 96.999995 85 L 103 85 L 103 91 L 109 91 L 109 85 L 115 85 L 115 79 L 109 79 L 103 79 L 96.999995 79 L 96.999995 85 z M 96.999995 79 L 96.999995 73 L 103 73 L 103 67 L 96.999995 67 L 90.999995 67 L 90.999995 73 L 90.999995 79 L 96.999995 79 z M 115 85 L 115 91 L 121 91 L 121 85 L 115 85 z M 103 91 L 96.999995 91 L 96.999995 97 L 103 97 L 103 91 z M 96.999995 97 L 90.999995 97 L 84.999995 97 L 84.999995 103 L 90.999995 103 L 96.999995 103 L 96.999995 97 z M 48.999995 97 L 48.999995 103 L 54.999995 103 L 54.999995 97 L 48.999995 97 z M 103 115 L 109 115 L 109 109 L 103 109 L 103 115 z M 96.999995 49 L 96.999995 55 L 96.999995 61 L 103 61 L 103 55 L 103 49 L 96.999995 49 z M 133 49 L 133 55 L 139 55 L 139 49 L 133 49 z M 12.999995 61 L 12.999995 67 L 18.999995 67 L 18.999995 73 L 24.999995 73 L 30.999995 73 L 30.999995 67 L 24.999995 67 L 24.999995 61 L 18.999995 61 L 12.999995 61 z M 30.999995 67 L 36.999995 67 L 36.999995 61 L 30.999995 61 L 30.999995 67 z M 30.999995 73 L 30.999995 79 L 24.999995 79 L 24.999995 85 L 18.999995 85 L 12.999995 85 L 12.999995 91 L 12.999995 97 L 18.999995 97 L 24.999995 97 L 24.999995 91 L 30.999995 91 L 36.999995 91 L 36.999995 85 L 42.999995 85 L 42.999995 79 L 36.999995 79 L 36.999995 73 L 30.999995 73 z M 181 61 L 181 67 L 187 67 L 187 61 L 181 61 z M 12.999995 103 L 12.999995 109 L 18.999995 109 L 18.999995 103 L 12.999995 103 z M 121 133 L 121 139 L 127 139 L 127 133 L 121 133 z M 139 139 L 145 139 L 151 139 L 157 139 L 157 145 L 157 151 L 157 157 L 151 157 L 145 157 L 139 157 L 139 151 L 139 145 L 139 139 z M 12.999995 145 L 12.999995 187 L 54.999995 187 L 54.999995 145 L 12.999995 145 z M 145 145 L 145 151 L 151 151 L 151 145 L 145 145 z M 18.999995 151 L 48.999995 151 L 48.999995 181 L 18.999995 181 L 18.999995 151 z M 24.999995 157 L 24.999995 175 L 42.999995 175 L 42.999995 157 L 24.999995 157 z M 72.999995 169 L 72.999995 175 L 72.999995 181 L 78.999995 181 L 78.999995 175 L 78.999995 169 L 72.999995 169 z M 78.999995 181 L 78.999995 187 L 84.999995 187 L 84.999995 181 L 78.999995 181 z M 72.999995 181 L 66.999995 181 L 66.999995 175 L 60.999995 175 L 60.999995 181 L 60.999995 187 L 66.999995 187 L 72.999995 187 L 72.999995 181 z "
     style="display:inline;fill:#ffffff"
     transform="translate(181.57812,95)" />
</svg>
