<?xml version="1.0" encoding="UTF-8" standalone="no"?>
<!-- Created with Inkscape (http://www.inkscape.org/) -->

<svg
   width="27.289719mm"
   height="5.6589007mm"
   viewBox="0 0 27.289719 5.6589008"
   version="1.1"
   id="svg1"
   xmlns="http://www.w3.org/2000/svg"
   xmlns:svg="http://www.w3.org/2000/svg">
  <defs
     id="defs1" />
  <path
     style="font-size:11.2889px;line-height:1;font-family:FuturaRenner;-inkscape-font-specification:FuturaRenner;letter-spacing:0px;word-spacing:0px;fill:#ffffff;stroke-width:0.05;stroke-linecap:square;stroke-dashoffset:3.59055;paint-order:markers fill stroke"
     d="M 2.3932469,1.8852441 C 2.5851583,1.7723551 2.5512916,1.4675551 2.5287138,1.1966211 2.4271136,1.0611541 2.3480913,0.91439911 2.2239134,0.80151011 c -0.1241779,-0.03387 -0.2709336,-0.05645 -0.4064004,-0.09031 -0.2483558,0.09031 -0.4741338,0.203201 -0.5870228,0.45155599 0.011289,0.1016 -0.011289,0.169334 -0.033867,0.248356 0.033867,0.06773 0.022578,0.191911 0.056445,0.282223 0.033867,0.05644 0.079022,0.124178 0.1016001,0.191911 0.079022,0.03387 0.1241779,0.1016 0.2032002,0.146756 0.1241779,0.01129 0.2483558,0.07902 0.3838226,0.06773 0.1241779,-0.01129 0.225778,-0.07902 0.338667,-0.1016 0.033867,-0.03387 0.067733,-0.07902 0.112889,-0.112889 z M 5.6054411e-8,4.6848911 c 0,0.03387 0.02257800394559,0.07902 0.02257800394559,0.124178 0,0.214489 -0.056445,0.383823 0.022578,0.564445 0.079022,0.09031 0.2032002,0.135467 0.3838226,0.124178 0.18062241,0 0.36124481,0.01129 0.48542272,-0.05644 0.0225778,-0.04516 0.0338667,-0.07902 0.0338667,-0.158045 0,-0.04516 -0.0451556,-0.1016 -0.0338667,-0.158045 0.0451556,-0.180622 -0.0112889,-0.361244 0,-0.530578 0.0112889,-0.214489 0.0225778,-0.553156 -0.0225778,-0.745067 0.0338667,-0.1016 0.0451556,-0.214489 0.0338667,-0.327378 0,-0.07902 0.0112889,-0.225778 -0.0112889,-0.338667 0.0225778,-0.04516 0.0112889,-0.135467 0.0338667,-0.191912 -0.0564445,-0.124178 0.0112889,-0.338667 -0.0338667,-0.496711 -0.0112889,-0.07902 0.0451556,-0.101601 0.0564445,-0.158045 -0.13546681,-0.158045 0.0112889,-0.4064 0,-0.609601 -0.0338667,-0.02258 -0.0112889,-0.07902 -0.0451556,-0.1016 -0.0225778,-0.191911 0.0338667,-0.395111 0.0225778,-0.553156 0,-0.07902 -0.0112889,-0.16933299 -0.0564445,-0.23706699 -0.1016001,-0.06773 -0.2822225,-0.02258 -0.40640042,0 -0.1354668,-0.02258 -0.2709336,-0.07902 -0.3951115,-0.01129 -0.056445,0.03387 -0.033867,0.112889 -0.045156,0.169334 -0.056445,0.24835599 0,0.49671099 0,0.76764499 -0.011289,0.293511 -0.022578,0.587023 0.011289,0.857956 -0.067733,0.259645 0.033867,0.699912 -0.033867,0.959557 0.045156,0.180622 0.011289,0.361245 0,0.530578 0,0.112889 0.022578,0.214489 0.022578,0.327378 z M 2.7770634,2.5851561 c -0.022578,0.124178 -0.022578,0.225778 0.022578,0.338667 -0.011289,0.06773 -0.067733,0.07902 -0.056445,0.169333 v 0.41769 c 0.033867,0.146755 0.045156,0.316089 0.067733,0.474133 0.112889,0.225778 0.1806224,0.530579 0.3048003,0.699912 0.033867,0.04516 0.056445,0.05644 0.090311,0.09031 0.079022,0.06773 0.1241779,0.158045 0.1806224,0.248356 0.1354668,0.07902 0.225778,0.214489 0.338667,0.338667 0.1580446,0.1016 0.3725337,0.146756 0.5531561,0.248356 0.1467557,0 0.2935114,0.04516 0.4402671,0.04516 0.1016001,0.01129 0.2032002,-0.01129 0.3160892,-0.01129 0.112889,0 0.2144891,0.02258 0.3048003,0.01129 0.1467557,0 0.2596448,-0.04516 0.3725338,-0.04516 0.1354668,-0.06773 0.2935114,-0.112889 0.451556,-0.169333 0.2032002,-0.124178 0.3951115,-0.282223 0.5870228,-0.440268 0.1241779,-0.259644 0.4289782,-0.327378 0.4064004,-0.7112 -0.090311,-0.07902 -0.1806224,-0.146756 -0.3048003,-0.191912 -0.090311,-0.07902 -0.1806224,-0.169333 -0.3499559,-0.169333 l -0.1467557,0.293511 c -0.1806224,0.169334 -0.3612448,0.327378 -0.564445,0.474134 -0.1241779,0.02258 -0.2144891,0.06773 -0.3048004,0.112889 -0.1919113,0.04516 -0.4064004,0.05644 -0.6434673,0.04516 C 4.6623088,4.8316481 4.5381309,4.7526281 4.3800863,4.6961831 4.2897753,4.6171631 4.1994639,4.5381391 4.075286,4.4816941 3.962397,4.3123611 3.8043524,4.2107601 3.736619,4.0640051 3.668886,3.9059601 3.6350189,3.7479161 3.691463,3.6350271 3.668885,3.5560071 3.62373,3.4769821 3.668885,3.3979601 c 0.112889,-0.06773 0.2483558,-0.02258 0.3725337,-0.03387 0.338667,-0.02258 0.677334,-0.01129 1.0272899,-0.03387 0.079022,0 0.1241779,0.03387 0.2032002,0.03387 0.3612449,0.02258 0.7224897,-0.05644 1.0611567,0 0.2370669,-0.05644 0.6096006,-0.02258 0.8805342,-0.03387 0.079022,-0.05644 0.067733,-0.2032 0.067733,-0.338667 C 7.2135997,2.8560861 7.2361767,2.6303081 7.2135997,2.4609751 7.1458667,2.2916411 7.066844,2.1335971 7.0329773,1.9416851 6.9313772,1.7836411 6.841066,1.6594631 6.728177,1.5352851 6.69431,1.4449751 6.637866,1.3546631 6.6039991,1.2643511 6.4459545,1.2417711 6.38951,1.1175961 6.2879099,1.0385731 c -0.1241779,-0.02258 -0.1693335,-0.02258 -0.2935114,-0.05644 -0.067733,-0.03387 -0.056444,-0.135467 -0.1580446,-0.146756 -0.1693335,-0.06773 -0.4064005,-0.07902 -0.6208896,-0.124178 -0.1806224,0.02258 -0.3048003,0 -0.4628449,0.03387 -0.1241779,-0.03387 -0.1919113,0.03387 -0.3160892,0 -0.1241779,0.06773 -0.3273781,0.05645 -0.4289782,0.146756 -0.1580446,0.03387 -0.225778,0.15804399 -0.3725337,0.19191099 -0.056445,0.07902 -0.1354668,0.124178 -0.1806224,0.2032 -0.090311,0.03387 -0.1241779,0.124178 -0.2144891,0.169334 -0.056445,0.225778 -0.3048003,0.349956 -0.2483558,0.632178 -0.090311,0.04516 -0.1241779,0.146756 -0.1580446,0.259645 z m 3.5221369,-0.146756 c 0.011289,0.04516 -0.033867,0.03387 -0.011289,0.09031 -0.1241779,0.09031 -0.3160892,0.09031 -0.4967116,0.09031 -0.1693335,0 -0.3273782,-0.03387 -0.4515561,0.01129 -0.1354668,-0.03387 -0.2935114,-0.03387 -0.4741338,-0.03387 -0.033867,0 -0.079022,0.02258 -0.112889,0.02258 -0.045156,0 -0.067733,-0.02258 -0.1016001,-0.02258 -0.090311,0.01129 -0.1693335,0.03387 -0.2483558,0.03387 -0.112889,0.01129 -0.225778,-0.01129 -0.338667,-0.01129 -0.112889,0 -0.2483558,0.02258 -0.338667,-0.05644 -0.022578,-0.237067 0.090311,-0.327378 0.1354668,-0.496712 0.090311,-0.1016 0.1919113,-0.158044 0.2483558,-0.282222 0.056445,-0.01129 0.090311,-0.05644 0.1241779,-0.09031 0.056445,-0.04516 0.1580446,-0.06773 0.2144891,-0.124178 0.1693335,-0.01129 0.3160892,-0.09031 0.4854227,-0.09031 0.1241779,0 0.2483558,0.05644 0.3951115,0.03387 0.090311,0.04516 0.1919114,0.07902 0.3160893,0.09031 0.067733,0.05644 0.1467557,0.101601 0.225778,0.146756 0.1241779,0.124178 0.2370669,0.259645 0.338667,0.406401 0,0.124177 0.067733,0.180622 0.090311,0.282222 z m 3.3076468,2.957692 c 0.022578,-0.03387 0.056445,-0.04516 0.1016001,-0.05644 0.079022,-0.1016 0.112889,-0.237066 0.1806224,-0.338667 0.056445,-0.112889 0.1128894,-0.237066 0.1919114,-0.316089 -0.01129,-0.146755 0.05644,-0.2032 0.07902,-0.3048 0.04516,-0.06773 0.1016,-0.135467 0.135467,-0.214489 0.02258,-0.06773 0.04516,-0.135467 0.05644,-0.214489 0.06773,-0.1016 0.112889,-0.225778 0.180622,-0.316089 0.04516,-0.124178 0.09031,-0.248356 0.180622,-0.327379 0,-0.05644 0.02258,-0.1016 0.03387,-0.158044 0.04516,-0.05644 0.101601,-0.1016 0.124178,-0.191912 0.02258,-0.03387 0.02258,-0.112889 0.03387,-0.158044 0.07902,-0.06773 0.1016,-0.180623 0.146756,-0.270934 0.06773,-0.158044 0.158045,-0.316089 0.259645,-0.440267 0,-0.135467 0.1016,-0.169333 0.124178,-0.270933 0.07902,-0.21449 0.146755,-0.41769 0.270933,-0.587023 0.01129,-0.112889 0.05645,-0.180623 0.06773,-0.28222299 v -0.124178 c 0,-0.02258 -0.02258,-0.03387 -0.01129,-0.05644 0,-0.02258 -0.02258,-0.02258 -0.02258,-0.05645 -0.2032,-0.09031 -0.417689,0.06773 -0.654756,0 -0.06773,0.03387 -0.158045,0.03387 -0.214489,0.06773 -0.05644,0.05644 -0.07902,0.135467 -0.09031,0.214489 -0.06773,0.04516 -0.06773,0.14675599 -0.09031,0.23706699 -0.05644,0.03387 -0.05644,0.124178 -0.124178,0.158044 -0.06773,0.349956 -0.282223,0.609601 -0.428978,0.903112 -0.06773,0.158045 -0.135467,0.31609 -0.2144895,0.462845 -0.067733,0.158045 -0.112889,0.327378 -0.2144891,0.462845 0,0.112889 -0.033867,0.180623 -0.067733,0.248356 -0.045156,0.06773 -0.022578,0.191911 -0.1467557,0.180622 -0.079022,-0.04515 -0.112889,-0.146755 -0.1693335,-0.225778 0,-0.07902 -0.033867,-0.112889 -0.022578,-0.2032 C 9.2343072,3.1496041 9.1891512,3.0480011 9.1778623,2.9238231 9.0198177,2.6754671 8.9295065,2.3706671 8.7827507,2.1223111 8.7714617,1.9755551 8.6811506,1.9078221 8.6585728,1.7610661 8.5908398,1.6820461 8.5456838,1.6030211 8.5005282,1.5014211 8.4553722,1.3998211 8.3876392,1.3207991 8.3763503,1.1740431 8.2747502,1.0724431 8.2295946,0.91439911 8.1505723,0.77893211 c -0.056445,-0.01129 -0.090311,-0.03387 -0.112889,-0.06773 -0.2144891,0.03387 -0.4628449,-0.03387 -0.677334,0.03387 -0.112889,0.124178 -0.090311,0.38382299 -0.045156,0.57573399 0.079022,0.158045 0.1693335,0.3048 0.225778,0.496712 0.079022,0.112889 0.1467557,0.237066 0.2144891,0.372533 0.1016001,0.09031 0.1693335,0.225778 0.2483558,0.338667 0,0.146756 0.1016001,0.2032 0.1467557,0.304801 0.067733,0.07902 0.1241779,0.180622 0.1693335,0.282222 0.022578,0.1016 0.056445,0.191911 0.079022,0.3048 0.011289,0.06773 0.079022,0.09031 0.1016001,0.158045 0,0.07902 0.045156,0.112889 0.033867,0.191911 0.056444,0.05645 0.090311,0.124178 0.112889,0.203201 0.022578,0.07902 0.090311,0.112889 0.1241779,0.191911 0.022578,0.146756 0.1016002,0.259645 0.1580447,0.372534 0.011289,0.01129 0,0.03387 0,0.05644 0,0 0.033867,0.02258 0.033867,0.03387 0.056444,0.1016 0.112889,0.169333 0.1580446,0.270933 0.056444,0.169334 0.1580446,0.293512 0.2370669,0.440267 0.011289,0 0.033867,0 0.033867,0.02258 z M 20.873165,0.99342111 c -0.07902,-0.07902 -0.146756,-0.169334 -0.214489,-0.248356 -0.09031,-0.04516 -0.146756,-0.1016 -0.214489,-0.158045 -0.09031,-0.04515 -0.124178,-0.124177 -0.214489,-0.158044 -0.112889,-0.07902 -0.259645,-0.1016 -0.338667,-0.2032 -0.124178,-0.02258 -0.237067,-0.06773 -0.338667,-0.124178 -0.191911,-0.03387 -0.406401,-0.03387 -0.564445,-0.1015999993618 C 18.739563,0.01128811 18.525074,0.04515811 18.276718,0.05643811 c -0.191911,0.03387 -0.349956,0.1016 -0.553156,0.124178 -0.1016,0.05645 -0.191911,0.124178 -0.327378,0.158045 -0.09031,0.124178 -0.248356,0.191911 -0.349956,0.3048 -0.06773,0.03387 -0.112889,0.1016 -0.158045,0.158045 -0.07902,0.04516 -0.112889,0.112889 -0.180622,0.158044 -0.05645,0.14675599 -0.180622,0.22577799 -0.237067,0.37253399 -0.04516,0.05644 -0.06773,0.124178 -0.1016,0.191911 -0.03387,0.07902 -0.04516,0.158045 -0.112889,0.214489 0,0.135467 -0.04516,0.214489 -0.06773,0.327378 0,0.191912 -0.04516,0.327378 -0.06773,0.496712 -0.01129,0.225778 0.04516,0.417689 -0.03387,0.587023 0.04516,0.06773 0.03387,0.2032 0.03387,0.316089 0.05645,0.2032 0.158045,0.361245 0.191911,0.575734 0.124178,0.1016 0.169334,0.282222 0.304801,0.383823 l 0.316089,0.395111 c 0.124178,0.05644 0.2032,0.158045 0.327378,0.214489 0.112889,0.06773 0.2032,0.158045 0.349956,0.191911 0.05644,0.03387 0.06773,0.09031 0.112889,0.124178 0.191911,-0.01129 0.293511,0.05645 0.440267,0.09031 0.135467,-0.02258 0.270934,0.03387 0.406401,0.03387 0.124177,0.01129 0.259644,-0.02258 0.372533,-0.03387 0.158045,0 0.293512,0.01129 0.428978,0 0.191912,-0.01129 0.361245,-0.101601 0.51929,-0.124178 0.05644,-0.06773 0.158044,-0.07902 0.214489,-0.135467 0.06773,-0.05644 0.158045,-0.1016 0.248356,-0.135467 0.1016,-0.1016 0.237067,-0.180622 0.361245,-0.282222 0.07902,-0.124178 0.169333,-0.237067 0.293511,-0.31609 0.03387,-0.09031 0.07902,-0.180622 0.169334,-0.214489 -0.02258,-0.169333 0.09031,-0.191911 0.124177,-0.316089 0.05645,-0.2032 0.124178,-0.395111 0.169334,-0.609601 0.02258,-0.259644 -0.04516,-0.496711 0,-0.733778 0,-0.01129 0,-0.01129 -0.01129,-0.01129 0,-0.259645 -0.09031,-0.496712 -0.112889,-0.790223 -0.06773,-0.2032 -0.2032,-0.338667 -0.259645,-0.541867 z M 17.813873,4.1656021 c -0.03387,-0.05645 -0.09031,-0.09031 -0.124178,-0.124178 l -0.05644,-0.07902 c -0.02258,-0.01129 -0.05644,-0.01129 -0.06773,-0.03387 -0.09031,-0.07902 -0.180622,-0.158045 -0.237067,-0.248356 -0.03387,-0.05644 -0.05644,-0.135467 -0.09031,-0.191911 -0.03387,-0.06773 -0.07902,-0.112889 -0.1016,-0.180623 -0.04515,-0.225778 -0.09031,-0.440267 -0.07902,-0.733778 0.02258,-0.1016 0.07902,-0.158045 0.07902,-0.282223 0.05645,-0.07902 0.1016,-0.169333 0.124178,-0.282222 0.05645,-0.05645 0.09031,-0.124178 0.124178,-0.214489 0.06773,-0.03387 0.09031,-0.112889 0.158045,-0.146756 0.135466,-0.146756 0.316089,-0.248356 0.462845,-0.383823 0.146755,-0.03387 0.237066,-0.135466 0.349955,-0.2032 0.146756,0.04516 0.293512,0 0.41769,-0.03387 0.259644,-0.01129 0.496711,0.01129 0.7112,0.05644 0.06773,0.05645 0.124178,0.135467 0.225778,0.158045 0.04516,0.09031 0.135467,0.135466 0.237067,0.158044 0.09031,0.146756 0.214489,0.259645 0.338667,0.372534 0,0.1016 0.05645,0.146756 0.09031,0.214489 0.01129,0.09031 0.05644,0.135467 0.1016,0.180622 -0.01129,0.169334 0.05644,0.248356 0.09031,0.361245 -0.02258,0.1016 0.02258,0.191912 0.02258,0.282223 -0.01129,0.124178 -0.05645,0.237067 -0.05645,0.372534 -0.09031,0.158044 -0.158044,0.338667 -0.237067,0.519289 -0.124178,0.158045 -0.259644,0.3048 -0.4064,0.440267 -0.135467,0.03387 -0.225778,0.112889 -0.338667,0.180622 -0.112889,0.01129 -0.191911,0.04516 -0.282223,0.06773 -0.09031,0.03387 -0.214489,0.02258 -0.3048,0.05644 -0.04516,-0.03387 -0.124178,-0.02258 -0.180622,-0.05644 -0.06773,0 -0.1016,0.03387 -0.169334,0.03387 -0.07902,-0.03387 -0.2032,-0.02258 -0.293511,-0.04516 z m 6.08472,0.778934 c -0.05645,-0.225778 -0.169334,-0.383823 -0.282223,-0.553156 -0.135467,-0.05644 -0.282222,-0.146756 -0.417689,-0.146756 -0.214489,0 -0.293512,0.1016 -0.406401,0.237067 -0.05644,0.07902 -0.135466,0.169334 -0.169333,0.237067 -0.06773,0.135467 -0.1016,0.462845 -0.04516,0.575734 0.05645,0.07902 0.146756,0.1016 0.203201,0.158044 0.05644,0.07902 0.135466,0.101601 0.237066,0.146756 0.282223,0 0.496712,-0.06773 0.699912,-0.169333 0.06773,-0.146756 0.169334,-0.270934 0.2032,-0.462845 -0.01129,-0.01129 -0.01129,-0.02258 -0.02258,-0.02258 z m 3.296354,-2.122313 c 0,-0.564445 -0.01129,-1.117601 0,-1.636891 0.01129,-0.135467 0.02258,-0.27093299 0.02258,-0.40639999 0,-0.124178 0.01129,-0.270934 -0.06773,-0.372534 -0.112889,-0.06773 -0.248356,-0.02258 -0.338667,-0.02258 -0.04516,0.01129 -0.09031,-0.01129 -0.124178,-0.01129 -0.169333,0 -0.327378,0.03387 -0.496711,0.03387 H 25.68224 c -0.169333,0 -0.338667,-0.02258 -0.496711,0.03387 -0.06773,0.1016 -0.05645,0.248356 -0.06773,0.395111 -0.01129,0.146756 -0.03387,0.30480099 0,0.44026699 0.04516,0.03387 0.07902,0.06773 0.1016,0.112889 0.304801,0.09031 0.553156,-0.07902 0.914401,-0.03387 0.124178,0.09031 0.07902,0.361244 0.158045,0.508 -0.03387,0.191911 0.01129,0.361245 -0.03387,0.553156 l 0.03387,0.270934 c -0.05645,0.248356 -0.02258,0.519289 0.02258,0.778934 -0.05645,0.383823 0.02258,0.880534 -0.05645,1.23049 0.07902,0.248356 -0.02258,0.51929 0,0.745068 0.03387,0.01129 0.05645,0.05644 0.06773,0.09031 0.135467,0.09031 0.338667,0.04515 0.51929,0.03387 0.124178,0 0.248356,0.03387 0.338667,-0.01129 0.05644,-0.09031 0.124178,-0.158045 0.1016,-0.327379 0,-0.02258 -0.02258,-0.02258 -0.01129,-0.04516 -0.01129,-0.112889 -0.04516,-0.225778 -0.05644,-0.338667 0,-0.03387 0.02258,-0.05645 0.02258,-0.09031 0,-0.03387 -0.02258,-0.07902 -0.02258,-0.112889 -0.01129,-0.259645 0.02258,-0.541868 -0.03387,-0.767646 0.06773,-0.169333 0.02258,-0.395111 0.01129,-0.598311 z"
     id="text3"
     aria-label="rev 0.1" />
</svg>
