<?xml version="1.0" encoding="UTF-8" standalone="no"?>
<svg
   version="1.1"
   width="109.4486mm"
   height="86.9188mm"
   viewBox="0.0000 0.0000 109.4486 86.9188"
   id="svg303"
   sodipodi:docname="Back-acrylic-case.svg"
   inkscape:version="1.3.2 (091e20e, 2023-11-25, custom)"
   xmlns:inkscape="http://www.inkscape.org/namespaces/inkscape"
   xmlns:sodipodi="http://sodipodi.sourceforge.net/DTD/sodipodi-0.dtd"
   xmlns="http://www.w3.org/2000/svg"
   xmlns:svg="http://www.w3.org/2000/svg"
   xmlns:rdf="http://www.w3.org/1999/02/22-rdf-syntax-ns#"
   xmlns:cc="http://creativecommons.org/ns#"
   xmlns:dc="http://purl.org/dc/elements/1.1/">
  <defs
     id="defs303" />
  <sodipodi:namedview
     id="namedview303"
     pagecolor="#505050"
     bordercolor="#eeeeee"
     borderopacity="1"
     inkscape:showpageshadow="0"
     inkscape:pageopacity="0"
     inkscape:pagecheckerboard="0"
     inkscape:deskcolor="#505050"
     inkscape:document-units="mm"
     inkscape:zoom="22.627418"
     inkscape:cx="317.57933"
     inkscape:cy="227.68838"
     inkscape:window-width="1920"
     inkscape:window-height="1057"
     inkscape:window-x="-8"
     inkscape:window-y="-8"
     inkscape:window-maximized="1"
     inkscape:current-layer="svg303" />
  <title
     id="title1">SVG Image created as K02-B_Mask.svg date 2024/11/16 13:16:07 </title>
  <desc
     id="desc1">Image generated by PCBNEW </desc>
  <g
     id="g1"
     inkscape:label="heat insert holes OD3.2 need 3.0mm">
    <circle
       cx="35.3153"
       cy="24.286301"
       r="1.4748579"
       id="circle244"
       style="fill:none;fill-opacity:1;stroke:#000000;stroke-width:0.0502842;stroke-linecap:round;stroke-linejoin:round;stroke-dasharray:none" />
    <circle
       cx="54.365299"
       cy="5.2363"
       r="1.4748579"
       id="circle245"
       style="fill:none;fill-opacity:1;stroke:#000000;stroke-width:0.0502842;stroke-linecap:round;stroke-linejoin:round;stroke-dasharray:none" />
    <circle
       cx="54.365299"
       cy="43.3363"
       r="1.4748579"
       id="circle246"
       style="fill:none;fill-opacity:1;stroke:#000000;stroke-width:0.0502842;stroke-linecap:round;stroke-linejoin:round;stroke-dasharray:none" />
    <circle
       cx="73.415298"
       cy="24.286301"
       r="1.4748579"
       id="circle247"
       style="fill:none;fill-opacity:1;stroke:#000000;stroke-width:0.0502842;stroke-linecap:round;stroke-linejoin:round;stroke-dasharray:none" />
    <circle
       cx="18.205299"
       cy="40.9263"
       r="1.4748579"
       id="circle258"
       style="fill:none;fill-opacity:1;stroke:#000000;stroke-width:0.0502842;stroke-linecap:round;stroke-linejoin:round;stroke-dasharray:none" />
    <circle
       cx="86.475304"
       cy="61.706299"
       r="1.4748579"
       id="circle259"
       style="fill:none;fill-opacity:1;stroke:#000000;stroke-width:0.0502842;stroke-linecap:round;stroke-linejoin:round;stroke-dasharray:none" />
  </g>
  <g
     style="display:inline;fill:none;stroke:#000000;stroke-width:0.05;stroke-linecap:round;stroke-linejoin:round;stroke-opacity:1"
     id="g303"
     inkscape:label="case">
    <path
       id="path303"
       d="m 54.1153,51.7263 v 3.46 m -35.31,2.4401 a 1.2501,1.2501 0 0 0 -1.2014,1.27 m 1.2014,-1.2701 h 15.92 m 36.73,-56.6 A 1.0201,1.0201 0 0 0 70.4353,0.025 M 1.0324,19.0435 17.3703,19.0418 m 76.115,67.7645 a 1.0098,1.0098 0 0 0 1.3241,-0.3984 M 19.1712,6.9922 35.0805,6.9963 m 1.5048,43.76 a 0.94,0.94 0 0 0 -0.94,0.94 m -33.5826,17.9791 14.6326,9e-4 m 20.29,-69.6511 h 33.45 m -53.74,69.6511 a 0.91,0.91 0 0 0 0.91,-0.91 M 72.3953,8.0917 88.6325,8.0863 m -33.5172,48.1 h 8.99 M 36.0207,6.0561 36.0253,0.9852 m 0.96,-0.9601 a 0.96,0.96 0 0 0 -0.96,0.9601 M 62.2362,73.37 a 0.7943,0.7943 0 0 0 0.5111,0.9438 m 8.708,-73.2875 v 6.1254 m -34.87,43.6046 16.55,-0.01 m 0.98,0.98 a 0.98,0.98 0 0 0 -0.98,-0.98 M 89.6079,9.0873 a 1.0012,1.0012 0 0 0 -0.9754,-1.001 m -34.5172,47.1 a 1,1 0 0 0 1,1 M 62.2363,73.37 66.1206,59.034 M 17.6053,68.7663 17.6039,58.8964 M 93.4853,86.8063 A 137.6022,137.6022 0 0 0 62.7473,74.3138 M 34.7253,57.6263 a 0.92,0.92 0 0 0 0.92,-0.92 M 17.3703,19.0417 a 0.8383,0.8383 0 0 0 0.8251,-0.8381 M 19.1712,6.9922 a 0.97,0.97 0 0 0 -0.97,0.97 M 66.1206,59.034 A 2.1369,2.1369 0 0 0 64.1053,56.1863 M 1.0324,19.0435 a 1,1 0 0 0 -1,1 M 35.0805,6.9963 A 0.9402,0.9402 0 0 0 36.0207,6.0561 M 18.1954,18.2036 18.2012,7.9622 m 17.4441,48.7441 v -5.01 m 35.81,-44.5446 a 0.94,0.94 0 0 0 0.94,0.94 m 37.037,43.0646 -0.012,6.1379 m 0,-13.5039 0.012,7.366 m -1.7587,13.462 a 16.7744,16.7744 0 0 0 1.7467,-7.3241 m -1.7467,7.3241 -12.8642,21.7896 m -3.4625,-60.4866 17.3234,-0.003 M 89.6079,24.1864 V 9.0873 m 19.8124,17.581 v 17.122 M 0.025,67.8393 a 1.9834,1.9834 0 0 0 2.0377,1.8361 m 87.5452,-45.489 a 1.7093,1.7093 0 0 0 1.739,1.7349 M 0.0324,20.0435 0.025,67.8393 m 109.3953,-41.171 a 0.75,0.75 0 0 0 -0.75,-0.75" />
  </g>
  <metadata
     id="metadata305">
    <rdf:RDF>
      <cc:Work
         rdf:about="">
        <dc:title>SVG Image created as K02-B_Mask.svg date 2024/11/16 13:16:07 </dc:title>
      </cc:Work>
    </rdf:RDF>
  </metadata>
</svg>
