<?xml version="1.0" encoding="UTF-8" standalone="no"?>
<!-- Created with Inkscape (http://www.inkscape.org/) -->

<svg
   width="41.360058mm"
   height="11.289125mm"
   viewBox="0 0 41.360061 11.289126"
   version="1.1"
   id="svg1"
   sodipodi:docname="logo.svg"
   inkscape:export-filename="banner.svg"
   inkscape:export-xdpi="96"
   inkscape:export-ydpi="96"
   xmlns:inkscape="http://www.inkscape.org/namespaces/inkscape"
   xmlns:sodipodi="http://sodipodi.sourceforge.net/DTD/sodipodi-0.dtd"
   xmlns="http://www.w3.org/2000/svg"
   xmlns:svg="http://www.w3.org/2000/svg">
  <sodipodi:namedview
     id="namedview1"
     pagecolor="#505050"
     bordercolor="#eeeeee"
     borderopacity="1"
     inkscape:showpageshadow="0"
     inkscape:pageopacity="0"
     inkscape:pagecheckerboard="0"
     inkscape:deskcolor="#505050"
     inkscape:document-units="mm" />
  <defs
     id="defs1" />
  <g
     id="g10">
    <g
       id="g4"
       transform="translate(-42.09126,9.9833338)">
      <path
         style="font-size:11.2889px;line-height:1;font-family:FuturaRenner;-inkscape-font-specification:FuturaRenner;letter-spacing:0px;word-spacing:0px;fill:#ffffff;stroke-width:0.2;stroke-linecap:square;stroke-dashoffset:3.59055;paint-order:markers fill stroke"
         d="m 48.492358,-9.4073728 c -0.1016,0.04516 -0.191911,0.09031 -0.338667,0.101601 -0.180623,0.1016 -0.338667,0.225778 -0.508001,0.338667 -0.112889,0.1016 -0.2032,0.225778 -0.327378,0.316089 -0.03387,0.1016 -0.112889,0.180622 -0.158044,0.270933 l -0.158045,0.282223 c -0.01129,0.225778 -0.112889,0.349956 -0.146756,0.553156 v 0.316089 c 0.02258,0.07902 0.04516,0.135467 0.03387,0.237067 0.03387,0.07902 0.09031,0.135467 0.07902,0.270934 0.04516,0.05644 0.07902,0.135467 0.124178,0.214489 0.04516,0.225778 0.180623,0.349956 0.282223,0.530578 l 0.3048,0.282223 c 0.146756,0.07902 0.3048,0.146755 0.417689,0.270933 0.112889,0.01129 0.180623,0.04516 0.259645,0.09031 0.135467,0.01129 0.282223,0.02258 0.383823,0.06773 0.124178,-0.02258 0.225778,0.02258 0.338667,0.03387 0.225778,0.01129 0.417689,-0.06773 0.643467,-0.06773 0.06773,-0.06773 0.2032,-0.07902 0.282223,-0.124178 0.01129,-0.01129 0.07902,-0.09031 0.09031,-0.09031 0.02258,-0.01129 -0.1016,-0.530578 -0.146756,-0.609601 -0.02258,-0.09031 -0.112889,-0.169333 -0.146756,-0.169333 -0.03387,0 -0.541867,0.135467 -0.688623,0.158045 -0.07902,0 -0.180622,-0.04516 -0.282222,0 -0.09031,-0.04516 -0.169334,-0.101601 -0.3048,-0.112889 -0.06773,-0.06773 -0.146756,-0.135467 -0.248356,-0.180623 -0.07902,-0.124178 -0.2032,-0.2032 -0.282223,-0.338667 -0.04515,-0.1016 -0.112889,-0.214489 -0.124178,-0.327378 0,-0.03387 0.02258,-0.05645 0.02258,-0.09031 -0.01129,-0.180623 -0.03387,-0.338667 0.01129,-0.485423 0.03387,-0.124178 0.135467,-0.237067 0.146756,-0.349956 0.07902,-0.1016 0.158044,-0.214489 0.248356,-0.3048 0.124178,-0.03387 0.191911,-0.124178 0.3048,-0.158045 0.146756,-0.06773 0.349956,-0.07902 0.541867,-0.09031 0.146756,0.04516 0.225778,0.04516 0.417689,0.135467 0.191912,0.09031 0.688623,0.541867 0.688623,0.541867 0,0 0.180623,0.191911 0.237067,0.316089 0.112889,0.06773 0.124178,0.248356 0.248356,0.304801 0.135467,0.225778 0.338667,0.395111 0.440267,0.654756 0.124178,0.04516 0.158045,0.180622 0.248356,0.248356 0.05645,0.112889 0.135467,0.225778 0.180622,0.3048 0.02258,0.03387 0.03387,0.07902 0.05645,0.1016 0.07902,0.135467 0.191911,0.237067 0.259645,0.372534 0.1016,0.05644 0.09031,0.2032 0.237067,0.2032 0.1016,-0.09031 0.04516,-0.237067 0.03387,-0.372534 -0.01129,-0.327378 0.03387,-0.7112 0,-0.982134 -0.01129,-0.06773 0.04516,-0.06773 0.03387,-0.146756 -0.01129,-0.05644 -0.04516,-0.1016 -0.05645,-0.169333 0.02258,-0.124178 0.04516,-0.304801 0.04516,-0.428979 -0.01129,-0.07902 0,-0.2032 0,-0.327378 0,-0.146755 -0.02258,-0.293511 0.01129,-0.417689 -0.03387,-0.1016 0.01129,-0.282222 -0.05645,-0.361245 0.05645,-0.07902 0.02258,-0.191911 0.02258,-0.282222 0,-0.06773 0.02258,-0.112889 0.02258,-0.180623 -0.01129,-0.158044 -0.04516,-0.327378 -0.05644,-0.496711 -0.01129,-0.158045 -0.05645,-0.428979 -0.05645,-0.428979 0,0 -0.699912,-0.01129 -0.891823,0.124178 -0.02258,0.169334 0.06773,0.349956 0.05644,0.575734 0.02258,0.135467 0.02258,0.383823 0.02258,0.598312 -0.01129,0.05644 0.02258,0.09031 0.03387,0.124178 -0.05645,0.180622 -0.03387,0.383823 -0.02258,0.587023 0.01129,0.09031 0.03387,0.191911 -0.03387,0.237067 -0.06773,-0.04516 -0.135466,-0.07902 -0.146755,-0.180623 -0.1016,-0.1016 -0.180623,-0.225778 -0.225778,-0.395111 -0.09031,-0.06773 -0.169334,-0.158045 -0.248356,-0.248356 -0.05645,-0.112889 -0.158045,-0.191911 -0.191911,-0.316089 -0.05645,-0.04516 -0.112889,-0.09031 -0.169334,-0.124178 -0.04516,-0.04516 -0.05644,-0.135467 -0.135467,-0.146756 -0.124178,-0.07902 -0.293511,-0.112889 -0.395111,-0.214489 -0.112889,0.01129 -0.158045,-0.04516 -0.248356,-0.06773 -0.124178,0.01129 -0.417689,-0.01129 -0.496712,0 z"
         id="path5-2" />
      <path
         style="font-size:11.2889px;line-height:1;font-family:FuturaRenner;-inkscape-font-specification:FuturaRenner;letter-spacing:0px;word-spacing:0px;fill:#ffffff;stroke-width:0.2;stroke-linecap:square;stroke-dashoffset:3.59055;paint-order:markers fill stroke"
         d="m 47.656979,-3.4806968 c -0.07902,0.07902 -0.169333,0.146755 -0.248356,0.214489 -0.04516,0.09031 -0.1016,0.146756 -0.158044,0.214489 -0.04516,0.09031 -0.124178,0.124178 -0.158045,0.214489 -0.07902,0.112889 -0.1016,0.259645 -0.2032,0.338667 -0.02258,0.124178 -0.06773,0.237067 -0.124178,0.338667 -0.03387,0.191911 -0.03387,0.406401 -0.1016,0.564445 0.01129,0.248356 0.04516,0.462845 0.05645,0.711201 0.03387,0.191911 0.1016,0.349956 0.124177,0.553156 0.05645,0.1016 0.124178,0.191911 0.158045,0.327378 0.124178,0.09031 0.191911,0.248356 0.3048,0.349956 0.03387,0.06773 0.1016,0.112889 0.158045,0.158045 0.04516,0.07902 0.112889,0.112889 0.158045,0.180622 0.146755,0.05644 0.225778,0.180622 0.372533,0.237067 0.05645,0.04516 0.124178,0.06773 0.191912,0.1016 0.07902,0.03387 0.158044,0.04516 0.214489,0.112889 0.135467,0 0.214489,0.04516 0.327378,0.06773 0.191911,0 0.327378,0.04516 0.496711,0.06773 0.225778,0.01129 0.41769,-0.04516 0.587023,0.03387 0.06773,-0.04516 0.2032,-0.03387 0.316089,-0.03387 0.203201,-0.05644 0.361245,-0.158045 0.575734,-0.191912 0.1016,-0.124177 0.282223,-0.169333 0.383823,-0.3048 l 0.395112,-0.316089 c 0.05644,-0.124178 0.158044,-0.2032 0.214489,-0.327378 0.06773,-0.112889 0.158044,-0.2032 0.191911,-0.349956 0.03387,-0.05645 0.09031,-0.06773 0.124178,-0.112889 -0.01129,-0.191911 0.05644,-0.293511 0.09031,-0.440267 -0.02258,-0.135467 0.03387,-0.270934 0.03387,-0.406401 0.01129,-0.124177 -0.02258,-0.259644 -0.03387,-0.372533 0,-0.158045 0.01129,-0.293512 0,-0.428979 -0.01129,-0.191911 -0.1016,-0.361244 -0.124178,-0.519289 -0.06773,-0.05644 -0.07902,-0.158045 -0.135467,-0.214489 -0.05644,-0.06773 -0.1016,-0.158045 -0.135466,-0.248356 -0.101601,-0.1016 -0.180623,-0.237067 -0.282223,-0.361245 -0.124178,-0.07902 -0.237067,-0.169333 -0.316089,-0.293511 -0.09031,-0.03387 -0.180623,-0.07902 -0.214489,-0.169334 -0.169334,0.02258 -0.191912,-0.09031 -0.31609,-0.124177 -0.2032,-0.05645 -0.395111,-0.124178 -0.6096,-0.169334 -0.259645,-0.02258 -0.496712,0.04516 -0.733779,0 -0.01129,0 -0.01129,0 -0.01129,0.01129 -0.259644,0 -0.496711,0.09031 -0.790223,0.112889 -0.2032,0.06773 -0.338667,0.2032 -0.541867,0.259645 z m 3.172181,3.059292 c -0.05644,0.03387 -0.09031,0.09031 -0.124178,0.124178 l -0.07902,0.05644 c -0.01129,0.02258 -0.01129,0.05644 -0.03387,0.06773 -0.07902,0.09031 -0.158044,0.180622 -0.248355,0.237066 -0.05645,0.03387 -0.135467,0.05644 -0.191912,0.09031 -0.06773,0.03387 -0.112889,0.07902 -0.180622,0.1016 -0.225778,0.04516 -0.440267,0.09031 -0.733779,0.07902 -0.1016,-0.02258 -0.158044,-0.07902 -0.282222,-0.07902 -0.07902,-0.05645 -0.169334,-0.1016 -0.282223,-0.124178 -0.05644,-0.05645 -0.124178,-0.09031 -0.214489,-0.124178 -0.03387,-0.06773 -0.112889,-0.09031 -0.146755,-0.158045 -0.146756,-0.135466 -0.248356,-0.316089 -0.383823,-0.462845 -0.03387,-0.146755 -0.135467,-0.237066 -0.2032,-0.349955 0.04516,-0.146756 0,-0.293512 -0.03387,-0.41769 -0.01129,-0.259644 0.01129,-0.496711 0.05644,-0.711201 0.05645,-0.06773 0.135467,-0.124177 0.158045,-0.225778 0.09031,-0.04516 0.135467,-0.135466 0.158045,-0.237066 0.146755,-0.09031 0.259644,-0.21449 0.372533,-0.338667 0.101601,0 0.146756,-0.05645 0.21449,-0.09031 0.09031,-0.01129 0.135466,-0.05644 0.180622,-0.1016 0.169333,0.01129 0.248356,-0.05644 0.361245,-0.09031 0.1016,0.02258 0.191911,-0.02258 0.282222,-0.02258 0.124178,0.01129 0.237067,0.05645 0.372534,0.05645 0.158045,0.09031 0.338667,0.158044 0.519289,0.237067 0.158045,0.124178 0.304801,0.259644 0.440267,0.4064 0.03387,0.135467 0.112889,0.225778 0.180623,0.338667 0.01129,0.112889 0.04516,0.191911 0.06773,0.282223 0.03387,0.09031 0.02258,0.214489 0.05645,0.3048 -0.03387,0.04516 -0.02258,0.124178 -0.05645,0.180622 0,0.06773 0.03387,0.1016 0.03387,0.169334 -0.03387,0.07902 -0.02258,0.2032 -0.04516,0.293511 z"
         id="path4-5" />
      <path
         style="font-size:11.2889px;line-height:1;font-family:FuturaRenner;-inkscape-font-specification:FuturaRenner;letter-spacing:0px;word-spacing:0px;fill:#ffffff;stroke-width:0.219016;stroke-linecap:square;stroke-dashoffset:3.59055;paint-order:markers fill stroke"
         d="m 46.482148,0.9735052 c -0.148348,-0.135985 -0.27197,-0.346144 -0.407956,-0.457405 -0.01237,0 -0.04945,0 -0.06182,-0.01237 -0.01236,-0.01237 -0.01236,-0.04944 -0.01236,-0.06181 -0.04945,-0.04945 -0.0989,-0.08654 -0.123623,-0.135986 -0.123623,-0.08653 -0.160709,-0.259608 -0.296694,-0.33378 -0.08654,-0.123623 -0.185435,-0.222523 -0.27197,-0.370869 -0.309058,-0.309058 -0.581027,-0.667563 -0.890085,-0.988982 -0.07417,-0.148348 -0.22252,-0.21016 -0.259608,-0.395594 0.02473,-0.148347 0.197797,-0.160709 0.197797,-0.32142 0.135986,0.02473 0.148347,-0.06181 0.210158,-0.0989 0.06181,-0.06181 0.135986,-0.0989 0.197797,-0.135986 0.173072,-0.222521 0.395593,-0.395593 0.59339,-0.593388 0.0371,-0.04945 0.08654,-0.0989 0.148347,-0.135986 0.08653,-0.01237 0.08653,-0.0989 0.160709,-0.135985 0.123624,-0.06181 0.197798,-0.185434 0.284333,-0.284333 0.148348,-0.08654 0.358507,-0.185434 0.296694,-0.407955 -0.01236,-0.08654 -0.160708,-0.03709 -0.210158,-0.08654 -0.111261,-0.01237 -0.148348,0.04945 -0.234883,0.06182 -0.247245,-0.01237 -0.445042,-0.02473 -0.70465,-0.02473 -0.210159,0.0989 -0.309058,0.309057 -0.482129,0.432681 -0.03709,0.11126 -0.148347,0.148346 -0.222522,0.234883 -0.08653,0.06181 -0.123623,0.173071 -0.234883,0.234883 l -0.445043,0.469776 c -0.148348,0.148348 -0.259608,0.383231 -0.543941,0.383231 -0.0989,-0.148348 -0.02473,-0.346144 -0.02473,-0.519216 0,-0.0989 -0.01237,-0.197796 -0.01237,-0.296694 0,-0.27197 0.01237,-0.543941 0.01237,-0.778824 0.01236,-0.16071 -0.01237,-0.32142 -0.01237,-0.482129 v -0.234883 c 0,-0.370868 -0.02473,-2.473497 0.01237,-2.757829 -0.03709,-0.185435 -0.02473,-0.407955 -0.03709,-0.630477 -0.01236,-0.469767 0,-0.939533 0,-1.396937 0,-0.234884 0.04945,-0.469767 -0.0989,-0.618114 -0.135986,-0.04945 -0.32142,-0.01237 -0.445044,0.01237 -0.123622,-0.01237 -0.259607,-0.03709 -0.370867,0 -0.135986,0.111261 -0.111261,0.457404 -0.06181,0.642839 -0.01237,0.06181 0.01237,0.123622 0,0.173071 0,0.08653 -0.01237,0.148347 -0.01237,0.222521 0,0.06182 0.0371,0.135985 0.0371,0.210159 0,0.0371 -0.02473,0.0371 -0.02473,0.07417 0.01237,0.07417 0.02473,0.173072 -0.01237,0.234883 0.04945,0.296695 0.01237,0.630475 0.01237,0.902446 0.01237,0.630477 0.0371,3.153422 0.02473,3.783899 0,0.0989 -0.02473,0.197796 -0.02473,0.296694 l 0.04945,0.420318 c 0.01236,0.445041 -0.02473,0.939533 -0.02473,1.4093 0,0.135985 0.03709,0.27197 0.03709,0.407954 0,0.309058 -0.04945,0.618115 0,0.91481 -0.08654,0.247245 0,0.519216 0,0.778824 0,0.197796 -0.03709,0.370869 0.02473,0.54394 0.111261,0.111259 0.358507,0.07417 0.556303,0.08654 0.160709,0 0.309057,0.04944 0.395592,-0.04945 0.04945,-0.111261 -0.01236,-0.247246 -0.02473,-0.358506 -0.03709,-0.407956 0.01236,-0.840635 0,-1.211503 0,-0.06182 -0.01237,-0.111261 -0.01237,-0.160711 0,-0.0989 0.06181,-0.210158 0.03709,-0.309056 0.04945,-0.04945 0.111261,-0.06181 0.135986,-0.135985 0.04945,-0.07417 0.309058,0.08654 0.346144,0.173071 0.197797,0.123623 0.296695,0.346144 0.457405,0.506854 0.160708,0.16071 0.259608,0.370868 0.420316,0.531579 0.08654,0.07417 0.123624,0.173071 0.197798,0.27197 0.07417,0.08654 0.173071,0.148346 0.210158,0.271968 0.148348,0.173073 0.284333,0.358508 0.469767,0.482131 0.135985,0 0.358506,0.01237 0.494491,0 h 0.135985 c 0.222521,0 0.506854,0.02473 0.482129,-0.197798 z"
         id="text2-5" />
    </g>
    <g
       id="g3"
       transform="rotate(180,31.671504,0.65289738)">
      <path
         style="font-size:11.2889px;line-height:1;font-family:FuturaRenner;-inkscape-font-specification:FuturaRenner;letter-spacing:0px;word-spacing:0px;fill:#ffffff;stroke-width:0.2;stroke-linecap:square;stroke-dashoffset:3.59055;paint-order:markers fill stroke"
         d="m 48.492358,-9.4073728 c -0.1016,0.04516 -0.191911,0.09031 -0.338667,0.101601 -0.180623,0.1016 -0.338667,0.225778 -0.508001,0.338667 -0.112889,0.1016 -0.2032,0.225778 -0.327378,0.316089 -0.03387,0.1016 -0.112889,0.180622 -0.158044,0.270933 l -0.158045,0.282223 c -0.01129,0.225778 -0.112889,0.349956 -0.146756,0.553156 v 0.316089 c 0.02258,0.07902 0.04516,0.135467 0.03387,0.237067 0.03387,0.07902 0.09031,0.135467 0.07902,0.270934 0.04516,0.05644 0.07902,0.135467 0.124178,0.214489 0.04516,0.225778 0.180623,0.349956 0.282223,0.530578 l 0.3048,0.282223 c 0.146756,0.07902 0.3048,0.146755 0.417689,0.270933 0.112889,0.01129 0.180623,0.04516 0.259645,0.09031 0.135467,0.01129 0.282223,0.02258 0.383823,0.06773 0.124178,-0.02258 0.225778,0.02258 0.338667,0.03387 0.225778,0.01129 0.417689,-0.06773 0.643467,-0.06773 0.06773,-0.06773 0.2032,-0.07902 0.282223,-0.124178 0.01129,-0.01129 0.07902,-0.09031 0.09031,-0.09031 0.02258,-0.01129 -0.1016,-0.530578 -0.146756,-0.609601 -0.02258,-0.09031 -0.112889,-0.169333 -0.146756,-0.169333 -0.03387,0 -0.541867,0.135467 -0.688623,0.158045 -0.07902,0 -0.180622,-0.04516 -0.282222,0 -0.09031,-0.04516 -0.169334,-0.101601 -0.3048,-0.112889 -0.06773,-0.06773 -0.146756,-0.135467 -0.248356,-0.180623 -0.07902,-0.124178 -0.2032,-0.2032 -0.282223,-0.338667 -0.04515,-0.1016 -0.112889,-0.214489 -0.124178,-0.327378 0,-0.03387 0.02258,-0.05645 0.02258,-0.09031 -0.01129,-0.180623 -0.03387,-0.338667 0.01129,-0.485423 0.03387,-0.124178 0.135467,-0.237067 0.146756,-0.349956 0.07902,-0.1016 0.158044,-0.214489 0.248356,-0.3048 0.124178,-0.03387 0.191911,-0.124178 0.3048,-0.158045 0.146756,-0.06773 0.349956,-0.07902 0.541867,-0.09031 0.146756,0.04516 0.225778,0.04516 0.417689,0.135467 0.191912,0.09031 0.688623,0.541867 0.688623,0.541867 0,0 0.180623,0.191911 0.237067,0.316089 0.112889,0.06773 0.124178,0.248356 0.248356,0.304801 0.135467,0.225778 0.338667,0.395111 0.440267,0.654756 0.124178,0.04516 0.158045,0.180622 0.248356,0.248356 0.05645,0.112889 0.135467,0.225778 0.180622,0.3048 0.02258,0.03387 0.03387,0.07902 0.05645,0.1016 0.07902,0.135467 0.191911,0.237067 0.259645,0.372534 0.1016,0.05644 0.09031,0.2032 0.237067,0.2032 0.1016,-0.09031 0.04516,-0.237067 0.03387,-0.372534 -0.01129,-0.327378 0.03387,-0.7112 0,-0.982134 -0.01129,-0.06773 0.04516,-0.06773 0.03387,-0.146756 -0.01129,-0.05644 -0.04516,-0.1016 -0.05645,-0.169333 0.02258,-0.124178 0.04516,-0.304801 0.04516,-0.428979 -0.01129,-0.07902 0,-0.2032 0,-0.327378 0,-0.146755 -0.02258,-0.293511 0.01129,-0.417689 -0.03387,-0.1016 0.01129,-0.282222 -0.05645,-0.361245 0.05645,-0.07902 0.02258,-0.191911 0.02258,-0.282222 0,-0.06773 0.02258,-0.112889 0.02258,-0.180623 -0.01129,-0.158044 -0.04516,-0.327378 -0.05644,-0.496711 -0.01129,-0.158045 -0.05645,-0.428979 -0.05645,-0.428979 0,0 -0.699912,-0.01129 -0.891823,0.124178 -0.02258,0.169334 0.06773,0.349956 0.05644,0.575734 0.02258,0.135467 0.02258,0.383823 0.02258,0.598312 -0.01129,0.05644 0.02258,0.09031 0.03387,0.124178 -0.05645,0.180622 -0.03387,0.383823 -0.02258,0.587023 0.01129,0.09031 0.03387,0.191911 -0.03387,0.237067 -0.06773,-0.04516 -0.135466,-0.07902 -0.146755,-0.180623 -0.1016,-0.1016 -0.180623,-0.225778 -0.225778,-0.395111 -0.09031,-0.06773 -0.169334,-0.158045 -0.248356,-0.248356 -0.05645,-0.112889 -0.158045,-0.191911 -0.191911,-0.316089 -0.05645,-0.04516 -0.112889,-0.09031 -0.169334,-0.124178 -0.04516,-0.04516 -0.05644,-0.135467 -0.135467,-0.146756 -0.124178,-0.07902 -0.293511,-0.112889 -0.395111,-0.214489 -0.112889,0.01129 -0.158045,-0.04516 -0.248356,-0.06773 -0.124178,0.01129 -0.417689,-0.01129 -0.496712,0 z"
         id="path1" />
      <path
         style="font-size:11.2889px;line-height:1;font-family:FuturaRenner;-inkscape-font-specification:FuturaRenner;letter-spacing:0px;word-spacing:0px;fill:#ffffff;stroke-width:0.2;stroke-linecap:square;stroke-dashoffset:3.59055;paint-order:markers fill stroke"
         d="m 47.656979,-3.4806968 c -0.07902,0.07902 -0.169333,0.146755 -0.248356,0.214489 -0.04516,0.09031 -0.1016,0.146756 -0.158044,0.214489 -0.04516,0.09031 -0.124178,0.124178 -0.158045,0.214489 -0.07902,0.112889 -0.1016,0.259645 -0.2032,0.338667 -0.02258,0.124178 -0.06773,0.237067 -0.124178,0.338667 -0.03387,0.191911 -0.03387,0.406401 -0.1016,0.564445 0.01129,0.248356 0.04516,0.462845 0.05645,0.711201 0.03387,0.191911 0.1016,0.349956 0.124177,0.553156 0.05645,0.1016 0.124178,0.191911 0.158045,0.327378 0.124178,0.09031 0.191911,0.248356 0.3048,0.349956 0.03387,0.06773 0.1016,0.112889 0.158045,0.158045 0.04516,0.07902 0.112889,0.112889 0.158045,0.180622 0.146755,0.05644 0.225778,0.180622 0.372533,0.237067 0.05645,0.04516 0.124178,0.06773 0.191912,0.1016 0.07902,0.03387 0.158044,0.04516 0.214489,0.112889 0.135467,0 0.214489,0.04516 0.327378,0.06773 0.191911,0 0.327378,0.04516 0.496711,0.06773 0.225778,0.01129 0.41769,-0.04516 0.587023,0.03387 0.06773,-0.04516 0.2032,-0.03387 0.316089,-0.03387 0.203201,-0.05644 0.361245,-0.158045 0.575734,-0.191912 0.1016,-0.124177 0.282223,-0.169333 0.383823,-0.3048 l 0.395112,-0.316089 c 0.05644,-0.124178 0.158044,-0.2032 0.214489,-0.327378 0.06773,-0.112889 0.158044,-0.2032 0.191911,-0.349956 0.03387,-0.05645 0.09031,-0.06773 0.124178,-0.112889 -0.01129,-0.191911 0.05644,-0.293511 0.09031,-0.440267 -0.02258,-0.135467 0.03387,-0.270934 0.03387,-0.406401 0.01129,-0.124177 -0.02258,-0.259644 -0.03387,-0.372533 0,-0.158045 0.01129,-0.293512 0,-0.428979 -0.01129,-0.191911 -0.1016,-0.361244 -0.124178,-0.519289 -0.06773,-0.05644 -0.07902,-0.158045 -0.135467,-0.214489 -0.05644,-0.06773 -0.1016,-0.158045 -0.135466,-0.248356 -0.101601,-0.1016 -0.180623,-0.237067 -0.282223,-0.361245 -0.124178,-0.07902 -0.237067,-0.169333 -0.316089,-0.293511 -0.09031,-0.03387 -0.180623,-0.07902 -0.214489,-0.169334 -0.169334,0.02258 -0.191912,-0.09031 -0.31609,-0.124177 -0.2032,-0.05645 -0.395111,-0.124178 -0.6096,-0.169334 -0.259645,-0.02258 -0.496712,0.04516 -0.733779,0 -0.01129,0 -0.01129,0 -0.01129,0.01129 -0.259644,0 -0.496711,0.09031 -0.790223,0.112889 -0.2032,0.06773 -0.338667,0.2032 -0.541867,0.259645 z m 3.172181,3.059292 c -0.05644,0.03387 -0.09031,0.09031 -0.124178,0.124178 l -0.07902,0.05644 c -0.01129,0.02258 -0.01129,0.05644 -0.03387,0.06773 -0.07902,0.09031 -0.158044,0.180622 -0.248355,0.237066 -0.05645,0.03387 -0.135467,0.05644 -0.191912,0.09031 -0.06773,0.03387 -0.112889,0.07902 -0.180622,0.1016 -0.225778,0.04516 -0.440267,0.09031 -0.733779,0.07902 -0.1016,-0.02258 -0.158044,-0.07902 -0.282222,-0.07902 -0.07902,-0.05645 -0.169334,-0.1016 -0.282223,-0.124178 -0.05644,-0.05645 -0.124178,-0.09031 -0.214489,-0.124178 -0.03387,-0.06773 -0.112889,-0.09031 -0.146755,-0.158045 -0.146756,-0.135466 -0.248356,-0.316089 -0.383823,-0.462845 -0.03387,-0.146755 -0.135467,-0.237066 -0.2032,-0.349955 0.04516,-0.146756 0,-0.293512 -0.03387,-0.41769 -0.01129,-0.259644 0.01129,-0.496711 0.05644,-0.711201 0.05645,-0.06773 0.135467,-0.124177 0.158045,-0.225778 0.09031,-0.04516 0.135467,-0.135466 0.158045,-0.237066 0.146755,-0.09031 0.259644,-0.21449 0.372533,-0.338667 0.101601,0 0.146756,-0.05645 0.21449,-0.09031 0.09031,-0.01129 0.135466,-0.05644 0.180622,-0.1016 0.169333,0.01129 0.248356,-0.05644 0.361245,-0.09031 0.1016,0.02258 0.191911,-0.02258 0.282222,-0.02258 0.124178,0.01129 0.237067,0.05645 0.372534,0.05645 0.158045,0.09031 0.338667,0.158044 0.519289,0.237067 0.158045,0.124178 0.304801,0.259644 0.440267,0.4064 0.03387,0.135467 0.112889,0.225778 0.180623,0.338667 0.01129,0.112889 0.04516,0.191911 0.06773,0.282223 0.03387,0.09031 0.02258,0.214489 0.05645,0.3048 -0.03387,0.04516 -0.02258,0.124178 -0.05645,0.180622 0,0.06773 0.03387,0.1016 0.03387,0.169334 -0.03387,0.07902 -0.02258,0.2032 -0.04516,0.293511 z"
         id="path2" />
      <path
         style="font-size:11.2889px;line-height:1;font-family:FuturaRenner;-inkscape-font-specification:FuturaRenner;letter-spacing:0px;word-spacing:0px;fill:#ffffff;stroke-width:0.219016;stroke-linecap:square;stroke-dashoffset:3.59055;paint-order:markers fill stroke"
         d="m 46.482148,0.9735052 c -0.148348,-0.135985 -0.27197,-0.346144 -0.407956,-0.457405 -0.01237,0 -0.04945,0 -0.06182,-0.01237 -0.01236,-0.01237 -0.01236,-0.04944 -0.01236,-0.06181 -0.04945,-0.04945 -0.0989,-0.08654 -0.123623,-0.135986 -0.123623,-0.08653 -0.160709,-0.259608 -0.296694,-0.33378 -0.08654,-0.123623 -0.185435,-0.222523 -0.27197,-0.370869 -0.309058,-0.309058 -0.581027,-0.667563 -0.890085,-0.988982 -0.07417,-0.148348 -0.22252,-0.21016 -0.259608,-0.395594 0.02473,-0.148347 0.197797,-0.160709 0.197797,-0.32142 0.135986,0.02473 0.148347,-0.06181 0.210158,-0.0989 0.06181,-0.06181 0.135986,-0.0989 0.197797,-0.135986 0.173072,-0.222521 0.395593,-0.395593 0.59339,-0.593388 0.0371,-0.04945 0.08654,-0.0989 0.148347,-0.135986 0.08653,-0.01237 0.08653,-0.0989 0.160709,-0.135985 0.123624,-0.06181 0.197798,-0.185434 0.284333,-0.284333 0.148348,-0.08654 0.358507,-0.185434 0.296694,-0.407955 -0.01236,-0.08654 -0.160708,-0.03709 -0.210158,-0.08654 -0.111261,-0.01237 -0.148348,0.04945 -0.234883,0.06182 -0.247245,-0.01237 -0.445042,-0.02473 -0.70465,-0.02473 -0.210159,0.0989 -0.309058,0.309057 -0.482129,0.432681 -0.03709,0.11126 -0.148347,0.148346 -0.222522,0.234883 -0.08653,0.06181 -0.123623,0.173071 -0.234883,0.234883 l -0.445043,0.469776 c -0.148348,0.148348 -0.259608,0.383231 -0.543941,0.383231 -0.0989,-0.148348 -0.02473,-0.346144 -0.02473,-0.519216 0,-0.0989 -0.01237,-0.197796 -0.01237,-0.296694 0,-0.27197 0.01237,-0.543941 0.01237,-0.778824 0.01236,-0.16071 -0.01237,-0.32142 -0.01237,-0.482129 v -0.234883 c 0,-0.370868 -0.02473,-2.473497 0.01237,-2.757829 -0.03709,-0.185435 -0.02473,-0.407955 -0.03709,-0.630477 -0.01236,-0.469767 0,-0.939533 0,-1.396937 0,-0.234884 0.04945,-0.469767 -0.0989,-0.618114 -0.135986,-0.04945 -0.32142,-0.01237 -0.445044,0.01237 -0.123622,-0.01237 -0.259607,-0.03709 -0.370867,0 -0.135986,0.111261 -0.111261,0.457404 -0.06181,0.642839 -0.01237,0.06181 0.01237,0.123622 0,0.173071 0,0.08653 -0.01237,0.148347 -0.01237,0.222521 0,0.06182 0.0371,0.135985 0.0371,0.210159 0,0.0371 -0.02473,0.0371 -0.02473,0.07417 0.01237,0.07417 0.02473,0.173072 -0.01237,0.234883 0.04945,0.296695 0.01237,0.630475 0.01237,0.902446 0.01237,0.630477 0.0371,3.153422 0.02473,3.783899 0,0.0989 -0.02473,0.197796 -0.02473,0.296694 l 0.04945,0.420318 c 0.01236,0.445041 -0.02473,0.939533 -0.02473,1.4093 0,0.135985 0.03709,0.27197 0.03709,0.407954 0,0.309058 -0.04945,0.618115 0,0.91481 -0.08654,0.247245 0,0.519216 0,0.778824 0,0.197796 -0.03709,0.370869 0.02473,0.54394 0.111261,0.111259 0.358507,0.07417 0.556303,0.08654 0.160709,0 0.309057,0.04944 0.395592,-0.04945 0.04945,-0.111261 -0.01236,-0.247246 -0.02473,-0.358506 -0.03709,-0.407956 0.01236,-0.840635 0,-1.211503 0,-0.06182 -0.01237,-0.111261 -0.01237,-0.160711 0,-0.0989 0.06181,-0.210158 0.03709,-0.309056 0.04945,-0.04945 0.111261,-0.06181 0.135986,-0.135985 0.04945,-0.07417 0.309058,0.08654 0.346144,0.173071 0.197797,0.123623 0.296695,0.346144 0.457405,0.506854 0.160708,0.16071 0.259608,0.370868 0.420316,0.531579 0.08654,0.07417 0.123624,0.173071 0.197798,0.27197 0.07417,0.08654 0.173071,0.148346 0.210158,0.271968 0.148348,0.173073 0.284333,0.358508 0.469767,0.482131 0.135985,0 0.358506,0.01237 0.494491,0 h 0.135985 c 0.222521,0 0.506854,0.02473 0.482129,-0.197798 z"
         id="path3" />
    </g>
    <g
       id="g6"
       transform="translate(-21.982914,9.9833338)">
      <path
         style="font-size:11.2889px;line-height:1;font-family:FuturaRenner;-inkscape-font-specification:FuturaRenner;letter-spacing:0px;word-spacing:0px;fill:#ffffff;stroke-width:0.2;stroke-linecap:square;stroke-dashoffset:3.59055;paint-order:markers fill stroke"
         d="m 48.492358,-9.4073728 c -0.1016,0.04516 -0.191911,0.09031 -0.338667,0.101601 -0.180623,0.1016 -0.338667,0.225778 -0.508001,0.338667 -0.112889,0.1016 -0.2032,0.225778 -0.327378,0.316089 -0.03387,0.1016 -0.112889,0.180622 -0.158044,0.270933 l -0.158045,0.282223 c -0.01129,0.225778 -0.112889,0.349956 -0.146756,0.553156 v 0.316089 c 0.02258,0.07902 0.04516,0.135467 0.03387,0.237067 0.03387,0.07902 0.09031,0.135467 0.07902,0.270934 0.04516,0.05644 0.07902,0.135467 0.124178,0.214489 0.04516,0.225778 0.180623,0.349956 0.282223,0.530578 l 0.3048,0.282223 c 0.146756,0.07902 0.3048,0.146755 0.417689,0.270933 0.112889,0.01129 0.180623,0.04516 0.259645,0.09031 0.135467,0.01129 0.282223,0.02258 0.383823,0.06773 0.124178,-0.02258 0.225778,0.02258 0.338667,0.03387 0.225778,0.01129 0.417689,-0.06773 0.643467,-0.06773 0.06773,-0.06773 0.2032,-0.07902 0.282223,-0.124178 0.01129,-0.01129 0.07902,-0.09031 0.09031,-0.09031 0.02258,-0.01129 -0.1016,-0.530578 -0.146756,-0.609601 -0.02258,-0.09031 -0.112889,-0.169333 -0.146756,-0.169333 -0.03387,0 -0.541867,0.135467 -0.688623,0.158045 -0.07902,0 -0.180622,-0.04516 -0.282222,0 -0.09031,-0.04516 -0.169334,-0.101601 -0.3048,-0.112889 -0.06773,-0.06773 -0.146756,-0.135467 -0.248356,-0.180623 -0.07902,-0.124178 -0.2032,-0.2032 -0.282223,-0.338667 -0.04515,-0.1016 -0.112889,-0.214489 -0.124178,-0.327378 0,-0.03387 0.02258,-0.05645 0.02258,-0.09031 -0.01129,-0.180623 -0.03387,-0.338667 0.01129,-0.485423 0.03387,-0.124178 0.135467,-0.237067 0.146756,-0.349956 0.07902,-0.1016 0.158044,-0.214489 0.248356,-0.3048 0.124178,-0.03387 0.191911,-0.124178 0.3048,-0.158045 0.146756,-0.06773 0.349956,-0.07902 0.541867,-0.09031 0.146756,0.04516 0.225778,0.04516 0.417689,0.135467 0.191912,0.09031 0.688623,0.541867 0.688623,0.541867 0,0 0.180623,0.191911 0.237067,0.316089 0.112889,0.06773 0.124178,0.248356 0.248356,0.304801 0.135467,0.225778 0.338667,0.395111 0.440267,0.654756 0.124178,0.04516 0.158045,0.180622 0.248356,0.248356 0.05645,0.112889 0.135467,0.225778 0.180622,0.3048 0.02258,0.03387 0.03387,0.07902 0.05645,0.1016 0.07902,0.135467 0.191911,0.237067 0.259645,0.372534 0.1016,0.05644 0.09031,0.2032 0.237067,0.2032 0.1016,-0.09031 0.04516,-0.237067 0.03387,-0.372534 -0.01129,-0.327378 0.03387,-0.7112 0,-0.982134 -0.01129,-0.06773 0.04516,-0.06773 0.03387,-0.146756 -0.01129,-0.05644 -0.04516,-0.1016 -0.05645,-0.169333 0.02258,-0.124178 0.04516,-0.304801 0.04516,-0.428979 -0.01129,-0.07902 0,-0.2032 0,-0.327378 0,-0.146755 -0.02258,-0.293511 0.01129,-0.417689 -0.03387,-0.1016 0.01129,-0.282222 -0.05645,-0.361245 0.05645,-0.07902 0.02258,-0.191911 0.02258,-0.282222 0,-0.06773 0.02258,-0.112889 0.02258,-0.180623 -0.01129,-0.158044 -0.04516,-0.327378 -0.05644,-0.496711 -0.01129,-0.158045 -0.05645,-0.428979 -0.05645,-0.428979 0,0 -0.699912,-0.01129 -0.891823,0.124178 -0.02258,0.169334 0.06773,0.349956 0.05644,0.575734 0.02258,0.135467 0.02258,0.383823 0.02258,0.598312 -0.01129,0.05644 0.02258,0.09031 0.03387,0.124178 -0.05645,0.180622 -0.03387,0.383823 -0.02258,0.587023 0.01129,0.09031 0.03387,0.191911 -0.03387,0.237067 -0.06773,-0.04516 -0.135466,-0.07902 -0.146755,-0.180623 -0.1016,-0.1016 -0.180623,-0.225778 -0.225778,-0.395111 -0.09031,-0.06773 -0.169334,-0.158045 -0.248356,-0.248356 -0.05645,-0.112889 -0.158045,-0.191911 -0.191911,-0.316089 -0.05645,-0.04516 -0.112889,-0.09031 -0.169334,-0.124178 -0.04516,-0.04516 -0.05644,-0.135467 -0.135467,-0.146756 -0.124178,-0.07902 -0.293511,-0.112889 -0.395111,-0.214489 -0.112889,0.01129 -0.158045,-0.04516 -0.248356,-0.06773 -0.124178,0.01129 -0.417689,-0.01129 -0.496712,0 z"
         id="path4" />
      <path
         style="font-size:11.2889px;line-height:1;font-family:FuturaRenner;-inkscape-font-specification:FuturaRenner;letter-spacing:0px;word-spacing:0px;fill:#ffffff;stroke-width:0.2;stroke-linecap:square;stroke-dashoffset:3.59055;paint-order:markers fill stroke"
         d="m 47.656979,-3.4806968 c -0.07902,0.07902 -0.169333,0.146755 -0.248356,0.214489 -0.04516,0.09031 -0.1016,0.146756 -0.158044,0.214489 -0.04516,0.09031 -0.124178,0.124178 -0.158045,0.214489 -0.07902,0.112889 -0.1016,0.259645 -0.2032,0.338667 -0.02258,0.124178 -0.06773,0.237067 -0.124178,0.338667 -0.03387,0.191911 -0.03387,0.406401 -0.1016,0.564445 0.01129,0.248356 0.04516,0.462845 0.05645,0.711201 0.03387,0.191911 0.1016,0.349956 0.124177,0.553156 0.05645,0.1016 0.124178,0.191911 0.158045,0.327378 0.124178,0.09031 0.191911,0.248356 0.3048,0.349956 0.03387,0.06773 0.1016,0.112889 0.158045,0.158045 0.04516,0.07902 0.112889,0.112889 0.158045,0.180622 0.146755,0.05644 0.225778,0.180622 0.372533,0.237067 0.05645,0.04516 0.124178,0.06773 0.191912,0.1016 0.07902,0.03387 0.158044,0.04516 0.214489,0.112889 0.135467,0 0.214489,0.04516 0.327378,0.06773 0.191911,0 0.327378,0.04516 0.496711,0.06773 0.225778,0.01129 0.41769,-0.04516 0.587023,0.03387 0.06773,-0.04516 0.2032,-0.03387 0.316089,-0.03387 0.203201,-0.05644 0.361245,-0.158045 0.575734,-0.191912 0.1016,-0.124177 0.282223,-0.169333 0.383823,-0.3048 l 0.395112,-0.316089 c 0.05644,-0.124178 0.158044,-0.2032 0.214489,-0.327378 0.06773,-0.112889 0.158044,-0.2032 0.191911,-0.349956 0.03387,-0.05645 0.09031,-0.06773 0.124178,-0.112889 -0.01129,-0.191911 0.05644,-0.293511 0.09031,-0.440267 -0.02258,-0.135467 0.03387,-0.270934 0.03387,-0.406401 0.01129,-0.124177 -0.02258,-0.259644 -0.03387,-0.372533 0,-0.158045 0.01129,-0.293512 0,-0.428979 -0.01129,-0.191911 -0.1016,-0.361244 -0.124178,-0.519289 -0.06773,-0.05644 -0.07902,-0.158045 -0.135467,-0.214489 -0.05644,-0.06773 -0.1016,-0.158045 -0.135466,-0.248356 -0.101601,-0.1016 -0.180623,-0.237067 -0.282223,-0.361245 -0.124178,-0.07902 -0.237067,-0.169333 -0.316089,-0.293511 -0.09031,-0.03387 -0.180623,-0.07902 -0.214489,-0.169334 -0.169334,0.02258 -0.191912,-0.09031 -0.31609,-0.124177 -0.2032,-0.05645 -0.395111,-0.124178 -0.6096,-0.169334 -0.259645,-0.02258 -0.496712,0.04516 -0.733779,0 -0.01129,0 -0.01129,0 -0.01129,0.01129 -0.259644,0 -0.496711,0.09031 -0.790223,0.112889 -0.2032,0.06773 -0.338667,0.2032 -0.541867,0.259645 z m 3.172181,3.059292 c -0.05644,0.03387 -0.09031,0.09031 -0.124178,0.124178 l -0.07902,0.05644 c -0.01129,0.02258 -0.01129,0.05644 -0.03387,0.06773 -0.07902,0.09031 -0.158044,0.180622 -0.248355,0.237066 -0.05645,0.03387 -0.135467,0.05644 -0.191912,0.09031 -0.06773,0.03387 -0.112889,0.07902 -0.180622,0.1016 -0.225778,0.04516 -0.440267,0.09031 -0.733779,0.07902 -0.1016,-0.02258 -0.158044,-0.07902 -0.282222,-0.07902 -0.07902,-0.05645 -0.169334,-0.1016 -0.282223,-0.124178 -0.05644,-0.05645 -0.124178,-0.09031 -0.214489,-0.124178 -0.03387,-0.06773 -0.112889,-0.09031 -0.146755,-0.158045 -0.146756,-0.135466 -0.248356,-0.316089 -0.383823,-0.462845 -0.03387,-0.146755 -0.135467,-0.237066 -0.2032,-0.349955 0.04516,-0.146756 0,-0.293512 -0.03387,-0.41769 -0.01129,-0.259644 0.01129,-0.496711 0.05644,-0.711201 0.05645,-0.06773 0.135467,-0.124177 0.158045,-0.225778 0.09031,-0.04516 0.135467,-0.135466 0.158045,-0.237066 0.146755,-0.09031 0.259644,-0.21449 0.372533,-0.338667 0.101601,0 0.146756,-0.05645 0.21449,-0.09031 0.09031,-0.01129 0.135466,-0.05644 0.180622,-0.1016 0.169333,0.01129 0.248356,-0.05644 0.361245,-0.09031 0.1016,0.02258 0.191911,-0.02258 0.282222,-0.02258 0.124178,0.01129 0.237067,0.05645 0.372534,0.05645 0.158045,0.09031 0.338667,0.158044 0.519289,0.237067 0.158045,0.124178 0.304801,0.259644 0.440267,0.4064 0.03387,0.135467 0.112889,0.225778 0.180623,0.338667 0.01129,0.112889 0.04516,0.191911 0.06773,0.282223 0.03387,0.09031 0.02258,0.214489 0.05645,0.3048 -0.03387,0.04516 -0.02258,0.124178 -0.05645,0.180622 0,0.06773 0.03387,0.1016 0.03387,0.169334 -0.03387,0.07902 -0.02258,0.2032 -0.04516,0.293511 z"
         id="path5" />
      <path
         style="font-size:11.2889px;line-height:1;font-family:FuturaRenner;-inkscape-font-specification:FuturaRenner;letter-spacing:0px;word-spacing:0px;fill:#ffffff;stroke-width:0.219016;stroke-linecap:square;stroke-dashoffset:3.59055;paint-order:markers fill stroke"
         d="m 46.482148,0.9735052 c -0.148348,-0.135985 -0.27197,-0.346144 -0.407956,-0.457405 -0.01237,0 -0.04945,0 -0.06182,-0.01237 -0.01236,-0.01237 -0.01236,-0.04944 -0.01236,-0.06181 -0.04945,-0.04945 -0.0989,-0.08654 -0.123623,-0.135986 -0.123623,-0.08653 -0.160709,-0.259608 -0.296694,-0.33378 -0.08654,-0.123623 -0.185435,-0.222523 -0.27197,-0.370869 -0.309058,-0.309058 -0.581027,-0.667563 -0.890085,-0.988982 -0.07417,-0.148348 -0.22252,-0.21016 -0.259608,-0.395594 0.02473,-0.148347 0.197797,-0.160709 0.197797,-0.32142 0.135986,0.02473 0.148347,-0.06181 0.210158,-0.0989 0.06181,-0.06181 0.135986,-0.0989 0.197797,-0.135986 0.173072,-0.222521 0.395593,-0.395593 0.59339,-0.593388 0.0371,-0.04945 0.08654,-0.0989 0.148347,-0.135986 0.08653,-0.01237 0.08653,-0.0989 0.160709,-0.135985 0.123624,-0.06181 0.197798,-0.185434 0.284333,-0.284333 0.148348,-0.08654 0.358507,-0.185434 0.296694,-0.407955 -0.01236,-0.08654 -0.160708,-0.03709 -0.210158,-0.08654 -0.111261,-0.01237 -0.148348,0.04945 -0.234883,0.06182 -0.247245,-0.01237 -0.445042,-0.02473 -0.70465,-0.02473 -0.210159,0.0989 -0.309058,0.309057 -0.482129,0.432681 -0.03709,0.11126 -0.148347,0.148346 -0.222522,0.234883 -0.08653,0.06181 -0.123623,0.173071 -0.234883,0.234883 l -0.445043,0.469776 c -0.148348,0.148348 -0.259608,0.383231 -0.543941,0.383231 -0.0989,-0.148348 -0.02473,-0.346144 -0.02473,-0.519216 0,-0.0989 -0.01237,-0.197796 -0.01237,-0.296694 0,-0.27197 0.01237,-0.543941 0.01237,-0.778824 0.01236,-0.16071 -0.01237,-0.32142 -0.01237,-0.482129 v -0.234883 c 0,-0.370868 -0.02473,-2.473497 0.01237,-2.757829 -0.03709,-0.185435 -0.02473,-0.407955 -0.03709,-0.630477 -0.01236,-0.469767 0,-0.939533 0,-1.396937 0,-0.234884 0.04945,-0.469767 -0.0989,-0.618114 -0.135986,-0.04945 -0.32142,-0.01237 -0.445044,0.01237 -0.123622,-0.01237 -0.259607,-0.03709 -0.370867,0 -0.135986,0.111261 -0.111261,0.457404 -0.06181,0.642839 -0.01237,0.06181 0.01237,0.123622 0,0.173071 0,0.08653 -0.01237,0.148347 -0.01237,0.222521 0,0.06182 0.0371,0.135985 0.0371,0.210159 0,0.0371 -0.02473,0.0371 -0.02473,0.07417 0.01237,0.07417 0.02473,0.173072 -0.01237,0.234883 0.04945,0.296695 0.01237,0.630475 0.01237,0.902446 0.01237,0.630477 0.0371,3.153422 0.02473,3.783899 0,0.0989 -0.02473,0.197796 -0.02473,0.296694 l 0.04945,0.420318 c 0.01236,0.445041 -0.02473,0.939533 -0.02473,1.4093 0,0.135985 0.03709,0.27197 0.03709,0.407954 0,0.309058 -0.04945,0.618115 0,0.91481 -0.08654,0.247245 0,0.519216 0,0.778824 0,0.197796 -0.03709,0.370869 0.02473,0.54394 0.111261,0.111259 0.358507,0.07417 0.556303,0.08654 0.160709,0 0.309057,0.04944 0.395592,-0.04945 0.04945,-0.111261 -0.01236,-0.247246 -0.02473,-0.358506 -0.03709,-0.407956 0.01236,-0.840635 0,-1.211503 0,-0.06182 -0.01237,-0.111261 -0.01237,-0.160711 0,-0.0989 0.06181,-0.210158 0.03709,-0.309056 0.04945,-0.04945 0.111261,-0.06181 0.135986,-0.135985 0.04945,-0.07417 0.309058,0.08654 0.346144,0.173071 0.197797,0.123623 0.296695,0.346144 0.457405,0.506854 0.160708,0.16071 0.259608,0.370868 0.420316,0.531579 0.08654,0.07417 0.123624,0.173071 0.197798,0.27197 0.07417,0.08654 0.173071,0.148346 0.210158,0.271968 0.148348,0.173073 0.284333,0.358508 0.469767,0.482131 0.135985,0 0.358506,0.01237 0.494491,0 h 0.135985 c 0.222521,0 0.506854,0.02473 0.482129,-0.197798 z"
         id="path6" />
    </g>
    <g
       id="g9"
       transform="rotate(180,41.725658,0.65289738)">
      <path
         style="font-size:11.2889px;line-height:1;font-family:FuturaRenner;-inkscape-font-specification:FuturaRenner;letter-spacing:0px;word-spacing:0px;fill:#ffffff;stroke-width:0.2;stroke-linecap:square;stroke-dashoffset:3.59055;paint-order:markers fill stroke"
         d="m 48.492358,-9.4073728 c -0.1016,0.04516 -0.191911,0.09031 -0.338667,0.101601 -0.180623,0.1016 -0.338667,0.225778 -0.508001,0.338667 -0.112889,0.1016 -0.2032,0.225778 -0.327378,0.316089 -0.03387,0.1016 -0.112889,0.180622 -0.158044,0.270933 l -0.158045,0.282223 c -0.01129,0.225778 -0.112889,0.349956 -0.146756,0.553156 v 0.316089 c 0.02258,0.07902 0.04516,0.135467 0.03387,0.237067 0.03387,0.07902 0.09031,0.135467 0.07902,0.270934 0.04516,0.05644 0.07902,0.135467 0.124178,0.214489 0.04516,0.225778 0.180623,0.349956 0.282223,0.530578 l 0.3048,0.282223 c 0.146756,0.07902 0.3048,0.146755 0.417689,0.270933 0.112889,0.01129 0.180623,0.04516 0.259645,0.09031 0.135467,0.01129 0.282223,0.02258 0.383823,0.06773 0.124178,-0.02258 0.225778,0.02258 0.338667,0.03387 0.225778,0.01129 0.417689,-0.06773 0.643467,-0.06773 0.06773,-0.06773 0.2032,-0.07902 0.282223,-0.124178 0.01129,-0.01129 0.07902,-0.09031 0.09031,-0.09031 0.02258,-0.01129 -0.1016,-0.530578 -0.146756,-0.609601 -0.02258,-0.09031 -0.112889,-0.169333 -0.146756,-0.169333 -0.03387,0 -0.541867,0.135467 -0.688623,0.158045 -0.07902,0 -0.180622,-0.04516 -0.282222,0 -0.09031,-0.04516 -0.169334,-0.101601 -0.3048,-0.112889 -0.06773,-0.06773 -0.146756,-0.135467 -0.248356,-0.180623 -0.07902,-0.124178 -0.2032,-0.2032 -0.282223,-0.338667 -0.04515,-0.1016 -0.112889,-0.214489 -0.124178,-0.327378 0,-0.03387 0.02258,-0.05645 0.02258,-0.09031 -0.01129,-0.180623 -0.03387,-0.338667 0.01129,-0.485423 0.03387,-0.124178 0.135467,-0.237067 0.146756,-0.349956 0.07902,-0.1016 0.158044,-0.214489 0.248356,-0.3048 0.124178,-0.03387 0.191911,-0.124178 0.3048,-0.158045 0.146756,-0.06773 0.349956,-0.07902 0.541867,-0.09031 0.146756,0.04516 0.225778,0.04516 0.417689,0.135467 0.191912,0.09031 0.688623,0.541867 0.688623,0.541867 0,0 0.180623,0.191911 0.237067,0.316089 0.112889,0.06773 0.124178,0.248356 0.248356,0.304801 0.135467,0.225778 0.338667,0.395111 0.440267,0.654756 0.124178,0.04516 0.158045,0.180622 0.248356,0.248356 0.05645,0.112889 0.135467,0.225778 0.180622,0.3048 0.02258,0.03387 0.03387,0.07902 0.05645,0.1016 0.07902,0.135467 0.191911,0.237067 0.259645,0.372534 0.1016,0.05644 0.09031,0.2032 0.237067,0.2032 0.1016,-0.09031 0.04516,-0.237067 0.03387,-0.372534 -0.01129,-0.327378 0.03387,-0.7112 0,-0.982134 -0.01129,-0.06773 0.04516,-0.06773 0.03387,-0.146756 -0.01129,-0.05644 -0.04516,-0.1016 -0.05645,-0.169333 0.02258,-0.124178 0.04516,-0.304801 0.04516,-0.428979 -0.01129,-0.07902 0,-0.2032 0,-0.327378 0,-0.146755 -0.02258,-0.293511 0.01129,-0.417689 -0.03387,-0.1016 0.01129,-0.282222 -0.05645,-0.361245 0.05645,-0.07902 0.02258,-0.191911 0.02258,-0.282222 0,-0.06773 0.02258,-0.112889 0.02258,-0.180623 -0.01129,-0.158044 -0.04516,-0.327378 -0.05644,-0.496711 -0.01129,-0.158045 -0.05645,-0.428979 -0.05645,-0.428979 0,0 -0.699912,-0.01129 -0.891823,0.124178 -0.02258,0.169334 0.06773,0.349956 0.05644,0.575734 0.02258,0.135467 0.02258,0.383823 0.02258,0.598312 -0.01129,0.05644 0.02258,0.09031 0.03387,0.124178 -0.05645,0.180622 -0.03387,0.383823 -0.02258,0.587023 0.01129,0.09031 0.03387,0.191911 -0.03387,0.237067 -0.06773,-0.04516 -0.135466,-0.07902 -0.146755,-0.180623 -0.1016,-0.1016 -0.180623,-0.225778 -0.225778,-0.395111 -0.09031,-0.06773 -0.169334,-0.158045 -0.248356,-0.248356 -0.05645,-0.112889 -0.158045,-0.191911 -0.191911,-0.316089 -0.05645,-0.04516 -0.112889,-0.09031 -0.169334,-0.124178 -0.04516,-0.04516 -0.05644,-0.135467 -0.135467,-0.146756 -0.124178,-0.07902 -0.293511,-0.112889 -0.395111,-0.214489 -0.112889,0.01129 -0.158045,-0.04516 -0.248356,-0.06773 -0.124178,0.01129 -0.417689,-0.01129 -0.496712,0 z"
         id="path7" />
      <path
         style="font-size:11.2889px;line-height:1;font-family:FuturaRenner;-inkscape-font-specification:FuturaRenner;letter-spacing:0px;word-spacing:0px;fill:#ffffff;stroke-width:0.2;stroke-linecap:square;stroke-dashoffset:3.59055;paint-order:markers fill stroke"
         d="m 47.656979,-3.4806968 c -0.07902,0.07902 -0.169333,0.146755 -0.248356,0.214489 -0.04516,0.09031 -0.1016,0.146756 -0.158044,0.214489 -0.04516,0.09031 -0.124178,0.124178 -0.158045,0.214489 -0.07902,0.112889 -0.1016,0.259645 -0.2032,0.338667 -0.02258,0.124178 -0.06773,0.237067 -0.124178,0.338667 -0.03387,0.191911 -0.03387,0.406401 -0.1016,0.564445 0.01129,0.248356 0.04516,0.462845 0.05645,0.711201 0.03387,0.191911 0.1016,0.349956 0.124177,0.553156 0.05645,0.1016 0.124178,0.191911 0.158045,0.327378 0.124178,0.09031 0.191911,0.248356 0.3048,0.349956 0.03387,0.06773 0.1016,0.112889 0.158045,0.158045 0.04516,0.07902 0.112889,0.112889 0.158045,0.180622 0.146755,0.05644 0.225778,0.180622 0.372533,0.237067 0.05645,0.04516 0.124178,0.06773 0.191912,0.1016 0.07902,0.03387 0.158044,0.04516 0.214489,0.112889 0.135467,0 0.214489,0.04516 0.327378,0.06773 0.191911,0 0.327378,0.04516 0.496711,0.06773 0.225778,0.01129 0.41769,-0.04516 0.587023,0.03387 0.06773,-0.04516 0.2032,-0.03387 0.316089,-0.03387 0.203201,-0.05644 0.361245,-0.158045 0.575734,-0.191912 0.1016,-0.124177 0.282223,-0.169333 0.383823,-0.3048 l 0.395112,-0.316089 c 0.05644,-0.124178 0.158044,-0.2032 0.214489,-0.327378 0.06773,-0.112889 0.158044,-0.2032 0.191911,-0.349956 0.03387,-0.05645 0.09031,-0.06773 0.124178,-0.112889 -0.01129,-0.191911 0.05644,-0.293511 0.09031,-0.440267 -0.02258,-0.135467 0.03387,-0.270934 0.03387,-0.406401 0.01129,-0.124177 -0.02258,-0.259644 -0.03387,-0.372533 0,-0.158045 0.01129,-0.293512 0,-0.428979 -0.01129,-0.191911 -0.1016,-0.361244 -0.124178,-0.519289 -0.06773,-0.05644 -0.07902,-0.158045 -0.135467,-0.214489 -0.05644,-0.06773 -0.1016,-0.158045 -0.135466,-0.248356 -0.101601,-0.1016 -0.180623,-0.237067 -0.282223,-0.361245 -0.124178,-0.07902 -0.237067,-0.169333 -0.316089,-0.293511 -0.09031,-0.03387 -0.180623,-0.07902 -0.214489,-0.169334 -0.169334,0.02258 -0.191912,-0.09031 -0.31609,-0.124177 -0.2032,-0.05645 -0.395111,-0.124178 -0.6096,-0.169334 -0.259645,-0.02258 -0.496712,0.04516 -0.733779,0 -0.01129,0 -0.01129,0 -0.01129,0.01129 -0.259644,0 -0.496711,0.09031 -0.790223,0.112889 -0.2032,0.06773 -0.338667,0.2032 -0.541867,0.259645 z m 3.172181,3.059292 c -0.05644,0.03387 -0.09031,0.09031 -0.124178,0.124178 l -0.07902,0.05644 c -0.01129,0.02258 -0.01129,0.05644 -0.03387,0.06773 -0.07902,0.09031 -0.158044,0.180622 -0.248355,0.237066 -0.05645,0.03387 -0.135467,0.05644 -0.191912,0.09031 -0.06773,0.03387 -0.112889,0.07902 -0.180622,0.1016 -0.225778,0.04516 -0.440267,0.09031 -0.733779,0.07902 -0.1016,-0.02258 -0.158044,-0.07902 -0.282222,-0.07902 -0.07902,-0.05645 -0.169334,-0.1016 -0.282223,-0.124178 -0.05644,-0.05645 -0.124178,-0.09031 -0.214489,-0.124178 -0.03387,-0.06773 -0.112889,-0.09031 -0.146755,-0.158045 -0.146756,-0.135466 -0.248356,-0.316089 -0.383823,-0.462845 -0.03387,-0.146755 -0.135467,-0.237066 -0.2032,-0.349955 0.04516,-0.146756 0,-0.293512 -0.03387,-0.41769 -0.01129,-0.259644 0.01129,-0.496711 0.05644,-0.711201 0.05645,-0.06773 0.135467,-0.124177 0.158045,-0.225778 0.09031,-0.04516 0.135467,-0.135466 0.158045,-0.237066 0.146755,-0.09031 0.259644,-0.21449 0.372533,-0.338667 0.101601,0 0.146756,-0.05645 0.21449,-0.09031 0.09031,-0.01129 0.135466,-0.05644 0.180622,-0.1016 0.169333,0.01129 0.248356,-0.05644 0.361245,-0.09031 0.1016,0.02258 0.191911,-0.02258 0.282222,-0.02258 0.124178,0.01129 0.237067,0.05645 0.372534,0.05645 0.158045,0.09031 0.338667,0.158044 0.519289,0.237067 0.158045,0.124178 0.304801,0.259644 0.440267,0.4064 0.03387,0.135467 0.112889,0.225778 0.180623,0.338667 0.01129,0.112889 0.04516,0.191911 0.06773,0.282223 0.03387,0.09031 0.02258,0.214489 0.05645,0.3048 -0.03387,0.04516 -0.02258,0.124178 -0.05645,0.180622 0,0.06773 0.03387,0.1016 0.03387,0.169334 -0.03387,0.07902 -0.02258,0.2032 -0.04516,0.293511 z"
         id="path8" />
      <path
         style="font-size:11.2889px;line-height:1;font-family:FuturaRenner;-inkscape-font-specification:FuturaRenner;letter-spacing:0px;word-spacing:0px;fill:#ffffff;stroke-width:0.219016;stroke-linecap:square;stroke-dashoffset:3.59055;paint-order:markers fill stroke"
         d="m 46.482148,0.9735052 c -0.148348,-0.135985 -0.27197,-0.346144 -0.407956,-0.457405 -0.01237,0 -0.04945,0 -0.06182,-0.01237 -0.01236,-0.01237 -0.01236,-0.04944 -0.01236,-0.06181 -0.04945,-0.04945 -0.0989,-0.08654 -0.123623,-0.135986 -0.123623,-0.08653 -0.160709,-0.259608 -0.296694,-0.33378 -0.08654,-0.123623 -0.185435,-0.222523 -0.27197,-0.370869 -0.309058,-0.309058 -0.581027,-0.667563 -0.890085,-0.988982 -0.07417,-0.148348 -0.22252,-0.21016 -0.259608,-0.395594 0.02473,-0.148347 0.197797,-0.160709 0.197797,-0.32142 0.135986,0.02473 0.148347,-0.06181 0.210158,-0.0989 0.06181,-0.06181 0.135986,-0.0989 0.197797,-0.135986 0.173072,-0.222521 0.395593,-0.395593 0.59339,-0.593388 0.0371,-0.04945 0.08654,-0.0989 0.148347,-0.135986 0.08653,-0.01237 0.08653,-0.0989 0.160709,-0.135985 0.123624,-0.06181 0.197798,-0.185434 0.284333,-0.284333 0.148348,-0.08654 0.358507,-0.185434 0.296694,-0.407955 -0.01236,-0.08654 -0.160708,-0.03709 -0.210158,-0.08654 -0.111261,-0.01237 -0.148348,0.04945 -0.234883,0.06182 -0.247245,-0.01237 -0.445042,-0.02473 -0.70465,-0.02473 -0.210159,0.0989 -0.309058,0.309057 -0.482129,0.432681 -0.03709,0.11126 -0.148347,0.148346 -0.222522,0.234883 -0.08653,0.06181 -0.123623,0.173071 -0.234883,0.234883 l -0.445043,0.469776 c -0.148348,0.148348 -0.259608,0.383231 -0.543941,0.383231 -0.0989,-0.148348 -0.02473,-0.346144 -0.02473,-0.519216 0,-0.0989 -0.01237,-0.197796 -0.01237,-0.296694 0,-0.27197 0.01237,-0.543941 0.01237,-0.778824 0.01236,-0.16071 -0.01237,-0.32142 -0.01237,-0.482129 v -0.234883 c 0,-0.370868 -0.02473,-2.473497 0.01237,-2.757829 -0.03709,-0.185435 -0.02473,-0.407955 -0.03709,-0.630477 -0.01236,-0.469767 0,-0.939533 0,-1.396937 0,-0.234884 0.04945,-0.469767 -0.0989,-0.618114 -0.135986,-0.04945 -0.32142,-0.01237 -0.445044,0.01237 -0.123622,-0.01237 -0.259607,-0.03709 -0.370867,0 -0.135986,0.111261 -0.111261,0.457404 -0.06181,0.642839 -0.01237,0.06181 0.01237,0.123622 0,0.173071 0,0.08653 -0.01237,0.148347 -0.01237,0.222521 0,0.06182 0.0371,0.135985 0.0371,0.210159 0,0.0371 -0.02473,0.0371 -0.02473,0.07417 0.01237,0.07417 0.02473,0.173072 -0.01237,0.234883 0.04945,0.296695 0.01237,0.630475 0.01237,0.902446 0.01237,0.630477 0.0371,3.153422 0.02473,3.783899 0,0.0989 -0.02473,0.197796 -0.02473,0.296694 l 0.04945,0.420318 c 0.01236,0.445041 -0.02473,0.939533 -0.02473,1.4093 0,0.135985 0.03709,0.27197 0.03709,0.407954 0,0.309058 -0.04945,0.618115 0,0.91481 -0.08654,0.247245 0,0.519216 0,0.778824 0,0.197796 -0.03709,0.370869 0.02473,0.54394 0.111261,0.111259 0.358507,0.07417 0.556303,0.08654 0.160709,0 0.309057,0.04944 0.395592,-0.04945 0.04945,-0.111261 -0.01236,-0.247246 -0.02473,-0.358506 -0.03709,-0.407956 0.01236,-0.840635 0,-1.211503 0,-0.06182 -0.01237,-0.111261 -0.01237,-0.160711 0,-0.0989 0.06181,-0.210158 0.03709,-0.309056 0.04945,-0.04945 0.111261,-0.06181 0.135986,-0.135985 0.04945,-0.07417 0.309058,0.08654 0.346144,0.173071 0.197797,0.123623 0.296695,0.346144 0.457405,0.506854 0.160708,0.16071 0.259608,0.370868 0.420316,0.531579 0.08654,0.07417 0.123624,0.173071 0.197798,0.27197 0.07417,0.08654 0.173071,0.148346 0.210158,0.271968 0.148348,0.173073 0.284333,0.358508 0.469767,0.482131 0.135985,0 0.358506,0.01237 0.494491,0 h 0.135985 c 0.222521,0 0.506854,0.02473 0.482129,-0.197798 z"
         id="path9" />
    </g>
  </g>
</svg>
